<?xml version="1.0" standalone="no"?><!DOCTYPE svg PUBLIC "-//W3C//DTD SVG 1.1//EN" "http://www.w3.org/Graphics/SVG/1.1/DTD/svg11.dtd"><svg t="1606877332030" class="icon" viewBox="0 0 1024 1024" version="1.1" xmlns="http://www.w3.org/2000/svg" p-id="1876" xmlns:xlink="http://www.w3.org/1999/xlink" width="200" height="200"><defs><style type="text/css"></style></defs><path d="M926.8 885.44c0 44.96-170.8 78.48-381.36 78.48s-381.36-33.52-381.36-78.48 170.72-81.52 381.36-81.52 381.36 36.48 381.36 81.52z" fill="#B8CBCD" p-id="1877"></path><path d="M393.12 821.04a140.96 140.96 0 1 1 0-199.36 140.96 140.96 0 0 1 0 199.36z" fill="#FFFFFF" p-id="1878"></path><path d="M293.44 886.32a164.96 164.96 0 1 1 116.64-48 163.92 163.92 0 0 1-116.64 48z m0-282A117.04 117.04 0 1 0 376 638.64a116.24 116.24 0 0 0-82.56-34.32z" fill="#783741" p-id="1879"></path><path d="M190.4 736.96a126.16 126.16 0 0 1-42.24-7.28 16 16 0 0 1-10.56-14.56v-1.36a16 16 0 0 1 26.56-12.56 93.52 93.52 0 0 0 92.32-23.36c25.76-25.76 33.2-55.28 22.24-88a16 16 0 1 1 30.24-10.32c15.04 44.4 4.72 86.16-29.84 120.72a125.44 125.44 0 0 1-88.72 36.72zM304 875.44a16 16 0 0 1-15.44-11.44 125.36 125.36 0 0 1 32-121.44c33.76-33.84 74.64-44.48 118.08-30.8a16 16 0 1 1-9.6 30.56c-32-10.16-60.32-2.72-85.84 22.88a93.2 93.2 0 0 0-24 90.4 16 16 0 0 1-11.28 19.6 16 16 0 0 1-3.92 0.24z" fill="#783741" p-id="1880"></path><path d="M190.32 73.36a87.12 87.12 0 0 0-40.8 22c-19.44 19.04-26.8 45.6-25.92 75.68A123.28 123.28 0 0 0 168 261.2l635.84 563.44-24 24a45.36 45.36 0 0 0 0 64c14.88 14.88 74.64-20.72 116-62.16s76.8-100.88 61.92-115.76a45.2 45.2 0 0 0-64 0l-16 16L312 115.12a122 122 0 0 0-121.68-41.76z" fill="#F7BB83" p-id="1881"></path><path d="M790.24 939.92a37.12 37.12 0 0 1-27.2-10.48 69.44 69.44 0 0 1 0-97.84l5.92-5.92L152 279.2a147.2 147.2 0 0 1-52.64-107.52c-0.96-39.36 10.24-70.88 33.44-93.52a110.64 110.64 0 0 1 51.76-28.08 134.32 134.32 0 0 1 32.96-4.08 150.16 150.16 0 0 1 112.72 53.6l548.96 616a69.36 69.36 0 0 1 96 2.08c23.52 23.52 1.44 63.44-5.84 76.56a348.96 348.96 0 0 1-56 73.12c-29.52 29.12-86.32 72.56-123.12 72.56z m0-48zM217.52 94a86.16 86.16 0 0 0-21.28 2.64 64 64 0 0 0-29.92 16c-13.2 12.88-19.52 32-18.72 57.84A99.52 99.52 0 0 0 184 242.88l636.32 563.76a24 24 0 0 1 1.04 34.96l-24 24a21.04 21.04 0 0 0-6.08 14.96 20.4 20.4 0 0 0 2.96 10.88c15.28-3.44 52.96-25.76 85.2-58.08 33.44-33.44 54.56-70.72 57.92-84.96a21.76 21.76 0 0 0-25.92 3.12l-16 16a24 24 0 0 1-34.96-0.96L294 131.12a101.76 101.76 0 0 0-76.48-37.12z" fill="#6E4123" p-id="1882"></path><path d="M148.24 259.12a24 24 0 0 1-22.96-17.2c-16-53.84 0-100 47.28-137.28a110.8 110.8 0 0 1 54.48-22.32c50.32-7.04 100.96 14.48 141.84 60.64a24 24 0 1 1-35.84 32c-17.44-19.52-53.6-51.44-99.44-45.04a63.52 63.52 0 0 0-31.36 12.48c-22.64 17.6-44.08 41.6-30.96 85.84a24 24 0 0 1-16 29.84 23.2 23.2 0 0 1-7.04 1.04zM517.04 570.4c11.52 11.52 46.08-4.48 74.08-32.48s43.52-62.16 32-73.6l62.64 71.2c11.44 11.44-1.92 39.2-29.92 67.2s-56 41.36-67.2 29.84z" fill="#FFFFFF" p-id="1883"></path><path d="M600 652.72a30.8 30.8 0 0 1-21.84-8L508.08 584a29.68 29.68 0 0 1-2.32-2.16 16 16 0 0 1 21.6-23.52H528c8.4 0 30.16-9.76 51.92-31.52 24-24 32-46.16 31.12-51.92a16 16 0 0 1 23.52-21.68 24 24 0 0 1 1.92 2.08l61.2 69.52c6 6.32 13.92 20.24 2.64 44.88a161.04 161.04 0 0 1-32.96 44.48c-14.56 14.32-42.56 38.56-67.36 38.56z m0-32c7.52 0 24.72-9.2 44.88-29.36 24-24 29.92-40 29.28-45.12l-37.92-43.04a180.56 180.56 0 0 1-80 80l43.36 37.6z" fill="#6E4123" p-id="1884"></path><path d="M655.04 692.64c11.52 11.52 38.24 3.36 66.24-24.64s35.92-54.56 24.48-66.08l63.04 70.8c11.52 11.52 5.2 32-22.8 60.08s-48.48 34.24-60 22.72z" fill="#FFFFFF" p-id="1885"></path><path d="M739.44 776.96a34.08 34.08 0 0 1-24-9.76l-68.96-61.04-2.4-2.16a16 16 0 0 1 21.92-23.28l0.8 0.64a4.88 4.88 0 0 0 2.16 0c7.52 0 22.88-6.56 41.28-24.96 24-24 26.16-40.56 24.64-43.28l-0.72-0.88a16 16 0 0 1 23.2-21.92 29.68 29.68 0 0 1 2.16 2.32l61.28 68.88a36.4 36.4 0 0 1 6.8 40A122.88 122.88 0 0 1 797.36 744c-22.08 22.24-41.04 32.96-57.92 32.96z m-44.16-70l41.36 36.56 0.72 0.72a2.32 2.32 0 0 0 2.08 0.72c1.92 0 12.96-1.12 35.28-23.44a91.12 91.12 0 0 0 22.48-30.4c1.28-3.6 1.36-6 0-7.04l-0.64-0.72L760 642a155.12 155.12 0 0 1-64.72 64.96z" fill="#6E4123" p-id="1886"></path><path d="M790.24 939.92a37.12 37.12 0 0 1-27.2-10.48 69.44 69.44 0 0 1 0-97.84l5.92-5.92L152 279.2a147.2 147.2 0 0 1-52.64-107.52c-0.96-39.36 10.24-70.88 33.44-93.52a110.64 110.64 0 0 1 51.76-28.08 134.32 134.32 0 0 1 32.96-4.08 150.16 150.16 0 0 1 112.72 53.6l548.96 616a69.36 69.36 0 0 1 96 2.08c23.52 23.52 1.44 63.44-5.84 76.56a348.96 348.96 0 0 1-56 73.12c-29.52 29.12-86.32 72.56-123.12 72.56z m0-48zM217.52 94a86.16 86.16 0 0 0-21.28 2.64 64 64 0 0 0-29.92 16c-13.2 12.88-19.52 32-18.72 57.84A99.52 99.52 0 0 0 184 242.88l636.32 563.76a24 24 0 0 1 1.04 34.96l-24 24a21.04 21.04 0 0 0-6.08 14.96 20.4 20.4 0 0 0 2.96 10.88c15.28-3.44 52.96-25.76 85.2-58.08 33.44-33.44 54.56-70.72 57.92-84.96a21.76 21.76 0 0 0-25.92 3.12l-16 16a24 24 0 0 1-34.96-0.96L294 131.12a101.76 101.76 0 0 0-76.48-37.12z" fill="#6E4123" p-id="1887"></path></svg>