<?xml version="1.0" standalone="no"?><!DOCTYPE svg PUBLIC "-//W3C//DTD SVG 1.1//EN" "http://www.w3.org/Graphics/SVG/1.1/DTD/svg11.dtd"><svg t="1606877328926" class="icon" viewBox="0 0 1024 1024" version="1.1" xmlns="http://www.w3.org/2000/svg" p-id="1711" xmlns:xlink="http://www.w3.org/1999/xlink" width="200" height="200"><defs><style type="text/css"></style></defs><path d="M907.76 796.16c0 45.04-172.72 78.48-383.36 78.48s-379.36-33.44-379.36-78.48S315.76 714.64 526.4 714.64s381.36 36.56 381.36 81.52z" fill="#B8CBCD" p-id="1712"></path><path d="M220.4 658.64m-176 0a176 176 0 1 0 352 0 176 176 0 1 0-352 0Z" fill="#B2EDA6" p-id="1713"></path><path d="M220.4 858.64a200 200 0 1 1 200-200 200 200 0 0 1-200 200z m0-352a152 152 0 1 0 152 152 152 152 0 0 0-152-152z" fill="#3C663E" p-id="1714"></path><path d="M220.4 810.64a192 192 0 0 1-192-192 16 16 0 0 1 32 0 160 160 0 0 0 320 0 16 16 0 0 1 32 0 192 192 0 0 1-192 192z" fill="#3C663E" opacity=".2" p-id="1715"></path><path d="M796.4 658.64m-176 0a176 176 0 1 0 352 0 176 176 0 1 0-352 0Z" fill="#B2EDA6" p-id="1716"></path><path d="M796.4 858.64a200 200 0 1 1 200-200 200 200 0 0 1-200 200z m0-352a152 152 0 1 0 152 152 152 152 0 0 0-152-152zM500.4 690.64h-288A24 24 0 0 1 192 654.32l168-280a24 24 0 0 1 20.56-11.68h288a24 24 0 0 1 20.56 36.4l-168 280a24 24 0 0 1-20.72 11.6z m-245.6-48h232l139.2-232h-232z" fill="#3C663E" p-id="1717"></path><path d="M500.4 690.72a24 24 0 0 1-22-14.4l-168-384a24 24 0 0 1 44-19.28l168 384a24 24 0 0 1-22 33.68z" fill="#3C663E" p-id="1718"></path><path d="M220.4 210.64c0-17.6 44.8-32 100-32s148 14.4 148 32v56c0 17.68-92.8 32-148 32s-100-14.32-100-32z" fill="#B2EDA6" p-id="1719"></path><path d="M320.4 322.64c-57.2 0-124-14.64-124-56v-56c0-41.28 66.8-56 124-56a571.68 571.68 0 0 1 99.28 9.84c37.76 7.28 72.72 17.92 72.72 46.16v56c0 28.32-34.96 38.96-72.72 46.24a579.36 579.36 0 0 1-99.28 9.76z m-76-61.44c8.8 5.52 35.68 13.44 76 13.44 45.28 0 104-9.6 124-17.76v-36.4c-19.76-8-78.72-17.84-124-17.84-40 0-67.2 8-76 13.52z" fill="#3C663E" p-id="1720"></path><path d="M320.4 258.64c-57.76 0-116-14.8-116-48a16 16 0 0 1 32-1.6c4.88 5.6 33.84 17.6 84.08 17.6 52.8 0 119.28-12 132.88-21.2a16 16 0 0 1 31.12 5.2c-0.08 46-162.4 48-164.08 48zM796.4 682.64c-98.72 0-152-197.84-152-384a24 24 0 0 1 24-24h152c25.76 0 64 19.2 64 72a60.08 60.08 0 0 1-17.84 45.36c-21.92 21.04-55.04 19.68-72.88 18.96h-5.28a24 24 0 0 1 0-48h7.28c9.2 0 30.56 1.28 37.68-5.6 0.72-0.72 3.04-2.88 3.04-10.64 0-22.24-12.24-24-16-24h-128c4.4 194 62.24 312 104 312a24 24 0 0 1 0 48z" fill="#3C663E" p-id="1721"></path><path d="M508.4 650.64m-56 0a56 56 0 1 0 112 0 56 56 0 1 0-112 0Z" fill="#B2EDA6" p-id="1722"></path><path d="M508.4 730.64a80 80 0 1 1 80-80 80 80 0 0 1-80 80z m0-112a32 32 0 1 0 32 32 32 32 0 0 0-32-32z" fill="#3C663E" p-id="1723"></path><path d="M508.4 810.64a24 24 0 0 1-24-24v-80a24 24 0 0 1 48 0v80a24 24 0 0 1-24 24z" fill="#3C663E" p-id="1724"></path><path d="M548.4 810.64h-80a24 24 0 0 1 0-48h80a24 24 0 0 1 0 48z" fill="#3C663E" p-id="1725"></path><path d="M796.4 810.64a192 192 0 0 1-192-192 16 16 0 0 1 32 0 160 160 0 0 0 320 0 16 16 0 0 1 32 0 192 192 0 0 1-192 192z" fill="#3C663E" opacity=".2" p-id="1726"></path></svg>