<?xml version="1.0" standalone="no"?><!DOCTYPE svg PUBLIC "-//W3C//DTD SVG 1.1//EN" "http://www.w3.org/Graphics/SVG/1.1/DTD/svg11.dtd"><svg t="1606877323476" class="icon" viewBox="0 0 1024 1024" version="1.1" xmlns="http://www.w3.org/2000/svg" p-id="1528" xmlns:xlink="http://www.w3.org/1999/xlink" width="200" height="200"><defs><style type="text/css"></style></defs><path d="M904.4 916.8c0 45.04-170.72 81.52-381.36 81.52s-381.28-36.48-381.28-81.52 170.72-81.44 381.28-81.44 381.36 36.64 381.36 81.44z" fill="#B8CBCD" p-id="1529"></path><path d="M646.16 316.72c-21.28-38.56-56.56-38.8-78.48-0.72l-320 557.28c-21.92 38.16-3.84 69.36 40 69.36h624c44 0 62.64-31.52 41.36-70z" fill="#F7BB83" p-id="1530"></path><path d="M911.52 966.64h-624c-29.76 0-53.68-11.76-65.6-32s-10.16-47.12 4.64-72.96L546.88 304c14.72-25.6 36.64-40 60-40s45.76 15.12 60.32 41.52l306.72 555.92c14.32 26 15.52 52.72 3.44 73.28s-36.16 31.92-65.84 31.92zM606.88 312c-5.52 0-12.64 6.32-18.4 16l-320 557.28c-5.92 10.4-8 19.76-4.64 24.96s12 8 24 8h624c12.08 0 21.2-3.28 24.48-8.72s1.68-15.12-4.16-25.68L625.12 328c-5.68-10-12.64-16-18.24-16z" fill="#6E4123" p-id="1531"></path><path d="M603.52 458.64m-52 0a52 52 0 1 0 104 0 52 52 0 1 0-104 0Z" fill="#FFFFFF" p-id="1532"></path><path d="M603.52 526.64a68 68 0 1 1 68-68 68.08 68.08 0 0 1-68 68z m0-104a36 36 0 1 0 36 36 36.08 36.08 0 0 0-36-36z" fill="#6E4123" p-id="1533"></path><path d="M531.52 586.64m-52 0a52 52 0 1 0 104 0 52 52 0 1 0-104 0Z" fill="#B2EDA6" p-id="1534"></path><path d="M531.52 654.64a68 68 0 1 1 68-68 68.08 68.08 0 0 1-68 68z m0-104a36 36 0 1 0 36 36 36.08 36.08 0 0 0-36-36z" fill="#6E4123" p-id="1535"></path><path d="M675.52 586.64m-52 0a52 52 0 1 0 104 0 52 52 0 1 0-104 0Z" fill="#B2EDA6" p-id="1536"></path><path d="M675.52 654.64a68 68 0 1 1 68-68 68.08 68.08 0 0 1-68 68z m0-104a36 36 0 1 0 36 36 36.08 36.08 0 0 0-36-36z" fill="#6E4123" p-id="1537"></path><path d="M459.52 714.64m-52 0a52 52 0 1 0 104 0 52 52 0 1 0-104 0Z" fill="#FFBAB0" p-id="1538"></path><path d="M459.52 782.64a68 68 0 1 1 68-68 68.08 68.08 0 0 1-68 68z m0-104a36 36 0 1 0 36 36 36.08 36.08 0 0 0-36-36z" fill="#6E4123" p-id="1539"></path><path d="M603.52 714.64m-52 0a52 52 0 1 0 104 0 52 52 0 1 0-104 0Z" fill="#FFBAB0" p-id="1540"></path><path d="M603.52 782.64a68 68 0 1 1 68-68 68.08 68.08 0 0 1-68 68z m0-104a36 36 0 1 0 36 36 36.08 36.08 0 0 0-36-36z" fill="#6E4123" p-id="1541"></path><path d="M747.52 714.64m-52 0a52 52 0 1 0 104 0 52 52 0 1 0-104 0Z" fill="#FFBAB0" p-id="1542"></path><path d="M747.52 782.64a68 68 0 1 1 68-68 68.08 68.08 0 0 1-68 68z m0-104a36 36 0 1 0 36 36 36.08 36.08 0 0 0-36-36z" fill="#6E4123" p-id="1543"></path><path d="M387.52 842.64m-52 0a52 52 0 1 0 104 0 52 52 0 1 0-104 0Z" fill="#F6E89A" p-id="1544"></path><path d="M387.52 910.64a68 68 0 1 1 68-68 68.08 68.08 0 0 1-68 68z m0-104a36 36 0 1 0 36 36 36.08 36.08 0 0 0-36-36z" fill="#6E4123" p-id="1545"></path><path d="M531.52 842.64m-52 0a52 52 0 1 0 104 0 52 52 0 1 0-104 0Z" fill="#F6E89A" p-id="1546"></path><path d="M531.52 910.64a68 68 0 1 1 68-68 68.08 68.08 0 0 1-68 68z m0-104a36 36 0 1 0 36 36 36.08 36.08 0 0 0-36-36z" fill="#6E4123" p-id="1547"></path><path d="M675.52 842.64m-52 0a52 52 0 1 0 104 0 52 52 0 1 0-104 0Z" fill="#F6E89A" p-id="1548"></path><path d="M675.52 910.64a68 68 0 1 1 68-68 68.08 68.08 0 0 1-68 68z m0-104a36 36 0 1 0 36 36 36.08 36.08 0 0 0-36-36z" fill="#6E4123" p-id="1549"></path><path d="M815.52 842.64m-52 0a52 52 0 1 0 104 0 52 52 0 1 0-104 0Z" fill="#F6E89A" p-id="1550"></path><path d="M815.52 910.64a68 68 0 1 1 68-68 68.08 68.08 0 0 1-68 68z m0-104a36 36 0 1 0 36 36 36.08 36.08 0 0 0-36-36z" fill="#6E4123" p-id="1551"></path><path d="M62.784 807.704l102-172 84.48 50.104-102 172z" fill="#F7BB83" p-id="1552"></path><path d="M146.72 883.12a23.52 23.52 0 0 1-12.24-3.36l-84.48-50.24a24 24 0 0 1-10.96-14.72 24 24 0 0 1 2.64-18.16L144 624.8a24 24 0 0 1 14.72-11.04 24.4 24.4 0 0 1 18.16 2.64l84.48 50.32a24 24 0 0 1 8 32.88l-102 171.84a24 24 0 0 1-20.64 11.68z m-51.52-82.56l43.2 25.68L216 696l-43.2-25.76z" fill="#6E4123" p-id="1553"></path><path d="M62.784 807.704l102-172 84.48 50.104-102 172z" fill="#F7BB83" p-id="1554"></path><path d="M146.72 883.12a23.52 23.52 0 0 1-12.24-3.36l-84.48-50.24a24 24 0 0 1-10.96-14.72 24 24 0 0 1 2.64-18.16L144 624.8a24 24 0 0 1 14.72-11.04 24.4 24.4 0 0 1 18.16 2.64l84.48 50.32a24 24 0 0 1 8 32.88l-102 171.84a24 24 0 0 1-20.64 11.68z m-51.52-82.56l43.2 25.68L216 696l-43.2-25.76z" fill="#6E4123" p-id="1555"></path><path d="M249.04 687.28l-102.32 171.84-84.4-50.24 102.32-171.84" fill="#F7BB83" p-id="1556"></path><path d="M146.72 883.12a23.52 23.52 0 0 1-12.24-3.36l-84.48-50.24a24 24 0 0 1-10.96-14.72 24 24 0 0 1 2.64-18.16L144 624.8a24 24 0 1 1 41.28 24.56l-90.08 151.2 43.2 25.68 90-151.2a24 24 0 0 1 41.28 24.56l-102.32 171.84a24 24 0 0 1-20.64 11.68z" fill="#6E4123" p-id="1557"></path><path d="M178.16 645.12L528.72 53.68l57.12 34-350.56 591.44" fill="#F7BB83" p-id="1558"></path><path d="M235.28 703.12a23.52 23.52 0 0 1-12.24-3.36 24 24 0 0 1-8.4-32.88L552.96 96l-16-9.52-338.16 570.88a24 24 0 0 1-41.28-24.48L508.08 41.44a24 24 0 0 1 32.88-8l57.2 34a24 24 0 0 1 8 32.88L256 691.36a24 24 0 0 1-20.72 11.76z" fill="#6E4123" p-id="1559"></path><path d="M483.664 129.312l45.016-75.616 57.2 34.056-45.024 75.608z" fill="#F6E89A" p-id="1560"></path><path d="M540.8 179.28a16 16 0 0 1-8-2.24l-57.2-34a16.4 16.4 0 0 1-7.28-9.84 16 16 0 0 1 1.76-12.16l45.04-75.6A16 16 0 0 1 536.88 40l57.12 34A16 16 0 0 1 600 96l-45.04 75.68a16 16 0 0 1-13.76 8z m-35.2-55.6l29.68 17.68 28.64-48-29.68-17.76zM236.96 707.04a16 16 0 0 1-8.48-2.48l-68-43.04a16 16 0 1 1 17.12-27.04l68 43.04a16 16 0 0 1-8.64 29.52z" fill="#6E4123" p-id="1561"></path></svg>