<?xml version="1.0" standalone="no"?><!DOCTYPE svg PUBLIC "-//W3C//DTD SVG 1.1//EN" "http://www.w3.org/Graphics/SVG/1.1/DTD/svg11.dtd"><svg t="1606877334766" class="icon" viewBox="0 0 1024 1024" version="1.1" xmlns="http://www.w3.org/2000/svg" p-id="2033" xmlns:xlink="http://www.w3.org/1999/xlink" width="200" height="200"><defs><style type="text/css"></style></defs><path d="M900.4 913.2c0 44.96-170.72 81.44-381.36 81.44s-381.28-36.48-381.28-81.44S308.48 832 519.04 832s381.36 36.16 381.36 81.2z" fill="#B8CBCD" p-id="2034"></path><path d="M339.68 118.96c-36.96 0-59.52 32-59.52 81.68 0 53.04 12.24 71.36 12.24 154 0 112-67.68 142.56-67.68 256.72 0 87.12 18.4 145.12 53.44 244.4 2.48 12.8 16 21.52 61.52 21.52h1.44c45.84 0 59.04-8.72 61.52-21.52C437.68 756.48 456 698.48 456 611.36c0-114.16-74.8-146.48-74.8-258.8 0-82.64 15.12-96.8 15.12-149.92 0-49.6-18.32-83.68-55.28-83.68z" fill="#F7BB83" p-id="2035"></path><path d="M341.12 893.28h-0.96c-34.96 0-70.8-4-77.44-33.2-34.48-97.76-54-157.84-54-248.72 0-60.88 18.08-99.2 35.6-136 16.48-34.96 32-68 32-120.4a568.56 568.56 0 0 0-6.96-92.8 388.64 388.64 0 0 1-5.36-61.52c0-59.36 29.6-97.68 75.52-97.68h1.44c44.64 0 71.28 37.28 71.28 99.68a296 296 0 0 1-6.56 60.16 424.4 424.4 0 0 0-8.56 89.76c0 52.08 17.2 85.52 35.44 120.96C452.08 511.2 472 550.16 472 611.36c0 90.88-19.52 150.96-54 248.72-6.56 29.2-42.48 33.2-76.88 33.2z m-0.48-32l0.48 16v-16c34.8 0 45.2-5.36 45.76-8.56a19.6 19.6 0 0 1 0.64-2.32C421.12 755.36 440 697.36 440 611.36c0-53.44-17.44-87.36-35.84-123.2-19.12-37.28-38.96-75.84-38.96-136a452 452 0 0 1 9.12-96 267.6 267.6 0 0 0 6-54.32c0-20.32-3.84-67.68-39.28-67.68h-1.44c-40.4 0-43.52 50.24-43.52 65.68a352 352 0 0 0 4.96 56.64 604.56 604.56 0 0 1 7.28 97.36c0 59.52-17.84 97.44-35.2 134.08-16.72 35.44-32.48 68.88-32.48 122.64 0 86 18.96 144 52.56 239.04a19.6 19.6 0 0 1 0.64 2.32c0.56 3.2 10.96 8.56 45.76 8.56z" fill="#6E4123" p-id="2036"></path><path d="M300.4 306.64h80v80h-80z" fill="#FFFFFF" p-id="2037"></path><path d="M380.4 402.64h-80a16 16 0 0 1-16-16v-80a16 16 0 0 1 16-16h80a16 16 0 0 1 16 16v80a16 16 0 0 1-16 16z m-64-32h48v-48h-48z" fill="#6E4123" p-id="2038"></path><path d="M383.12 878.96a16 16 0 0 1-5.36-0.96A16 16 0 0 1 368 857.6c33.6-95.12 52.56-153.04 52.56-239.12 0-53.36-17.44-87.28-35.84-123.12-19.12-37.28-38.96-75.84-38.96-136a371.6 371.6 0 0 1 11.76-97.52 217.76 217.76 0 0 0 8-54.48c0-38-21.84-65.6-52-65.6a16 16 0 0 1 0-32c48 0 84 41.92 84 97.6a244.32 244.32 0 0 1-8.48 61.76A341.04 341.04 0 0 0 377.76 360c0 52.08 17.2 85.52 35.44 120.96 19.36 37.68 39.36 76.64 39.36 137.76 0 91.28-19.68 151.36-54.4 249.76a16 16 0 0 1-15.04 10.48z" fill="#6E4123" opacity=".2" p-id="2039"></path><path d="M688.56 118.96c-37.04 0-59.6 32-59.6 81.68 0 53.04 15.44 71.36 15.44 154 0 112-70.88 142.56-70.88 256.72 0 87.12 18.48 145.12 53.52 244.4 2.4 12.8 16 21.52 61.52 21.52h1.36c45.92 0 59.04-8.72 61.52-21.52 35.04-99.28 53.44-157.28 53.44-244.4 0-114.16-72.48-144.4-72.48-256.72 0-82.64 17.12-100.96 17.12-154 0-49.68-22.56-81.68-59.6-81.68z" fill="#F7BB83" p-id="2040"></path><path d="M689.92 893.28h-0.96c-34.88 0-70.72-4-77.36-33.2-34.56-97.76-54.08-157.84-54.08-248.72 0-61.04 18.96-99.44 37.36-136.56 17.2-34.96 33.52-67.92 33.52-120a453.68 453.68 0 0 0-8.72-92.4 314.08 314.08 0 0 1-6.72-61.76c0-59.36 29.68-97.68 75.6-97.68h1.36c45.92 0 75.6 38.32 75.6 97.68a285.6 285.6 0 0 1-7.44 62.08 405.76 405.76 0 0 0-9.68 91.92c0 52.16 16.72 85.12 34.32 120 18.8 37.12 38.16 75.52 38.16 136.64 0 90.88-19.52 150.96-54 248.72-6.88 29.28-42.56 33.28-76.96 33.28z m-0.48-32v16-16c34.88 0 45.2-5.36 45.84-8.56a11.04 11.04 0 0 1 0.64-2.32c33.52-95.04 52.48-153.04 52.48-239.04 0-53.52-16.88-86.88-34.72-122.24-17.68-36.72-37.28-74.72-37.28-134.48a432 432 0 0 1 10.32-98.24 260.72 260.72 0 0 0 6.8-56c0-15.44-3.12-65.68-43.6-65.68h-1.36c-40.48 0-43.6 50.24-43.6 65.68a288 288 0 0 0 6.16 56 474.32 474.32 0 0 1 9.28 97.92c0 59.68-18.72 97.68-36.88 134.32s-34 68.8-34 122.4c0 86 19.04 144 52.56 239.04a11.04 11.04 0 0 1 0.64 2.32c0.64 3.2 10.96 8.56 45.84 8.56z" fill="#6E4123" p-id="2041"></path><path d="M652.4 306.64h80v80h-80z" fill="#FFFFFF" p-id="2042"></path><path d="M732.4 402.64h-80a16 16 0 0 1-16-16v-80a16 16 0 0 1 16-16h80a16 16 0 0 1 16 16v80a16 16 0 0 1-16 16z m-64-32h48v-48h-48z" fill="#6E4123" p-id="2043"></path><path d="M731.92 878.96a15.36 15.36 0 0 1-5.28-0.96 16 16 0 0 1-9.76-20.4c33.52-95.12 52.48-153.04 52.48-239.12 0-53.36-17.36-87.28-35.84-123.12-19.12-37.28-38.88-75.84-38.88-136a372.32 372.32 0 0 1 11.68-97.52 217.6 217.6 0 0 0 8-54.48c0-38-21.92-65.6-52.08-65.6a16 16 0 0 1 0-32c48 0 84.08 41.92 84.08 97.6a244 244 0 0 1-8.56 61.76A345.2 345.2 0 0 0 726.64 360c0 52.08 17.2 85.52 35.36 120.96 19.36 37.68 39.36 76.64 39.36 137.76 0 91.28-19.6 151.36-54.32 249.76a16 16 0 0 1-15.12 10.48z" fill="#6E4123" opacity=".2" p-id="2044"></path><path d="M511.36 58.64c-41.12 0-66.24 35.68-66.24 90.88 0 59.12 15.28 73.12 15.28 165.12 0 125.04-76.96 165.04-76.96 292 0 97.04 20.48 161.52 59.44 272 2.8 14.32 17.44 24 68.48 24h1.6c51.04 0 65.68-9.68 68.48-24 38.96-110.64 59.44-174.64 59.44-272C640.88 480 556.4 440 556.4 314.64c0-92 22.88-106 22.88-165.12 0-55.2-25.2-90.88-66.32-90.88z" fill="#F7BB83" p-id="2045"></path><path d="M512.96 918.64h-1.6c-37.6 0-76.8-4.24-83.92-35.6-38.32-108.72-60-175.44-60-276.4 0-67.28 20.4-111.36 40-153.92 18.96-40.8 36.8-79.36 36.8-138.08a509.76 509.76 0 0 0-8.64-99.36 341.36 341.36 0 0 1-6.64-65.76c0-64.88 32-106.88 82.24-106.88h1.6c50 0 82.32 42 82.32 106.88a238.8 238.8 0 0 1-10.08 67.04 334.88 334.88 0 0 0-12.8 98.08c0 58.48 19.6 96.88 40 137.52 21.76 42.72 44.24 86.96 44.24 154.48 0 100.96-21.68 168-60 276.4-6.72 31.36-45.92 35.6-83.52 35.6z m-0.4-32v16-16c37.28 0 51.68-5.68 52.72-10.96a19.6 19.6 0 0 1 0.64-2.32c37.44-106 58.56-170.64 58.56-266.72 0-59.92-19.76-98.8-40.72-139.92s-43.76-85.92-43.76-152a367.44 367.44 0 0 1 13.84-106.16 211.84 211.84 0 0 0 9.04-58.96c0-17.52-3.68-74.88-50.32-74.88h-1.6c-46.64 0-50.24 57.36-50.24 74.88a308.48 308.48 0 0 0 6.16 60.24 536.88 536.88 0 0 1 9.12 104.88c0 65.84-20.24 109.36-40 151.52s-37.2 80-37.2 140.48c0 96 21.12 160.72 58.56 266.72a19.6 19.6 0 0 1 0.64 2.32c1.04 5.28 15.44 10.96 52.72 10.96z" fill="#6E4123" p-id="2046"></path><path d="M468.4 274.64h88v88h-88z" fill="#FFFFFF" p-id="2047"></path><path d="M556.4 378.64h-88a16 16 0 0 1-16-16v-88a16 16 0 0 1 16-16h88a16 16 0 0 1 16 16v88a16 16 0 0 1-16 16z m-72-32h56v-56h-56z" fill="#6E4123" p-id="2048"></path><path d="M560 902.64a15.28 15.28 0 0 1-5.28-0.88 16 16 0 0 1-9.76-20.4c37.36-106 58.56-170.64 58.56-266.72 0-59.84-19.52-97.76-40-137.92S520 392.8 520 326.64a414.72 414.72 0 0 1 12.96-108.08 244.16 244.16 0 0 0 8.56-61.04c0-43.36-25.12-74.88-59.76-74.88a16 16 0 0 1 0-32c52.32 0 91.76 46 91.76 106.88a270.08 270.08 0 0 1-9.44 68.32A387.6 387.6 0 0 0 552 326.64c0 58.4 19.2 96 39.52 135.52C613.04 504 635.2 547.04 635.2 614.64c0 101.28-21.84 168-60.4 277.36a16 16 0 0 1-14.8 10.64z" fill="#6E4123" opacity=".2" p-id="2049"></path><path d="M707.92 762.4A195.76 195.76 0 1 1 512 566.64 195.76 195.76 0 0 1 707.92 762.4z" fill="#F6E89A" p-id="2050"></path><path d="M512 974.16A211.76 211.76 0 1 1 723.92 762.4 211.92 211.92 0 0 1 512 974.16z m0-391.52A179.76 179.76 0 1 0 691.92 762.4 180 180 0 0 0 512 582.64z" fill="#6E4123" p-id="2051"></path><path d="M323.6 828.16a16 16 0 0 1-16-16 254.56 254.56 0 0 1 254.32-254.32 16 16 0 0 1 0 32 222.64 222.64 0 0 0-222.32 222.32 16 16 0 0 1-16 16z" fill="#FFFFFF" p-id="2052"></path><path d="M462 966.56a16 16 0 0 1 0-32A222.64 222.64 0 0 0 684.32 712a16 16 0 0 1 32 0 254.56 254.56 0 0 1-254.32 254.56z" fill="#6E4123" opacity=".2" p-id="2053"></path><path d="M523.6 718.88a26.56 26.56 0 1 1-26.56-26.56 26.64 26.64 0 0 1 26.56 26.56zM608.8 692.32a26.56 26.56 0 1 1-26.56-26.56 26.48 26.48 0 0 1 26.56 26.56zM599.2 777.52a26.64 26.64 0 1 1-26.64-26.56 26.64 26.64 0 0 1 26.64 26.56z" fill="#6E4123" p-id="2054"></path><path d="M512 974.16A211.76 211.76 0 1 1 723.92 762.4 211.92 211.92 0 0 1 512 974.16z m0-391.52A179.76 179.76 0 1 0 691.92 762.4 180 180 0 0 0 512 582.64z" fill="#6E4123" p-id="2055"></path><path d="M512 990.16a227.6 227.6 0 0 1-178.56-88.88c-26.4 0-70.08-3.12-78.56-38.96C219.84 763.92 200 703.44 200 611.36c0-62.72 18.8-101.92 36.8-139.36 16-34.16 31.6-66.4 31.6-116.96a538.8 538.8 0 0 0-7.2-91.52 380.8 380.8 0 0 1-5.6-62.48c0-63.2 33.6-105.68 83.6-105.68h1.36c38.64 0 80 28.24 80 107.68a290.88 290.88 0 0 1-6.96 61.84 399.52 399.52 0 0 0-8.64 88 257.28 257.28 0 0 0 7.44 65.28 234.56 234.56 0 0 0 24-103.2 495.04 495.04 0 0 0-8.96-99.6 358 358 0 0 1-7.04-68.4c0-68 35.52-112 90.48-112h1.52c54.88 0 90.32 45.12 90.32 114.88a249.52 249.52 0 0 1-10.08 68.88 338.24 338.24 0 0 0-12.24 96c0 44.96 14.88 77.36 32 109.6a264.88 264.88 0 0 0 8-69.6A423.2 423.2 0 0 0 611.52 264a314.08 314.08 0 0 1-7.04-63.36c0-63.2 33.6-105.68 83.52-105.68h1.44c50 0 83.6 42.48 83.6 105.68a251.68 251.68 0 0 1-8.8 63.36 336.72 336.72 0 0 0-10.64 88c0 50.16 16.8 82.8 34.56 117.28 18.88 36.8 40 78.4 40 141.52 0 92.08-19.6 152.56-54.32 250.96-8.4 35.6-51.52 38.72-77.68 38.96-38.56 54.96-109.36 89.44-184.16 89.44z m-154.88-137.68l8 10.8A182.88 182.88 0 0 0 512 942.16c50.88 0 115.6-22.56 148.48-72.88l5.28-6.24 2.4-6.48 2.8-4.72 14.64 0.96a30.4 30.4 0 0 1 4 0.48c25.76 0 35.52-3.04 38.64-4.4L728 848c33.28-94.24 52.08-152 52.08-236.4 0-51.52-16.96-84.56-34.96-119.52-19.6-38.16-40-77.52-40-139.28a380.64 380.64 0 0 1 11.92-99.36 207.2 207.2 0 0 0 7.52-52.56c0-13.6-2.64-57.68-35.6-57.68H688c-32.96 0-35.52 44.08-35.52 57.68a267.6 267.6 0 0 0 6.24 54.48 472 472 0 0 1 9.68 99.52c0 63.52-11.44 98.32-31.28 136.96l-21.92 42.4-21.04-43.04c-4.8-9.92-10.24-19.68-16-30.08-21.44-38.8-45.76-82.8-45.76-146.48a381.76 381.76 0 0 1 13.76-108.08 204.96 204.96 0 0 0 8.56-57.04c0-16-3.04-66.88-42.32-66.88h-1.52c-36.96 0-42.48 40-42.48 64a313.2 313.2 0 0 0 6.32 60 543.2 543.2 0 0 1 9.68 108c0 68.64-24 115.92-45.52 157.6l-8 15.12-21.2 42.48L388.4 488a273.36 273.36 0 0 1-31.6-135.44 446.16 446.16 0 0 1 9.52-97.28 242.16 242.16 0 0 0 6.08-52.64c0-17.92-3.12-59.68-32-59.68h-1.2c-33.04 0-35.6 44.08-35.6 57.68a337.12 337.12 0 0 0 5.12 55.36 581.92 581.92 0 0 1 8 98.64c0 61.36-18.4 100.08-36.24 137.6-16.4 34.56-32 67.2-32 119.12C248 696 267.04 753.52 300.32 848l0.4 1.12c3.12 1.36 12.88 4.4 38.48 4.4h4.8z m-7.36 48l-3.04 0.72a30.48 30.48 0 0 0 3.04-0.96z" fill="#6E4123" p-id="2056"></path></svg>