<?xml version="1.0" standalone="no"?><!DOCTYPE svg PUBLIC "-//W3C//DTD SVG 1.1//EN" "http://www.w3.org/Graphics/SVG/1.1/DTD/svg11.dtd"><svg t="1606877347173" class="icon" viewBox="0 0 1024 1024" version="1.1" xmlns="http://www.w3.org/2000/svg" p-id="2687" xmlns:xlink="http://www.w3.org/1999/xlink" width="200" height="200"><defs><style type="text/css"></style></defs><path d="M902.24 886.4c0 45.04-170.8 81.52-381.36 81.52s-381.36-36.48-381.36-81.52 171.28-78.4 381.92-78.4 380.8 33.44 380.8 78.4z" fill="#B8CBCD" p-id="2688"></path><path d="M58.272 424.592l356.96-95.68 135.2 504.4-356.96 95.68z" fill="#FFFFFF" p-id="2689"></path><path d="M192 949.52a24 24 0 0 1-23.2-17.84L34.24 429.44A24 24 0 0 1 51.2 400l355.44-95.28a24 24 0 0 1 29.44 16.96L570.72 824a24 24 0 0 1-16.96 29.36l-355.44 95.28a24 24 0 0 1-6.32 0.88zM86.8 440l122.24 456 309.12-82.88-122.24-456z" fill="#783741" p-id="2690"></path><path d="M91.52 477.52a24 24 0 0 1-8-46.64c66.88-24 134.96-41.68 207.04-60.64C339.2 357.52 389.6 344 440 328.96a24 24 0 0 1 13.92 45.92c-51.2 16-102.08 28.96-151.28 41.84-70.64 18.64-138.16 36.16-203.04 59.36a24 24 0 0 1-8.08 1.44z" fill="#783741" opacity=".2" p-id="2691"></path><path d="M334.56 725.52L234.24 640.88l41.28-123.36 95.2 86.72-36.16 121.28z" fill="#FFBAB0" p-id="2692"></path><path d="M334.56 741.52a16.56 16.56 0 0 1-10.32-3.76L224 653.12a16 16 0 0 1-4.88-17.36l41.28-123.36a16 16 0 0 1 26-6.72l95.2 86.72a16 16 0 0 1 4.56 16l-36.24 121.68a16 16 0 0 1-10.72 10.72 16 16 0 0 1-4.64 0.72zM252.88 635.68l73.36 61.84 26.32-88-69.68-63.44z" fill="#783741" p-id="2693"></path><path d="M337.44 247.92h368v520h-368z" fill="#FFFFFF" p-id="2694"></path><path d="M705.44 792h-368a24 24 0 0 1-24-24V248a24 24 0 0 1 24-24h368a24 24 0 0 1 24 24v520a24 24 0 0 1-24 24z m-344-48h320V272h-320z" fill="#324654" p-id="2695"></path><path d="M691.52 296H350.08a24 24 0 0 1 0-48h341.44a24 24 0 0 1 0 48z" fill="#324654" opacity=".2" p-id="2696"></path><path d="M516.56 538.56l14.08-14.16 14.16 14.16a44 44 0 0 0 62.24-62.24l-14.16-14.16L530.64 400l-62.16 62.24-14.16 14.16a44 44 0 0 0 62.24 62.24z" fill="#B9E3ED" p-id="2697"></path><path d="M576 567.44a59.44 59.44 0 0 1-42.4-17.6l-2.88-2.8-2.8 2.8a60 60 0 0 1-84.88 0 60.16 60.16 0 0 1 0-84.88l76.4-76.32a16.48 16.48 0 0 1 22.64 0l76.32 76.32a60 60 0 0 1 0 84.88 59.44 59.44 0 0 1-42.4 17.6z m-45.28-59.04a16 16 0 0 1 11.36 4.64l14.16 14.16a28.72 28.72 0 0 0 40 0 28.08 28.08 0 0 0 0-40l-65.12-65.04L465.6 488a28.08 28.08 0 0 0 0 40 28.72 28.72 0 0 0 39.6 0l14.16-14.16a16 16 0 0 1 11.28-5.44z" fill="#324654" p-id="2698"></path><path d="M617.44 591.44l-56.56-56.56-56.56 56.56h113.12z" fill="#B9E3ED" p-id="2699"></path><path d="M617.44 607.44H504a16 16 0 0 1-11.36-27.28l56.56-56.56a16.48 16.48 0 0 1 22.64 0l56.56 56.56A16 16 0 0 1 632 597.6a16 16 0 0 1-14.56 9.84z m-74.56-32h35.92l-17.92-17.92z" fill="#324654" p-id="2700"></path><path d="M485.192 647.168l135.2-504.4 356.96 95.68-135.2 504.4z" fill="#FFBAB0" p-id="2701"></path><path d="M839.04 768a24 24 0 0 1-6.24-0.8L477.28 672a24 24 0 0 1-16.96-29.44l134.56-502.32A24 24 0 0 1 624 123.28l355.52 95.2a24 24 0 0 1 14.56 11.12 24 24 0 0 1 2.4 18.24l-134.32 502.32a24 24 0 0 1-23.12 17.84zM512.96 632l309.04 82.8 122.16-456L635.04 176z" fill="#783741" p-id="2702"></path><path d="M485.192 647.168l135.2-504.4 356.96 95.68-135.2 504.4z" fill="#FFFFFF" p-id="2703"></path><path d="M839.04 768a24 24 0 0 1-6.24-0.8L477.28 672a24 24 0 0 1-16.96-29.44l134.56-502.32A24 24 0 0 1 624 123.28l355.52 95.2a24 24 0 0 1 14.56 11.12 24 24 0 0 1 2.4 18.24l-134.32 502.32a24 24 0 0 1-23.12 17.84zM512.96 632l309.04 82.8 122.16-456L635.04 176z" fill="#783741" p-id="2704"></path><path d="M815.2 743.2a24 24 0 0 1-23.2-30.24l115.6-431.6c-50.24-13.36-97.04-25.36-142.48-37.36-52.32-13.68-98.32-28-157.6-44a24 24 0 0 1 12.4-46.32c59.12 16 105.04 29.92 157.28 43.52s106.64 27.76 166 43.68a24 24 0 0 1 16.8 29.68l-121.6 454.88a24 24 0 0 1-23.2 17.76z" fill="#783741" opacity=".2" p-id="2705"></path><path d="M755.44 404.16l-17.28 10L728 396.8a44 44 0 1 0-76.24 44.08l10 17.28 44 76.24 76.24-44 17.44-10.4a44 44 0 1 0-44-76.16z" fill="#FFBAB0" p-id="2706"></path><path d="M705.92 550.4a18.56 18.56 0 0 1-4.16-0.56 16 16 0 0 1-9.68-7.44l-54-93.52a60.08 60.08 0 0 1 51.92-90.08 60.32 60.32 0 0 1 52 30l2 3.2 3.44-2a60 60 0 1 1 60 104l-93.52 54.24a16 16 0 0 1-8 2.16z m-16-159.6a28.88 28.88 0 0 0-14 3.76 28.08 28.08 0 0 0-10.24 38.32l46 80 80-46a28 28 0 0 0 10.24-38.24 28 28 0 0 0-38.24-10.24l-17.52 9.6a16 16 0 0 1-12.16 1.6 16 16 0 0 1-9.76-7.44l-10-17.36a28.16 28.16 0 0 0-24.24-14z" fill="#783741" p-id="2707"></path></svg>