<?xml version="1.0" standalone="no"?><!DOCTYPE svg PUBLIC "-//W3C//DTD SVG 1.1//EN" "http://www.w3.org/Graphics/SVG/1.1/DTD/svg11.dtd"><svg t="1606876558389" class="icon" viewBox="0 0 1024 1024" version="1.1" xmlns="http://www.w3.org/2000/svg" p-id="9967" xmlns:xlink="http://www.w3.org/1999/xlink" width="200" height="200"><defs><style type="text/css"></style></defs><path d="M821.23 565.21c-0.02-0.21-0.02-0.42-0.04-0.63-0.04-0.37-0.11-0.73-0.17-1.1-0.05-0.29-0.08-0.58-0.14-0.86-0.05-0.25-0.13-0.49-0.19-0.74-0.1-0.4-0.2-0.79-0.32-1.18-0.05-0.17-0.12-0.33-0.18-0.5-0.16-0.45-0.33-0.9-0.52-1.34a0.487 0.487 0 0 1-0.04-0.11L698.2 285.69a19.51 19.51 0 0 0-17.84-11.59H345.31c-7.53 0-14.39 4.33-17.62 11.12l-130.1 273.06c-0.05 0.1-0.08 0.21-0.13 0.32-0.17 0.37-0.32 0.74-0.47 1.12a18.549 18.549 0 0 0-0.58 1.78c-0.08 0.29-0.16 0.58-0.22 0.87-0.07 0.3-0.13 0.61-0.18 0.92-0.06 0.35-0.12 0.7-0.16 1.05-0.03 0.26-0.05 0.53-0.08 0.8-0.03 0.4-0.05 0.79-0.06 1.18 0 0.12-0.02 0.23-0.02 0.35v153.2c0 10.78 8.74 19.52 19.52 19.52h586.58c10.78 0 19.52-8.74 19.52-19.52v-153.2c0-0.05-0.01-0.09-0.01-0.13 0-0.44-0.03-0.88-0.07-1.33z m-463.6-252.07h310.04l104.07 234.01h-40.71L665.38 380.9a19.519 19.519 0 0 0-18.07-12.35l-261.4-1.16h-0.09c-7.75 0-14.78 4.59-17.89 11.71L296.8 541.78a19.51 19.51 0 0 0-1.47 5.38h-49.2l111.5-234.02z m331.43 234.02h-97.98c-9.71 0-17.95 7.14-19.33 16.75-4.49 31.27-31.68 54.84-63.26 54.84s-58.77-23.58-63.26-54.84c-1.38-9.61-9.61-16.75-19.33-16.75h-88.85l61.5-140.67 235.35 1.04 55.16 139.63z m93.2 153.2H234.73V586.2h175.73c13.47 41.8 52.99 71.59 98.04 71.59s84.57-29.79 98.04-71.59h175.73v114.16z" fill="#040000" p-id="9968"></path><path d="M575.55 428.7l-75.87 18.79a19.492 19.492 0 0 0-14.37 14.76 19.5 19.5 0 0 0 6.85 19.42l7.31 5.87-54.19 13.65c-10.45 2.63-16.8 13.23-14.17 23.69 2.23 8.86 10.18 14.76 18.92 14.76 1.58 0 3.18-0.19 4.78-0.58l92.27-23.23a19.52 19.52 0 0 0 14.3-14.78 19.5 19.5 0 0 0-6.86-19.38l-7.16-5.74 37.57-9.3c10.47-2.59 16.85-13.18 14.26-23.64-2.59-10.5-13.16-16.89-23.64-14.29z" fill="#040000" p-id="9969"></path></svg>