<?xml version="1.0" standalone="no"?><!DOCTYPE svg PUBLIC "-//W3C//DTD SVG 1.1//EN" "http://www.w3.org/Graphics/SVG/1.1/DTD/svg11.dtd"><svg t="1606876546503" class="icon" viewBox="0 0 1024 1024" version="1.1" xmlns="http://www.w3.org/2000/svg" p-id="9819" xmlns:xlink="http://www.w3.org/1999/xlink" width="200" height="200"><defs><style type="text/css"></style></defs><path d="M 187.94 309.84 s 81.83 -64.02 146.19 8.22 c 0 0 24.31 27.05 33.55 60.6 c 0.01 0 -54.77 -130.1 -179.74 -68.82 Z M 187.94 324.57 s 17.8 55.12 54.44 85.25 c 0 0 5.82 10.61 54.44 -5.82 l 54.44 -20.2 s -23.28 18.49 -81.49 37.32 c 0 0 -24.99 10.96 -48.28 -14.38 c 0 0 -27.39 -40.4 -33.55 -82.17 Z" fill="#333333" p-id="9820"></path><path d="M 249.37 293.47 s -38.84 20.49 -26.51 72.53 c 0 0 12.28 43.92 59.38 42.5 c 0 0 46.91 -5.02 50.94 -79.4 c 0 0 -36.42 -45.86 -83.81 -35.63 Z m 41.45 50.61 c -14.08 0 -25.5 -7.67 -25.5 -17.12 c 0 -9.46 11.41 -17.12 25.5 -17.12 s 25.51 7.66 25.51 17.12 c 0 9.45 -11.41 17.12 -25.51 17.12 Z M 788.3 303.17 s -81.83 -64.02 -146.19 8.22 c 0 0 -24.31 27.05 -33.55 60.6 c -0.01 0 54.77 -130.11 179.74 -68.82 Z M 788.3 317.89 s -17.8 55.12 -54.44 85.25 c 0 0 -5.82 10.61 -54.44 -5.82 l -54.44 -20.2 s 23.28 18.49 81.49 37.32 c 0 0 24.99 10.96 48.28 -14.38 c -0.01 0 27.39 -40.4 33.55 -82.17 Z" fill="#333333" p-id="9821"></path><path d="M 726.87 286.79 c -47.4 -10.22 -83.81 35.63 -83.81 35.63 c 4.04 74.38 50.95 79.4 50.95 79.4 c 47.1 1.42 59.38 -42.51 59.38 -42.51 c 12.32 -52.03 -26.52 -72.52 -26.52 -72.52 Z m -41.46 50.62 c -14.08 0 -25.51 -7.67 -25.51 -17.12 c 0 -9.46 11.42 -17.12 25.51 -17.12 c 14.09 0 25.51 7.66 25.51 17.12 c 0 9.45 -11.41 17.12 -25.51 17.12 Z M 536.48 520.41 c -34.59 -11.3 -91.08 -2.74 -91.08 -2.74 c -25.33 8.22 -29.1 17.12 -29.1 17.12 c -6.17 15.07 29.1 7.53 29.1 7.53 c 26.71 -3.43 28.42 19.86 28.42 19.86 c 1.37 5.13 6.17 22.59 6.17 22.59 c 13.69 13.7 20.88 -18.14 20.88 -18.14 c 7.53 -26.36 26.7 -23.63 26.7 -23.63 h 17.47 c 29.44 -7.19 -8.56 -22.59 -8.56 -22.59 Z m -29.95 12.67 c -8.04 0 -14.55 -2.3 -14.55 -5.14 s 6.51 -5.13 14.55 -5.13 c 8.03 0 14.55 2.3 14.55 5.13 c 0 2.84 -6.52 5.14 -14.55 5.14 Z M 76.33 569.71 s 107.16 -54.1 280.41 -23.28 c -0.01 0 -204.41 -10.27 -280.41 23.28 Z M 155.07 629.62 s 81.83 -58.89 196.18 -54.1 c 0 0.01 -125.99 17.81 -196.18 54.1 Z M 238.61 646.74 s 32.53 -56.15 109.22 -48.62 c 0 0.01 -77.03 11.3 -109.22 48.62 Z M 678.57 537.53 s 141.74 -19.86 269.11 38 c -0.01 0 -189 -50.67 -269.11 -38 Z M 682.33 572.79 s 149.62 -2.4 233.16 61.97 c 0 0 -154.75 -67.11 -233.16 -61.97 Z M 665.9 595.73 s 85.25 -6.16 106.82 73.95 c 0 0 -38 -72.58 -106.82 -73.95 Z" fill="#333333" p-id="9822"></path><path d="M 419.9 707.91 s 81.75 49.67 151.09 0 c 0 0 -73.48 87.96 -151.09 0 Z" fill="#333333" p-id="9823"></path></svg>