<?xml version="1.0" standalone="no"?><!DOCTYPE svg PUBLIC "-//W3C//DTD SVG 1.1//EN" "http://www.w3.org/Graphics/SVG/1.1/DTD/svg11.dtd"><svg t="1606876583393" class="icon" viewBox="0 0 1028 1024" version="1.1" xmlns="http://www.w3.org/2000/svg" p-id="10742" xmlns:xlink="http://www.w3.org/1999/xlink" width="200.78125" height="200"><defs><style type="text/css"></style></defs><path d="M141.077905 338.309068v685.690932h788.924649V338.309068L535.54023 60.321839 141.077905 338.309068z" fill="#FCF0E6" p-id="10743"></path><path d="M535.54023 707.678161A135.029374 135.029374 0 0 0 400.510856 842.707535v181.292465h269.7318V842.707535a135.029374 135.029374 0 0 0-134.702426-135.029374zM336.102171 1024H0L31.713921 980.842912a67.269476 67.269476 0 0 1 54.600255-27.790549h163.473819a67.43295 67.43295 0 0 1 54.600255 27.790549z" fill="#FF6E83" p-id="10744"></path><path d="M535.54023 268.260536m-18.717752 0a18.717752 18.717752 0 1 0 37.435504 0 18.717752 18.717752 0 1 0-37.435504 0Z" fill="#F7999F" p-id="10745"></path><path d="M336.67433 371.57599l396.178799 0 0 179.167305-396.178799 0 0-179.167305Z" fill="#F7999F" p-id="10746"></path><path d="M450.043423 403.0447a77.650064 77.650064 0 0 0-42.993615 42.58493 30.487867 30.487867 0 0 0 0 22.150702 79.693487 79.693487 0 0 0 43.157089 45.690932 5.312899 5.312899 0 0 0 7.438058-4.822477V407.867178a5.312899 5.312899 0 0 0-7.601532-4.822478zM487.478927 510.365262a157.34355 157.34355 0 0 1 0-104.132823zM519.274585 504.316731a138.952746 138.952746 0 0 1 0-91.954023zM550.661558 493.936143a107.402299 107.402299 0 0 1 0-71.192848zM581.966794 482.247765a72.337165 72.337165 0 0 1 0-48.061303zM613.435504 472.766284a43.565773 43.565773 0 0 1 0-28.934866z" fill="#FFFFFF" p-id="10747"></path><path d="M660.434227 437.455939l-16.347382 10.05364a48.14304 48.14304 0 0 1-25.011494 7.029374H452.086845a2.452107 2.452107 0 0 0-2.37037 2.452107v2.860792a2.452107 2.452107 0 0 0 2.37037 2.452107h166.416348a47.652618 47.652618 0 0 1 26.074074 7.68327l15.775223 10.29885a2.452107 2.452107 0 0 0 3.759898-2.043423v-38.661558a2.452107 2.452107 0 0 0-3.678161-2.125159z" fill="#FFFFFF" p-id="10748"></path><path d="M1028.250319 335.938697L566.518519 9.808429a53.864623 53.864623 0 0 0-61.956578 0L42.83014 335.938697v130.779055a51.494253 51.494253 0 0 0 8.173691-4.49553l420.699873-297.604087a110.835249 110.835249 0 0 1 127.673052 0s426.094508 300.546616 428.873563 301.854407z" fill="#F7999F" p-id="10749"></path></svg>