<?xml version="1.0" standalone="no"?><!DOCTYPE svg PUBLIC "-//W3C//DTD SVG 1.1//EN" "http://www.w3.org/Graphics/SVG/1.1/DTD/svg11.dtd"><svg t="1606876562439" class="icon" viewBox="0 0 1024 1024" version="1.1" xmlns="http://www.w3.org/2000/svg" p-id="10119" xmlns:xlink="http://www.w3.org/1999/xlink" width="200" height="200"><defs><style type="text/css"></style></defs><path d="M845.33 566.69c0.06-0.24 0.12-0.48 0.17-0.73 0.04-0.16 0.07-0.32 0.1-0.48l0.12-0.66c0.03-0.18 0.06-0.37 0.08-0.55 0.03-0.2 0.05-0.4 0.07-0.6l0.06-0.62 0.03-0.55c0.01-0.22 0.02-0.45 0.02-0.67v-0.5c0-0.24-0.01-0.48-0.02-0.72l-0.03-0.46c-0.02-0.25-0.04-0.51-0.07-0.76-0.02-0.14-0.03-0.28-0.05-0.41-0.03-0.27-0.08-0.53-0.12-0.8-0.02-0.12-0.04-0.24-0.07-0.37-0.05-0.28-0.12-0.56-0.18-0.84-0.02-0.11-0.05-0.21-0.08-0.31-0.08-0.3-0.16-0.59-0.25-0.89-0.03-0.09-0.05-0.18-0.08-0.26-0.1-0.31-0.21-0.62-0.32-0.93-0.02-0.05-0.03-0.1-0.05-0.14l-0.11-0.29c-0.01-0.03-0.02-0.07-0.04-0.1l-68.09-178.61c-10.18-26.69-36.22-44.64-64.78-44.64h-71.4v-24.42c0-46.2-37.58-83.78-83.78-83.78h-96.94c-46.19 0-83.78 37.58-83.78 83.78v24.42h-71.4c-28.58 0-54.61 17.94-64.78 44.64l-68.09 178.6c-0.01 0.03-0.02 0.07-0.04 0.1l-0.11 0.28c-0.02 0.05-0.03 0.1-0.05 0.14-0.11 0.31-0.22 0.61-0.32 0.93-0.03 0.09-0.05 0.18-0.08 0.26-0.09 0.29-0.17 0.59-0.25 0.89-0.03 0.1-0.05 0.21-0.08 0.31-0.07 0.28-0.13 0.56-0.18 0.84-0.02 0.12-0.04 0.24-0.07 0.37-0.05 0.27-0.09 0.53-0.12 0.8-0.02 0.14-0.03 0.28-0.05 0.41-0.03 0.25-0.05 0.5-0.07 0.76l-0.03 0.46c-0.01 0.24-0.02 0.48-0.02 0.72v0.5c0 0.22 0.01 0.45 0.02 0.67l0.03 0.55c0.02 0.21 0.03 0.41 0.06 0.62 0.02 0.2 0.04 0.4 0.07 0.6 0.02 0.18 0.05 0.37 0.08 0.55 0.04 0.22 0.07 0.44 0.12 0.66 0.03 0.16 0.07 0.32 0.1 0.48 0.05 0.24 0.11 0.48 0.17 0.73 0.04 0.14 0.07 0.27 0.11 0.4 0.07 0.26 0.15 0.52 0.24 0.78 0.02 0.05 0.03 0.1 0.05 0.16l69.14 204.71a68.715 68.715 0 0 0 65.15 46.76h405.29c29.53 0 55.7-18.79 65.14-46.76l69.14-204.71c0.02-0.05 0.03-0.1 0.05-0.16l0.24-0.78c0.05-0.11 0.09-0.24 0.13-0.38zM415.91 306.41c0-24.05 19.56-43.62 43.62-43.62h96.94c24.05 0 43.62 19.57 43.62 43.62v24.42H415.91v-24.42z m-138.82 83.36c4.28-11.24 15.24-18.79 27.26-18.79h407.3c12.02 0 22.98 7.55 27.26 18.79l57.85 151.76H645.53l-9.36-78.68c-1.2-10.1-9.77-17.71-19.94-17.71H399.77c-10.17 0-18.74 7.61-19.94 17.71l-9.36 78.68H219.24l57.85-151.76zM417.6 485.3h180.8l22 184.8H395.6l22-184.8z m320.14 274.6a28.578 28.578 0 0 1-27.09 19.45h-405.3a28.59 28.59 0 0 1-27.1-19.45l-60.19-178.21h147.62l-12.63 106.12a20.09 20.09 0 0 0 4.92 15.71c3.81 4.29 9.28 6.75 15.01 6.75H643a20.075 20.075 0 0 0 19.93-22.46L650.3 581.69h147.63L737.74 759.9z" fill="#040000" p-id="10120"></path></svg>