<?xml version="1.0" standalone="no"?><!DOCTYPE svg PUBLIC "-//W3C//DTD SVG 1.1//EN" "http://www.w3.org/Graphics/SVG/1.1/DTD/svg11.dtd"><svg t="1606877343353" class="icon" viewBox="0 0 1024 1024" version="1.1" xmlns="http://www.w3.org/2000/svg" p-id="2523" xmlns:xlink="http://www.w3.org/1999/xlink" width="200" height="200"><defs><style type="text/css"></style></defs><path d="M908.08 906.4c0 45.04-170.72 81.52-381.36 81.52s-381.28-36.48-381.28-81.52 170.72-81.44 381.28-81.44 381.36 36.48 381.36 81.44z" fill="#B8CBCD" p-id="2524"></path><path d="M817.44 259.92v-96a64 64 0 0 1 64-64 64 64 0 0 1 64 64v96M817.44 99.92H258.56l-41.12 41.12v622.88h600M753.44 907.92H130.56l-41.12-41.12V763.92h608" fill="#B9E3ED" p-id="2525"></path><path d="M689.44 763.92v80a64 64 0 0 0 64 64 64 64 0 0 0 64-64v-80" fill="#B9E3ED" p-id="2526"></path><path d="M753.44 931.92a24 24 0 0 1 0-48 40 40 0 0 0 40-40v-680a88 88 0 0 1 176 0v96a24 24 0 0 1-24 24h-104v560a88 88 0 0 1-88 88z m88-696h80v-72a40 40 0 0 0-80 0z" fill="#324654" p-id="2527"></path><path d="M761.44 923.92a80 80 0 0 1-80-80v-72a16 16 0 0 1 32 0v72a48 48 0 0 0 48 48 16 16 0 0 1 0 32z" fill="#324654" p-id="2528"></path><path d="M697.44 787.92h-488a16 16 0 1 1 0-32h488a16 16 0 0 1 0 32zM753.44 635.92h-224a16 16 0 0 1 0-32h224a16 16 0 0 1 0 32zM457.44 635.92h-184a16 16 0 1 1 0-32h184a16 16 0 0 1 0 32zM666.08 715.92H457.44a16 16 0 1 1 0-32h208.64a16 16 0 0 1 0 32zM398.64 715.92H273.44a16 16 0 1 1 0-32h125.2a16 16 0 0 1 0 32z" fill="#324654" p-id="2529"></path><path d="M161.44 931.92a88 88 0 0 1-88-88v-80a24 24 0 0 1 24-24h96v-576a88 88 0 0 1 88-88 24 24 0 0 1 0 48 40 40 0 0 0-40 40v600a24 24 0 0 1-24 24h-96v56a40 40 0 0 0 40 40 24 24 0 0 1 0 48z" fill="#324654" p-id="2530"></path><path d="M881.44 123.92h-600a24 24 0 0 1 0-48h600a24 24 0 0 1 0 48zM753.44 931.92H158.4a24 24 0 1 1 0-48h595.04a24 24 0 0 1 0 48z" fill="#324654" p-id="2531"></path><path d="M466.72 555.92l-30.24-49.28-58.96 12.88 69.36-169.76 89.2 36.4-69.36 169.76z" fill="#F6E89A" p-id="2532"></path><path d="M466.72 571.92a16 16 0 0 1-13.6-7.6l-24-40-48 10.4a16 16 0 0 1-18.24-21.68L432 344a16 16 0 0 1 20.88-8.72l89.2 36.4a16 16 0 0 1 8.8 20.32l-69.36 170a16 16 0 0 1-13.52 9.84z m-30.24-81.28a16 16 0 0 1 13.68 8L464 520.64l51.2-125.68-59.52-24-51.84 126.4 29.28-6.32a16 16 0 0 1 3.36-0.4z" fill="#8D4520" p-id="2533"></path><path d="M559.12 555.92l30.24-49.28 58.96 12.88-69.36-169.76-89.2 36.4 69.36 169.76z" fill="#F6E89A" p-id="2534"></path><path d="M559.12 571.92h-1.28A16 16 0 0 1 544 562L474.96 392a16 16 0 0 1 8.72-20.88l89.2-36.4A16 16 0 0 1 593.76 344l68.56 168a16 16 0 0 1 2.16 8 16 16 0 0 1-16 16 16.8 16.8 0 0 1-3.44 0l-48-10.4-24 40a16 16 0 0 1-13.92 6.32z m-48.48-176.96l51.36 125.68L576 498.32a16 16 0 0 1 17.04-7.28l29.28 6.32-52.16-126.8z" fill="#8D4520" p-id="2535"></path><path d="M583.6 435.04l-36.72-2.96L520 457.2l-31.12-19.76-35.52 9.76-18.32-31.92-36-7.84-1.44-36.8-28.16-23.68 15.76-33.28-13.92-34.08 29.44-22.08 3.52-36.64 36.32-5.92 20.16-30.8 34.88 11.68 32.16-17.92 25.44 26.56 36.8-0.96 10.24 35.36 33.04 16.24-7.36 36.08 21.68 29.76-23.36 28.48 5.36 36.4-33.84 14.48-12.16 34.72z" fill="#F6E89A" p-id="2536"></path><path d="M520 473.12a16 16 0 0 1-8.56-2.48l-25.12-16-28.72 8a16 16 0 0 1-18.08-7.44l-14.88-25.76-29.04-6.4A16 16 0 0 1 383.04 408l-1.12-29.68-22.8-19.12a16 16 0 0 1-4.16-19.12L368 313.2l-11.28-27.52a16 16 0 0 1 5.2-18.88l24-17.84 2.88-29.6a16 16 0 0 1 13.36-14.32l28.88-5.04 16-24.88a16 16 0 0 1 18.48-6.48l28.24 9.44L520 163.92a16 16 0 0 1 19.36 2.88L560 188.32l29.68-0.8a16 16 0 0 1 16 11.6l8 28.56L640 240.8a16 16 0 0 1 8.64 17.6l-6 29.12 17.52 24a16 16 0 0 1-0.56 19.6l-18.8 23.04 4.32 29.36a16 16 0 0 1-9.52 17.12l-27.36 11.6L598.72 440a16 16 0 0 1-16 10.64l-29.68-2.4-21.76 20.32a16 16 0 0 1-11.28 4.56z m-31.12-51.68a16 16 0 0 1 8.56 2.48l20.64 13.12L536 420.32a16 16 0 0 1 12.24-4.32l24 2 8-23.04a16 16 0 0 1 8.88-9.44L612 376l-3.6-24a16 16 0 0 1 3.52-12.48l15.44-18.96-14.4-19.76a16 16 0 0 1-2.72-12.8l4.88-24-21.92-10.8a16 16 0 0 1-8-9.92l-6.8-23.52-24.48 0.64a16 16 0 0 1-11.92-4.96l-16.96-17.6-21.28 11.92a16 16 0 0 1-12.88 1.2l-23.2-8L454 224a16 16 0 0 1-10.88 7.04l-24 3.92-2.32 24a16 16 0 0 1-6.32 11.28l-19.52 14.64L400 307.6a16 16 0 0 1 0 12.96l-10.48 22.08 18.72 16a16 16 0 0 1 5.68 11.6l0.96 24 24 5.28a16 16 0 0 1 10.48 7.6l12.24 21.2 23.52-6.48a19.28 19.28 0 0 1 3.76-0.4z" fill="#8D4520" p-id="2537"></path><path d="M508.4 229.28l26.72 54.08 59.68 8.72-43.2 42.08 10.16 59.44-53.36-28.08-53.36 28.08 10.16-59.44-43.2-42.08 59.68-8.72 26.72-54.08z" fill="#FFFFFF" p-id="2538"></path><path d="M561.76 409.6a16 16 0 0 1-7.44-1.84l-45.92-24-45.92 24a16 16 0 0 1-23.2-16.88L448 339.76l-37.12-36.24a16 16 0 0 1 8.88-27.28l51.28-7.52 23.04-46.48a16 16 0 0 1 28.64 0l23.04 46.48 51.28 7.52a16 16 0 0 1 8.88 27.28l-37.12 36.24 8.72 51.12a16 16 0 0 1-16 18.72zM456.4 303.2l20 19.52a16 16 0 0 1 4.56 14.16l-4.72 27.44 24.72-12.96a16 16 0 0 1 14.88 0l24.72 12.96-4.56-27.44a16 16 0 0 1 4.56-14.16l20-19.52-27.6-4a16 16 0 0 1-12.08-8.72l-12.32-25.04L496 290.48a16 16 0 0 1-12 8.72z" fill="#8D4520" p-id="2539"></path></svg>