<?xml version="1.0" standalone="no"?><!DOCTYPE svg PUBLIC "-//W3C//DTD SVG 1.1//EN" "http://www.w3.org/Graphics/SVG/1.1/DTD/svg11.dtd"><svg t="1606877340487" class="icon" viewBox="0 0 1024 1024" version="1.1" xmlns="http://www.w3.org/2000/svg" p-id="2365" xmlns:xlink="http://www.w3.org/1999/xlink" width="200" height="200"><defs><style type="text/css"></style></defs><path d="M891.12 929.2c0 44.96-170.8 81.44-381.36 81.44s-381.36-36.48-381.36-81.44S299.12 848 509.76 848s381.36 36.16 381.36 81.2z" fill="#B8CBCD" p-id="2366"></path><path d="M680.4 762.64h-352l-40 168c0 25.2 102.24 45.44 216 45.44s216-20.24 216-45.44z" fill="#B2EDA6" p-id="2367"></path><path d="M504.4 992c-9.44 0-232-0.64-232-61.44a14.56 14.56 0 0 1 0.48-3.68l40-168a16 16 0 0 1 15.52-12.32h352a16 16 0 0 1 16 12.32l40 168a19.2 19.2 0 0 1 0 3.68c0 60.88-222.48 61.44-232 61.44z m-199.28-62.64c13.12 11.76 85.68 30.64 199.28 30.64s186.16-18.88 199.28-30.64l-35.92-150.72H341.04z" fill="#3C663E" p-id="2368"></path><path d="M504.4 953.36c-9.44 0-228 0-228-61.04 0-8.8 3.2-16.4 12-16.4a16 16 0 0 1 16 13.84c10.4 11.68 83.68 32 200 32s189.84-19.92 200-32a16 16 0 0 1 16-13.84c8.88 0 8.64 8.88 8.64 17.76 0 60.72-215.12 59.68-224.64 59.68z" fill="#3C663E" opacity=".2" p-id="2369"></path><path d="M768.96 380.8a65.2 65.2 0 0 1 0-46.48S672 249.44 657.04 234.88 642.72 208 632 200s-63.12-24-65.52-26.16 15.12-20.4 24.56-29.76c-7.12-5.36-50.16-5.36-59.12-5.36s-10.08-53.28-10.08-80c-22.4 0-49.12 74.16-49.12 74.16-70.56 0-186.72 96-186.72 264 0 67.04 42.88 184 58.96 241.2a276.48 276.48 0 0 1 8.88 44.32h304c0.96-13.28-1.44-31.36-1.44-51.2 0-82.72-157.76-224-157.76-234.56 5.36 5.36 26.8 10.08 35.68 10.08 36.32 0 51.84-16.64 81.04-16.64s38.08 46.4 82.72 46.4 49.44-20.8 53.04-24c21.44-13.84 20.8-25.12 17.84-31.68z" fill="#B2EDA6" p-id="2370"></path><path d="M454.48 698.8H353.76a16 16 0 0 1-16-14.8 258.08 258.08 0 0 0-8-41.2c-3.6-12.8-8.56-28.56-14.24-46.8-19.52-61.12-45.52-144.72-45.52-198.88 0-163.44 109.52-270.48 191.36-280 12.4-32 34.16-74.8 60.48-74.8a16 16 0 0 1 16 16 404.72 404.72 0 0 0 3.52 64.4c48.64 0.56 54.96 5.36 59.28 8.56a16 16 0 0 1 6.32 11.68 16 16 0 0 1-4.64 12.4c-4.4 4.4-8 8-10.64 10.96a253.76 253.76 0 0 1 49.68 20.72 53.76 53.76 0 0 1 16 20.08 60.88 60.88 0 0 0 11.2 16c11.2 11.2 77.6 69.44 111.12 98.64a16 16 0 0 1 4.08 18.72 49.2 49.2 0 0 0 0 33.84c4.48 10.32 6.96 29.76-21.44 49.84-5.2 8-18.72 28.08-64 28.08-31.44 0-49.28-18.32-62.24-32-8.8-9.04-14.56-14.64-20.48-14.64a90.48 90.48 0 0 0-30.64 6.72 147.04 147.04 0 0 1-43.04 9.76c64 69.52 130.72 148 130.72 208.64 0 8 0.48 16.48 0.88 24a225.76 225.76 0 0 1 0.48 28.16 16 16 0 0 1-16 14.8H454.48zM368 666.72H641.84c0-2.88 0-5.92-0.48-9.2-0.48-8-0.96-16.72-0.96-26 0-54.56-85.28-146.96-126.24-191.36-26.72-28.96-31.52-34.16-31.52-43.2a16 16 0 0 1 26.72-11.84 76.8 76.8 0 0 0 24.96 5.92 112 112 0 0 0 40-8 116.64 116.64 0 0 1 41.12-8.56c19.76 0 32 12.96 43.44 24.4s21.36 22 39.28 22c28.72 0 34.72-9.28 37.52-13.76a27.44 27.44 0 0 1 5.2-6.32l1.44-1.04c11.36-8 12.24-12 12.24-12.08l-0.56-1.2a82.08 82.08 0 0 1-3.28-46.72c-24-20.64-92.48-80.88-104.96-93.36a92.24 92.24 0 0 1-16.88-24 24 24 0 0 0-6.16-9.04 350.64 350.64 0 0 0-41.76-16.56c-18.8-6.64-22.24-8-25.68-11.36-10.16-10.08-2.8-22.08 3.52-29.92-6.88 0-16-0.48-26.8-0.48-16 0-23.28-14-25.36-58.48A289.2 289.2 0 0 0 488 138.24a16 16 0 0 1-15.04 10.56c-59.6 0-170.72 85.28-170.72 248 0 49.28 25.36 130.16 43.84 189.2 5.84 18.4 10.8 34.4 14.56 48 2.32 9.2 5.28 21.52 7.36 32.72z" fill="#3C663E" p-id="2371"></path><path d="M388.4 696a16 16 0 0 1-15.36-11.68c-4.24-14.88-10.96-35.04-18.72-58.32-22.24-66.8-49.92-149.84-49.92-201.52 0-176 90.88-298.96 172.48-298.96a16 16 0 0 1 0 32c-57.28 0-140.48 104-140.48 266.96 0 46.48 27.92 130.24 48 191.36 8 24 14.72 44.16 19.12 59.84A16 16 0 0 1 388.4 696z" fill="#FFFFFF" p-id="2372"></path><path d="M768.4 722.64c0 22.16-13.04 40-29.12 40H285.52c-16 0-29.12-17.84-29.12-40 0-22.08 13.04-40 29.12-40h453.76c16 0 29.12 17.92 29.12 40z" fill="#B2EDA6" p-id="2373"></path><path d="M739.28 778.64H285.52c-25.28 0-45.12-24.56-45.12-56s19.84-56 45.12-56h453.76c25.36 0 45.12 24.64 45.12 56s-19.76 56-45.12 56z m-453.76-80c-5.36 0-13.12 9.36-13.12 24s8 24 13.12 24h453.76c5.36 0 13.12-9.28 13.12-24s-8-24-13.12-24zM520.56 273.2a32 32 0 0 0 64-6.56z" fill="#3C663E" p-id="2374"></path><path d="M502 1002.64c-56 0-240-4.96-240-69.44a25.2 25.2 0 0 1 0.8-6l34.56-132.56h-8.96c-38.24 0-64-37.2-64-72s25.76-72 64-72h34.24l-0.8-2.56c-3.52-12.72-8.48-28.4-14.16-46.56-19.28-61.52-45.68-145.52-45.68-201.12 0-167.36 107.76-274.24 193.68-287.04 20.08-50.08 42.32-75.44 66.16-75.44a24 24 0 0 1 24 24 488.56 488.56 0 0 0 2.48 56.48c41.28 0.88 50.48 5.04 57.12 10a24 24 0 0 1 2.56 36.24c-0.64 0.64-1.36 1.28-1.92 1.92a190 190 0 0 1 40 17.6A59.44 59.44 0 0 1 664 206.96a54.32 54.32 0 0 0 9.84 14.24c11.6 11.44 84 74.8 110.88 98.32a24 24 0 0 1 6.08 28.08 41.2 41.2 0 0 0 0.48 27.52c4.4 10.56 9.36 34.8-23.12 58.4-9.12 13.6-26.56 30.48-70.08 30.48-34.88 0-54.8-20.56-68-34.16-5.28-5.52-11.84-12.32-14.72-12.32a80.96 80.96 0 0 0-28 6.4 192 192 0 0 1-29.28 8c61.6 67.76 122.32 142.56 122.32 202.64v16h48c38.88 0 64 28.32 64 72 0 46.4-26.88 80-64 80h-17.44l30.4 124.88a22.96 22.96 0 0 1 0.64 5.68c0 64.56-183.68 69.52-240 69.52zM312 928.48c20.08 10.72 90.16 26.16 189.92 26.16S672 939.12 692.16 928l-35.04-144a24 24 0 0 1 4.4-20.48 24 24 0 0 1 18.88-9.2h48c8.96 0 16-14 16-32 0-24-10-24-16-24h-72a24 24 0 0 1-17.52-8 23.52 23.52 0 0 1-6.4-17.92c0.48-7.2 0-12.32 0-20v-18.4c0-51.52-86.96-145.68-124.08-185.92-27.92-30.16-33.68-36.48-33.68-48.72a24 24 0 0 1 39.2-18.48 77.04 77.04 0 0 0 20.48 4.64 104.72 104.72 0 0 0 37.28-8 125.76 125.76 0 0 1 43.76-9.04c23.2 0 37.6 14.96 49.2 26.88S684.24 416 698.08 416c24 0 28.72-6.8 30.8-10.08a34.96 34.96 0 0 1 6.8-8l2.08-1.52a46.72 46.72 0 0 0 8-6.32 90.4 90.4 0 0 1-3.68-44.08C715.04 322.4 652.24 267.36 640 255.12a96.88 96.88 0 0 1-18.24-25.76 30.32 30.32 0 0 0-3.84-6.32 396.48 396.48 0 0 0-40-15.44c-20.24-7.2-24-8.48-28.64-13.2a23.52 23.52 0 0 1-4.8-28h-12.8c-17.84 0-26.64-11.36-30.72-36.96-2.16 4.88-4.16 9.92-5.92 14.88a24 24 0 0 1-22.56 16c-55.2 0-162.72 84.88-162.72 240.4 0 48 25.12 128 43.52 186.72 5.76 18.56 10.8 34.56 14.56 48l1.44 5.04a160.48 160.48 0 0 1 6.72 32.24 24 24 0 0 1-24 25.92h-64c-8.48 0-16 13.44-16 24s7.52 24 16 24h40a24 24 0 0 1 24 30.08z" fill="#3C663E" p-id="2375"></path></svg>