<?xml version="1.0" standalone="no"?><!DOCTYPE svg PUBLIC "-//W3C//DTD SVG 1.1//EN" "http://www.w3.org/Graphics/SVG/1.1/DTD/svg11.dtd"><svg t="1606877363405" class="icon" viewBox="0 0 1024 1024" version="1.1" xmlns="http://www.w3.org/2000/svg" p-id="3499" xmlns:xlink="http://www.w3.org/1999/xlink" width="200" height="200"><defs><style type="text/css"></style></defs><path d="M953.44 411.92l-60.32-106.08a30.4 30.4 0 0 0-24-13.92h-727.2a26.72 26.72 0 0 0-22.4 14.64L73.44 411.92" fill="#F7BB83" p-id="3500"></path><path d="M73.44 427.92a15.12 15.12 0 0 1-6.4-1.36 16 16 0 0 1-8-21.04l45.76-105.36a42.72 42.72 0 0 1 37.12-24h727.28a46.24 46.24 0 0 1 37.84 22l60.32 106.08a16 16 0 1 1-27.84 16l-60.32-106.48a15.28 15.28 0 0 0-10-5.84H141.92a11.28 11.28 0 0 0-8 5.04L88 418.32a16 16 0 0 1-14.56 9.6z" fill="#6E4123" p-id="3501"></path><path d="M825.44 211.92l-24.88-49.68a28.4 28.4 0 0 0-23.12-14.32h-104a24.8 24.8 0 0 0-21.6 14.96l-18.4 49.04" fill="#F7BB83" p-id="3502"></path><path d="M633.44 227.92a15.12 15.12 0 0 1-5.6-1.04 16 16 0 0 1-9.44-20.56l18.4-49.04a40.88 40.88 0 0 1 36.64-25.36h104a44.56 44.56 0 0 1 37.44 23.2L840 204.8a16 16 0 0 1-28.64 14.32l-24.88-49.76a13.12 13.12 0 0 0-8.8-5.44h-104a9.36 9.36 0 0 0-6.64 4.64l-18.4 48.96a16 16 0 0 1-15.2 10.4z" fill="#6E4123" p-id="3503"></path><path d="M369.44 131.92l-24.88-49.68a28.4 28.4 0 0 0-23.12-14.32h-88a32 32 0 0 0-24.48 13.6l-31.52 50.4" fill="#F7BB83" p-id="3504"></path><path d="M369.44 147.92a16 16 0 0 1-14.32-8.8l-24.88-49.76a13.12 13.12 0 0 0-8.8-5.44h-88a17.04 17.04 0 0 0-10.96 6.08l-31.52 50.4a16 16 0 1 1-27.12-16.96l31.52-50.4a48 48 0 0 1 38.08-21.12h88a44.56 44.56 0 0 1 37.44 23.2L384 124.8a16 16 0 0 1-7.2 21.44 16 16 0 0 1-7.36 1.68z" fill="#6E4123" p-id="3505"></path><path d="M892.08 914.4c0 45.04-170.72 81.52-381.36 81.52s-381.28-36.48-381.28-81.52 170.72-81.44 381.28-81.44 381.36 36.48 381.36 81.44z" fill="#B8CBCD" p-id="3506"></path><path d="M681.44 291.92h96v64h-96z" fill="#F7BB83" p-id="3507"></path><path d="M777.44 371.92h-96a16 16 0 0 1-16-16v-64a16 16 0 0 1 16-16h96a16 16 0 0 1 16 16v64a16 16 0 0 1-16 16z m-80-32h64v-32h-64z" fill="#6E4123" p-id="3508"></path><path d="M633.44 211.92h192v80h-192z" fill="#FFFFFF" p-id="3509"></path><path d="M825.44 307.92h-192a16 16 0 0 1-16-16v-80a16 16 0 0 1 16-16h192a16 16 0 0 1 16 16v80a16 16 0 0 1-16 16z m-176-32h160v-48h-160z" fill="#6E4123" p-id="3510"></path><path d="M225.44 211.92h96v144h-96z" fill="#F7BB83" p-id="3511"></path><path d="M321.44 371.92h-96a16 16 0 0 1-16-16v-144a16 16 0 0 1 16-16h96a16 16 0 0 1 16 16v144a16 16 0 0 1-16 16z m-80-32h64v-112h-64z" fill="#6E4123" p-id="3512"></path><path d="M177.44 131.92h192v80h-192z" fill="#FFFFFF" p-id="3513"></path><path d="M369.44 227.92h-192a16 16 0 0 1-16-16v-80a16 16 0 0 1 16-16h192a16 16 0 0 1 16 16v80a16 16 0 0 1-16 16z m-176-32h160v-48h-160z" fill="#6E4123" p-id="3514"></path><path d="M73.44 411.92h880v448h-880z" fill="#F7BB83" p-id="3515"></path><path d="M953.44 875.92h-880a16 16 0 0 1-16-16v-448a16 16 0 0 1 16-16h880a16 16 0 0 1 16 16v448a16 16 0 0 1-16 16z m-864-32h848v-416h-848z" fill="#6E4123" p-id="3516"></path><path d="M297.44 635.92m-176 0a176 176 0 1 0 352 0 176 176 0 1 0-352 0Z" fill="#FFFFFF" p-id="3517"></path><path d="M297.44 827.92a192 192 0 1 1 192-192 192 192 0 0 1-192 192z m0-352a160 160 0 1 0 160 160 160 160 0 0 0-160-160z" fill="#6E4123" p-id="3518"></path><path d="M297.44 507.92m-16 0a16 16 0 1 0 32 0 16 16 0 1 0-32 0Z" fill="#6E4123" p-id="3519"></path><path d="M297.44 507.92m-16 0a16 16 0 1 0 32 0 16 16 0 1 0-32 0Z" fill="#6E4123" p-id="3520"></path><path d="M172.48 628.72a16 16 0 1 1-10.32 20.16 16 16 0 0 1 10.32-20.16z" fill="#6E4123" p-id="3521"></path><path d="M297.44 763.92m-16 0a16 16 0 1 0 32 0 16 16 0 1 0-32 0Z" fill="#6E4123" p-id="3522"></path><path d="M412.48 659.12a16 16 0 1 1 20.16-10.24 16 16 0 0 1-20.16 10.24zM353.44 659.92h-56a16 16 0 0 1-16-16v-80a16 16 0 0 1 32 0v64h40a16 16 0 0 1 0 32z" fill="#6E4123" p-id="3523"></path><path d="M729.44 635.92m-176 0a176 176 0 1 0 352 0 176 176 0 1 0-352 0Z" fill="#FFFFFF" p-id="3524"></path><path d="M729.44 827.92a192 192 0 1 1 192-192 192 192 0 0 1-192 192z m0-352a160 160 0 1 0 160 160 160 160 0 0 0-160-160z" fill="#6E4123" p-id="3525"></path><path d="M694.72 707.52a16 16 0 0 1-12-26.56l30.72-35.04V563.92a16 16 0 0 1 32 0v88a16 16 0 0 1-4 10.56l-34.64 39.52a16 16 0 0 1-12.08 5.52z" fill="#6E4123" p-id="3526"></path><path d="M145.44 859.92h136v96h-136z" fill="#F7BB83" p-id="3527"></path><path d="M281.44 971.92h-136a16 16 0 0 1-16-16v-96a16 16 0 0 1 16-16h136a16 16 0 0 1 16 16v96a16 16 0 0 1-16 16z m-120-32h104v-64h-104z" fill="#6E4123" p-id="3528"></path><path d="M745.44 859.92h136v96h-136z" fill="#F7BB83" p-id="3529"></path><path d="M881.44 971.92h-136a16 16 0 0 1-16-16v-96a16 16 0 0 1 16-16h136a16 16 0 0 1 16 16v96a16 16 0 0 1-16 16z m-120-32h104v-64h-104z" fill="#6E4123" p-id="3530"></path><path d="M337.44 67.92l32 64v80h-48v80h312v-80l24-64h136l32 64v80h59.76l68.24 120v448h-72v96h-136v-96h-464v96h-136v-96h-72v-448l52.48-120h99.52v-80h-48v-80l40-64h120m0-32h-120a32 32 0 0 0-27.12 15.04l-40 64a32 32 0 0 0-4.88 16.96v80a32 32 0 0 0 32 32h16v16h-67.52a32 32 0 0 0-29.36 19.2l-52.48 120a32 32 0 0 0-2.64 12.8v448a32 32 0 0 0 32 32h40v64a32 32 0 0 0 32 32h136a32 32 0 0 0 32-32v-64h400v64a32 32 0 0 0 32 32h136a32 32 0 0 0 32-32v-64h40a32 32 0 0 0 32-32v-448a32.56 32.56 0 0 0-4.16-16l-68.24-120a32 32 0 0 0-27.84-16h-27.76v-48a33.04 33.04 0 0 0-3.36-14.32l-32-64a32 32 0 0 0-28.64-17.68h-136a32 32 0 0 0-30 20.8l-24 64a31.52 31.52 0 0 0-2 11.2v48h-248v-16h16a32 32 0 0 0 32-32v-80a33.04 33.04 0 0 0-3.36-14.32l-32-64a32 32 0 0 0-28.64-17.68z" fill="#6E4123" p-id="3531"></path><path d="M729.44 507.92m-16 0a16 16 0 1 0 32 0 16 16 0 1 0-32 0Z" fill="#6E4123" p-id="3532"></path><path d="M604.48 628.72a16 16 0 1 1-10.24 20.16 16 16 0 0 1 10.24-20.16z" fill="#6E4123" p-id="3533"></path><path d="M729.44 763.92m-16 0a16 16 0 1 0 32 0 16 16 0 1 0-32 0Z" fill="#6E4123" p-id="3534"></path><path d="M844.48 659.12a16 16 0 1 1 20.16-10.24 16 16 0 0 1-20.16 10.24z" fill="#6E4123" p-id="3535"></path></svg>