<?xml version="1.0" standalone="no"?><!DOCTYPE svg PUBLIC "-//W3C//DTD SVG 1.1//EN" "http://www.w3.org/Graphics/SVG/1.1/DTD/svg11.dtd"><svg t="1606877337181" class="icon" viewBox="0 0 1024 1024" version="1.1" xmlns="http://www.w3.org/2000/svg" p-id="2206" xmlns:xlink="http://www.w3.org/1999/xlink" width="200" height="200"><defs><style type="text/css"></style></defs><path d="M668.4 174.64h-424a144 144 0 0 0-144 144v32a144 144 0 0 0 144 144h135.36a92 92 0 0 1 169.36 0h119.28a144 144 0 0 0 144-144v-32a144 144 0 0 0-144-144z" fill="#FFFFFF" p-id="2207"></path><path d="M668.4 518.64H549.12A24 24 0 0 1 527.04 504a68 68 0 0 0-125.2 0 24 24 0 0 1-22.08 14.56H244.4a168 168 0 0 1-168-168v-32a168 168 0 0 1 168-168h424a168 168 0 0 1 168 168v32a168 168 0 0 1-168 168.08z m-104.72-48h104.72a120 120 0 0 0 120-120v-32a120 120 0 0 0-120-120h-424a120 120 0 0 0-120 120v32a120 120 0 0 0 120 120h120.72a116 116 0 0 1 198.56 0z" fill="#324654" p-id="2208"></path><path d="M895.12 872c0 45.04-168 78.48-378.72 78.48s-384-33.44-384-78.48 170.72-81.36 381.36-81.36 381.36 36.56 381.36 81.36z" fill="#B8CBCD" p-id="2209"></path><path d="M696.4 886.64a252.24 252.24 0 0 1-252-252 24 24 0 0 1 48 0 204 204 0 0 0 408 0V62.64a24 24 0 1 1 48 0v572a252.24 252.24 0 0 1-252 252z" fill="#324654" p-id="2210"></path><path d="M340.4 590.64c0 30.96 25.04 80 56 80h144c30.96 0 56-49.04 56-80h-256z" fill="#B9E3ED" p-id="2211"></path><path d="M540.4 686.64h-144c-41.76 0-72-57.28-72-96a16 16 0 0 1 16-16h256a16 16 0 0 1 16 16c0 38.72-30.24 96-72 96z m-181.68-80c6 22.96 22.8 48 37.68 48h144c14.96 0 32-25.04 37.76-48z" fill="#324654" p-id="2212"></path><path d="M145.408 453.632l287.992-288 33.944 33.944-288 288zM239.096 473.32l298-298 22.624 22.624-298 298z" fill="#B9E3ED" p-id="2213"></path><path d="M668.4 518.64H549.12A24 24 0 0 1 527.04 504a68 68 0 0 0-125.2 0 24 24 0 0 1-22.08 14.56H244.4a168 168 0 0 1-168-168v-32a168 168 0 0 1 168-168h424a168 168 0 0 1 168 168v32a168 168 0 0 1-168 168.08z m-104.72-48h104.72a120 120 0 0 0 120-120v-32a120 120 0 0 0-120-120h-424a120 120 0 0 0-120 120v32a120 120 0 0 0 120 120h120.72a116 116 0 0 1 198.56 0z" fill="#324654" p-id="2214"></path><path d="M812.4 366.64a24 24 0 0 1-24-24 120 120 0 0 0-120-120h-424a120 120 0 0 0-120 120 24 24 0 0 1-48 0 168 168 0 0 1 168-168h424a168 168 0 0 1 168 168 24 24 0 0 1-24 24z" fill="#324654" opacity=".2" p-id="2215"></path></svg>