<?xml version="1.0" standalone="no"?><!DOCTYPE svg PUBLIC "-//W3C//DTD SVG 1.1//EN" "http://www.w3.org/Graphics/SVG/1.1/DTD/svg11.dtd"><svg t="1606877388025" class="icon" viewBox="0 0 1024 1024" version="1.1" xmlns="http://www.w3.org/2000/svg" p-id="4823" xmlns:xlink="http://www.w3.org/1999/xlink" width="200" height="200"><defs><style type="text/css"></style></defs><path d="M862.72 88L588.48 362.48l12.56 12.48a64.88 64.88 0 0 0 16 26 66 66 0 0 0 26 16.4l10.8 10.8 274.4-274.4c11.92-12 8-34.88-10.48-53.52s-43.04-24-55.04-12.24z" fill="#F7BB83" p-id="4824"></path><path d="M654.16 444.16a16 16 0 0 1-11.36-4.72l-8-8A86.24 86.24 0 0 1 587.12 384l-10-10a16 16 0 0 1-4.64-11.28 16 16 0 0 1 4.64-11.36l274.32-274.48A38.96 38.96 0 0 1 880 65.84a73.36 73.36 0 0 1 49.6 23.12c24.72 24.64 29.2 57.36 10.56 76.08l-274.72 274.4a16 16 0 0 1-11.28 4.72z m-43.04-81.68l1.2 1.2a16 16 0 0 1 3.92 6.48 50.88 50.88 0 0 0 12.48 19.52A49.84 49.84 0 0 0 648 402.08a16 16 0 0 1 6 3.44l263.28-263.12c4.8-4.8 1.68-18.64-10.48-30.8a42.32 42.32 0 0 0-26.8-13.76 8 8 0 0 0-5.68 1.68z" fill="#6E4123" p-id="4825"></path><path d="M676.72 73.84l-52 52.08 46.64 46.64a285.44 285.44 0 0 0 64 93.76 285.44 285.44 0 0 0 93.76 64l51.52 51.52 52.08-52.08c36.96-36.96 5.84-128-63.52-197.28S713.68 36.88 676.72 73.84z" fill="#F7BB83" p-id="4826"></path><path d="M880.64 397.84a16 16 0 0 1-11.28-4.72L820.08 344a302.08 302.08 0 0 1-96-66.32 301.2 301.2 0 0 1-66.32-96l-44.4-44.4a16 16 0 0 1 0-22.64l52.08-52.08a79.12 79.12 0 0 1 57.44-21.44c48 0 108.24 30.72 157.68 80 78.08 78.16 106.56 176.8 63.44 220l-52.08 52a16 16 0 0 1-11.28 4.72z m-233.28-272l35.28 35.36a16 16 0 0 1 3.6 5.36 272.4 272.4 0 0 0 60.48 88.4 273.12 273.12 0 0 0 88 60.4 16 16 0 0 1 5.44 3.6l40 40 40.72-40.72c26.24-26.24 4.72-106.56-63.44-174.72-42.96-42.96-96-70.72-135.04-70.72a47.28 47.28 0 0 0-34.4 12.32z" fill="#6E4123" p-id="4827"></path><path d="M819.76 186.72c70.72 70.72 98 157.92 61.04 194.88s-124.24 9.68-194.88-61.04-98-157.92-61.04-194.88 124.24-9.6 194.88 61.04z" fill="#F7BB83" p-id="4828"></path><path d="M835.36 414.08c-48.48 0-110.08-31.44-160.72-82.16A298.88 298.88 0 0 1 600 215.28c-13.36-42.8-8.48-78.56 13.84-100.88a78.08 78.08 0 0 1 56.8-21.2c48 0 110 31.52 160.72 82.24a297.84 297.84 0 0 1 74.8 116.56c13.44 42.8 8.48 78.64-13.76 100.96a78.16 78.16 0 0 1-57.04 21.12zM670.4 125.2a46.56 46.56 0 0 0-34.24 11.84c-13.2 13.2-15.36 38.32-5.84 68.72a266.56 266.56 0 0 0 66.88 103.52c44.24 44.24 98.48 72.8 138.16 72.8a46.48 46.48 0 0 0 34.16-11.76c13.28-13.28 15.44-38.32 5.84-68.72a265.04 265.04 0 0 0-66.88-103.52c-44.24-44.24-98.48-72.88-138.08-72.88z" fill="#6E4123" p-id="4829"></path><path d="M552.4 106.24l-70.72 70.8 63.44 63.36A389.84 389.84 0 0 0 632 368a388.64 388.64 0 0 0 127.52 86.8l70 70 70.72-70.72c50.24-50.24 8-173.92-86.24-268.16S602.72 56 552.4 106.24z" fill="#F7BB83" p-id="4830"></path><path d="M829.52 540.8a16 16 0 0 1-11.36-4.64l-67.6-67.68A405.36 405.36 0 0 1 620.8 379.12a404.72 404.72 0 0 1-89.28-129.68l-61.12-61.12a16 16 0 0 1 0-22.64l70.72-70.72a101.76 101.76 0 0 1 74-27.44c64 0 144 41.04 210.24 107.12 104 104 142.56 234.32 86.24 290.72L840.8 536a16 16 0 0 1-11.28 4.8zM504 177.04l52.08 52.08a15.12 15.12 0 0 1 3.6 5.36 376 376 0 0 0 83.76 122.08A377.44 377.44 0 0 0 765.44 440a17.2 17.2 0 0 1 5.44 3.52l58.64 58.64 59.44-59.36c42.4-42.48 2.08-157.2-86.24-245.52-60.32-60.32-132.16-97.76-187.6-97.76a69.76 69.76 0 0 0-51.36 18.08z" fill="#6E4123" p-id="4831"></path><path d="M895.12 888.8c0 45.04-170.8 81.52-381.36 81.52s-381.36-36.48-381.36-81.52 173.36-78.16 384-78.16 378.72 33.2 378.72 78.16z" fill="#B8CBCD" p-id="4832"></path><path d="M747.92 258.64c96 96 133.2 214.64 82.96 264.88s-168.88 13.04-264.88-82.96S432.8 225.92 483.04 176s168.8-13.44 264.88 82.64z" fill="#F7BB83" p-id="4833"></path><path d="M769.04 561.84c-64 0-146.48-42.16-214.4-110C450.8 348 414.4 221.68 472 164.32a100.8 100.8 0 0 1 73.12-27.04c64.4 0 146.56 42.16 214.4 110 48 48 83.84 104 100.32 156.16 17.52 56 11.36 102.64-17.36 131.36a100.8 100.8 0 0 1-73.44 27.04z m-224-392.56a68.64 68.64 0 0 0-50.48 17.68c-43.12 43.2-5.2 154.16 82.96 242.24 61.12 61.2 136 100.64 192 100.64a68.56 68.56 0 0 0 50-17.84c19.92-19.84 23.2-55.12 9.44-99.12-14.88-48-48-98.48-92.4-143.12C675.44 208.8 600 169.28 544.8 169.28z" fill="#6E4123" p-id="4834"></path><path d="M622.64 328L348.4 602.56l12.56 12.48a64.88 64.88 0 0 0 16 26 66 66 0 0 0 26 16.4l10.8 10.8 274.4-274.4c11.92-12 8-34.88-10.48-53.52s-43.04-24-55.04-12.32z" fill="#F7BB83" p-id="4835"></path><path d="M414.08 684.24a16 16 0 0 1-11.28-4.72l-8-8A86.72 86.72 0 0 1 347.04 624l-9.92-10a16 16 0 0 1-4.72-11.28 16 16 0 0 1 4.72-11.36l274.24-274.4A39.12 39.12 0 0 1 640 305.92a80 80 0 0 1 70.72 60.72 42.16 42.16 0 0 1-10.64 38.48l-274.4 274.4a16 16 0 0 1-11.6 4.72z m-43.04-81.68l1.2 1.2a14.64 14.64 0 0 1 3.92 6.48 53.68 53.68 0 0 0 32 32 15.52 15.52 0 0 1 6 3.44l263.04-263.2a11.76 11.76 0 0 0 1.76-10A48.64 48.64 0 0 0 640 337.92a8 8 0 0 0-5.68 1.68z" fill="#6E4123" p-id="4836"></path><path d="M184.88 473.84l-70.72 70.72L177.6 608a387.52 387.52 0 0 0 86.96 127.36A390.24 390.24 0 0 0 392 822.4l70 69.92 70.72-70.72c50.24-50.24 8-173.92-86.24-268.16S235.12 424 184.88 473.84z" fill="#F7BB83" p-id="4837"></path><path d="M462 908.32a16 16 0 0 1-11.36-4.64l-67.68-67.68a405.12 405.12 0 0 1-129.68-89.28 406.64 406.64 0 0 1-89.36-129.76l-61.04-61.12a16 16 0 0 1 0-22.64l70.72-70.72a101.84 101.84 0 0 1 74.4-27.44c64 0 144 41.04 210.16 107.12 104 104 142.64 234.4 86.24 290.8L473.28 904a16 16 0 0 1-11.28 4.32zM136.8 544.56l52.08 52.08a16 16 0 0 1 3.52 5.44 377.28 377.28 0 0 0 83.52 122 376 376 0 0 0 122 83.44 16 16 0 0 1 5.36 3.52l58.72 58.72 59.36-59.44c42.48-42.32 2.16-157.2-86.16-245.52-60.32-60.32-132.24-97.76-187.2-97.76a69.76 69.76 0 0 0-51.36 18.08z" fill="#6E4123" p-id="4838"></path><path d="M384 622.48c96 96 133.2 214.56 82.96 264.8s-168.8 13.12-264.88-82.96S68.96 589.76 119.2 539.52 288 526.4 384 622.48z" fill="#F7BB83" p-id="4839"></path><path d="M405.2 925.68c-64 0-146.48-42.16-214.32-110-48-48-83.92-104-100.32-156.16-17.52-56-11.36-102.64 17.36-131.52a100.56 100.56 0 0 1 73.12-27.04c64 0 146.48 42.16 214.32 110 48 48 83.92 104 100.32 156.16 17.52 56 11.36 102.64-17.36 131.36a100.56 100.56 0 0 1-73.12 27.2z m-224-392.56a68.4 68.4 0 0 0-50.48 17.68c-19.92 19.92-23.28 55.12-9.44 99.2 14.88 48 48 98.4 92.32 143.04 61.2 61.12 136.48 100.64 192 100.64a68.56 68.56 0 0 0 50.4-17.68c19.92-19.92 23.28-55.12 9.44-99.2-14.88-47.6-48-98.4-92.4-143.04-61.04-61.12-136.72-100.64-192-100.64z" fill="#6E4123" p-id="4840"></path><path d="M145.04 605.52l-52.08 52.08 46.64 46.4a286.24 286.24 0 0 0 64 93.76 286.24 286.24 0 0 0 93.76 64l51.44 51.44 52.08-52c36.96-37.04 5.92-128-63.44-197.36s-155.44-95.28-192.4-58.32z" fill="#F7BB83" p-id="4841"></path><path d="M348.88 929.52a16 16 0 0 1-11.28-4.64l-49.2-49.2a304.96 304.96 0 0 1-96-66.32 304.96 304.96 0 0 1-66.32-96l-44.32-44.4a16 16 0 0 1 0-22.56l52.08-52.08a78.88 78.88 0 0 1 57.36-21.44c48 0 108.32 30.64 157.68 80 78.16 78.08 106.64 176.8 63.52 219.92L360 924.88a16 16 0 0 1-11.12 4.64z m-233.28-272l35.36 35.36a16 16 0 0 1 3.52 5.36 272.88 272.88 0 0 0 60.48 88 272.88 272.88 0 0 0 88.4 60.48 16 16 0 0 1 5.36 3.52l40 40 40.8-40.72C416 824 394.32 744 326.16 675.52c-42.88-42.96-96-70.72-135.04-70.72a47.44 47.44 0 0 0-34.8 12.08z" fill="#6E4123" p-id="4842"></path><path d="M288 718.48c70.64 70.64 98 157.92 61.04 194.88s-124.24 9.6-194.88-61.04S56 694.4 93.2 657.44 217.36 648 288 718.48z" fill="#F7BB83" p-id="4843"></path><path d="M304 945.84c-48.4 0-110-31.52-160.72-82.24a296.96 296.96 0 0 1-75.2-116.56C54.64 704 59.52 668.4 81.84 646.08a78.16 78.16 0 0 1 56.8-21.12c48.48 0 110 31.44 160.72 82.16A298.88 298.88 0 0 1 374.24 824c13.36 42.8 8.48 78.64-13.84 100.88a78.08 78.08 0 0 1-56.4 20.96zM138.64 656.96a46.32 46.32 0 0 0-34.16 11.76c-13.28 13.28-15.44 38.32-5.92 68.72a265.68 265.68 0 0 0 66.96 103.52c44.24 44.24 98.48 72.88 138.08 72.88a46.24 46.24 0 0 0 34.16-11.84c13.28-13.2 15.44-38.24 5.92-68.64a266.48 266.48 0 0 0-66.96-104c-44.24-43.84-98.4-72.4-138.08-72.4z" fill="#6E4123" p-id="4844"></path><path d="M178.8 772.16l-54.4 54.48 9.68 15.28a69.36 69.36 0 0 0 42.32 42.32l10.8 10.8 57.36-57.36c12-11.92 8-34.88-10.48-53.44s-43.36-24.24-55.28-12.08z" fill="#F7BB83" p-id="4845"></path><path d="M187.2 911.04a16 16 0 0 1-11.2-4.64l-8-8a82.56 82.56 0 0 1-28.56-18.96 81.6 81.6 0 0 1-19.6-30.4l-8.64-13.52a16 16 0 0 1 2.24-19.92l54.32-54.48a38.8 38.8 0 0 1 28.32-11.04 73.92 73.92 0 0 1 49.68 23.04c24.64 24.72 29.2 57.44 10.48 76.16l-57.36 57.36a16 16 0 0 1-11.68 4.4z m-42.4-82.16l2.8 4.48a18.08 18.08 0 0 1 1.76 3.76 49.44 49.44 0 0 0 12.4 19.44 50.32 50.32 0 0 0 19.52 12.48 14.8 14.8 0 0 1 5.92 3.44l46.08-46.08c4.8-4.8 1.68-18.72-10.48-30.88a42.32 42.32 0 0 0-27.04-13.68 8 8 0 0 0-5.68 1.6z" fill="#6E4123" p-id="4846"></path><path d="M188.48 840c18.16 18.08 24 41.84 12.64 53.04s-34.96 5.52-53.04-12.64-24-41.92-12.64-53.04 34.88-5.76 53.04 12.64z" fill="#F7BB83" p-id="4847"></path><path d="M185.68 914.48a72.8 72.8 0 0 1-48.96-23.04 79.28 79.28 0 0 1-21.52-36.72 40 40 0 0 1 8.88-38.72 36.96 36.96 0 0 1 26.8-10.4 72.96 72.96 0 0 1 49.12 22.8 79.44 79.44 0 0 1 21.6 36.8 40 40 0 0 1-9.2 38.8 36.88 36.88 0 0 1-26.72 10.48z m-34.8-77.12a6.4 6.4 0 0 0-4.16 1.04 11.2 11.2 0 0 0-0.4 8.88 47.28 47.28 0 0 0 13.04 21.52c13.44 13.44 27.76 15.28 30.4 12.64 1.04-0.96 1.6-4.16 0.48-8.88a48 48 0 0 0-13.12-21.52 41.52 41.52 0 0 0-26.24-13.68z" fill="#6E4123" p-id="4848"></path><path d="M722.88 57.04c34.56 0 78.48 18.4 120 51.44l19.84-20.48a24 24 0 0 1 17.04-6.32 57.44 57.44 0 0 1 38.32 18.4c18.64 18.64 22.4 41.52 10.48 53.52l-22.48 22.4c42.16 59.92 56 124 26.64 153.52l-18 18c12.16 44.32 8.72 83.12-14.48 106.32l-69.36 69.36-1.28 1.28a85.28 85.28 0 0 1-60.4 21.12c-46.8 0-106.48-24.88-162.96-69.6L485.04 597.28c66.16 85.68 90.4 181.6 48 224l-65.68 65.68-5.04 5.04a88 88 0 0 1-56.48 17.6 174.88 174.88 0 0 1-45.68-6.72l-10.4 10.32a62.08 62.08 0 0 1-45.12 16c-29.52 0-66-13.44-101.92-38a8 8 0 0 0-0.72 1.04 21.44 21.44 0 0 1-15.44 5.68 56.8 56.8 0 0 1-37.6-18.32c-13.52-13.44-20.08-30-18-42.24l-0.4-9.6-1.6-5.44c-50.56-64-66.8-133.2-35.12-165.28L104 647.04c-11.44-41.52-8.64-78.16 10.8-102.24l70.72-70.72A85.52 85.52 0 0 1 248 451.04c50 0 114.48 28.32 173.44 78.88l117.92-118.32C464 322.64 438.32 222.96 481.76 177.04l1.2-1.2 69.2-69.28a85.76 85.76 0 0 1 62.64-22.72 171.44 171.44 0 0 1 45.36 6.64l16-16a63.36 63.36 0 0 1 46.16-16.8m0-32a94.64 94.64 0 0 0-68.8 26.16l-3.76 3.76a195.68 195.68 0 0 0-35.28-3.44 117.28 117.28 0 0 0-85.2 32l-68.88 68.96-0.72 0.72-0.8 0.8-2.4 2.64C408 211.68 424 312 496.56 409.12l-77.84 77.84c-57.76-43.44-118.88-67.92-170.72-67.92a117.44 117.44 0 0 0-85.36 32l-70.72 70.72a32 32 0 0 0-5.6 8c-19.6 27.36-25.6 64.8-17.52 107.52-40.8 43.28-28.8 122.24 29.2 199.12a84.56 84.56 0 0 0 27.44 66.24 88 88 0 0 0 60.24 27.68 57.44 57.44 0 0 0 14.48-1.76c36 21.44 72 33.04 104 33.04a94.08 94.08 0 0 0 65.68-24 188.8 188.8 0 0 0 35.76 3.6 121.84 121.84 0 0 0 72-21.2 32 32 0 0 0 7.36-5.52l5.12-5.04 65.6-65.6c49.52-49.52 37.28-147.28-28.4-243.68L609.2 518.4c54.72 38 112 59.44 160 59.44a117.76 117.76 0 0 0 80-27.84 27.92 27.92 0 0 0 2.8-2.56l1.28-1.2 69.12-69.12c27.28-27.28 36.64-69.04 27.04-118.88l5.36-5.44c36.64-36.64 32.88-102.32-8-171.76l4.24-4.24c25.12-25.2 20.64-67.68-10.48-98.8A88.96 88.96 0 0 0 880 49.84a55.44 55.44 0 0 0-40 16l-0.8 0.8C800 40 758.32 25.04 722.88 25.04z" fill="#6E4123" p-id="4849"></path></svg>