<?xml version="1.0" standalone="no"?><!DOCTYPE svg PUBLIC "-//W3C//DTD SVG 1.1//EN" "http://www.w3.org/Graphics/SVG/1.1/DTD/svg11.dtd"><svg t="1606877350509" class="icon" viewBox="0 0 1024 1024" version="1.1" xmlns="http://www.w3.org/2000/svg" p-id="2855" xmlns:xlink="http://www.w3.org/1999/xlink" width="200" height="200"><defs><style type="text/css"></style></defs><path d="M916.08 850.08c0 45.04-170.72 81.52-381.36 81.52s-381.28-36.48-381.28-81.52 173.36-78.16 384-78.16 378.64 33.2 378.64 78.16z" fill="#B8CBCD" p-id="2856"></path><path d="M844.08 803.92v-376c0-181.12-145.04-328-324-328-178.88 0-324 146.88-324 328v376c56 0 63.2-64 102.72-64 49.28 0 49.28 64 113.28 64 56 0 56-64 104-64s48 64 112 64c48 0 56.64-64 104-64s40.88 64 112 64z" fill="#F6E89A" p-id="2857"></path><path d="M844.08 811.92c-54.48 0-78.08-29.36-93.68-48.72-11.28-13.92-13.36-15.28-18.32-15.28-8 0-14.48 6.08-27.6 20.96-16 18.16-37.84 43.04-76.4 43.04-48.88 0-73.12-28-89.12-46.48-12.8-14.72-16.4-17.52-22.88-17.52s-10.16 2.88-22.64 18.32c-14.72 18.16-37.04 45.68-81.36 45.68-48.56 0-72.88-27.68-88.96-46-12.56-14.32-16.56-18-24-18-3.2 0-11.6 9.92-17.2 16.56-16 18.88-40 47.44-85.52 47.44v-64c14.24 0 21.76-7.2 36.72-24.88 14-16.48 33.2-39.12 66-39.12 37.52 0 57.68 22.96 72.48 40s22.08 24 40.8 24c12.8 0 18.16-5.36 32-22s34-42 72-42c36.88 0 56.72 22.88 71.2 40s22 24 40.8 24c8.72 0 15.04-6.16 28.32-21.28 16-18 37.6-42.72 75.68-42.72 36.64 0 55.6 23.52 68.16 39.12s20 24.88 43.84 24.88z" fill="#8D4520" opacity=".2" p-id="2858"></path><path d="M829.2 353.28a24 24 0 0 1-22.32-15.2c-39.44-100.8-135.36-166.64-256.48-176C423.44 152 304.4 208 247.12 305.68a24 24 0 1 1-41.36-24C272 168 409.04 102.48 554.16 113.92c139.92 11.12 248 89.04 294.56 207.36a22 22 0 0 1-10.8 30.4 24 24 0 0 1-8.72 1.6z" fill="#FFFFFF" p-id="2859"></path><path d="M764.08 385.12a94.4 94.4 0 1 1-94.4-94.4 94.4 94.4 0 0 1 94.4 94.4z" fill="#FFFFFF" p-id="2860"></path><path d="M669.68 495.52a110.4 110.4 0 1 1 110.4-110.4 110.48 110.48 0 0 1-110.4 110.4z m0-188.8a78.4 78.4 0 1 0 78.4 78.4 78.56 78.56 0 0 0-78.4-78.4z" fill="#8D4520" p-id="2861"></path><path d="M868.08 827.92h-24c-50.64 0-72.8-27.52-87.52-45.76-11.68-14.56-15.6-18.24-24.48-18.24-12.16 0-20.32 8.56-33.6 24-14.96 17.04-35.44 40-70.4 40-45.28 0-67.12-25.28-83.12-43.68-12.96-15.04-18.48-20.32-28.88-20.32s-16 5.84-28.8 21.28c-14.64 18-34.64 42.72-75.2 42.72-44.96 0-66.88-25.04-82.96-43.28-13.44-15.36-19.12-20.72-30.32-20.72-6.24 0-12.16 6.24-23.28 19.36-16 18.88-37.84 44.64-79.44 44.64h-24v-400c0-194.08 156.16-352 348-352s348 157.92 348 352z m-352-112c33.28 0 50.96 20.4 65.2 36.88s23.52 27.12 46.8 27.12c12.64 0 20.88-8.64 34.32-24 16-17.84 35.2-40 69.68-40 32.8 0 49.6 20.88 61.92 36.16a71.12 71.12 0 0 0 26.08 23.92V427.92c0-168-134.56-304-300-304s-300 136-300 304v344A134.72 134.72 0 0 0 238.88 752c13.76-16 30.8-36.32 59.92-36.32 33.92 0 51.92 20.56 66.4 37.04s24 26.96 46.88 26.96c16.88 0 24.56-8.56 37.84-24.96s31.68-38.8 66.16-38.8z" fill="#8D4520" p-id="2862"></path><path d="M691.6 383.92m-20 0a20 20 0 1 0 40 0 20 20 0 1 0-40 0Z" fill="#8D4520" p-id="2863"></path><path d="M524.08 385.12a94.4 94.4 0 1 1-94.4-94.4 94.4 94.4 0 0 1 94.4 94.4z" fill="#FFFFFF" p-id="2864"></path><path d="M429.68 495.52a110.4 110.4 0 1 1 110.4-110.4 110.48 110.48 0 0 1-110.4 110.4z m0-188.8a78.4 78.4 0 1 0 78.4 78.4 78.56 78.56 0 0 0-78.4-78.4z" fill="#8D4520" p-id="2865"></path><path d="M451.6 383.92m-20 0a20 20 0 1 0 40 0 20 20 0 1 0-40 0Z" fill="#8D4520" p-id="2866"></path></svg>