<?xml version="1.0" standalone="no"?><!DOCTYPE svg PUBLIC "-//W3C//DTD SVG 1.1//EN" "http://www.w3.org/Graphics/SVG/1.1/DTD/svg11.dtd"><svg t="1606877356974" class="icon" viewBox="0 0 1024 1024" version="1.1" xmlns="http://www.w3.org/2000/svg" p-id="3177" xmlns:xlink="http://www.w3.org/1999/xlink" width="200" height="200"><defs><style type="text/css"></style></defs><path d="M900.4 921.2c0 44.96-170.72 81.44-381.36 81.44s-381.28-36.48-381.28-81.44S308.48 840 519.04 840s381.36 36.16 381.36 81.2z" fill="#B8CBCD" p-id="3178"></path><path d="M644.4 445.36l-208-18.72v-260a116 116 0 0 0-232 0v740c0 17.68 123.6 32 276 32s276-14.32 276-32V557.36a112 112 0 0 0-112-112z" fill="#F6E89A" p-id="3179"></path><path d="M269.28 807.52a275.68 275.68 0 0 1-48.88-14v101.12a306 306 0 0 0 48.88 14.08c0.24-34.72-0.56-66.48 0-101.2z" fill="#FFFFFF" p-id="3180"></path><path d="M480.4 946.64a1816 1816 0 0 1-197.04-9.44c-79.44-9.2-94.96-21.12-94.96-38.56v-732a132.16 132.16 0 0 1 132-132h84a16 16 0 0 1 0 32h-84a100.16 100.16 0 0 0-100 100v725.92c21.6 9.84 117.52 22.08 260 22.08a16 16 0 0 1 0 32z" fill="#8D4520" p-id="3181"></path><path d="M676.4 354.64s-56-8-56 56c-21.92-17.92 24-104-56-104-64 0-48 120-48 120v-260a116 116 0 0 0-232 0v740c0 17.68 123.6 32 276 32s276-14.32 276-32V557.36c0-16.96 8-138.72-48-138.72-38.88 0-47.04 22.08-56 40 0-96-32.72-104-56-104z" fill="#F6E89A" p-id="3182"></path><path d="M285.84 797.92v108.24s65.76 28 280 28 270.96-28.96 270.96-28.96v-104s-27.52 28-272 28-278.96-31.28-278.96-31.28z" fill="#FFFFFF" p-id="3183"></path><path d="M560.4 954.64c-277.92 0-292-14.4-292-38V166.64a132 132 0 0 1 264 0v131.2a68.64 68.64 0 0 1 37.36-10.96 65.44 65.44 0 0 1 66.32 60.64 75.84 75.84 0 0 1 40-11.44c40 0 72 29.92 72 66.56v8a69.36 69.36 0 0 1 104 60.08v435.76c0 17.44-15.52 29.36-94.96 38.56a1814.64 1814.64 0 0 1-196.72 9.6z m-260-44.8c15.44 5.44 71.28 12.8 260 12.8 142.48 0 238.4-12.24 260-22.08V470.88a37.28 37.28 0 0 0-70.32-17.44 16 16 0 0 1-16 8 17.44 17.44 0 0 1-12.48-7.12 16 16 0 0 1-5.44-12.08v-40c0-21.28-20.72-34.56-40-34.56s-40 13.28-40 34.56a16 16 0 0 1-32 0v-48a33.68 33.68 0 0 0-34.64-35.76 37.36 37.36 0 0 0-37.36 37.36 16 16 0 0 1-32 0V166.64a100 100 0 0 0-200 0z" fill="#8D4520" p-id="3184"></path><path d="M284.4 823.52h-2.16c-93.84-12.64-93.84-32-93.84-40a16 16 0 0 1 30-8 255.28 255.28 0 0 0 68.16 16 16 16 0 0 1-2.16 32z" fill="#8D4520" p-id="3185"></path><path d="M560.4 842.64c-140.24 0-271.52-10.08-292.64-22.56a16 16 0 0 1 16-27.6c13.04 6.24 120 18.16 276.32 18.16 146.24 0 243.36-12.88 261.52-22.8a16 16 0 0 1 30.48 6.8c0 17.44-15.52 29.36-94.96 38.56a1814.64 1814.64 0 0 1-196.72 9.44zM722.56 762.64h-120a16 16 0 0 1-16-16c0-31.52 28.88-57.92 59.44-85.92 25.36-23.2 54.08-49.52 54.08-72a40.48 40.48 0 0 0-40.8-40.8c-14.08 0-47.04 4.64-47.04 47.12a16 16 0 0 1-32 0c0-58.4 42.64-79.12 79.04-79.12a72 72 0 0 1 72.8 72.8c0 36.24-32.8 66.24-64.48 95.28A258.08 258.08 0 0 0 624 730.64h98.56a16 16 0 0 1 0 32zM508.4 762.64a16 16 0 0 1-16-16v-48h-80a16 16 0 0 1-13.52-24.48l96-152a16 16 0 0 1 29.52 8.48v136h32a16 16 0 0 1 0 32h-32v48a16 16 0 0 1-16 16z m-66.96-96h50.96V586z" fill="#8D4520" p-id="3186"></path><path d="M404.4 50.64a115.52 115.52 0 0 1 92.16 50.96 106.48 106.48 0 0 1 10.72 19.68 115.92 115.92 0 0 1 9.12 45.12v189.6a53.36 53.36 0 0 1 53.36-53.36 49.76 49.76 0 0 1 50.64 51.76v48a46.24 46.24 0 0 1 8-25.52 42.32 42.32 0 0 1 22-19.04 61.12 61.12 0 0 1 26.4-6c29.44 0 56 21.12 56 50.56v40c2.08 0 1.52 3.04 3.52 3.28a53.36 53.36 0 0 1 100.48 24.96v43.2c0.88 20.48 0 37.6 0 43.28v349.28c0 17.68-123.6 32-276 32h-80c-152 0-276-14.32-276-32V166.64a116 116 0 0 1 116-116h84m0-32H320.4a148.16 148.16 0 0 0-148 148v740c0 38.64 49.44 47.52 109.2 54.48a1826.96 1826.96 0 0 0 198.8 9.52h80a1828.56 1828.56 0 0 0 198.88-9.52c59.68-6.96 109.12-16 109.12-54.48V557.36v-5.2c0-8 0.64-22.48 0-38.72v-42.56a85.44 85.44 0 0 0-85.36-85.36 88 88 0 0 0-20 2.4A86.88 86.88 0 0 0 676.4 320a94.24 94.24 0 0 0-29.04 4.64 80.56 80.56 0 0 0-77.6-53.84 85.44 85.44 0 0 0-21.36 2.72V166.64a148.16 148.16 0 0 0-11.6-57.6 152.88 152.88 0 0 0-13.68-25.12 148.4 148.4 0 0 0-113.6-64.8 27.12 27.12 0 0 0-5.12-0.48z" fill="#8D4520" p-id="3187"></path><path d="M316.4 948.4a24 24 0 0 1-24-24V166.64c0-75.84 66.4-140 145.04-140a24 24 0 0 1 0 48c-52.64 0-97.04 42.16-97.04 92v757.76a24 24 0 0 1-24 24z" fill="#8D4520" opacity=".2" p-id="3188"></path></svg>