<?xml version="1.0" standalone="no"?><!DOCTYPE svg PUBLIC "-//W3C//DTD SVG 1.1//EN" "http://www.w3.org/Graphics/SVG/1.1/DTD/svg11.dtd"><svg t="1606877366496" class="icon" viewBox="0 0 1024 1024" version="1.1" xmlns="http://www.w3.org/2000/svg" p-id="3683" xmlns:xlink="http://www.w3.org/1999/xlink" width="200" height="200"><defs><style type="text/css"></style></defs><path d="M888 873.44c0 44.96-168 78.48-378.64 78.48s-384-33.52-384-78.48S296 792 506.72 792 888 828.4 888 873.44z" fill="#B8CBCD" p-id="3684"></path><path d="M655.36 840c-168.8 0-300.96-69.28-300.96-157.6a300.96 300.96 0 1 1 601.84 0c0 88.32-132.24 157.6-300.88 157.6z" fill="#F7BB83" p-id="3685"></path><path d="M655.36 397.44a284.88 284.88 0 0 1 284.88 284.96c0 78.16-125.04 141.52-284.88 141.52S370.4 760.56 370.4 682.4a284.96 284.96 0 0 1 284.96-284.96m0-32A317.36 317.36 0 0 0 338.4 682.4c0 98.96 136 173.52 316.96 173.52s316.88-74.56 316.88-173.52a317.28 317.28 0 0 0-316.88-316.96z" fill="#6E4123" p-id="3686"></path><path d="M384.48 722.4a24 24 0 0 1-24-24 309.28 309.28 0 0 1 308.96-308.96 24 24 0 0 1 0 48A261.2 261.2 0 0 0 408.48 698.4a24 24 0 0 1-24 24z" fill="#FFFFFF" p-id="3687"></path><path d="M317.92 928c-120.48 0-248.48-37.6-248.48-107.36a250.64 250.64 0 0 1 501.28 0c0 69.68-130.24 107.36-252.8 107.36z" fill="#F7BB83" p-id="3688"></path><path d="M320 585.92a234.64 234.64 0 0 1 234.64 234.64c0 50.48-108.4 91.36-236.8 91.36s-232.48-40.88-232.48-91.36A234.64 234.64 0 0 1 320 585.92m0-32a266.96 266.96 0 0 0-266.56 266.64C53.44 901.6 186.48 944 317.92 944c133.6 0 268.8-42.32 268.8-123.36A266.96 266.96 0 0 0 320 553.92z" fill="#6E4123" p-id="3689"></path><path d="M81.76 884.08a24 24 0 0 1-24-24c0-166.16 148.24-317.52 311.04-317.52a24 24 0 0 1 0 48c-135.2 0-263.04 130.96-263.04 269.52a24 24 0 0 1-24 24z" fill="#FFFFFF" p-id="3690"></path><path d="M655.36 397.44a284.88 284.88 0 0 1 284.88 284.96c0 78.16-125.04 141.52-284.88 141.52a555.84 555.84 0 0 1-100.72-8.88v5.52c0 50.48-108.4 91.36-236.8 91.36s-232.48-40.88-232.48-91.36A234.48 234.48 0 0 1 384 594.88a284.96 284.96 0 0 1 271.2-197.44m0-48A331.84 331.84 0 0 0 354.32 540a288 288 0 0 0-34.32-2.08 282.96 282.96 0 0 0-282.56 282.64c0 96 145.36 139.36 280.48 139.36 112 0 230.56-28.96 270.72-91.52a630.08 630.08 0 0 0 66.72 3.52c84.32 0 163.84-16.48 224-46.48 70.32-35.2 109.04-85.92 109.04-143.04a333.28 333.28 0 0 0-333.04-332.96z" fill="#6E4123" p-id="3691"></path><path d="M370 705.36c0 21.28-27.12 38.56-60.56 38.56s-60.56-17.28-60.56-38.56 27.12-38.56 60.56-38.56 60.56 17.28 60.56 38.56z" fill="#FFFFFF" p-id="3692"></path><path d="M309.44 760c-42.96 0-76.56-24-76.56-54.56s33.6-54.56 76.56-54.56 76.56 24 76.56 54.56S352 760 309.44 760z m0-77.12c-25.12 0-44.56 12.16-44.56 22.56S284.32 728 309.44 728s44.56-12.08 44.56-22.56-19.44-22.64-44.56-22.64z" fill="#6E4123" p-id="3693"></path><path d="M309.44 714.8a24 24 0 0 1-24-24V221.04a24 24 0 0 1 48 0v469.76a24 24 0 0 1-24 24z" fill="#6E4123" p-id="3694"></path><path d="M493.44 301.04l-184 82.88V213.04l184 88z" fill="#F6E89A" p-id="3695"></path><path d="M309.44 408a24 24 0 0 1-24-24V213.04A24 24 0 0 1 320 191.36l184 88a24 24 0 0 1-0.48 43.52l-184 82.96a24.72 24.72 0 0 1-10.08 2.16z m24-156.8v96l102.96-46.4z" fill="#6E4123" p-id="3696"></path><path d="M629.44 386h64v125.92h-64z" fill="#FFFFFF" p-id="3697"></path><path d="M693.44 528h-64a16 16 0 0 1-16-16V386a16 16 0 0 1 16-16h64a16 16 0 0 1 16 16V512a16 16 0 0 1-16 16z m-48-32h32V402h-32z" fill="#6E4123" p-id="3698"></path><path d="M814.32 359.36L677.84 152l-136 207.12c0.64 22.32 63.44 68.48 138.4 68.48s133.84-46.16 134.4-68.48z" fill="#B2EDA6" p-id="3699"></path><path d="M680 443.84c-75.92 0-151.52-46.96-154.32-82.72a10.72 10.72 0 0 1 0-1.6v-0.48a16 16 0 0 1 4-10.64l134.8-205.28a16 16 0 0 1 13.36-7.2 16 16 0 0 1 13.44 7.2l135.36 205.76a16 16 0 0 1 3.68 10.16 2.72 2.72 0 0 1 0 0.8v1.04c-2.48 33.2-69.6 82.96-150.32 82.96zM558.8 362.08C568 377.36 617.84 411.84 680 411.84c64 0 108.96-35.2 117.12-49.76L677.84 181.04z" fill="#3C663E" p-id="3700"></path><path d="M785.76 228L677.84 64 570.16 227.68c0.48 17.6 50.16 54.08 109.44 54.08s105.68-36.16 106.08-53.76z" fill="#B2EDA6" p-id="3701"></path><path d="M679.44 298.08c-62.64 0-122.64-38-125.36-68.24a11.84 11.84 0 0 1 0-1.68v-0.48a16 16 0 0 1 3.84-10.4L664.48 55.12A16 16 0 0 1 677.84 48a16 16 0 0 1 13.44 7.2l106.88 162.48a16 16 0 0 1 3.6 10 13.12 13.12 0 0 1 0 1.84c-2.48 30.72-59.52 68.56-122.32 68.56z m-91.6-68.16c8.96 11.84 45.28 36.16 91.6 36.16s80-24 88.64-36L677.84 93.04z" fill="#3C663E" p-id="3702"></path><path d="M837.44 575.92h-56V478.48l56 1.44v96z" fill="#FFFFFF" p-id="3703"></path><path d="M837.44 592h-56a16 16 0 0 1-16-16V478.56a16 16 0 0 1 4.8-11.52 16 16 0 0 1 11.6-4.48l56 1.36a16 16 0 0 1 16 16V576a16 16 0 0 1-16.4 16z m-40-32h24v-64l-24-0.56z" fill="#6E4123" p-id="3704"></path><path d="M909.44 452.48l-105.44-160-105.36 160c0.48 17.28 49.04 52.96 107.04 52.96s103.52-35.68 104-52.96z" fill="#B2EDA6" p-id="3705"></path><path d="M805.36 521.44c-61.44 0-120.48-37.52-122.96-67.28a8.72 8.72 0 0 1 0-1.44v-0.48a16 16 0 0 1 3.84-10.48l104-158.56a16 16 0 0 1 26.72 0l104.64 159.04a16 16 0 0 1 3.6 10V454c-2 30-58.08 67.44-119.84 67.44z m-89.12-67.12c8.96 11.6 44.4 35.12 89.12 35.12s78.08-23.28 86.32-34.88l-88-133.44z" fill="#3C663E" p-id="3706"></path><path d="M887.36 350.8L803.84 224 720.56 350.64c0 13.68 38.8 41.92 84.64 41.92s81.92-28.24 82.24-41.92z" fill="#B2EDA6" p-id="3707"></path><path d="M805.04 408.72c-47.36 0-98.24-28.64-100.56-56v-1.92a16 16 0 0 1 3.76-10.32l82.24-125.36a16 16 0 0 1 26.72 0l82.64 125.6a16 16 0 0 1 3.44 9.92V352c-1.92 25.44-47.76 56.72-98.24 56.72zM738.72 352a99.52 99.52 0 0 0 66.32 24.64 93.04 93.04 0 0 0 64-24.48l-65.28-99.2z" fill="#3C663E" p-id="3708"></path><path d="M677.84 64L785.6 227.68c0 9.28-13.36 24-34.4 35.52l13.28 20.16 39.36-59.36 83.36 126.64c0 7.2-10.4 18.48-26.64 27.52l48.64 73.92c-0.48 17.28-46 52.96-104 52.96s-106.56-35.68-107.04-52.96L717.04 424a186 186 0 0 1-37.2 3.92c-74.96 0-137.76-46.16-138.4-68.48l63.28-96c-21.12-11.52-34.64-25.68-34.88-34.8L677.84 64m0-32a32 32 0 0 0-26.72 14.4L544.64 208a32 32 0 0 0-6.64 19.44v2a4.24 4.24 0 0 1 0 1.04 62.48 62.48 0 0 0 23.04 40.4l-44.88 68.24a32 32 0 0 0-6.8 19.68v3.2c3.36 45.2 80.96 92.32 157.36 97.12 7.36 39.6 74 78.08 138.4 78.08 66 0 131.92-40 136-81.28a16 16 0 0 0 0-2 15.44 15.44 0 0 0 0-1.92 32 32 0 0 0-7.04-20L904 385.44a53.36 53.36 0 0 0 15.52-31.28 28.96 28.96 0 0 0 0-4.56 31.52 31.52 0 0 0-6.64-18.56l-82.24-124.72a32 32 0 0 0-26.8-14.4h-3.36l-96-145.76A32 32 0 0 0 677.84 32z" fill="#3C663E" p-id="3709"></path></svg>