<?xml version="1.0" standalone="no"?><!DOCTYPE svg PUBLIC "-//W3C//DTD SVG 1.1//EN" "http://www.w3.org/Graphics/SVG/1.1/DTD/svg11.dtd"><svg t="1606877354014" class="icon" viewBox="0 0 1024 1024" version="1.1" xmlns="http://www.w3.org/2000/svg" p-id="3016" xmlns:xlink="http://www.w3.org/1999/xlink" width="200" height="200"><defs><style type="text/css"></style></defs><path d="M936.4 884.16c0 45.04-173.36 78.48-384 78.48s-378.64-33.44-378.64-78.48 170.72-81.52 381.28-81.52 381.36 36.56 381.36 81.52z" fill="#B8CBCD" p-id="3017"></path><path d="M476.16 901.12s278.24 48.56 278.24-279.44c0-103.04 52.96-156 116.72-180.24 0 0 0-82.08-32-118.8 0 0-138.96 5.04-230.96 177.04s-132 401.44-132 401.44z" fill="#FFFFFF" p-id="3018"></path><path d="M520 919.36a260.4 260.4 0 0 1-37.28-2.4 16 16 0 1 1 5.04-32c1.44 0 108.8 16 185.2-49.2 52.64-44.96 79.28-118.16 79.28-217.52 0-92.32 37.6-155.52 112-187.76-1.44-26.48-8-74.96-27.76-97.68a16 16 0 0 1 24-21.04c35.52 40.72 35.92 125.68 35.92 129.28a16 16 0 0 1-10.32 14.96c-68.4 26-101.68 79.04-101.68 162.24 0 109.36-30.56 190.8-90.8 242.08-58.64 50.4-130.48 59.04-173.6 59.04z" fill="#324654" p-id="3019"></path><path d="M632.4 570.64c0-144.72 166.96-184.64 238.72-195.76a410 410 0 1 0-392.72 528c27.68 0 20.88 3.92 47.04-1.28 0-0.24 106.96-2.96 106.96-330.96z" fill="#B9E3ED" p-id="3020"></path><path d="M505.52 920a80.88 80.88 0 0 1-8.64-0.56 163.92 163.92 0 0 0-18.48-0.88 426 426 0 1 1 408-548.32 16 16 0 0 1-12.88 20.4c-84.08 12.96-225.2 53.52-225.2 179.92 0 322.4-102.56 345.12-120.96 346.64a115.92 115.92 0 0 1-21.84 2.8zM478.4 98.64a394 394 0 0 0 0 788 203.68 203.68 0 0 1 21.52 1.04 46.08 46.08 0 0 0 5.6 0.4 91.36 91.36 0 0 0 16.72-2.4 11.12 11.12 0 0 1 2.8 0c0.4 0 91.36-12.08 91.36-314.72 0-144 151.2-192.72 233.84-208A396.72 396.72 0 0 0 478.4 98.64z" fill="#324654" p-id="3021"></path><path d="M831.36 401.04a24 24 0 0 1-22.96-17.04c-48.8-163.2-208-281.6-378.64-281.6a24 24 0 0 1 0-48c191.28 0 369.84 132.8 424.64 315.84a24 24 0 0 1-16 29.84 23.28 23.28 0 0 1-7.04 0.96z" fill="#FFFFFF" p-id="3022"></path><path d="M64 458c0 226.48 241.2 444.72 467.68 444.72" fill="#B9E3ED" p-id="3023"></path><path d="M531.44 926.72c-115.2 0-237.36-52.48-335.2-144C96.8 689.76 40 571.36 40 458a24 24 0 0 1 48 0c0 208.4 224 420.72 443.68 420.72a24 24 0 0 1 0 48z" fill="#324654" opacity=".2" p-id="3024"></path><path d="M420.4 614.64m-84 0a84 84 0 1 0 168 0 84 84 0 1 0-168 0Z" fill="#B9E3ED" p-id="3025"></path><path d="M496.4 654.64a16 16 0 0 1-16-16c0-40-24.64-68-60-68s-60 28-60 68a16 16 0 0 1-32 0c0-57.92 38.72-100 92-100s92 42.08 92 100a16 16 0 0 1-16 16z" fill="#FFFFFF" p-id="3026"></path><path d="M420.4 714.64a100 100 0 1 1 100-100 100.08 100.08 0 0 1-100 100z m0-168a68 68 0 1 0 68 68 68.08 68.08 0 0 0-68-68z" fill="#324654" p-id="3027"></path><path d="M968.4 754.64L789.44 728a119.28 119.28 0 0 0-0.64 12c0 72.88 59.44 153.04 132.32 153.04 4 0 43.36 5.2 47.28 4.88z" fill="#B9E3ED" p-id="3028"></path><path d="M968 914.08c-3.84 0-12.32-0.96-29.44-2.96-6.64-0.8-16-1.84-17.76-1.92-84.48 0-147.92-89.28-147.92-169.04 0-4.08 0-8 0.64-13.44A16 16 0 0 1 792 712l178.96 26.56a16 16 0 0 1 13.68 16v143.44a16 16 0 0 1-14.56 16z m-163.04-167.44c3.44 60.64 53.92 130.56 116.16 130.56 2.32 0 6.4 0 21.12 2.16l10.16 1.2v-112zM493.84 918.72H478.4a426 426 0 1 1 408-548.32 16 16 0 0 1-12.88 20.4c-84.08 12.96-225.2 53.52-225.2 179.92 0 325.6-104.64 344-121.68 345.04l-7.12 0.96a155.92 155.92 0 0 1-25.68 2zM478.4 98.64a394 394 0 0 0 0 788h15.44a120.88 120.88 0 0 0 21.6-1.84l8-0.96h1.92s91.12-10.72 91.12-313.12c0-144 151.2-192.72 233.84-208A396.72 396.72 0 0 0 478.4 98.64z" fill="#324654" p-id="3029"></path><path d="M968.4 754.64l-400-56v-120l400 88v88z" fill="#B9E3ED" p-id="3030"></path><path d="M968.4 770.64a10.96 10.96 0 0 1-2.24 0l-400-56a16 16 0 0 1-13.76-16v-120a16 16 0 0 1 19.44-16l400 88a16 16 0 0 1 12.56 16v88a16 16 0 0 1-16 16z m-384-85.92l368 51.52v-56.72l-368-80.96z" fill="#324654" p-id="3031"></path><path d="M888.4 898.64a16 16 0 0 1-16-16v-232a16 16 0 0 1 32 0v232a16 16 0 0 1-16 16z" fill="#324654" p-id="3032"></path><path d="M478.4 82.64A410 410 0 0 1 856 333.36c24 40 24 108.08 24 108.08-64 24-112 74.16-112 177.2v4l200 44v231.44c-6.16 0-42.8-4.56-46.72-4.88-73.12-6.4-132.32-80-132.32-153.04 0-3.52 0-7.04 0.56-10.56l-33.12-4.64c-40.88 158.64-173.36 178.32-236.4 178.32h-11.76c-8 0-14.8 0-20.08-0.8H478.4a410 410 0 0 1 0-820m0-32a442 442 0 0 0 0 884h9.12c6.72 0.48 13.68 0.72 20.72 0.72H520c56.72 0 183.2-15.12 245.28-141.44 21.68 69.44 83.12 125.12 153.28 131.2l8.96 1.04c26.64 3.12 35.76 4 40.56 4h3.44a32 32 0 0 0 29.12-32V666.64a32 32 0 0 0-25.12-31.2l-174.08-38.32c5.2-64 34.32-104 90.56-125.76a32 32 0 0 0 20.64-29.92c0-8-0.8-76.4-27.6-122.56A441.28 441.28 0 0 0 478.4 50.64z" fill="#324654" p-id="3033"></path></svg>