<?xml version="1.0" standalone="no"?><!DOCTYPE svg PUBLIC "-//W3C//DTD SVG 1.1//EN" "http://www.w3.org/Graphics/SVG/1.1/DTD/svg11.dtd"><svg t="1606877360214" class="icon" viewBox="0 0 1024 1024" version="1.1" xmlns="http://www.w3.org/2000/svg" p-id="3336" xmlns:xlink="http://www.w3.org/1999/xlink" width="200" height="200"><defs><style type="text/css"></style></defs><path d="M897.76 884.16c0 45.04-174.72 86.48-385.36 86.48s-377.36-41.44-377.36-86.48 166.72-81.52 377.36-81.52 385.36 36.56 385.36 81.52z" fill="#B8CBCD" p-id="3337"></path><path d="M587.6 108.16a32 32 0 1 1 57.04 29.04l-272 624a51.92 51.92 0 0 1-48.56 33.52h-216a52 52 0 1 1 0-104h208z" fill="#F7BB83" p-id="3338"></path><path d="M324.4 810.64h-216a68 68 0 1 1 0-136h197.84l266.88-573.28A48 48 0 0 1 616 74.64a48.56 48.56 0 0 1 21.84 5.28 48 48 0 0 1 21.12 64L387.68 767.52a68.16 68.16 0 0 1-63.28 43.12z m-216-104a36 36 0 1 0 0 72h216a36.08 36.08 0 0 0 33.6-23.2l272-624.56a4.88 4.88 0 0 1 0-0.96 16 16 0 0 0-6.96-21.52 16 16 0 0 0-21.52 6.96L330.88 697.44a16 16 0 0 1-14.48 9.2z" fill="#6E4123" p-id="3339"></path><path d="M217.2 794.64H117.92l56.72-104h99.28l-56.72 104z" fill="#FFFFFF" p-id="3340"></path><path d="M217.2 810.64H117.92a16 16 0 0 1-14.08-24l56.72-104a16 16 0 0 1 14.08-8h99.28a16 16 0 0 1 13.76 8 16 16 0 0 1 0 16l-56.72 104a16 16 0 0 1-13.76 8z m-72-32H208l39.28-72H184z" fill="#6E4123" p-id="3341"></path><path d="M708.4 690.64h208a52 52 0 0 1 0 104h-216a51.92 51.92 0 0 1-48.56-33.52l-272-624a32 32 0 0 1 57.04-29.04z" fill="#F7BB83" p-id="3342"></path><path d="M916.4 810.64h-216a68.4 68.4 0 0 1-63.52-43.84L365.68 144a48 48 0 0 1 21.2-64 48 48 0 0 1 64.56 20.96l267.2 573.76h197.76a68 68 0 0 1 0 136z m-507.76-704a16.8 16.8 0 0 0-7.28 1.76 16 16 0 0 0-8 9.36 16 16 0 0 0 0.96 12.16l0.48 0.96 272 624a36.48 36.48 0 0 0 33.92 24h216a36 36 0 0 0 0-72h-208a16 16 0 0 1-14.48-9.2L422.64 114.88a16 16 0 0 0-14-8.24z" fill="#6E4123" p-id="3343"></path><path d="M814.64 794.64h99.28l-56.72-104H757.92l56.72 104z" fill="#FFFFFF" p-id="3344"></path><path d="M913.92 810.64h-99.28a16 16 0 0 1-14.08-8L744 698.32a16 16 0 0 1 14.08-24h99.28a16 16 0 0 1 14 8l56.72 104a16 16 0 0 1 0 16 16 16 0 0 1-14.16 8.32z m-89.76-32h62.8l-39.28-72h-62.8z" fill="#6E4123" p-id="3345"></path><path d="M408.4 902.64c0 19.92 57.2 36 108 36s108-16 108-36v-64c0-19.84-57.2-36-108-36s-108 16-108 36z" fill="#B9E3ED" p-id="3346"></path><path d="M516.4 962.64c-36.72 0-132-10.72-132-60v-64c0-49.2 95.28-60 132-60s132 10.8 132 60v64c0 49.36-95.28 60-132 60z m-84-65.12c9.84 6.64 43.2 17.12 84 17.12s74.16-10.48 84-17.12v-53.68c-9.84-6.64-43.2-17.2-84-17.2s-74.16 10.56-84 17.2z" fill="#324654" p-id="3347"></path><path d="M516.4 890.64c-48 0-124-14.08-124-52a16 16 0 0 1 32-1.52c6 8 44.88 21.52 92.08 21.52s86.08-13.84 92.08-21.52a16 16 0 0 1 32 1.52c-0.16 37.92-76.24 52-124.16 52z" fill="#324654" p-id="3348"></path><path d="M616 90.64a33.04 33.04 0 0 1 14.56 3.52 32 32 0 0 1 13.92 43.04l-93.52 215.2 157.44 338.24h208a52 52 0 0 1 0 104h-216a51.92 51.92 0 0 1-48.56-33.52l-139.44-320-139.44 320a51.92 51.92 0 0 1-48.56 33.52h-216a52 52 0 1 1 0-104h208l157.52-338.24-93.76-215.2a32 32 0 0 1 14-43.04 31.44 31.44 0 0 1 14.48-3.52 32 32 0 0 1 28.56 17.52l75.2 161.52 75.2-161.52A32 32 0 0 1 616 90.64m0-32a64 64 0 0 0-57.04 34.96l-0.48 1.04-46.08 99.28-46.24-99.28-0.48-1.04a64 64 0 0 0-57.04-34.96 64.48 64.48 0 0 0-29.04 7.04 64 64 0 0 0-28.4 85.12L438.8 352 296 658.64H108.4a84 84 0 0 0 0 168h216a84.32 84.32 0 0 0 78.16-53.36l109.84-252.24 109.84 252.24a84.32 84.32 0 0 0 78.16 53.36h216a84 84 0 0 0 0-168H728.8L586 352l88-201.2a64 64 0 0 0-28.72-85.12A64.88 64.88 0 0 0 616 58.64z" fill="#6E4123" p-id="3349"></path></svg>