<?xml version="1.0" standalone="no"?><!DOCTYPE svg PUBLIC "-//W3C//DTD SVG 1.1//EN" "http://www.w3.org/Graphics/SVG/1.1/DTD/svg11.dtd"><svg t="1606877665087" class="icon" viewBox="0 0 1024 1024" version="1.1" xmlns="http://www.w3.org/2000/svg" p-id="9250" xmlns:xlink="http://www.w3.org/1999/xlink" width="200" height="200"><defs><style type="text/css"></style></defs><path d="M315.4 634.8h363.3l115.6-11.1 70-35.6 38.9-72.2v-77.8l-57.8-74.4s-27.2-25.1-48.1-27.6L786.5 262 739 177.8l-71.7-41.7-85.8-14.1-89.2 31.7s-86.7 46.7-66.7 113.3l-64.2-32.5-80.8 5.8-64.2 50-28.2 66.7v45.8s-2.5 41 36.7 40.9l-66.7 25.8-28.3 46.7 5 48.3 25 39.2 54.2 25 101.3 6.1z" fill="#B4D6F2" p-id="9251"></path><path d="M903.2 515.9v-77.8l-57.8-74.4s-27.2-25.1-48.1-27.6L786.5 262 739 177.8l-71.7-41.7-26.6-4.4H554S770 173 769 378.3c0 0 175.5 23.3 72.1 221.5l23.2-11.8 38.9-72.1z" fill="#64A9D8" p-id="9252"></path><path d="M181.1 419.8c7.4 0 13.3-6 13.3-13.3 0-0.8-0.1-1.6-0.2-2.4-1.5-8-2.2-16.2-2.2-24.3 0-73.5 59.8-133.3 133.3-133.3 36.5-0.1 71.4 14.8 96.5 41.3 5.3 5.1 13.8 4.9 18.9-0.5 4.7-5 4.9-12.7 0.4-17.9-30.1-31.8-72-49.8-115.8-49.6-88.2 0-160 71.8-160 160 0 9.8 0.9 19.7 2.7 29.2 1.2 6.3 6.8 10.8 13.1 10.8m255.8-197.4c34.7-51.8 92.8-82.8 155.1-82.8 102.9 0 186.7 83.7 186.7 186.7 0 16.9-2.3 33.7-6.7 49.8-2 7.1 2.2 14.4 9.3 16.4 7.1 2 14.4-2.2 16.4-9.3 5.1-18.4 7.7-37.6 7.7-56.9C805.3 208.7 709.6 113 592 113c-71.2 0-137.6 35.4-177.2 94.6-4.1 6.1-2.5 14.4 3.6 18.5s14.4 2.5 18.5-3.7m407.3 133.2c-6-4.3-14.3-2.8-18.6 3.2-4.3 6-2.8 14.3 3.2 18.6 35.4 25 56.4 65.6 56.5 109 0 73.5-59.8 133.3-133.3 133.3h-66.7c-7.4 0-13.3 6-13.3 13.3 0 7.4 6 13.3 13.3 13.3H752c88.2 0 160-71.8 160-160 0-51.9-25.3-100.7-67.8-130.7M432 633c0-7.4-6-13.3-13.3-13.3h-200c-44.1 0-80-35.9-80-80s35.9-80 80-80c7.4 0 13.3-6 13.3-13.3 0-7.4-6-13.3-13.3-13.3C159.9 433 112 480.9 112 539.7s47.9 106.7 106.7 106.7h200c7.3-0.1 13.3-6 13.3-13.4M517.4 733.4H445l60.4-140.9c2.5-5.6 0-12.3-5.7-14.8-5.6-2.5-12.3 0-14.8 5.7 0 0.1-0.1 0.2-0.1 0.3l-67.1 156.5c-2.5 5.6 0.1 12.2 5.8 14.7 1.4 0.6 2.9 0.9 4.5 0.9h72.5l-60.4 140.9c-2.5 5.6 0 12.3 5.7 14.8 5.6 2.5 12.3 0 14.8-5.7 0-0.1 0.1-0.2 0.1-0.3l67-156.5c2.4-5.7-0.2-12.3-5.9-14.7-1.3-0.6-2.8-0.9-4.4-0.9M632 670.4h-60.8l33.2-88.7c2.6-6.9-0.9-14.6-7.8-17.2-6.9-2.6-14.6 0.9-17.2 7.8l-40 106.7c-2.6 6.9 0.9 14.6 7.8 17.2 1.5 0.6 3.1 0.8 4.7 0.8h55.9L554 783.3c-3.9 6.2-2 14.5 4.2 18.4 6.2 3.9 14.5 2 18.4-4.2l66.7-106.7c3.9-6.2 2-14.5-4.2-18.4-2.1-1.3-4.6-2-7.1-2" fill="#231F1F" p-id="9253"></path><path d="M707.7 235.2c-6.2 4-7.9 12.3-3.9 18.4 14.1 21.6 21.6 46.9 21.5 72.7 0 7.4 6 13.3 13.3 13.3s13.3-6 13.3-13.3c0-31-8.9-61.3-25.9-87.3-3.9-6.1-12.1-7.9-18.3-3.8M264.3 292.2c-19.8 13.8-34.3 33.9-41.3 57-1.9 7.1 2.3 14.4 9.4 16.3 6.8 1.8 13.9-2 16.1-8.7a80.44 80.44 0 0 1 31-42.8c6.1-4.1 7.8-12.4 3.7-18.5s-12.4-7.8-18.5-3.7c-0.1 0.2-0.2 0.3-0.4 0.4" fill="#231F1F" p-id="9254"></path><path d="M384 499.2h-95.6c-4.2 0-7.6-3.4-7.6-7.6 0-4.2 3.4-7.6 7.6-7.6H384c4.2 0 7.6 3.4 7.6 7.6 0 4.2-3.4 7.6-7.6 7.6zM384 527.4h-95.6c-4.2 0-7.6-3.4-7.6-7.6s3.4-7.6 7.6-7.6H384c4.2 0 7.6 3.4 7.6 7.6s-3.4 7.6-7.6 7.6z" fill="#F2A300" p-id="9255"></path><path d="M731.7 446.4c-0.9 0-1.9-0.2-2.8-0.5l-67.7-27c-2.9-1.2-4.8-3.9-4.8-7s1.9-5.9 4.8-7l67.7-27c3.9-1.5 8.3 0.3 9.9 4.2s-0.3 8.3-4.2 9.9l-50 20 50 20c3.9 1.6 5.8 6 4.2 9.9-1.2 2.7-4.1 4.5-7.1 4.5zM302.4 446.4c-3 0-5.9-1.8-7.1-4.8-1.6-3.9 0.3-8.3 4.2-9.9l50-20-50-20c-3.9-1.6-5.8-6-4.2-9.9 1.6-3.9 6-5.8 9.9-4.2l67.7 27c2.9 1.2 4.8 3.9 4.8 7s-1.9 5.9-4.8 7l-67.7 27c-0.9 0.6-1.8 0.8-2.8 0.8z" fill="#231815" p-id="9256"></path><path d="M739.2 499.2h-95.6c-4.2 0-7.6-3.4-7.6-7.6 0-4.2 3.4-7.6 7.6-7.6h95.6c4.2 0 7.6 3.4 7.6 7.6 0 4.2-3.4 7.6-7.6 7.6zM739.2 527.4h-95.6c-4.2 0-7.6-3.4-7.6-7.6s3.4-7.6 7.6-7.6h95.6c4.2 0 7.6 3.4 7.6 7.6s-3.4 7.6-7.6 7.6z" fill="#F2A300" p-id="9257"></path><path d="M557.5 519.2c-4.2 0-7.6-3.4-7.6-7.6v-21h-78v21c0 4.2-3.4 7.6-7.6 7.6-4.2 0-7.6-3.4-7.6-7.6V483c0-4.2 3.4-7.6 7.6-7.6h93.1c4.2 0 7.6 3.4 7.6 7.6v28.6c0.1 4.2-3.3 7.6-7.5 7.6z" fill="#231815" p-id="9258"></path><path d="M474.3 490.6c-3.2 0-6.1-2-7.2-5.2-1.3-4 0.8-8.3 4.7-9.6 6.9-2.3 13.3-38 13.5-74.8 0-4.2 3.4-7.6 7.6-7.6h47.6c4.2 0 7.6 3.4 7.6 7.6v82c0 4.2-3.4 7.6-7.6 7.6-4.2 0-7.6-3.4-7.6-7.6v-74.3h-32.6c-0.7 27-4.5 75-23.7 81.5-0.6 0.3-1.5 0.4-2.3 0.4z" fill="#231815" p-id="9259"></path></svg>