<?xml version="1.0" standalone="no"?><!DOCTYPE svg PUBLIC "-//W3C//DTD SVG 1.1//EN" "http://www.w3.org/Graphics/SVG/1.1/DTD/svg11.dtd"><svg t="1606877627044" class="icon" viewBox="0 0 1024 1024" version="1.1" xmlns="http://www.w3.org/2000/svg" p-id="7363" xmlns:xlink="http://www.w3.org/1999/xlink" width="200" height="200"><defs><style type="text/css"></style></defs><path d="M796.6 430.2C865.8 405.5 912 370.2 912 325c0-95.5-206.1-147-400-147s-400 51.5-400 147c0 23.4 12.4 44.1 33.9 62.1-3.7 7.9-5.8 16.2-5.8 25.1 0 39.5 39.3 69.8 98.5 90.5-1.2 2.8-1.9 5.9-1.8 9.2 1.5 33.2 34.8 57.1 83.9 72.5 0 0.8-0.1 1.5-0.1 2.3 1.4 23 16.2 41.5 39.5 55.8-5.6 3.7-9.2 10-9.2 17.1 0 16.4 9.5 29.9 25.2 40.9-8.8 1.4-16.1 8.3-17.3 17.6-2.5 19.5 7.8 38.3 27 53.3-3.8 3.2-6.4 7.7-7.1 13-2.5 19.2 6 38.8 23.1 53.7 15.1 13.2 35.8 22 58.5 24.9 5.4 0.7 10.8 1 16 1 43.4 0 78.4-23.1 82.6-56.7 0.7-5.3-0.8-10.4-3.7-14.4 22.3-9.7 37-25.2 39.5-44.8 0.7-5.3-0.8-10.3-3.6-14.4 73.3-7.4 138.2-31.3 138.2-74.2 0-9.1-6-16.9-14.3-19.5 41.9-20.3 69.5-48 67.5-81.7-0.7-11.3-10.4-19.8-21.7-19.2-3.8 0.2-7.2 1.5-10.1 3.5 21.4-15.9 33.6-34.5 32.7-55.7-0.4-9.2-6.8-16.5-15.3-18.7 14-11.4 23.9-24 28.5-38zM512 431c-136.9 0-241.3-23.4-301.3-51.7 44.3-25.8 136.1-49.7 259.1-49.7 157.5 0 263.8 39 284.7 71.4-60.6 17.6-142.9 30-242.5 30z m0-212c222.4 0 359 61.7 359 106 0 19.7-27.2 42.9-77 62.6-29.9-65.1-177.8-99-324.2-99-120.3 0-241.7 22.9-297.7 67.2-12.5-10.6-19.1-21.1-19.1-30.8 0-44.3 136.6-106 359-106zM181.1 412.1c0-0.6 0.3-1.2 0.4-1.8C258.3 450.8 387.6 472 512 472c69.3 0 140.2-6.6 202.6-19.4-48.3 22.8-133.8 42.1-244.8 42.1-176.2 0-288.7-48.9-288.7-82.6z m284.4 410.1c-14.4-1.8-27.8-7.3-36.6-15.1-3.1-2.7-9.9-9.7-9.3-17.2 14.4 5.7 30.7 9.9 48.5 12.2 9.4 1.2 18.5 1.8 27.3 1.8 7.9 0 15.5-0.5 22.8-1.4-2.3 12.3-24.9 23.3-52.7 19.7z m88.6-79.3c-1.3 10-33 24.8-80.9 18.6-22.6-2.9-43.9-10.1-58.4-19.8-11.2-7.5-15.7-14.8-15.3-18.5 0.5-3.8-0.2-7.5-1.6-10.8 37 16.2 90.7 23.9 142.2 23.9 5.4 0 10.8-0.1 16.2-0.3-1.1 2.1-1.9 4.4-2.2 6.9z m134.2-83.6c-2.5 9.9-51.9 36-148.2 36S394.5 669.1 392 659.5c0-0.8-0.1-1.5-0.2-2.3 37.5 13.9 85.7 20.8 134.5 20.8 10.6 0 21.3-0.3 31.8-1 46.3-2.8 93.4-12.1 132.4-26.8-1.4 2.8-2.2 5.8-2.2 9.1z m53.2-98.5c1.6 26-70.1 68.2-186.1 75.3-99.4 6-169.6-17.5-188.6-40.7 34.6 6.3 73.3 9.4 112.9 9.4 11.7 0 23.4-0.3 35.1-0.8 92.8-4.2 185.6-25.3 234.1-60.2-4.8 4-7.8 10.2-7.4 17z m0.8-72.1c1 21.6-79.1 67.5-229.3 74.4-139.8 6.4-222-26.4-233.6-48.4 56.2 13.9 123.5 21 190.5 21 104.7 0 210.2-17.4 272.7-51.1-0.3 1.4-0.3 2.7-0.3 4.1z" fill="#091E33" p-id="7364"></path></svg>