<?xml version="1.0" standalone="no"?><!DOCTYPE svg PUBLIC "-//W3C//DTD SVG 1.1//EN" "http://www.w3.org/Graphics/SVG/1.1/DTD/svg11.dtd"><svg t="1606877372122" class="icon" viewBox="0 0 1024 1024" version="1.1" xmlns="http://www.w3.org/2000/svg" p-id="4015" xmlns:xlink="http://www.w3.org/1999/xlink" width="200" height="200"><defs><style type="text/css"></style></defs><path d="M895.12 880.8c0 45.04-170.8 81.52-381.36 81.52s-381.36-36.48-381.36-81.52 170.72-81.44 381.36-81.44 381.36 36.48 381.36 81.44z" fill="#B8CBCD" p-id="4016"></path><path d="M178.24 645.2a336 336 0 0 1-61.12-192.48c0-199.12 176.96-386.56 395.28-386.56s395.28 187.44 395.28 386.56a336.56 336.56 0 0 1-62.16 194.08s-16-94.16-337.44-94.16c-312.8 0-329.84 92.56-329.84 92.56z" fill="#FFBAB0" p-id="4017"></path><path d="M178.24 645.2a336 336 0 0 1-61.12-192.48c0-199.12 176.96-386.56 395.28-386.56s395.28 187.44 395.28 386.56a336.56 336.56 0 0 1-62.16 194.08s-16-94.16-337.44-94.16c-312.8 0-329.84 92.56-329.84 92.56z" fill="#FFBAB0" p-id="4018"></path><path d="M845.44 662.8a16 16 0 0 1-9.12-2.96 16 16 0 0 1-3.92-22.24 320.64 320.64 0 0 0 59.28-184.88c0-197.36-177.2-370.56-379.28-370.56S133.12 255.36 133.12 452.72a320.96 320.96 0 0 0 58.24 183.36 16 16 0 0 1-26.32 18.24 352.48 352.48 0 0 1-64-201.6c0-214.4 192-402.56 411.28-402.56s411.28 188.16 411.28 402.56A352 352 0 0 1 858.56 656a16 16 0 0 1-13.12 6.8z" fill="#783741" p-id="4019"></path><path d="M848 659.84a16 16 0 0 1-16-16c0-29.92-130.8-75.2-328-75.2-192 0-310.56 43.84-310.56 75.2a16 16 0 0 1-32 0c0-73.6 177.52-107.2 342.56-107.2 178.8 0 360 36.88 360 107.2a16 16 0 0 1-16 16z" fill="#783741" p-id="4020"></path><path d="M177.92 643.84c0-50.32 139.84-91.2 326.56-91.2s344 40.88 344 91.2L810.56 800c0 44.72-139.52 80.96-305.12 80.96S216 844.96 216 800z" fill="#F6E89A" p-id="4021"></path><path d="M505.44 897.2c-145.44 0-302.32-29.68-305.44-94.8L162.4 648a14.72 14.72 0 0 1-0.48-3.76c0-73.6 177.6-107.2 342.56-107.2 178.8 0 360 36.88 360 107.2a19.36 19.36 0 0 1-0.48 3.76l-37.44 154.8c-3.92 69.2-193.36 94.4-321.12 94.4zM194 642.32l37.28 154.16a15.12 15.12 0 0 1 0.72 3.52c0 23.28 91.44 64.96 273.68 64.96 187.04 0 289.12-42.88 289.12-64.96a20 20 0 0 1 0.4-3.76L832 642.4c-4.16-29.92-133.92-73.76-328-73.76-188.8 0-306.24 42.4-310 73.68z" fill="#783741" p-id="4022"></path><path d="M505.44 905.2c-153.76 0-308.88-31.44-313.6-101.6L156 655.2a360 360 0 0 1-62.88-202.48c0-218.72 195.92-410.56 419.28-410.56s419.28 192 419.28 410.56a359.36 359.36 0 0 1-60.56 198.88l-36.72 152c-5.68 80.24-216.72 101.6-328.96 101.6zM197.28 630.56a24.56 24.56 0 0 1 4.32 8.96l37.44 155.12a21.92 21.92 0 0 1 0.72 5.6c0 13.76 80 56.96 265.68 56.96 170.64 0 275.2-38 281.2-57.44a21.84 21.84 0 0 1 0.56-5.12l36.8-153.36a24 24 0 0 1 4.16-12.08 312.56 312.56 0 0 0 55.28-176.48c0-193.12-173.52-362.56-371.28-362.56S141.12 259.6 141.12 452.72a312.72 312.72 0 0 0 56.16 177.84z" fill="#783741" p-id="4023"></path><path d="M848 685.92a16 16 0 0 1-16-16c0-29.92-130.8-75.2-328-75.2-192.4 0-310.56 43.84-310.56 75.2a16 16 0 0 1-32 0c0-73.68 177.6-107.2 342.56-107.2 178.8 0 360 36.8 360 107.2a16 16 0 0 1-16 16z" fill="#783741" p-id="4024"></path><path d="M683.2 309.44a166.48 166.48 0 1 1-166.48-166.48A166.48 166.48 0 0 1 683.2 309.44z" fill="#FFFFFF" p-id="4025"></path><path d="M516.72 491.84a182.48 182.48 0 1 1 182.48-182.4 182.64 182.64 0 0 1-182.48 182.4z m0-332.88A150.48 150.48 0 1 0 667.2 309.44a150.64 150.64 0 0 0-150.48-150.48z" fill="#783741" p-id="4026"></path><path d="M828.32 226.56a182.16 182.16 0 0 0 71.36 298.4 331.52 331.52 0 0 0 8-72 376 376 0 0 0-79.36-226.4z" fill="#FFFFFF" p-id="4027"></path><path d="M899.68 540.96a15.04 15.04 0 0 1-5.28-0.96 198 198 0 0 1-77.6-324.48 16 16 0 0 1 24 1.36 393.76 393.76 0 0 1 82.64 235.84 346.08 346.08 0 0 1-8 75.68 16 16 0 0 1-16 12.56z m-72.48-288.56a166.08 166.08 0 0 0 60.8 250.24 317.44 317.44 0 0 0 4-49.92 357.76 357.76 0 0 0-64.8-200.32z" fill="#783741" p-id="4028"></path><path d="M125.76 528A182.56 182.56 0 0 0 256 352.88a181.76 181.76 0 0 0-56-131.2 377.44 377.44 0 0 0-83.2 231.04A331.36 331.36 0 0 0 125.76 528z" fill="#FFFFFF" p-id="4029"></path><path d="M125.76 544a16.96 16.96 0 0 1-8-2.16 16 16 0 0 1-7.52-10.24 347.68 347.68 0 0 1-9.04-78.56 394.24 394.24 0 0 1 86.56-241.2 16 16 0 0 1 11.52-6.08 15.36 15.36 0 0 1 12.16 4.48A196.64 196.64 0 0 1 272 352.88a199.44 199.44 0 0 1-141.68 190.08 15.04 15.04 0 0 1-4.56 1.04z m75.92-297.04a358.8 358.8 0 0 0-68.56 206.08 310.56 310.56 0 0 0 4.64 53.68A168 168 0 0 0 240 352.88a164.8 164.8 0 0 0-38.32-106.24zM436.4 754.64a24 24 0 0 1-24 24 24 24 0 0 1-24-24v-96a24 24 0 0 1 24-24 24 24 0 0 1 24 24zM628.4 754.64a24 24 0 0 1-24 24 24 24 0 0 1-24-24v-96a24 24 0 0 1 24-24 24 24 0 0 1 24 24z" fill="#783741" p-id="4030"></path></svg>