<?xml version="1.0" standalone="no"?><!DOCTYPE svg PUBLIC "-//W3C//DTD SVG 1.1//EN" "http://www.w3.org/Graphics/SVG/1.1/DTD/svg11.dtd"><svg t="1606877575501" class="icon" viewBox="0 0 1024 1024" version="1.1" xmlns="http://www.w3.org/2000/svg" p-id="5451" xmlns:xlink="http://www.w3.org/1999/xlink" width="200" height="200"><defs><style type="text/css"></style></defs><path d="M836.5 336.5c-93.2 0-168.7-75.5-168.7-168.7 0-17.1 2.6-33.6 7.3-49.1-58.2 26.6-98.7 85.3-98.7 153.5 0 93.2 75.5 168.7 168.7 168.7 76.1 0 140.4-50.4 161.4-119.6-21.4 9.7-45.1 15.2-70 15.2z" fill="#FFD46C" p-id="5452"></path><path d="M759.2 426c-93.2 0-168.7-75.5-168.7-168.7 0-42.9 16.1-82.1 42.5-111.8-35.2 30.9-57.5 76.2-57.5 126.7 0 93.2 75.5 168.7 168.7 168.7 50.1 0 95.2-21.9 126-56.6-29.6 25.9-68.4 41.7-111 41.7z" fill="#F49D18" p-id="5453"></path><path d="M745 446c-87.9 0-162.1-65.8-172.5-152.9-0.1-1.1 0.2-2.1 0.8-3 0.7-0.8 1.6-1.4 2.7-1.5l2.2-0.3h0.5c2 0 3.7 1.5 4 3.5 9.8 82 79.6 143.9 162.4 143.9 67.8 0 129-42.3 152.9-105.4-19.6 7.5-40.3 11.2-61.5 11.2-95.8 0-173.8-78-173.8-173.8 0-13.3 1.5-26.5 4.5-39.4-46 25.1-78.3 72.4-84.5 124.1-0.2 2-2 3.5-4 3.5h-0.5l-2.2-0.3c-1.1-0.1-2-0.7-2.7-1.5s-1-1.9-0.8-2.9c3.6-29.7 14.9-58.2 32.8-82.3 17.5-23.7 40.9-42.7 67.7-54.9l2.3-1c0.5-0.2 1.1-0.4 1.7-0.4 1 0 1.9 0.3 2.6 1 1.2 1 1.6 2.7 1.2 4.2l-0.7 2.4c-4.7 15.4-7.1 31.4-7.1 47.6 0 90.2 73.4 163.6 163.5 163.6 23.6 0 46.4-5 67.8-14.8l2.3-1c0.5-0.2 1.1-0.4 1.7-0.4 1 0 1.9 0.4 2.6 1 1.2 1 1.7 2.7 1.2 4.2l-0.7 2.4c-10.6 34.9-32.6 66.3-61.9 88.4C819.2 433.9 783.1 446 745 446z" fill="#231815" p-id="5454"></path><path d="M745 445c-87.4 0-161.2-65.4-171.5-152-0.1-0.8 0.1-1.6 0.6-2.2 0.5-0.6 1.2-1 2-1.1l2.2-0.3h0.4c1.5 0 2.8 1.1 3 2.6 9.9 82.6 80.1 144.8 163.4 144.8 69.5 0 131-43.3 154.6-108.1-20.1 8-41.4 12-63.2 12-95.3 0-172.8-77.5-172.8-172.8 0-14 1.7-27.9 5-41.4-47.5 25-80.6 72.8-87 125.9-0.2 1.5-1.5 2.6-3 2.6h-0.4l-2.2-0.3c-0.8-0.1-1.5-0.5-2-1.1-0.5-0.6-0.7-1.4-0.6-2.2 3.5-29.6 14.8-57.9 32.6-81.8 17.4-23.6 40.7-42.4 67.3-54.6l2.3-1c0.4-0.2 0.8-0.3 1.2-0.3 0.7 0 1.4 0.3 2 0.8 0.9 0.8 1.2 2 0.9 3.1l-0.7 2.4c-4.7 15.5-7.1 31.6-7.1 47.9 0 90.7 73.8 164.6 164.6 164.6 23.8 0 46.7-5 68.3-14.8l2.3-1c0.4-0.2 0.8-0.3 1.2-0.3 0.7 0 1.4 0.3 2 0.7 0.9 0.8 1.2 2 0.9 3.1l-0.7 2.4c-10.5 34.7-32.4 65.9-61.5 87.8C818.7 433 782.8 445 745 445z" fill="#231815" p-id="5455"></path><path d="M665.2 242.2c1.2-1.3 1.2-3.5-0.3-4.8-1.4-1.4-3.4-1.3-4.8 0 0.1 0.2-12.5 14.5-25.9 17.3-13.3 2.5-26.5-4.8-26.6-5-1.5-0.9-3.5-0.3-4.6 1.4-0.8 1.7-0.1 3.8 1.5 4.8 0 0 15.6 8.7 31.3 5.6 15.5-3.2 29.2-19.2 29.4-19.3z" fill="#091E33" p-id="5456"></path><path d="M670.4 253.3l-10.5-5.4c-1.5-0.8-2-2.6-1.3-4l0.3-0.6c0.8-1.5 2.6-2.1 4-1.3l10.5 5.4c1.5 0.8 2 2.6 1.3 4l-0.3 0.6c-0.7 1.5-2.5 2.1-4 1.3zM660.4 262.1l-7.9-8.7c-1.1-1.2-1-3.1 0.2-4.2l0.5-0.5c1.2-1.1 3.1-1 4.2 0.2l7.9 8.7c1.1 1.2 1 3.1-0.2 4.2l-0.5 0.5c-1.2 1.1-3.1 1-4.2-0.2zM650 269l-5.9-10.2c-0.8-1.4-0.3-3.3 1.1-4.1l0.6-0.4c1.4-0.8 3.3-0.3 4.1 1.1l5.9 10.2c0.8 1.4 0.3 3.3-1.1 4.1l-0.6 0.4c-1.4 0.8-3.3 0.3-4.1-1.1zM637.6 272.2l-3.9-11.1c-0.5-1.6 0.3-3.3 1.8-3.8l0.7-0.2c1.6-0.5 3.3 0.3 3.8 1.9l3.9 11.1c0.5 1.6-0.3 3.3-1.8 3.8l-0.7 0.2c-1.6 0.5-3.3-0.3-3.8-1.9zM624.3 273.6v-11.8c0-1.7 1.3-3 3-3h0.7c1.7 0 3 1.3 3 3v11.8c0 1.7-1.3 3-3 3h-0.7c-1.7 0-3-1.3-3-3zM611.6 271.4l3.3-11.3c0.5-1.6 2.1-2.5 3.7-2l0.7 0.2c1.6 0.5 2.5 2.1 2 3.7l-3.3 11.3c-0.5 1.6-2.1 2.5-3.7 2l-0.7-0.2c-1.5-0.5-2.4-2.1-2-3.7zM599.1 264.9l7-9.5c1-1.3 2.9-1.6 4.2-0.6l0.6 0.4c1.3 1 1.6 2.9 0.6 4.2l-7 9.5c-1 1.3-2.9 1.6-4.2 0.6l-0.6-0.4c-1.3-1-1.6-2.8-0.6-4.2z" fill="#091E33" p-id="5457"></path><path d="M385.7 868.4c-6 0-10.9 4.8-10.9 10.9v21.8c0 6 4.9 10.9 10.9 10.9s10.9-4.8 10.9-10.9v-21.8c0-6-4.9-10.9-10.9-10.9M385.7 803c-6 0-10.9 4.8-10.9 10.9v21.8c0 6 4.9 10.9 10.9 10.9s10.9-4.8 10.9-10.9V814c0-6.1-4.9-11-10.9-11M385.7 737.7c-6 0-10.9 4.8-10.9 10.9v21.8c0 6 4.9 10.9 10.9 10.9s10.9-4.8 10.9-10.9v-21.8c0-6.1-4.9-10.9-10.9-10.9M524 838.7c-6 0-10.9 4.8-10.9 10.9v21.8c0 6 4.8 10.9 10.9 10.9 6 0 10.9-4.8 10.9-10.9v-21.8c0-6.1-4.8-10.9-10.9-10.9M524 773.2c-6 0-10.9 4.8-10.9 10.9v21.8c0 6 4.8 10.9 10.9 10.9 6 0 10.9-4.8 10.9-10.9v-21.8c0-5.9-4.8-10.9-10.9-10.9" fill="#231F1F" p-id="5458"></path><path d="M369.7 272.5z" fill="#1BAFFF" p-id="5459"></path><path d="M275.4 683.6h297l94.4-9.1 57.2-29.1 31.8-59v-63.6L708.6 462s-22.3-20.5-39.3-22.5l-8.9-60.6-38.8-68.8-58.5-34.1-70.1-11.5-73 25.9s-70.9 38.2-54.5 92.6L313 356.4l-66.1 4.8-52.5 40.9-23.2 54.5V494s-2.1 33.5 30 33.4l-54.5 21.1-23.2 38.2 4.1 39.5 20.4 32 44.3 20.4 83.1 5z" fill="#B4D6F2" p-id="5460"></path><path d="M755.8 586.5v-63.6l-47.2-60.8s-22.3-20.5-39.3-22.5l-8.9-60.6-38.8-68.8-58.5-34.1-21.7-3.6h-70.9S647 306.2 646.3 474.1c0 0 143.5 19.1 58.9 181.1l19-9.6 31.6-59.1z" fill="#64A9D8" p-id="5461"></path><path d="M381.4 398.2c4.4-4.2 4.5-11.1 0.3-15.4-24.6-26-58.9-40.7-94.7-40.6-72.1 0-130.8 58.7-130.8 130.8 0 8 0.7 16.1 2.1 23.9 1.3 5.9 7.2 9.5 13.1 8.2 5.5-1.2 9.2-6.6 8.4-12.2-1.2-6.6-1.8-13.2-1.8-19.9 0-60.1 48.9-109 109-109 29.8-0.1 58.4 12.2 78.9 33.8 4.3 4.3 11.2 4.5 15.5 0.4M378.3 344.5c28.3-42.3 75.9-67.7 126.8-67.7 84.2 0 152.6 68.5 152.6 152.6 0 13.8-1.8 27.5-5.5 40.7-1.6 5.8 1.8 11.8 7.6 13.4 5.8 1.6 11.8-1.8 13.4-7.6 4.2-15 6.2-30.7 6.2-46.5 0-96.2-78.3-174.4-174.4-174.4-58.1 0-112.5 29-144.9 77.3-3.4 5-2.1 11.7 3 15.1 5.1 3.4 11.9 2.1 15.2-2.9M711.3 453.3c-4.9-3.4-11.7-2.3-15.2 2.6-3.4 4.9-2.3 11.7 2.6 15.2 28.9 20.4 46.1 53.6 46.1 89.1 0 60.1-48.9 109-109 109h-32.7c-18.9 0-54.5 11.4-54.5 54.5 0 6 4.8 10.9 10.9 10.9 6 0 10.9-4.8 10.9-10.9 0-30.8 27.3-32.6 32.7-32.7h32.7c72.1 0 130.8-58.7 130.8-130.8 0-42.4-20.6-82.3-55.3-106.9M232.7 669.2H200c-36 0-65.4-29.3-65.4-65.4 0-36 29.3-65.4 65.4-65.4 6 0 10.9-4.8 10.9-10.9 0-6-4.8-10.9-10.9-10.9-48.1 0-87.2 39.1-87.2 87.2 0 48 39.1 87.2 87.2 87.2h32.6c5.5 0.1 32.8 2 32.8 32.7v21.8c0 6 4.8 10.9 10.9 10.9 6 0 10.9-4.8 10.9-10.9v-21.8c0-43.1-35.7-54.5-54.5-54.5M516 728h-30.4l15.4-27.3c3-5.3 1.1-11.9-4.2-14.9-5.3-3-11.9-1.1-14.9 4.2l-15 26.7-15-26.7c-3-5.3-9.6-7.1-14.9-4.2s-7.1 9.6-4.2 14.9l15.4 27.3h-30.4c-6 0-10.9 4.8-10.9 10.9 0 6 4.8 10.9 10.9 10.9h30.4l-15.4 27.3c-3 5.3-1.1 11.9 4.1 14.9 1.6 0.9 3.5 1.4 5.4 1.4 3.9 0 7.5-2 9.5-5.6l15-26.7 15 26.7c3 5.3 9.6 7.1 14.9 4.2 5.3-3 7.1-9.6 4.2-14.9l-15.4-27.3H516c6 0 10.9-4.8 10.9-10.9 0.1-6-4.9-10.9-10.9-10.9M376.6 662.6H407c6 0 10.9-4.8 10.9-10.9 0-6-4.8-10.9-10.9-10.9h-30.4l15.4-27.3c3-5.3 1.1-11.9-4.2-14.9s-11.9-1.1-14.9 4.2L358 629.5l-15-26.7c-3-5.3-9.6-7.1-14.8-4.2-5.3 3-7.1 9.6-4.2 14.8l15.4 27.3h-30.5c-6 0-10.9 4.8-10.9 10.9 0 6 4.8 10.9 10.9 10.9h30.4L323.9 690c-3 5.3-1.1 11.9 4.1 14.9 1.6 0.9 3.5 1.4 5.4 1.4 3.9 0 7.6-2 9.5-5.6l15-26.7 15 26.7c3 5.3 9.6 7.1 14.9 4.2 5.3-3 7.1-9.6 4.2-14.9l-15.4-27.4" fill="#231F1F" p-id="5462"></path><path d="M599.7 354.9c-5 3.3-6.5 10-3.2 15.1 11.5 17.7 17.7 38.3 17.6 59.5 0 6 4.8 10.9 10.9 10.9 6 0 10.9-4.8 10.9-10.9 0-25.3-7.3-50.1-21.2-71.4-3.2-5.1-10-6.5-15-3.2M214 462.1c4.8 0 9-3.2 10.4-7.8 4.3-14.2 13.2-26.5 25.3-35 4.8-3.5 5.9-10.3 2.4-15.2-3.4-4.8-10-5.9-14.9-2.6-16.2 11.3-28.1 27.8-33.7 46.6-1.7 5.7 1.6 11.8 7.3 13.5 1.1 0.3 2.1 0.5 3.2 0.5" fill="#231F1F" p-id="5463"></path><path d="M323.8 512.8a19.1 9.1 0 1 0 38.2 0 19.1 9.1 0 1 0-38.2 0Z" fill="#F2A300" p-id="5464"></path><path d="M521.2 512.8a19.1 9.1 0 1 0 38.2 0 19.1 9.1 0 1 0-38.2 0Z" fill="#F2A300" p-id="5465"></path><path d="M379.8 484.2c-1.7 0-3.4-0.8-4.6-2.3l-35.3-46.4c-2-2.5-1.5-6.2 1.1-8 2.5-2 6.2-1.5 8 1.1l35.3 46.4c2 2.5 1.5 6.2-1.1 8-1 0.9-2.2 1.2-3.4 1.2z" fill="#231F1F" p-id="5466"></path><path d="M337.8 477c-1.9 0-3.7-0.9-4.8-2.6-1.7-2.6-1-6.2 1.6-8l48.8-31.9c2.6-1.7 6.2-1 8 1.6s1 6.2-1.6 8L340.9 476c-1 0.7-2.1 1-3.1 1zM498.3 484.2c-1.2 0-2.5-0.4-3.5-1.1-2.5-2-3-5.6-1.1-8l35.3-46.4c1.9-2.5 5.6-3 8-1.1 2.5 2 3 5.6 1.1 8L502.8 482c-1.1 1.4-2.8 2.2-4.5 2.2z" fill="#231F1F" p-id="5467"></path><path d="M540.3 477c-1.1 0-2.2-0.3-3.1-0.9l-48.8-31.9c-2.6-1.7-3.4-5.3-1.6-8 1.7-2.6 5.3-3.4 8-1.6l48.8 31.9c2.6 1.7 3.4 5.3 1.6 8-1.1 1.6-3 2.5-4.9 2.5zM532.1 576.2H354.5c-3.2 0-5.7-2.5-5.7-5.7s2.5-5.7 5.7-5.7h177.7c3.2 0 5.7 2.5 5.7 5.7s-2.6 5.7-5.8 5.7z" fill="#231F1F" p-id="5468"></path></svg>