<?xml version="1.0" standalone="no"?><!DOCTYPE svg PUBLIC "-//W3C//DTD SVG 1.1//EN" "http://www.w3.org/Graphics/SVG/1.1/DTD/svg11.dtd"><svg t="1606877557779" class="icon" viewBox="0 0 1024 1024" version="1.1" xmlns="http://www.w3.org/2000/svg" p-id="5127" xmlns:xlink="http://www.w3.org/1999/xlink" width="200" height="200"><defs><style type="text/css"></style></defs><path d="M836.5 336.5c-93.2 0-168.7-75.5-168.7-168.7 0-17.1 2.6-33.6 7.3-49.1-58.2 26.6-98.7 85.3-98.7 153.5 0 93.2 75.5 168.7 168.7 168.7 76.1 0 140.4-50.4 161.4-119.6-21.4 9.7-45.1 15.2-70 15.2z" fill="#FFD46C" p-id="5128"></path><path d="M759.2 426c-93.2 0-168.7-75.5-168.7-168.7 0-42.9 16.1-82.1 42.5-111.8-35.2 30.9-57.5 76.2-57.5 126.7 0 93.2 75.5 168.7 168.7 168.7 50.1 0 95.2-21.9 126-56.6-29.6 25.9-68.4 41.7-111 41.7z" fill="#F49D18" p-id="5129"></path><path d="M745 446c-87.9 0-162.1-65.8-172.5-152.9-0.1-1.1 0.2-2.1 0.8-3 0.7-0.8 1.6-1.4 2.7-1.5l2.2-0.3h0.5c2 0 3.7 1.5 4 3.5 9.8 82 79.6 143.9 162.4 143.9 67.8 0 129-42.3 152.9-105.4-19.6 7.5-40.3 11.2-61.5 11.2-95.8 0-173.8-78-173.8-173.8 0-13.3 1.5-26.5 4.5-39.4-46 25.1-78.3 72.4-84.5 124.1-0.2 2-2 3.5-4 3.5h-0.5l-2.2-0.3c-1.1-0.1-2-0.7-2.7-1.5s-1-1.9-0.8-2.9c3.6-29.7 14.9-58.2 32.8-82.3 17.5-23.7 40.9-42.7 67.7-54.9l2.3-1c0.5-0.2 1.1-0.4 1.7-0.4 1 0 1.9 0.3 2.6 1 1.2 1 1.6 2.7 1.2 4.2l-0.7 2.4c-4.7 15.4-7.1 31.4-7.1 47.6 0 90.2 73.4 163.6 163.5 163.6 23.6 0 46.4-5 67.8-14.8l2.3-1c0.5-0.2 1.1-0.4 1.7-0.4 1 0 1.9 0.4 2.6 1 1.2 1 1.7 2.7 1.2 4.2l-0.7 2.4c-10.6 34.9-32.6 66.3-61.9 88.4C819.2 433.9 783.1 446 745 446z" fill="#231815" p-id="5130"></path><path d="M745 445c-87.4 0-161.2-65.4-171.5-152-0.1-0.8 0.1-1.6 0.6-2.2 0.5-0.6 1.2-1 2-1.1l2.2-0.3h0.4c1.5 0 2.8 1.1 3 2.6 9.9 82.6 80.1 144.8 163.4 144.8 69.5 0 131-43.3 154.6-108.1-20.1 8-41.4 12-63.2 12-95.3 0-172.8-77.5-172.8-172.8 0-14 1.7-27.9 5-41.4-47.5 25-80.6 72.8-87 125.9-0.2 1.5-1.5 2.6-3 2.6h-0.4l-2.2-0.3c-0.8-0.1-1.5-0.5-2-1.1-0.5-0.6-0.7-1.4-0.6-2.2 3.5-29.6 14.8-57.9 32.6-81.8 17.4-23.6 40.7-42.4 67.3-54.6l2.3-1c0.4-0.2 0.8-0.3 1.2-0.3 0.7 0 1.4 0.3 2 0.8 0.9 0.8 1.2 2 0.9 3.1l-0.7 2.4c-4.7 15.5-7.1 31.6-7.1 47.9 0 90.7 73.8 164.6 164.6 164.6 23.8 0 46.7-5 68.3-14.8l2.3-1c0.4-0.2 0.8-0.3 1.2-0.3 0.7 0 1.4 0.3 2 0.7 0.9 0.8 1.2 2 0.9 3.1l-0.7 2.4c-10.5 34.7-32.4 65.9-61.5 87.8C818.7 433 782.8 445 745 445z" fill="#231815" p-id="5131"></path><path d="M665.2 242.2c1.2-1.3 1.2-3.5-0.3-4.8-1.4-1.4-3.4-1.3-4.8 0 0.1 0.2-12.5 14.5-25.9 17.3-13.3 2.5-26.5-4.8-26.6-5-1.5-0.9-3.5-0.3-4.6 1.4-0.8 1.7-0.1 3.8 1.5 4.8 0 0 15.6 8.7 31.3 5.6 15.5-3.2 29.2-19.2 29.4-19.3z" fill="#091E33" p-id="5132"></path><path d="M670.4 253.3l-10.5-5.4c-1.5-0.8-2-2.6-1.3-4l0.3-0.6c0.8-1.5 2.6-2.1 4-1.3l10.5 5.4c1.5 0.8 2 2.6 1.3 4l-0.3 0.6c-0.7 1.5-2.5 2.1-4 1.3zM660.4 262.1l-7.9-8.7c-1.1-1.2-1-3.1 0.2-4.2l0.5-0.5c1.2-1.1 3.1-1 4.2 0.2l7.9 8.7c1.1 1.2 1 3.1-0.2 4.2l-0.5 0.5c-1.2 1.1-3.1 1-4.2-0.2zM650 269l-5.9-10.2c-0.8-1.4-0.3-3.3 1.1-4.1l0.6-0.4c1.4-0.8 3.3-0.3 4.1 1.1l5.9 10.2c0.8 1.4 0.3 3.3-1.1 4.1l-0.6 0.4c-1.4 0.8-3.3 0.3-4.1-1.1zM637.6 272.2l-3.9-11.1c-0.5-1.6 0.3-3.3 1.8-3.8l0.7-0.2c1.6-0.5 3.3 0.3 3.8 1.9l3.9 11.1c0.5 1.6-0.3 3.3-1.8 3.8l-0.7 0.2c-1.6 0.5-3.3-0.3-3.8-1.9zM624.3 273.6v-11.8c0-1.7 1.3-3 3-3h0.7c1.7 0 3 1.3 3 3v11.8c0 1.7-1.3 3-3 3h-0.7c-1.7 0-3-1.3-3-3zM611.6 271.4l3.3-11.3c0.5-1.6 2.1-2.5 3.7-2l0.7 0.2c1.6 0.5 2.5 2.1 2 3.7l-3.3 11.3c-0.5 1.6-2.1 2.5-3.7 2l-0.7-0.2c-1.5-0.5-2.4-2.1-2-3.7zM599.1 264.9l7-9.5c1-1.3 2.9-1.6 4.2-0.6l0.6 0.4c1.3 1 1.6 2.9 0.6 4.2l-7 9.5c-1 1.3-2.9 1.6-4.2 0.6l-0.6-0.4c-1.3-1-1.6-2.8-0.6-4.2z" fill="#091E33" p-id="5133"></path><path d="M408.1 301.8z" fill="#1BAFFF" p-id="5134"></path><path d="M299.8 774h341.1l108.5-10.4 65.7-33.4 36.5-67.8v-73.1l-54.2-69.8s-25.6-23.6-45.1-25.9L742.1 424l-44.6-79-67.3-39.1-80.6-13.2-83.7 29.8s-81.4 43.8-62.6 106.4L343 398.2l-75.9 5.4-60.3 46.9-26.6 62.6v43s-2.3 38.5 34.5 38.4l-62.6 24.2-26.6 43.8 4.7 45.4 23.5 36.8 50.9 23.5 95.2 5.8z" fill="#B4D6F2" p-id="5135"></path><path d="M851.6 662.4v-73l-54.2-69.8s-25.6-23.6-45.1-25.9L742.1 424l-44.6-79-67.3-39.1-24.9-4.1h-81.6s202.8 38.7 201.9 231.5c0 0 164.8 21.9 67.6 208l21.8-11.1 36.6-67.8z" fill="#64A9D8" p-id="5136"></path><path d="M421.6 446.1c5-4.8 5.2-12.7 0.4-17.7-28.2-29.8-67.6-46.8-108.7-46.6-82.9 0-150.3 67.4-150.3 150.2 0 9.2 0.8 18.4 2.5 27.4 1.5 6.7 8.3 11 15 9.4 6.4-1.4 10.6-7.5 9.6-14-1.3-7.5-2.1-15.2-2.1-22.9 0-69 56.2-125.2 125.2-125.2 34.3-0.1 67.1 13.9 90.6 38.8 4.9 5.2 12.8 5.4 17.8 0.6M418 384.5c32.5-48.5 87.2-77.7 145.6-77.7 96.7 0 175.3 78.6 175.3 175.3 0 15.9-2.1 31.6-6.3 46.8-1.8 6.7 2.1 13.6 8.7 15.4 6.7 1.8 13.6-2.1 15.4-8.7 4.8-17.3 7.2-35.3 7.2-53.4 0-110.5-89.9-200.3-200.3-200.3-66.8 0-129.3 33.3-166.4 88.8-3.9 5.8-2.3 13.5 3.4 17.4 5.8 3.6 13.6 2.1 17.4-3.6M800.5 509.5c-5.6-4-13.5-2.6-17.4 3-4 5.6-2.7 13.5 3 17.4 33.2 23.5 53 61.6 53.1 102.4 0 69-56.2 125.2-125.2 125.2h-37.6c-21.6 0-62.6 13.1-62.6 62.6 0 7 5.6 12.5 12.5 12.5 7 0 12.5-5.6 12.5-12.5 0-35.4 31.4-37.5 37.6-37.6H714c82.8 0 150.2-67.4 150.2-150.2-0.1-48.8-23.9-94.7-63.7-122.8M250.7 757.4h-37.6c-41.4 0-75.1-33.7-75.1-75.1s33.7-75.1 75.1-75.1c7 0 12.5-5.6 12.5-12.5 0-7-5.6-12.5-12.5-12.5-55.2 0-100.1 44.9-100.1 100.1 0 55.2 44.9 100.2 100.2 100.2h37.5c6.3 0.1 37.6 2.2 37.6 37.6v25c0 7 5.6 12.5 12.5 12.5 7 0 12.5-5.6 12.5-12.5V820c0-49.5-40.9-62.6-62.6-62.6M576.1 837.6h-35l17.7-31.4c3.4-6 1.3-13.7-4.8-17-6-3.4-13.7-1.3-17 4.8l-17.3 30.7-17.2-30.7c-3.4-6-11.1-8.1-17-4.8-6 3.4-8.1 11.1-4.8 17l17.7 31.4h-35c-7 0-12.5 5.6-12.5 12.5 0 7 5.6 12.5 12.5 12.5h35L480.8 894c-3.4 6-1.3 13.7 4.7 17 1.9 1.1 4 1.6 6.2 1.6 4.4 0 8.6-2.3 10.9-6.4l17.3-30.7 17.3 30.7c3.4 6 11 8.1 17 4.8 6-3.4 8.1-11 4.8-17l-17.7-31.4h35c7 0 12.5-5.6 12.5-12.5-0.1-6.9-5.7-12.5-12.7-12.5M416 757.4h35c7 0 12.5-5.6 12.5-12.5 0-7-5.6-12.5-12.5-12.5h-35l17.7-31.4c3.4-6 1.3-13.7-4.8-17-6-3.4-13.7-1.3-17 4.8l-17.3 30.6-17.3-30.7c-3.4-6-11-8.1-17-4.8-6 3.4-8.1 11-4.8 17l17.7 31.4h-35c-7 0-12.5 5.6-12.5 12.5 0 7 5.6 12.5 12.5 12.5h35l-17.7 31.4c-3.4 6-1.3 13.7 4.7 17 1.9 1.1 4 1.6 6.2 1.6 4.4 0 8.6-2.3 10.9-6.4l17.3-30.6 17.3 30.7c3.4 6 11 8.1 17 4.8 6-3.4 8.1-11 4.8-17L416 757.4" fill="#231F1F" p-id="5137"></path><path d="M672.3 396.4c-5.8 3.8-7.5 11.6-3.7 17.4 13.2 20.3 20.3 44 20.2 68.2 0 7 5.6 12.5 12.5 12.5 7 0 12.5-5.6 12.5-12.5 0-29.1-8.4-57.6-24.3-81.9-3.7-5.8-11.4-7.5-17.2-3.7m-443 123.1c5.5 0 10.4-3.7 12-9 4.9-16.3 15.2-30.4 29.1-40.2 5.6-4.1 6.8-11.9 2.8-17.5-3.9-5.4-11.5-6.8-17.1-3-18.6 13-32.2 31.9-38.7 53.6-2 6.6 1.8 13.6 8.4 15.6 1.1 0.4 2.3 0.5 3.5 0.5" fill="#231F1F" p-id="5138"></path><path d="M556.8 660.1c-5.9-2.7-37.4-46.5-64.4-87.4-0.7-1-1.8-1.6-2.9-1.6-1.3-0.1-2.3 0.6-2.9 1.5l-42.4 61c-1.1 1.6-0.8 3.9 0.9 4.9 1.6 1.1 3.9 0.8 4.9-0.9l39.4-56.7c18.7 28.1 56.3 83.3 65.4 85.9 0.3 0.1 0.7 0.2 1 0.2 1.6 0 3-1 3.4-2.6 0.5-1.9-0.6-3.8-2.4-4.3zM644.9 494.6h-81.1c-3.4 0-6.2 2.8-6.2 6.2 0 3.4 2.8 6.2 6.2 6.2h34.4v74.9c0 3.4 2.8 6.2 6.2 6.2 3.4 0 6.2-2.8 6.2-6.2V507H645c3.4 0 6.2-2.8 6.2-6.2-0.1-3.5-2.9-6.2-6.3-6.2zM416.5 494.6h-81.1c-3.4 0-6.2 2.8-6.2 6.2 0 3.4 2.8 6.2 6.2 6.2h34.4v74.9c0 3.4 2.8 6.2 6.2 6.2s6.2-2.8 6.2-6.2V507h34.4c3.4 0 6.2-2.8 6.2-6.2-0.1-3.5-2.8-6.2-6.3-6.2z" fill="#231815" p-id="5139"></path><path d="M286.9 548c-21.3 0-38.6 17.3-38.6 38.6s17.3 38.6 38.6 38.6 38.6-17.4 38.6-38.6c-0.1-21.3-17.4-38.6-38.6-38.6z m0 68.6c-16.6 0-30-13.5-30-30s13.5-30 30-30 30 13.5 30 30-13.5 30-30 30z" fill="#F2A300" p-id="5140"></path><path d="M692.1 548c-21.3 0-38.6 17.3-38.6 38.6s17.4 38.6 38.6 38.6c21.3 0 38.6-17.4 38.6-38.6-0.1-21.3-17.4-38.6-38.6-38.6z m0 68.6c-16.6 0-30-13.5-30-30s13.5-30 30-30 30 13.5 30 30c0 16.6-13.5 30-30 30z" fill="#F2A300" p-id="5141"></path></svg>