<?xml version="1.0" standalone="no"?><!DOCTYPE svg PUBLIC "-//W3C//DTD SVG 1.1//EN" "http://www.w3.org/Graphics/SVG/1.1/DTD/svg11.dtd"><svg t="1606877502513" class="icon" viewBox="0 0 1024 1024" version="1.1" xmlns="http://www.w3.org/2000/svg" p-id="2884" xmlns:xlink="http://www.w3.org/1999/xlink" width="200" height="200"><defs><style type="text/css"></style></defs><path d="M836.5 336.5c-93.2 0-168.7-75.5-168.7-168.7 0-17.1 2.6-33.6 7.3-49.1-58.2 26.6-98.7 85.3-98.7 153.5 0 93.2 75.5 168.7 168.7 168.7 76.1 0 140.4-50.4 161.4-119.6-21.4 9.7-45.1 15.2-70 15.2z" fill="#FFD46C" p-id="2885"></path><path d="M759.2 426c-93.2 0-168.7-75.5-168.7-168.7 0-42.9 16.1-82.1 42.5-111.8-35.2 30.9-57.5 76.2-57.5 126.7 0 93.2 75.5 168.7 168.7 168.7 50.1 0 95.2-21.9 126-56.6-29.6 25.9-68.4 41.7-111 41.7z" fill="#F49D18" p-id="2886"></path><path d="M745 446c-87.9 0-162.1-65.8-172.5-152.9-0.1-1.1 0.2-2.1 0.8-3 0.7-0.8 1.6-1.4 2.7-1.5l2.2-0.3h0.5c2 0 3.7 1.5 4 3.5 9.8 82 79.6 143.9 162.4 143.9 67.8 0 129-42.3 152.9-105.4-19.6 7.5-40.3 11.2-61.5 11.2-95.8 0-173.8-78-173.8-173.8 0-13.3 1.5-26.5 4.5-39.4-46 25.1-78.3 72.4-84.5 124.1-0.2 2-2 3.5-4 3.5h-0.5l-2.2-0.3c-1.1-0.1-2-0.7-2.7-1.5s-1-1.9-0.8-2.9c3.6-29.7 14.9-58.2 32.8-82.3 17.5-23.7 40.9-42.7 67.7-54.9l2.3-1c0.5-0.2 1.1-0.4 1.7-0.4 1 0 1.9 0.3 2.6 1 1.2 1 1.6 2.7 1.2 4.2l-0.7 2.4c-4.7 15.4-7.1 31.4-7.1 47.6 0 90.2 73.4 163.6 163.5 163.6 23.6 0 46.4-5 67.8-14.8l2.3-1c0.5-0.2 1.1-0.4 1.7-0.4 1 0 1.9 0.4 2.6 1 1.2 1 1.7 2.7 1.2 4.2l-0.7 2.4c-10.6 34.9-32.6 66.3-61.9 88.4C819.2 433.9 783.1 446 745 446z" fill="#231815" p-id="2887"></path><path d="M745 445c-87.4 0-161.2-65.4-171.5-152-0.1-0.8 0.1-1.6 0.6-2.2 0.5-0.6 1.2-1 2-1.1l2.2-0.3h0.4c1.5 0 2.8 1.1 3 2.6 9.9 82.6 80.1 144.8 163.4 144.8 69.5 0 131-43.3 154.6-108.1-20.1 8-41.4 12-63.2 12-95.3 0-172.8-77.5-172.8-172.8 0-14 1.7-27.9 5-41.4-47.5 25-80.6 72.8-87 125.9-0.2 1.5-1.5 2.6-3 2.6h-0.4l-2.2-0.3c-0.8-0.1-1.5-0.5-2-1.1-0.5-0.6-0.7-1.4-0.6-2.2 3.5-29.6 14.8-57.9 32.6-81.8 17.4-23.6 40.7-42.4 67.3-54.6l2.3-1c0.4-0.2 0.8-0.3 1.2-0.3 0.7 0 1.4 0.3 2 0.8 0.9 0.8 1.2 2 0.9 3.1l-0.7 2.4c-4.7 15.5-7.1 31.6-7.1 47.9 0 90.7 73.8 164.6 164.6 164.6 23.8 0 46.7-5 68.3-14.8l2.3-1c0.4-0.2 0.8-0.3 1.2-0.3 0.7 0 1.4 0.3 2 0.7 0.9 0.8 1.2 2 0.9 3.1l-0.7 2.4c-10.5 34.7-32.4 65.9-61.5 87.8C818.7 433 782.8 445 745 445z" fill="#231815" p-id="2888"></path><path d="M665.2 242.2c1.2-1.3 1.2-3.5-0.3-4.8-1.4-1.4-3.4-1.3-4.8 0 0.1 0.2-12.5 14.5-25.9 17.3-13.3 2.5-26.5-4.8-26.6-5-1.5-0.9-3.5-0.3-4.6 1.4-0.8 1.7-0.1 3.8 1.5 4.8 0 0 15.6 8.7 31.3 5.6 15.5-3.2 29.2-19.2 29.4-19.3z" fill="#091E33" p-id="2889"></path><path d="M670.4 253.3l-10.5-5.4c-1.5-0.8-2-2.6-1.3-4l0.3-0.6c0.8-1.5 2.6-2.1 4-1.3l10.5 5.4c1.5 0.8 2 2.6 1.3 4l-0.3 0.6c-0.7 1.5-2.5 2.1-4 1.3zM660.4 262.1l-7.9-8.7c-1.1-1.2-1-3.1 0.2-4.2l0.5-0.5c1.2-1.1 3.1-1 4.2 0.2l7.9 8.7c1.1 1.2 1 3.1-0.2 4.2l-0.5 0.5c-1.2 1.1-3.1 1-4.2-0.2zM650 269l-5.9-10.2c-0.8-1.4-0.3-3.3 1.1-4.1l0.6-0.4c1.4-0.8 3.3-0.3 4.1 1.1l5.9 10.2c0.8 1.4 0.3 3.3-1.1 4.1l-0.6 0.4c-1.4 0.8-3.3 0.3-4.1-1.1zM637.6 272.2l-3.9-11.1c-0.5-1.6 0.3-3.3 1.8-3.8l0.7-0.2c1.6-0.5 3.3 0.3 3.8 1.9l3.9 11.1c0.5 1.6-0.3 3.3-1.8 3.8l-0.7 0.2c-1.6 0.5-3.3-0.3-3.8-1.9zM624.3 273.6v-11.8c0-1.7 1.3-3 3-3h0.7c1.7 0 3 1.3 3 3v11.8c0 1.7-1.3 3-3 3h-0.7c-1.7 0-3-1.3-3-3zM611.6 271.4l3.3-11.3c0.5-1.6 2.1-2.5 3.7-2l0.7 0.2c1.6 0.5 2.5 2.1 2 3.7l-3.3 11.3c-0.5 1.6-2.1 2.5-3.7 2l-0.7-0.2c-1.5-0.5-2.4-2.1-2-3.7zM599.1 264.9l7-9.5c1-1.3 2.9-1.6 4.2-0.6l0.6 0.4c1.3 1 1.6 2.9 0.6 4.2l-7 9.5c-1 1.3-2.9 1.6-4.2 0.6l-0.6-0.4c-1.3-1-1.6-2.8-0.6-4.2z" fill="#091E33" p-id="2890"></path><path d="M312.5 815.9H675l115.3-11 69.9-35.5 38.8-72.1v-77.6l-57.6-74.2s-27.2-25-47.9-27.5l-10.8-74-47.7-83.9-71.5-41.5-85.5-14.2-89 31.5s-86.4 46.6-66.5 113.1l-64.1-32.4-80.6 5.8-64 49.9-28.2 66.5v45.7s-2.5 40.9 36.6 40.8L155.7 651l-28.4 46.6 5 48.2 24.9 39 54 24.9 101.3 6.2z" fill="#B4D6F2" p-id="2891"></path><path d="M898.8 697.3v-77.6l-57.6-74.2s-27.2-25-47.9-27.5l-10.8-74-47.5-83.9-71.5-41.5-26.5-4.4h-86.6s215.4 41.2 214.6 246c0 0 175.1 23.3 71.9 221l23.2-11.8 38.7-72.1z" fill="#64A9D8" p-id="2892"></path><path d="M183 604.1c7.3 0 13.3-6 13.3-13.3 0-0.8-0.1-1.6-0.3-2.4-1.4-8-2.2-16.1-2.2-24.3 0-73.3 59.7-133 133-133 36.4-0.1 71.3 14.8 96.3 41.3 5.3 5.1 13.7 5 18.8-0.4 4.8-5 5-12.8 0.4-18-30-31.7-71.8-49.6-115.6-49.5-88 0-159.6 71.6-159.6 159.6 0 9.8 0.9 19.5 2.7 29.1 1.2 6.3 6.7 10.9 13.2 10.9m255.2-196.9c34.6-51.6 92.6-82.6 154.7-82.5 102.6 0 186.2 83.5 186.2 186.2 0 16.8-2.2 33.6-6.7 49.6-2 7.1 2.2 14.4 9.3 16.4 7.1 2 14.4-2.2 16.4-9.3 5.1-18.4 7.7-37.5 7.7-56.8C805.8 393.5 710.4 298 593 298c-71 0-137.3 35.4-176.8 94.4-4.1 6.1-2.5 14.3 3.7 18.4 5.9 4.2 14.2 2.6 18.3-3.6" fill="#231F1F" p-id="2893"></path><path d="M844.5 540.1c-6.1-4-14.4-2.2-18.4 3.9-3.7 5.8-2.4 13.5 3 17.8 35.3 24.9 56.3 65.5 56.4 108.7 0 73.3-59.7 133-133 133h-532c-44 0-79.8-35.8-79.8-79.8s35.8-79.8 79.8-79.8c7.3 0 13.3-6 13.3-13.3s-6-13.3-13.3-13.3C161.8 617.3 114 665 114 723.7s47.8 106.4 106.4 106.4h532c88 0 159.6-71.5 159.6-159.6 0.1-51.8-25.2-100.5-67.5-130.4M708.2 420c-6.1 4-7.9 12.3-3.9 18.4 14.1 21.6 21.6 46.8 21.5 72.5 0 7.3 6 13.3 13.4 13.3 7.3 0 13.3-6 13.3-13.3 0-30.9-8.9-61.1-25.8-87.1-4-6.2-12.3-7.8-18.5-3.8M266 476.8c-19.7 13.8-34.2 33.9-41.2 56.8-2.3 6.9 1.5 14.5 8.5 16.8 6.9 2.3 14.5-1.5 16.8-8.5 0.1-0.3 0.2-0.4 0.2-0.7 5.2-17.3 16.1-32.3 30.9-42.7 6.1-4.2 7.5-12.5 3.3-18.5s-12.4-7.4-18.5-3.2" fill="#231F1F" p-id="2894"></path><path d="M616.2 615.2a49.3 25.6 0 1 0 98.6 0 49.3 25.6 0 1 0-98.6 0Z" fill="#9372B3" opacity=".5" p-id="2895"></path><path d="M325.8 615.2a49.3 25.6 0 1 0 98.6 0 49.3 25.6 0 1 0-98.6 0Z" fill="#9372B3" opacity=".5" p-id="2896"></path><path d="M585.9 580c-1.3 0-2.6-0.4-3.7-1.4-2.1-2-2.2-5.3-0.3-7.5 0.3-0.3 26.6-27.9 58.6-3.3l10.8-9c2.2-1.9 5.6-1.6 7.5 0.7 1.9 2.2 1.6 5.6-0.7 7.5L644 578.7c-2 1.7-4.9 1.6-6.9-0.1-25.8-22.8-46.5-1.2-47.4-0.4-1 1.3-2.4 1.8-3.8 1.8zM454.6 580c-1.4 0-2.9-0.5-3.8-1.7-0.1-0.2-5.7-5.9-14.3-8.6-11.1-3.6-22.3-0.5-33.1 9-2 1.7-4.9 1.8-6.9 0.1l-14-11.8c-2.2-1.9-2.6-5.3-0.7-7.5 1.9-2.2 5.3-2.6 7.5-0.7l10.8 9c31.9-24.6 58.4 2.9 58.6 3.3 2 2.1 1.9 5.5-0.3 7.5-1.2 0.9-2.4 1.4-3.8 1.4zM468.2 674.5c-2.8-2-3.2-5.8-1.2-8.6 2.2-2.6 6.1-3.2 8.6-1 7.2 5.4 14.4 8.2 21.7 8 7-0.2 14.1-3 20.7-8.2 1.2-1.4 3-2.2 4.8-2.2h0.2c1.6 0 3.4 0.8 4.6 2.2 6.9 5.3 13.8 8 20.7 8.2 7.2 0.2 14.7-2.6 21.7-8 2.9-2.2 6.6-1.6 8.6 1 2 2.9 1.6 6.6-1 8.6-9.4 7.2-19.5 10.9-29.5 10.6-8.6-0.2-17.3-3.2-25.3-8.8-8 5.6-16.5 8.6-25.1 8.8-10.3 0.3-20.3-3.4-29.5-10.6z" fill="#231F1F" p-id="2897"></path></svg>