<?xml version="1.0" standalone="no"?><!DOCTYPE svg PUBLIC "-//W3C//DTD SVG 1.1//EN" "http://www.w3.org/Graphics/SVG/1.1/DTD/svg11.dtd"><svg t="1606877527724" class="icon" viewBox="0 0 1024 1024" version="1.1" xmlns="http://www.w3.org/2000/svg" p-id="4169" xmlns:xlink="http://www.w3.org/1999/xlink" width="200" height="200"><defs><style type="text/css"></style></defs><path d="M836.5 336.5c-93.2 0-168.7-75.5-168.7-168.7 0-17.1 2.6-33.6 7.3-49.1-58.2 26.6-98.7 85.3-98.7 153.5 0 93.2 75.5 168.7 168.7 168.7 76.1 0 140.4-50.4 161.4-119.6-21.4 9.7-45.1 15.2-70 15.2z" fill="#FFD46C" p-id="4170"></path><path d="M759.2 426c-93.2 0-168.7-75.5-168.7-168.7 0-42.9 16.1-82.1 42.5-111.8-35.2 30.9-57.5 76.2-57.5 126.7 0 93.2 75.5 168.7 168.7 168.7 50.1 0 95.2-21.9 126-56.6-29.6 25.9-68.4 41.7-111 41.7z" fill="#F49D18" p-id="4171"></path><path d="M745 446c-87.9 0-162.1-65.8-172.5-152.9-0.1-1.1 0.2-2.1 0.8-3 0.7-0.8 1.6-1.4 2.7-1.5l2.2-0.3h0.5c2 0 3.7 1.5 4 3.5 9.8 82 79.6 143.9 162.4 143.9 67.8 0 129-42.3 152.9-105.4-19.6 7.5-40.3 11.2-61.5 11.2-95.8 0-173.8-78-173.8-173.8 0-13.3 1.5-26.5 4.5-39.4-46 25.1-78.3 72.4-84.5 124.1-0.2 2-2 3.5-4 3.5h-0.5l-2.2-0.3c-1.1-0.1-2-0.7-2.7-1.5s-1-1.9-0.8-2.9c3.6-29.7 14.9-58.2 32.8-82.3 17.5-23.7 40.9-42.7 67.7-54.9l2.3-1c0.5-0.2 1.1-0.4 1.7-0.4 1 0 1.9 0.3 2.6 1 1.2 1 1.6 2.7 1.2 4.2l-0.7 2.4c-4.7 15.4-7.1 31.4-7.1 47.6 0 90.2 73.4 163.6 163.5 163.6 23.6 0 46.4-5 67.8-14.8l2.3-1c0.5-0.2 1.1-0.4 1.7-0.4 1 0 1.9 0.4 2.6 1 1.2 1 1.7 2.7 1.2 4.2l-0.7 2.4c-10.6 34.9-32.6 66.3-61.9 88.4C819.2 433.9 783.1 446 745 446z" fill="#231815" p-id="4172"></path><path d="M745 445c-87.4 0-161.2-65.4-171.5-152-0.1-0.8 0.1-1.6 0.6-2.2 0.5-0.6 1.2-1 2-1.1l2.2-0.3h0.4c1.5 0 2.8 1.1 3 2.6 9.9 82.6 80.1 144.8 163.4 144.8 69.5 0 131-43.3 154.6-108.1-20.1 8-41.4 12-63.2 12-95.3 0-172.8-77.5-172.8-172.8 0-14 1.7-27.9 5-41.4-47.5 25-80.6 72.8-87 125.9-0.2 1.5-1.5 2.6-3 2.6h-0.4l-2.2-0.3c-0.8-0.1-1.5-0.5-2-1.1-0.5-0.6-0.7-1.4-0.6-2.2 3.5-29.6 14.8-57.9 32.6-81.8 17.4-23.6 40.7-42.4 67.3-54.6l2.3-1c0.4-0.2 0.8-0.3 1.2-0.3 0.7 0 1.4 0.3 2 0.8 0.9 0.8 1.2 2 0.9 3.1l-0.7 2.4c-4.7 15.5-7.1 31.6-7.1 47.9 0 90.7 73.8 164.6 164.6 164.6 23.8 0 46.7-5 68.3-14.8l2.3-1c0.4-0.2 0.8-0.3 1.2-0.3 0.7 0 1.4 0.3 2 0.7 0.9 0.8 1.2 2 0.9 3.1l-0.7 2.4c-10.5 34.7-32.4 65.9-61.5 87.8C818.7 433 782.8 445 745 445z" fill="#231815" p-id="4173"></path><path d="M665.2 242.2c1.2-1.3 1.2-3.5-0.3-4.8-1.4-1.4-3.4-1.3-4.8 0 0.1 0.2-12.5 14.5-25.9 17.3-13.3 2.5-26.5-4.8-26.6-5-1.5-0.9-3.5-0.3-4.6 1.4-0.8 1.7-0.1 3.8 1.5 4.8 0 0 15.6 8.7 31.3 5.6 15.5-3.2 29.2-19.2 29.4-19.3z" fill="#091E33" p-id="4174"></path><path d="M670.4 253.3l-10.5-5.4c-1.5-0.8-2-2.6-1.3-4l0.3-0.6c0.8-1.5 2.6-2.1 4-1.3l10.5 5.4c1.5 0.8 2 2.6 1.3 4l-0.3 0.6c-0.7 1.5-2.5 2.1-4 1.3zM660.4 262.1l-7.9-8.7c-1.1-1.2-1-3.1 0.2-4.2l0.5-0.5c1.2-1.1 3.1-1 4.2 0.2l7.9 8.7c1.1 1.2 1 3.1-0.2 4.2l-0.5 0.5c-1.2 1.1-3.1 1-4.2-0.2zM650 269l-5.9-10.2c-0.8-1.4-0.3-3.3 1.1-4.1l0.6-0.4c1.4-0.8 3.3-0.3 4.1 1.1l5.9 10.2c0.8 1.4 0.3 3.3-1.1 4.1l-0.6 0.4c-1.4 0.8-3.3 0.3-4.1-1.1zM637.6 272.2l-3.9-11.1c-0.5-1.6 0.3-3.3 1.8-3.8l0.7-0.2c1.6-0.5 3.3 0.3 3.8 1.9l3.9 11.1c0.5 1.6-0.3 3.3-1.8 3.8l-0.7 0.2c-1.6 0.5-3.3-0.3-3.8-1.9zM624.3 273.6v-11.8c0-1.7 1.3-3 3-3h0.7c1.7 0 3 1.3 3 3v11.8c0 1.7-1.3 3-3 3h-0.7c-1.7 0-3-1.3-3-3zM611.6 271.4l3.3-11.3c0.5-1.6 2.1-2.5 3.7-2l0.7 0.2c1.6 0.5 2.5 2.1 2 3.7l-3.3 11.3c-0.5 1.6-2.1 2.5-3.7 2l-0.7-0.2c-1.5-0.5-2.4-2.1-2-3.7zM599.1 264.9l7-9.5c1-1.3 2.9-1.6 4.2-0.6l0.6 0.4c1.3 1 1.6 2.9 0.6 4.2l-7 9.5c-1 1.3-2.9 1.6-4.2 0.6l-0.6-0.4c-1.3-1-1.6-2.8-0.6-4.2z" fill="#091E33" p-id="4175"></path><path d="M297.1 773.3h341.8l108.7-10.4 65.9-33.4 36.5-68v-73.2l-54.4-70s-25.6-23.6-45.2-26l-10.2-69.7-44.7-79.2-67.4-39.2-80.8-13.4-83.9 29.8s-81.5 43.9-62.7 106.6l-60.3-30.6-76 5.5-60.3 47.1-26.6 62.8v43.1s-2.4 38.6 34.5 38.5l-62.7 24.2-26.6 43.9 4.7 45.5 23.5 36.9 50.9 23.5 95.3 5.7z" fill="#B4D6F2" p-id="4176"></path><path d="M850 661.5v-73.2l-54.4-70s-25.6-23.6-45.2-26l-10.2-69.7-44.7-79.2-67.4-39.2-25-4.1h-81.7s203.2 38.8 202.3 232c0 0 165.1 21.9 67.8 208.4l21.8-11.1 36.7-67.9z" fill="#64A9D8" p-id="4177"></path><path d="M422.7 427.1c-28.3-29.9-67.7-46.8-109-46.6-83 0-150.5 67.6-150.5 150.5 0 9.2 0.8 18.5 2.5 27.5 1.5 6.7 8.3 11 15 9.4 6.4-1.4 10.5-7.6 9.7-14-1.3-7.6-2.1-15.2-2.1-22.9 0-69.2 56.3-125.5 125.5-125.5 34.4-0.1 67.2 13.9 90.8 38.9 5 4.8 12.9 4.5 17.7-0.4 4.4-4.8 4.6-12.1 0.4-16.9M740.2 480.7c0 15.9-2.1 31.7-6.3 46.8-1.8 6.6 2.1 13.6 8.7 15.5 6.6 1.8 13.6-2.1 15.5-8.7 4.8-17.3 7.2-35.4 7.2-53.5 0-110.7-90.1-200.7-200.7-200.7-67 0-129.5 33.4-166.7 89-3.9 5.7-2.6 13.5 3.1 17.5 5.7 3.9 13.5 2.6 17.5-3.1 0.1-0.1 0.2-0.3 0.3-0.3 32.6-48.7 87.3-77.9 146-77.9 96.7-0.2 175.4 78.6 175.4 175.4M801.9 508.2c-5.6-4-13.5-2.7-17.5 3-4 5.6-2.7 13.5 3 17.5 33.3 23.5 53.1 61.8 53.1 102.5 0 69.2-56.3 125.5-125.5 125.5h-87.7c-21.7 0-62.7 13.1-62.7 62.7 0 6.9 5.6 12.5 12.5 12.5s12.5-5.6 12.5-12.5c0-35.4 31.4-37.6 37.6-37.6H715c83 0 150.5-67.6 150.5-150.5 0.2-48.9-23.7-94.8-63.6-123.1M301.2 756.7h-87.8c-41.5 0-75.3-33.8-75.3-75.3s33.8-75.3 75.3-75.3c6.9 0 12.5-5.6 12.5-12.5s-5.6-12.5-12.5-12.5c-55.3 0-100.3 45-100.3 100.3s45 100.3 100.3 100.3h87.7c6.3 0.1 37.7 2.2 37.7 37.6v25.1c0 6.9 5.6 12.5 12.5 12.5s12.5-5.6 12.5-12.5v-25.1c0.2-49.5-40.9-62.6-62.6-62.6M426.6 861.2c-6.9 0-12.5 5.6-12.5 12.5v25.1c0 6.9 5.6 12.5 12.5 12.5s12.5-5.6 12.5-12.5v-25.1c0.1-6.8-5.5-12.5-12.5-12.5M577.1 861.2c-6.9 0-12.5 5.6-12.5 12.5v25.1c0 6.9 5.6 12.5 12.5 12.5s12.5-5.6 12.5-12.5v-25.1c0.1-6.8-5.5-12.5-12.5-12.5M426.6 785.9c-6.9 0-12.5 5.6-12.5 12.5v25.1c0 6.9 5.6 12.5 12.5 12.5s12.5-5.6 12.5-12.5v-25.1c0.1-6.8-5.5-12.5-12.5-12.5M426.6 710.7c-6.9 0-12.5 5.6-12.5 12.5v25.1c0 6.9 5.6 12.5 12.5 12.5s12.5-5.6 12.5-12.5v-25.1c0.1-6.9-5.5-12.5-12.5-12.5M501.9 831.9c-6.9 0-12.5 5.6-12.5 12.5v25.1c0 6.9 5.6 12.5 12.5 12.5s12.5-5.6 12.5-12.5v-25.1c0.1-6.9-5.6-12.5-12.5-12.5M501.9 756.7c-6.9 0-12.5 5.6-12.5 12.5v25.1c0 6.9 5.6 12.5 12.5 12.5s12.5-5.6 12.5-12.5v-25.1c0.1-6.9-5.6-12.5-12.5-12.5" fill="#231F1F" p-id="4178"></path><path d="M349.8 511.7c-1.6-0.8-2.5-2.7-1.6-4.5 0.8-1.8 2.7-2.5 4.5-1.8 0 0.2 17.7 8.3 31.4 5.6 13.5-2.9 22.9-14.6 23.1-14.8 1.1-1.4 3.3-1.6 4.7-0.5 1.6 1.3 1.8 3.4 0.8 4.9 0 0-11.2 13.9-27.2 17.1-16 3.2-35.5-6-35.7-6z m-33.6 33.6c-2.9-1.1-4.1-4.4-3.1-7.2 1.3-2.7 4.5-4.1 7.2-2.9l76.2 31.3c2.9 1.3 4.1 4.5 3.1 7.2-0.8 1.4-1.8 2.5-3.3 3.1l-77.5 32.9c-2.9 1.3-6.1-0.2-7.2-2.9-1.3-2.9 0-6.1 2.9-7.2l65.5-27.8-63.8-26.5z" fill="#231F1F" p-id="4179"></path><path d="M362.3 657.2c15 0 27.1-9.2 27.1-20.3s-12-20-27.1-20-27.1 9-27.1 20 12.1 20.3 27.1 20.3zM616.6 657.2c15 0 27.1-9.2 27.1-20.3s-12.1-20-27.1-20-27.1 9-27.1 20 12 20.3 27.1 20.3z" fill="#F2A300" p-id="4180"></path><path d="M629 511.7c1.6-0.8 2.5-2.7 1.6-4.5-0.8-1.8-2.7-2.5-4.5-1.8 0 0.2-17.7 8.3-31.4 5.6-13.5-2.9-23.1-14.6-23.1-14.8-1.1-1.4-3.3-1.6-4.9-0.5-1.4 1.3-1.6 3.4-0.5 4.9 0 0 11.2 13.9 27.2 17.1 15.9 3.2 35.4-6 35.6-6z m33.6 33.6c2.7-1.1 4.1-4.4 2.9-7.2-1.1-2.7-4.4-4.1-7.1-2.9l-76.2 31.3c-2.9 1.3-4.1 4.5-3.1 7.2 0.8 1.4 1.8 2.5 3.1 3.1l77.6 32.9c2.9 1.3 6.1-0.2 7.2-2.9 1.3-2.9 0-6.1-2.9-7.2l-65.5-27.8 64-26.5z" fill="#231F1F" p-id="4181"></path><path d="M478.1 587.2c-3.1 0.5-6-1.3-6.5-4.4-0.8-2.9 1.3-6 4.1-6.5 0.2 0 29.2-6.6 35.2 13 2.9 9.7-1.8 16.2-7.6 20.6 3.1 2.7 5.4 7.4 5.4 14.8 0 22.8-37.4 13.9-37.6 13.9-2.9-0.8-4.7-3.6-3.9-6.6 0.8-2.9 3.6-4.7 6.6-3.9 0 0 23.9 5.6 23.9-3.3 0-9.6-9-8.3-9-8.3-2.7 0.5-5.4-1.3-6.1-3.9-0.8-3.1 1.1-6 3.9-6.6 0-0.2 16.6-4.1 13.7-13.2-2.8-10-22.1-5.6-22.1-5.6z" fill="#231F1F" p-id="4182"></path></svg>