<?xml version="1.0" standalone="no"?><!DOCTYPE svg PUBLIC "-//W3C//DTD SVG 1.1//EN" "http://www.w3.org/Graphics/SVG/1.1/DTD/svg11.dtd"><svg t="1606877378816" class="icon" viewBox="0 0 1024 1024" version="1.1" xmlns="http://www.w3.org/2000/svg" p-id="4337" xmlns:xlink="http://www.w3.org/1999/xlink" width="200" height="200"><defs><style type="text/css"></style></defs><path d="M705.44 235.92l-40-66.24a31.36 31.36 0 0 0-24-13.76h-248a31.28 31.28 0 0 0-24 13.76l-40 66.24" fill="#B9E3ED" p-id="4338"></path><path d="M705.44 251.92a16 16 0 0 1-13.76-8l-40-66.24a16 16 0 0 0-10.48-6h-248a16 16 0 0 0-10.56 6l-40 66.24a16 16 0 1 1-27.44-16.48l40-66.24a47.04 47.04 0 0 1 38-21.52h248a46.88 46.88 0 0 1 37.92 21.52l40 66.24a16 16 0 0 1-5.44 22 16 16 0 0 1-8.24 2.48z" fill="#324654" p-id="4339"></path><path d="M952 475.92L873.68 392a43.04 43.04 0 0 0-26.96-11.76H721.44a16 16 0 0 0-16 16v80" fill="#B9E3ED" p-id="4340"></path><path d="M952 491.92a16 16 0 0 1-11.76-5.12l-78-83.92a20.08 20.08 0 0 0-12.48-6.96h-128v80a16 16 0 1 1-32 0v-80a32 32 0 0 1 32-32h125.36a57.84 57.84 0 0 1 38.56 16.88l78 83.92a16 16 0 0 1-11.68 27.2z" fill="#324654" p-id="4341"></path><path d="M81.44 587.92l61.44-90.72A34.08 34.08 0 0 1 168 483.92h145.44a16 16 0 0 1 16 16v88" fill="#B9E3ED" p-id="4342"></path><path d="M81.44 603.92a16 16 0 0 1-13.28-24.96L129.68 488A49.44 49.44 0 0 1 168 467.92h145.44a32 32 0 0 1 32 32v88a16 16 0 0 1-32 0v-88H168a18.72 18.72 0 0 0-11.76 6.24l-61.6 90.72a16 16 0 0 1-13.2 7.04z" fill="#324654" p-id="4343"></path><path d="M908.08 877.44c0 44.96-168 78.48-378.64 78.48s-384-33.52-384-78.48 170.72-81.52 381.28-81.52 381.36 36.48 381.36 81.52z" fill="#B8CBCD" p-id="4344"></path><path d="M705.44 475.92v-240h-376v352h-248v272h872v-384h-248z" fill="#B9E3ED" p-id="4345"></path><path d="M953.44 875.92h-872a16 16 0 0 1-16-16v-272a16 16 0 0 1 16-16h232v-336a16 16 0 0 1 16-16h376a16 16 0 0 1 16 16v224h232a16 16 0 0 1 16 16v384a16 16 0 0 1-16 16z m-856-32h840v-352h-232a16 16 0 0 1-16-16v-224h-344v336a16 16 0 0 1-16 16h-232z" fill="#324654" p-id="4346"></path><path d="M521.44 491.92a16 16 0 0 1-16-16V368l-11.76 14a16 16 0 0 1-24.56-20.48l40-48a16 16 0 0 1 28.32 10.24v152a16 16 0 0 1-16 16.16z" fill="#324654" p-id="4347"></path><path d="M489.92 492a16 16 0 0 1 0-32h63.52a16 16 0 0 1 0 32z" fill="#324654" p-id="4348"></path><path d="M657.44 155.92l48 80v144h157.28l88.96 96h1.76v384h-872v-272l70.48-104h177.52v-248l48-80h280m0-32h-280a32 32 0 0 0-27.44 15.52l-48 80a32 32 0 0 0-4.56 16.48v216H152a32 32 0 0 0-26.56 14.08l-70.4 104a32 32 0 0 0-5.52 17.92v272a32 32 0 0 0 32 32h872a32 32 0 0 0 32-32v-384a32 32 0 0 0-16-27.52l-83.36-89.92a32 32 0 0 0-23.36-10.16H737.44v-112a32 32 0 0 0-4.56-16.48l-48-80a32 32 0 0 0-27.44-15.52z" fill="#324654" p-id="4349"></path><path d="M857.44 731.92h-80a16 16 0 0 1-16-16c0-22.08 19.68-40.64 40.48-60.24 15.04-14.16 33.68-32 33.68-42.96a18.96 18.96 0 0 0-19.12-19.2 20.4 20.4 0 0 0-23.04 23.04 16 16 0 0 1-32 0c0-38 27.6-55.04 55.04-55.04a50.64 50.64 0 0 1 51.12 51.2c0 24.96-22.24 45.92-43.76 66.24-6.72 6.4-14.8 14-20.96 20.96h54.56a16 16 0 0 1 0 32zM210.8 803.92A50.32 50.32 0 0 1 160 753.12a16 16 0 0 1 32 0 18.64 18.64 0 0 0 18.8 18.8 21.6 21.6 0 0 0 22.64-22.64 11.84 11.84 0 0 0-13.04-11.04 16 16 0 1 1 0-32c12.56 0 13.04 0 13.04-14.88a17.2 17.2 0 0 0-18.8-18.8A20.08 20.08 0 0 0 192 695.2a16 16 0 0 1-32 0c0-37.76 27.44-54.64 54.64-54.64a49.2 49.2 0 0 1 50.8 50.8 53.28 53.28 0 0 1-8.56 32.56 42.48 42.48 0 0 1 8.56 25.36 53.52 53.52 0 0 1-54.64 54.64z" fill="#324654" p-id="4350"></path><path d="M937.44 859.92h-840a24 24 0 1 1 0-48h840a24 24 0 0 1 0 48z" fill="#324654" opacity=".2" p-id="4351"></path></svg>