<?xml version="1.0" standalone="no"?><!DOCTYPE svg PUBLIC "-//W3C//DTD SVG 1.1//EN" "http://www.w3.org/Graphics/SVG/1.1/DTD/svg11.dtd"><svg t="1606877398798" class="icon" viewBox="0 0 1024 1024" version="1.1" xmlns="http://www.w3.org/2000/svg" p-id="5336" xmlns:xlink="http://www.w3.org/1999/xlink" width="200" height="200"><defs><style type="text/css"></style></defs><path d="M899.12 885.2c0 44.96-170.8 81.44-381.36 81.44s-381.36-36.48-381.36-81.44 173.36-78.56 384-78.56 378.72 33.36 378.72 78.56z" fill="#B8CBCD" p-id="5337"></path><path d="M262.48 592L127.44 792.64c-16.64 26.88-1.92 69.44 24.96 86s78.4 24 95.04-2.48l120-219.28 81.92 9.2c96.96-5.12 196.4-64 258.08-164.08C800 352 772 167.52 645.52 89.36s-304-20-396.56 129.76c-54.24 88-67.04 187.84-42.88 271.2v0.64z" fill="#B9E3ED" p-id="5338"></path><path d="M207.04 917.76a135.04 135.04 0 0 1-67.2-18.64c-35.6-22-57.68-78.8-32.88-119.04a4.88 4.88 0 0 1 0.56-0.8l126.8-188.72-49.04-88a24.8 24.8 0 0 1-1.68-3.6l-0.56-2c-27.2-93.68-10.56-200 45.52-290.48 66.96-108.48 178.96-176 292.24-176a260.8 260.8 0 0 1 137.28 38.48c137.6 84.96 168.8 284.88 69.52 445.68C664 617.12 558.08 684.32 450.32 690a21.52 21.52 0 0 1-3.92 0l-65.84-7.36L268.48 888l-0.64 1.12c-11.84 18.4-33.12 28.64-60.8 28.64z m-59.36-112a34.24 34.24 0 0 0-1.12 26.88 47.36 47.36 0 0 0 18.48 25.76 87.12 87.12 0 0 0 42 11.52 25.92 25.92 0 0 0 19.76-5.84l119.36-218.72a24 24 0 0 1 24-12.32l80 8.96c91.6-5.6 182.32-64 237.04-152.56 85.36-138.32 61.2-308.56-53.92-379.6a209.6 209.6 0 0 0-112-31.2C424 78.64 328 137.36 269.44 232c-48.64 78.8-63.52 169.76-40.88 249.92l54.88 98.08a24 24 0 0 1-1.04 25.12z" fill="#324654" p-id="5339"></path><path d="M262.48 592L127.44 792.64c-16.64 26.88-1.92 69.44 24.96 86s78.4 24 95.04-2.48l120-219.28 81.92 9.2c96.96-5.12 196.4-64 258.08-164.08C800 352 772 167.52 645.52 89.36s-304-20-396.56 129.76c-54.24 88-67.04 187.84-42.88 271.2v0.64" fill="#B9E3ED" p-id="5340"></path><path d="M207.12 917.76h-4.24a134.24 134.24 0 0 1-63.04-18.56c-35.6-22-57.68-78.8-32.88-119.04a4.88 4.88 0 0 1 0.56-0.8l135.04-201.04a24 24 0 1 1 40 26.8L147.6 805.6a34.64 34.64 0 0 0-1.04 26.88 47.36 47.36 0 0 0 18.48 25.76 86.96 86.96 0 0 0 39.6 11.52 28.64 28.64 0 0 0 22.16-5.84l119.36-218.56a24 24 0 0 1 24-12.32l80 8.96c91.6-5.6 182.32-64 237.04-152.56 85.36-138.32 61.2-308.56-53.92-379.6-55.04-34-122.88-40.48-190.96-18.24A324.32 324.32 0 0 0 269.44 232c-49.04 79.44-64 171.2-40 251.92a24.48 24.48 0 0 1-14.88 29.6A24 24 0 0 1 184 499.04a19.28 19.28 0 0 1-0.64-2c-27.2-93.68-10.56-200 45.52-290.48A372.32 372.32 0 0 1 427.04 46c81.68-26.72 163.76-18.56 231.04 22.96 137.6 84.96 168.8 284.88 69.52 445.68C664 617.12 558.08 684.32 450.32 690a21.52 21.52 0 0 1-3.92 0l-65.84-7.36L268.48 888l-0.64 1.12c-11.84 18.48-33.12 28.64-60.72 28.64z" fill="#324654" p-id="5341"></path><path d="M214.24 473.44a24 24 0 0 1-24-24c0-189.36 85.28-315.2 246.64-364C552.56 50.4 638.4 64.48 723.84 132.4a24 24 0 0 1-29.84 37.6c-72.64-57.76-143.12-68.96-243.2-38.64-176 53.12-212.56 202.32-212.56 318.08a24 24 0 0 1-24 24z" fill="#FFFFFF" p-id="5342"></path><path d="M207.04 917.76a135.04 135.04 0 0 1-67.2-18.64c-35.6-22-57.68-78.8-32.88-119.04a4.88 4.88 0 0 1 0.56-0.8l125.44-186.72a377.44 377.44 0 0 1-49.76-94.88c0-0.72-0.48-1.52-0.64-2.24-26.56-93.28-9.84-198.48 46-288.88 66.96-108.48 178.96-176 292.24-176a260.8 260.8 0 0 1 137.28 38.4c137.6 84.96 168.8 284.88 69.52 445.68C664 617.12 558.08 684.32 450.32 690a21.52 21.52 0 0 1-3.92 0l-65.84-7.36L268.48 888l-0.64 1.12c-11.84 18.4-33.12 28.64-60.8 28.64z m-59.36-112a34.24 34.24 0 0 0-1.12 26.88 47.36 47.36 0 0 0 18.48 25.76 87.12 87.12 0 0 0 42 11.52 25.92 25.92 0 0 0 19.76-5.84l119.36-218.72a24 24 0 0 1 24-12.32l80 8.96c91.6-5.6 182.32-64 237.04-152.56 85.36-138.32 61.2-308.56-53.92-379.6a209.6 209.6 0 0 0-112-31.2C424 78.64 328 137.36 269.44 232c-49.04 79.44-64 171.2-40 251.92a344.56 344.56 0 0 0 52 92.72 24 24 0 0 1 1.2 28.32z" fill="#324654" p-id="5343"></path><path d="M533.76 660.64a16 16 0 0 1-8-2.4L197.12 456a16 16 0 1 1 16.8-27.2l328 202.64a16 16 0 0 1-8 29.6z" fill="#324654" p-id="5344"></path><path d="M352.4 630.64L133.6 760.96c-25.84 18.24-17.76 74 0.48 99.76s68.08 51.92 93.92 33.68l195.28-162.8 72 40.48c91.2 33.2 205.84 17.76 301.68-50 144-101.68 190.48-282.48 104.64-403.92s-272-137.36-416-35.68c-84.32 59.68-135.28 146.64-145.6 232.88v0.64" fill="#FFBAB0" p-id="5345"></path><path d="M206.72 924.48a99.2 99.2 0 0 1-37.76-8 132.4 132.4 0 0 1-54.48-41.68 131.04 131.04 0 0 1-21.12-65.2c-1.68-30.64 8-54.8 26.32-68l1.6-1.04 218.8-130.56a24 24 0 1 1 24.56 41.28l-217.68 129.6c-3.44 3.04-6.48 11.92-5.68 25.84a83.52 83.52 0 0 0 12.4 40 84.16 84.16 0 0 0 33.76 25.28c12.8 5.28 22.24 5.44 26.16 3.2L408 713.2a24 24 0 0 1 27.2-2.48l70 39.44c86.48 30.72 192.72 12.56 277.84-48A324.56 324.56 0 0 0 912 521.52c17.92-69.36 7.2-136.64-30.16-189.44S784.56 246.72 713.2 240.64a324.24 324.24 0 0 0-213.6 61.44c-76.16 53.92-125.6 132.72-136 216a24 24 0 0 1-5.36 12.56 24 24 0 0 1-42.56-16v-2.16C328 416 384.64 324.64 472 262.96a371.92 371.92 0 0 1 245.28-70.16c85.68 7.2 158 47.2 203.76 111.2s58.96 146 37.36 229.2a372 372 0 0 1-147.76 208c-98.32 69.6-222.32 89.84-323.76 52.96a36.32 36.32 0 0 1-3.6-1.68l-57.36-32-182.56 152a10.64 10.64 0 0 1-1.52 1.12 59.6 59.6 0 0 1-35.12 10.88z" fill="#783741" p-id="5346"></path><path d="M352.4 630.64L133.6 760.96c-25.84 18.24-17.76 74 0.48 99.76s68.08 51.92 93.92 33.68l195.28-162.8 72 40.48c91.2 33.2 205.84 17.76 301.68-50 144-101.68 190.48-282.48 104.64-403.92s-272-137.36-416-35.68c-84.32 59.68-135.28 146.64-145.6 232.88v0.64z" fill="#FFBAB0" p-id="5347"></path><path d="M366.16 498.24a24 24 0 0 1-22.56-32c37.36-102.88 129.2-184 245.68-216.96 117.68-33.36 240-12.24 326.08 56a24 24 0 0 1-29.84 37.6c-74.4-59.04-180.24-76.88-283.2-48-101.6 28.8-181.52 98.8-213.6 187.2a24 24 0 0 1-22.56 16.16z" fill="#FFFFFF" p-id="5348"></path><path d="M206.72 924.48c-35.6 0-74.88-25.36-92.24-49.92a131.04 131.04 0 0 1-21.12-65.2c-1.68-30.64 8-54.8 26.32-68l1.6-1.04 204.16-121.52C312 550 315.84 516.08 316.32 512v-1.44c12.08-96 68.56-186.48 155.28-248A380.72 380.72 0 0 1 688.96 192c96.72 0 181.36 41.12 232 112.72 45.68 64.56 58.96 146 37.36 229.2a372 372 0 0 1-147.76 208 380.48 380.48 0 0 1-216.88 71.28 311.28 311.28 0 0 1-106.88-18.32 36.32 36.32 0 0 1-3.6-1.68l-57.36-32-182.56 152a10.64 10.64 0 0 1-1.52 1.12 59.04 59.04 0 0 1-35.04 10.16z m-59.76-144c-3.44 3.04-6.48 11.92-5.68 25.84a83.52 83.52 0 0 0 12.4 40c9.68 13.68 34.96 29.6 53.04 29.6a14.56 14.56 0 0 0 6.88-1.36L408 713.2a24 24 0 0 1 27.2-2.48l70 39.44a262.96 262.96 0 0 0 88.64 14.8 332.32 332.32 0 0 0 189.2-62.48A324.56 324.56 0 0 0 912 521.52c17.92-69.36 7.2-136.64-30.16-189.44C840 273.28 769.92 240 688.96 240a332 332 0 0 0-189.36 62.48c-76.16 53.92-125.6 132.72-136 216v1.04c-0.48 5.84-2.24 40.64 12 106.4a24 24 0 0 1-11.2 25.68z" fill="#783741" p-id="5349"></path><path d="M580.88 800.8a16 16 0 0 1-12.88-6.8L346 480.48a16 16 0 0 1 26.08-18.48l221.84 313.52a16 16 0 0 1-13.04 25.28z" fill="#783741" p-id="5350"></path><path d="M644.4 442.64m-76 0a76 76 0 1 0 152 0 76 76 0 1 0-152 0Z" fill="#FFFFFF" p-id="5351"></path><path d="M644.4 534.64a92 92 0 1 1 92-92 92.08 92.08 0 0 1-92 92z m0-152a60 60 0 1 0 60 60 60.16 60.16 0 0 0-60-60z" fill="#783741" p-id="5352"></path></svg>