<?xml version="1.0" standalone="no"?><!DOCTYPE svg PUBLIC "-//W3C//DTD SVG 1.1//EN" "http://www.w3.org/Graphics/SVG/1.1/DTD/svg11.dtd"><svg t="1606877385281" class="icon" viewBox="0 0 1024 1024" version="1.1" xmlns="http://www.w3.org/2000/svg" p-id="4660" xmlns:xlink="http://www.w3.org/1999/xlink" width="200" height="200"><defs><style type="text/css"></style></defs><path d="M912.8 893.44c0 44.96-172.8 78.48-383.36 78.48s-379.36-33.52-379.36-78.48 170.72-81.52 381.36-81.52 381.36 36.48 381.36 81.52z" fill="#B8CBCD" p-id="4661"></path><path d="M820.96 731.2c-125.92 7.28-160.64-176.64-286.64-169.36q82.32-172.48 164.48-344.8c126-7.36 160.64 176.64 286.64 169.28z" fill="#B2EDA6" p-id="4662"></path><path d="M813.68 755.36c-69.44 0-114.24-49.2-153.76-92.72-37.52-41.2-72.48-80-124.16-76.8a24 24 0 0 1-23.04-34.32l164.4-344.8a24 24 0 0 1 20.32-13.68c74.24-4.4 121.28 47.28 162.4 92.48 37.52 41.2 72.48 80 124.16 76.88a24 24 0 0 1 23.12 34.24l-164.48 344.88a24 24 0 0 1-20.32 13.6zM571.04 540.72C624 552 661.76 593.36 695.36 630.32s66.32 72.96 110.48 76.72l142.88-299.6c-53.2-11.44-90.72-52.64-124.32-89.6s-66.32-72.96-110.48-76.72z" fill="#3C663E" p-id="4663"></path><path d="M749.28 328.88a139.28 139.28 0 0 0-73.04-31.12l29.36-61.52a139.12 139.12 0 0 1 73.04 31.04c-9.76 20.72-19.6 41.04-29.36 61.6zM780.08 448.48A539.76 539.76 0 0 0 720 390.4l29.36-61.52a539.76 539.76 0 0 1 60.16 58.08z" fill="#3C663E" p-id="4664"></path><path d="M870.88 442.32a374.8 374.8 0 0 1-61.44-55.36c9.76-20.56 19.6-41.04 29.36-61.6a368 368 0 0 0 61.44 55.36c-9.76 20.56-19.6 41.04-29.36 61.6zM918.4 526.8a128 128 0 0 1-76.88-22.8c9.84-20.48 19.6-41.04 29.36-61.52a128 128 0 0 0 76.88 22.96c-9.76 20.32-19.76 40.88-29.36 61.36zM690.56 451.92a138.88 138.88 0 0 0-73.04-31.04c9.84-20.48 19.6-41.04 29.36-61.52A138.88 138.88 0 0 1 720 390.4c-9.84 20.48-19.6 41.04-29.44 61.52zM721.36 571.6a539.76 539.76 0 0 0-60.16-58.08c9.84-20.56 19.6-41.04 29.36-61.6a546.96 546.96 0 0 1 60.16 58.08c-9.76 20.56-19.52 41.04-29.36 61.6zM812.16 565.36a368 368 0 0 1-61.44-55.36q14.72-30.72 29.36-61.52a371.2 371.2 0 0 0 61.44 55.52z" fill="#3C663E" p-id="4665"></path><path d="M859.76 649.92a128 128 0 0 1-76.96-22.96c9.84-20.56 19.6-41.04 29.36-61.6a127.2 127.2 0 0 0 76.88 22.96zM632 575.04A138.88 138.88 0 0 0 558.8 544l29.36-61.52a138.24 138.24 0 0 1 73.04 31.04c-9.76 20.48-19.52 41.04-29.2 61.52zM753.44 688.48a371.2 371.2 0 0 1-61.44-55.36c9.84-20.48 20-41.12 29.36-61.52a371.2 371.2 0 0 0 61.44 55.36c-9.76 20.48-19.52 41.04-29.36 61.52z" fill="#3C663E" p-id="4666"></path><path d="M388.32 891.92a24 24 0 0 1-21.6-34.32l186.16-390.4a24 24 0 0 1 43.36 20.8l-186.24 390.4a24 24 0 0 1-21.68 13.52z" fill="#3C663E" p-id="4667"></path><path d="M211.76 731.2c126 7.28 160.64-176.64 286.64-169.36Q416 389.44 333.92 217.04C208 209.68 173.28 393.68 47.28 386.32Q129.6 558.8 211.76 731.2z" fill="#B2EDA6" p-id="4668"></path><path d="M219.04 755.36H210.4a24 24 0 0 1-20.32-13.6L25.68 396.64a24 24 0 0 1 1.68-24 24 24 0 0 1 21.36-10.24h5.84c48 0 82.24-37.44 118.32-77.04 41.12-45.28 88-96.8 162.4-92.48a24 24 0 0 1 20.32 13.68l163.36 342.64a24 24 0 0 1 3.6 12.64 24 24 0 0 1-24 24h-1.6c-51.68-3.04-86.64 35.6-124.08 76.8-39.52 43.52-84.4 92.72-153.84 92.72zM84 407.44l142.88 299.6c44.16-3.76 76.4-39.2 110.48-76.64s71.12-78.4 124.32-89.68L318.8 241.12c-44.16 3.76-76.4 39.28-110.48 76.72s-71.12 78.16-124.32 89.6z" fill="#3C663E" p-id="4669"></path><path d="M283.44 328.88a139.28 139.28 0 0 1 73.04-31.12l-29.36-61.52a139.12 139.12 0 0 0-73.04 31.04c9.92 20.72 19.6 41.04 29.36 61.6zM252.64 448.48a539.76 539.76 0 0 1 60.16-58.08l-29.36-61.52a546.72 546.72 0 0 0-60.16 58.08z" fill="#3C663E" p-id="4670"></path><path d="M161.84 442.32a371.6 371.6 0 0 0 61.44-55.36c-9.76-20.56-19.6-41.04-29.36-61.6a368 368 0 0 1-61.44 55.36c9.76 20.56 19.52 41.04 29.36 61.6zM114.32 526.8A127.52 127.52 0 0 0 191.2 504l-29.36-61.52a128 128 0 0 1-76.88 22.96c9.76 20.32 19.52 40.88 29.36 61.36zM342.16 451.92a138.88 138.88 0 0 1 73.04-31.04c-9.84-20.48-19.6-41.04-29.36-61.52a139.12 139.12 0 0 0-73.04 31.04zM311.36 571.6a539.76 539.76 0 0 1 60.16-58.08c-9.76-20.56-19.6-41.04-29.36-61.6a546.96 546.96 0 0 0-60.16 58.08c9.76 20.56 19.6 41.04 29.36 61.6zM220.56 565.36a368 368 0 0 0 61.44-55.36c-9.76-20.48-19.6-40.96-29.36-61.52A368 368 0 0 1 191.2 504z" fill="#3C663E" p-id="4671"></path><path d="M173.04 649.92a128 128 0 0 0 76.88-22.96c-9.84-20.56-19.6-41.04-29.36-61.6A127.04 127.04 0 0 1 144 588.32c9.44 20.56 19.2 41.04 29.04 61.6zM400.88 575.04A138.88 138.88 0 0 1 473.92 544l-29.36-61.52a138.24 138.24 0 0 0-73.04 31.04c9.76 20.48 19.52 41.04 29.36 61.52zM279.28 688.48a371.2 371.2 0 0 0 61.44-55.36l-29.36-61.52a371.2 371.2 0 0 1-61.44 55.36c9.76 20.48 19.52 41.04 29.36 61.52z" fill="#3C663E" p-id="4672"></path><path d="M644.4 891.92a24 24 0 0 1-21.68-13.68L436.48 488A24 24 0 0 1 480 467.2l186.16 390.4a24 24 0 0 1-21.6 34.32z" fill="#3C663E" p-id="4673"></path></svg>