<?xml version="1.0" standalone="no"?><!DOCTYPE svg PUBLIC "-//W3C//DTD SVG 1.1//EN" "http://www.w3.org/Graphics/SVG/1.1/DTD/svg11.dtd"><svg t="1606877674926" class="icon" viewBox="0 0 1024 1024" version="1.1" xmlns="http://www.w3.org/2000/svg" p-id="9718" xmlns:xlink="http://www.w3.org/1999/xlink" width="200" height="200"><defs><style type="text/css"></style></defs><path d="M446.4 859.9c-7.3 0-13.3 5.9-13.3 13.3v26.5c0 7.3 6 13.3 13.3 13.3 7.3 0 13.3-5.9 13.3-13.3v-26.5c0-7.3-6-13.3-13.3-13.3M446.4 780.3c-7.3 0-13.3 5.9-13.3 13.3v26.5c0 7.3 6 13.3 13.3 13.3 7.3 0 13.3-5.9 13.3-13.3v-26.5c0-7.4-6-13.3-13.3-13.3M446.4 700.7c-7.3 0-13.3 5.9-13.3 13.3v26.5c0 7.3 6 13.3 13.3 13.3 7.3 0 13.3-5.9 13.3-13.3V714c0-7.4-6-13.3-13.3-13.3M614.8 823.7c-7.3 0-13.3 5.9-13.3 13.3v26.5c0 7.3 5.9 13.3 13.3 13.3 7.3 0 13.3-5.9 13.3-13.3V837c0-7.4-5.9-13.3-13.3-13.3M614.8 744c-7.3 0-13.3 5.9-13.3 13.3v26.5c0 7.3 5.9 13.3 13.3 13.3 7.3 0 13.3-5.9 13.3-13.3v-26.5c0-7.3-5.9-13.3-13.3-13.3" fill="#231F1F" p-id="9719"></path><path d="M426.9 134.2z" fill="#1BAFFF" p-id="9720"></path><path d="M312 634.9h361.7l115-11.1 69.7-35.4 38.7-71.9v-77.4l-57.5-74s-27.1-25-47.8-27.4L781 263.9l-47.3-83.8-71.3-41.5-85.4-14.1-88.9 31.5s-86.3 46.5-66.4 112.8l-63.9-32.4-80.5 5.8-63.9 49.8-28.2 66.4V404s-2.5 40.8 36.5 40.7l-66.4 25.7-28.2 46.5 5 48.1 24.9 39 53.9 24.9 101.1 6z" fill="#B4D6F2" p-id="9721"></path><path d="M897.1 516.6v-77.4l-57.5-74s-27.1-25-47.8-27.4L781 264l-47.3-83.8-71.3-41.5-26.4-4.4h-86.4s215 41.1 214.1 245.5c0 0 174.7 23.2 71.7 220.5l23.1-11.7 38.6-72z" fill="#64A9D8" p-id="9722"></path><path d="M441.2 287.3c5.3-5.1 5.5-13.5 0.4-18.8-30-31.7-71.7-49.6-115.3-49.4-87.8 0-159.3 71.5-159.3 159.3 0 9.8 0.9 19.6 2.6 29.1 1.6 7.2 8.8 11.6 15.9 10 6.7-1.5 11.2-8 10.2-14.8-1.5-8-2.2-16.1-2.2-24.2 0-73.2 59.5-132.7 132.7-132.7 36.3-0.1 71.1 14.8 96.1 41.2 5.2 5.1 13.6 5.3 18.9 0.3M437.4 221.9c34.5-51.5 92.4-82.4 154.4-82.4 102.5 0 185.8 83.4 185.8 185.8 0 16.8-2.2 33.5-6.7 49.6-2 7.1 2.2 14.4 9.3 16.3 7.1 2 14.4-2.2 16.3-9.3 5.1-18.3 7.6-37.4 7.6-56.6 0-117.1-95.3-212.4-212.4-212.4-70.8 0-137 35.3-176.4 94.1-4.1 6.1-2.5 14.3 3.6 18.4 6.2 4.2 14.4 2.6 18.5-3.5M842.9 354.4c-6-4.2-14.3-2.8-18.5 3.2s-2.8 14.3 3.2 18.5c35.2 24.9 56.2 65.3 56.2 108.5 0 73.2-59.5 132.7-132.7 132.7h-39.8c-23 0-66.4 13.9-66.4 66.4 0 7.3 5.9 13.3 13.3 13.3 7.3 0 13.3-5.9 13.3-13.3 0-37.5 33.2-39.7 39.8-39.8h39.8c87.8 0 159.3-71.5 159.3-159.3-0.1-51.7-25.3-100.3-67.5-130.2M260 617.3h-39.8c-43.9 0-79.6-35.7-79.6-79.6 0-43.9 35.7-79.6 79.6-79.6 7.3 0 13.3-5.9 13.3-13.3 0-7.3-5.9-13.3-13.3-13.3-58.6 0-106.2 47.6-106.2 106.2 0 58.5 47.6 106.2 106.2 106.2h39.7c6.7 0.1 39.9 2.4 39.9 39.8v26.5c0 7.3 5.9 13.3 13.3 13.3 7.3 0 13.3-5.9 13.3-13.3v-26.5c0-52.5-43.5-66.4-66.4-66.4M605.1 688.9h-37l18.7-33.3c3.6-6.4 1.3-14.5-5.1-18.1-6.4-3.6-14.5-1.3-18.1 5.1l-18.3 32.5-18.3-32.5c-3.6-6.4-11.7-8.7-18.1-5.1-6.4 3.6-8.7 11.7-5.1 18.1l18.7 33.3h-37c-7.3 0-13.3 5.9-13.3 13.3 0 7.3 5.9 13.3 13.3 13.3h37l-18.7 33.3c-3.6 6.4-1.4 14.5 5 18.1 2 1.1 4.3 1.7 6.6 1.7 4.7 0 9.1-2.4 11.6-6.8l18.3-32.5 18.3 32.5c3.6 6.4 11.7 8.7 18.1 5.1 6.4-3.6 8.7-11.7 5.1-18.1L568 715.5h37c7.3 0 13.3-5.9 13.3-13.3 0.1-7.3-5.9-13.3-13.2-13.3M435.3 609.3h37c7.3 0 13.3-5.9 13.3-13.3 0-7.3-5.9-13.3-13.3-13.3h-37l18.7-33.3c3.6-6.4 1.3-14.5-5.1-18.1-6.4-3.6-14.5-1.3-18.1 5.1L412.6 569l-18.3-32.5c-3.6-6.4-11.7-8.7-18-5.1-6.4 3.6-8.7 11.7-5.1 18l18.7 33.3h-37.1c-7.3 0-13.3 5.9-13.3 13.3 0 7.3 5.9 13.3 13.3 13.3h37l-18.7 33.3c-3.6 6.4-1.4 14.5 5 18.1 2 1.1 4.3 1.7 6.6 1.7 4.7 0 9.2-2.4 11.6-6.8l18.3-32.5 18.3 32.5c3.6 6.4 11.7 8.7 18.1 5.1 6.4-3.6 8.7-11.7 5.1-18.1l-18.8-33.3" fill="#231F1F" p-id="9723"></path><path d="M707 234.6c-6.1 4-7.9 12.2-3.9 18.4 14 21.5 21.5 46.7 21.4 72.4 0 7.3 5.9 13.3 13.3 13.3 7.3 0 13.3-5.9 13.3-13.3 0-30.8-8.9-61-25.8-86.9-4-6.2-12.2-7.9-18.3-3.9M237.3 365.1c5.9 0 11-3.9 12.7-9.5 5.2-17.3 16.1-32.3 30.8-42.6 5.9-4.3 7.2-12.6 2.9-18.5-4.2-5.8-12.2-7.2-18.1-3.2-19.7 13.8-34.2 33.8-41.1 56.8-2.1 7 1.9 14.4 8.9 16.5 1.3 0.3 2.6 0.5 3.9 0.5" fill="#231F1F" p-id="9724"></path><path d="M371 426.8a23.3 11.1 0 1 0 46.6 0 23.3 11.1 0 1 0-46.6 0Z" fill="#F2A300" p-id="9725"></path><path d="M611.4 426.8a23.3 11.1 0 1 0 46.6 0 23.3 11.1 0 1 0-46.6 0Z" fill="#F2A300" p-id="9726"></path><path d="M439.2 392c-2.1 0-4.2-1-5.6-2.8l-43-56.5c-2.4-3.1-1.8-7.5 1.3-9.8 3.1-2.4 7.5-1.8 9.8 1.3l43 56.5c2.4 3.1 1.8 7.5-1.3 9.8-1.3 1.1-2.7 1.5-4.2 1.5z" fill="#231F1F" p-id="9727"></path><path d="M388 383.2c-2.3 0-4.5-1.1-5.9-3.2-2.1-3.2-1.2-7.6 2-9.7l59.4-38.9c3.2-2.1 7.6-1.2 9.7 2 2.1 3.2 1.2 7.6-2 9.7L391.8 382c-1.2 0.9-2.5 1.2-3.8 1.2zM583.5 392c-1.5 0-3-0.5-4.3-1.4-3.1-2.4-3.7-6.8-1.3-9.8l43-56.5c2.3-3.1 6.8-3.7 9.8-1.3 3.1 2.4 3.7 6.8 1.3 9.8l-43 56.5c-1.3 1.8-3.4 2.7-5.5 2.7z" fill="#231F1F" p-id="9728"></path><path d="M634.7 383.2c-1.3 0-2.7-0.4-3.8-1.1l-59.4-38.9c-3.2-2.1-4.2-6.5-2-9.7 2.1-3.2 6.5-4.1 9.7-2l59.4 38.9c3.2 2.1 4.2 6.5 2 9.7-1.3 2-3.6 3.1-5.9 3.1zM624.7 504H408.4c-3.9 0-7-3.1-7-7s3.1-7 7-7h216.4c3.9 0 7 3.1 7 7s-3.2 7-7.1 7z" fill="#231F1F" p-id="9729"></path></svg>