<?xml version="1.0" standalone="no"?><!DOCTYPE svg PUBLIC "-//W3C//DTD SVG 1.1//EN" "http://www.w3.org/Graphics/SVG/1.1/DTD/svg11.dtd"><svg t="1606877532191" class="icon" viewBox="0 0 1024 1024" version="1.1" xmlns="http://www.w3.org/2000/svg" p-id="4330" xmlns:xlink="http://www.w3.org/1999/xlink" width="200" height="200"><defs><style type="text/css"></style></defs><path d="M521.4 368.3a144.8 144.8 0 1 0 289.6 0 144.8 144.8 0 1 0-289.6 0Z" fill="#FFD46C" p-id="4331"></path><path d="M780 457.9c11.7-14.9 20.7-32.3 25.9-51.7C826.8 329 781.1 249.5 704 228.6c-69.5-18.8-140.7 16.4-169.5 79.9 34.8-44.2 93.9-65.9 151.6-50.2 77.2 20.9 122.8 100.4 101.9 177.6-2 7.6-4.8 14.9-8 22z" fill="#F49D18" p-id="4332"></path><path d="M799.7 379.2s0.1 0 0 0c7.4 0.4 13.7-5.1 14.1-12.5 4.3-69.1-41.2-132.5-108.1-150.6-30.7-8.4-63.2-6.5-92.7 5.4-6.8 2.7-10.2 10.5-7.4 17.3 2.7 6.8 10.5 10.1 17.3 7.4 24.1-9.7 50.8-11.3 75.9-4.4 54.8 14.8 92 66.6 88.5 123.2-0.5 7.4 5.1 13.7 12.4 14.2M571 208.7c3.4 0.9 7 0.4 10.1-1.3 6.4-3.7 8.6-11.8 4.9-18.2l-26.6-46.3c-3.7-6.2-11.6-8.3-17.9-4.8-6.4 3.6-8.8 11.7-5.2 18.1l26.6 46.3c1.8 3 4.7 5.2 8.1 6.2M712.7 190.4c7.1 1.9 14.4-2.3 16.4-9.4l13.9-51.5c1.9-7.1-2.3-14.4-9.4-16.4s-14.4 2.3-16.4 9.4L703.3 174c-1.9 7.1 2.3 14.4 9.4 16.4M836 276.3l46.3-26.5c0.1-0.1 0.3-0.2 0.4-0.2 6.3-3.8 8.4-12 4.6-18.3s-12-8.4-18.3-4.6l-46.3 26.6c-6.4 3.7-8.6 11.8-4.9 18.2v0.1c3.7 6.2 11.8 8.4 18.2 4.7M895.7 433.3c7.1 1.9 14.4-2.3 16.4-9.4 1.9-7.1-2.3-14.4-9.4-16.4l-51.5-13.9c-7.1-1.9-14.4 2.3-16.4 9.4-1.9 7.1 2.3 14.4 9.4 16.4l51.5 13.9M792 218l16.3-21.1c4-5.7 3-13.5-2.3-18-5.7-4.7-14.1-4-18.8 1.7l-16.3 21.1c-0.1 0.2-0.2 0.3-0.4 0.5-4.4 5.9-3.1 14.3 2.8 18.7s14.3 3 18.7-2.9M645.2 185.8c7.3-0.9 12.5-7.6 11.5-14.9l-3.4-26.4c-0.9-7.3-7.6-12.5-14.9-11.5s-12.5 7.6-11.5 14.9l3.4 26.4c0.9 7.2 7.6 12.4 14.9 11.5M880.8 343.6c6.9-1.2 11.7-7.4 11.1-14.3-0.7-7.3-7.1-12.8-14.5-12.1l-26.4 3.4c-7.3 0.9-12.5 7.6-11.5 14.9 0.9 7.3 7.6 12.5 14.9 11.5l26.4-3.4" fill="#231F1F" p-id="4333"></path><path d="M297.1 773.3h341.8l108.7-10.4 65.9-33.4 36.5-68v-73.2l-54.4-70s-25.6-23.6-45.2-26l-10.2-69.7-44.7-79.2-67.4-39.2-80.8-13.4-83.9 29.8s-81.5 43.9-62.7 106.6l-60.3-30.6-76 5.5-60.3 47.1-26.6 62.8v43.1s-2.4 38.6 34.5 38.5l-62.7 24.2-26.6 43.9 4.7 45.5 23.5 36.9 50.9 23.5 95.3 5.7z" fill="#B4D6F2" p-id="4334"></path><path d="M850 661.5v-73.2l-54.4-70s-25.6-23.6-45.2-26l-10.2-69.7-44.7-79.2-67.4-39.2-25-4.1h-81.7s203.2 38.8 202.3 232c0 0 165.1 21.9 67.8 208.4l21.8-11.1 36.7-67.9z" fill="#64A9D8" p-id="4335"></path><path d="M422.7 427.1c-28.3-29.9-67.7-46.8-109-46.6-83 0-150.5 67.6-150.5 150.5 0 9.2 0.8 18.5 2.5 27.5 1.5 6.7 8.3 11 15 9.4 6.4-1.4 10.5-7.6 9.7-14-1.3-7.6-2.1-15.2-2.1-22.9 0-69.2 56.3-125.5 125.5-125.5 34.4-0.1 67.2 13.9 90.8 38.9 5 4.8 12.9 4.5 17.7-0.4 4.4-4.8 4.6-12.1 0.4-16.9M740.2 480.7c0 15.9-2.1 31.7-6.3 46.8-1.8 6.6 2.1 13.6 8.7 15.5 6.6 1.8 13.6-2.1 15.5-8.7 4.8-17.3 7.2-35.4 7.2-53.5 0-110.7-90.1-200.7-200.7-200.7-67 0-129.5 33.4-166.7 89-3.9 5.7-2.6 13.5 3.1 17.5 5.7 3.9 13.5 2.6 17.5-3.1 0.1-0.1 0.2-0.3 0.3-0.3 32.6-48.7 87.3-77.9 146-77.9 96.7-0.2 175.4 78.6 175.4 175.4M801.9 508.2c-5.6-4-13.5-2.7-17.5 3-4 5.6-2.7 13.5 3 17.5 33.3 23.5 53.1 61.8 53.1 102.5 0 69.2-56.3 125.5-125.5 125.5h-87.7c-21.7 0-62.7 13.1-62.7 62.7 0 6.9 5.6 12.5 12.5 12.5s12.5-5.6 12.5-12.5c0-35.4 31.4-37.6 37.6-37.6H715c83 0 150.5-67.6 150.5-150.5 0.2-48.9-23.7-94.8-63.6-123.1M301.2 756.7h-87.8c-41.5 0-75.3-33.8-75.3-75.3s33.8-75.3 75.3-75.3c6.9 0 12.5-5.6 12.5-12.5s-5.6-12.5-12.5-12.5c-55.3 0-100.3 45-100.3 100.3s45 100.3 100.3 100.3h87.7c6.3 0.1 37.7 2.2 37.7 37.6v25.1c0 6.9 5.6 12.5 12.5 12.5s12.5-5.6 12.5-12.5v-25.1c0.2-49.5-40.9-62.6-62.6-62.6M426.6 861.2c-6.9 0-12.5 5.6-12.5 12.5v25.1c0 6.9 5.6 12.5 12.5 12.5s12.5-5.6 12.5-12.5v-25.1c0.1-6.8-5.5-12.5-12.5-12.5M577.1 861.2c-6.9 0-12.5 5.6-12.5 12.5v25.1c0 6.9 5.6 12.5 12.5 12.5s12.5-5.6 12.5-12.5v-25.1c0.1-6.8-5.5-12.5-12.5-12.5M426.6 785.9c-6.9 0-12.5 5.6-12.5 12.5v25.1c0 6.9 5.6 12.5 12.5 12.5s12.5-5.6 12.5-12.5v-25.1c0.1-6.8-5.5-12.5-12.5-12.5M426.6 710.7c-6.9 0-12.5 5.6-12.5 12.5v25.1c0 6.9 5.6 12.5 12.5 12.5s12.5-5.6 12.5-12.5v-25.1c0.1-6.9-5.5-12.5-12.5-12.5M501.9 831.9c-6.9 0-12.5 5.6-12.5 12.5v25.1c0 6.9 5.6 12.5 12.5 12.5s12.5-5.6 12.5-12.5v-25.1c0.1-6.9-5.6-12.5-12.5-12.5M501.9 756.7c-6.9 0-12.5 5.6-12.5 12.5v25.1c0 6.9 5.6 12.5 12.5 12.5s12.5-5.6 12.5-12.5v-25.1c0.1-6.9-5.6-12.5-12.5-12.5" fill="#231F1F" p-id="4336"></path><path d="M349.8 511.7c-1.6-0.8-2.5-2.7-1.6-4.5 0.8-1.8 2.7-2.5 4.5-1.8 0 0.2 17.7 8.3 31.4 5.6 13.5-2.9 22.9-14.6 23.1-14.8 1.1-1.4 3.3-1.6 4.7-0.5 1.6 1.3 1.8 3.4 0.8 4.9 0 0-11.2 13.9-27.2 17.1-16 3.2-35.5-6-35.7-6z m-33.6 33.6c-2.9-1.1-4.1-4.4-3.1-7.2 1.3-2.7 4.5-4.1 7.2-2.9l76.2 31.3c2.9 1.3 4.1 4.5 3.1 7.2-0.8 1.4-1.8 2.5-3.3 3.1l-77.5 32.9c-2.9 1.3-6.1-0.2-7.2-2.9-1.3-2.9 0-6.1 2.9-7.2l65.5-27.8-63.8-26.5z" fill="#231F1F" p-id="4337"></path><path d="M362.3 657.2c15 0 27.1-9.2 27.1-20.3s-12-20-27.1-20-27.1 9-27.1 20 12.1 20.3 27.1 20.3zM616.6 657.2c15 0 27.1-9.2 27.1-20.3s-12.1-20-27.1-20-27.1 9-27.1 20 12 20.3 27.1 20.3z" fill="#F2A300" p-id="4338"></path><path d="M629 511.7c1.6-0.8 2.5-2.7 1.6-4.5-0.8-1.8-2.7-2.5-4.5-1.8 0 0.2-17.7 8.3-31.4 5.6-13.5-2.9-23.1-14.6-23.1-14.8-1.1-1.4-3.3-1.6-4.9-0.5-1.4 1.3-1.6 3.4-0.5 4.9 0 0 11.2 13.9 27.2 17.1 15.9 3.2 35.4-6 35.6-6z m33.6 33.6c2.7-1.1 4.1-4.4 2.9-7.2-1.1-2.7-4.4-4.1-7.1-2.9l-76.2 31.3c-2.9 1.3-4.1 4.5-3.1 7.2 0.8 1.4 1.8 2.5 3.1 3.1l77.6 32.9c2.9 1.3 6.1-0.2 7.2-2.9 1.3-2.9 0-6.1-2.9-7.2l-65.5-27.8 64-26.5z" fill="#231F1F" p-id="4339"></path><path d="M478.1 587.2c-3.1 0.5-6-1.3-6.5-4.4-0.8-2.9 1.3-6 4.1-6.5 0.2 0 29.2-6.6 35.2 13 2.9 9.7-1.8 16.2-7.6 20.6 3.1 2.7 5.4 7.4 5.4 14.8 0 22.8-37.4 13.9-37.6 13.9-2.9-0.8-4.7-3.6-3.9-6.6 0.8-2.9 3.6-4.7 6.6-3.9 0 0 23.9 5.6 23.9-3.3 0-9.6-9-8.3-9-8.3-2.7 0.5-5.4-1.3-6.1-3.9-0.8-3.1 1.1-6 3.9-6.6 0-0.2 16.6-4.1 13.7-13.2-2.8-10-22.1-5.6-22.1-5.6z" fill="#231F1F" p-id="4340"></path></svg>