<?xml version="1.0" standalone="no"?><!DOCTYPE svg PUBLIC "-//W3C//DTD SVG 1.1//EN" "http://www.w3.org/Graphics/SVG/1.1/DTD/svg11.dtd"><svg t="1606877382062" class="icon" viewBox="0 0 1024 1024" version="1.1" xmlns="http://www.w3.org/2000/svg" p-id="4499" xmlns:xlink="http://www.w3.org/1999/xlink" width="200" height="200"><defs><style type="text/css"></style></defs><path d="M912 886.56c0 45.04-170.56 81.44-381.12 81.44s-381.36-36.48-381.36-81.52S320 805.04 530.88 805.04 912 841.6 912 886.56z" fill="#B8CBCD" p-id="4500"></path><path d="M893.12 108.56a5.28 5.28 0 0 0 0-0.72l-0.48 0.48C870.88 101.6 584 19.28 331.36 272s-173.92 543.04-167.52 564.88l-0.48 0.48h0.72a5.84 5.84 0 0 0 0 0.64l0.48-0.48c21.6 6.72 308.32 89.04 561.12-163.76s173.92-542.96 167.52-564.88l0.48-0.48z" fill="#FFBAB0" p-id="4501"></path><path d="M303.36 880a531.76 531.76 0 0 1-142.16-18.08l-2.56-0.48a25.04 25.04 0 0 1-9.68-4.8 24 24 0 0 1-8.96-14.08 24.88 24.88 0 0 1-0.48-3.52c-13.6-50-75.68-333.28 174.88-584 156.08-156 325.12-188.8 439.44-188.8A531.2 531.2 0 0 1 896 84.32a13.2 13.2 0 0 1 2.56 0.48 24.4 24.4 0 0 1 9.76 4.88 24 24 0 0 1 8.8 13.6 21.04 21.04 0 0 1 0.56 3.92c13.52 49.84 75.68 333.36-174.88 584C586.72 847.12 417.68 880 303.36 880zM184 818.24A508.96 508.96 0 0 0 303.36 832c105.28 0 261.04-30.32 405.52-174.8 219.52-219.6 177.92-471.2 164.48-529.2a504 504 0 0 0-119.52-13.76c-105.2 0-261.04 30.32-405.44 174.8C128.72 508.64 170.4 760 184 818.24z" fill="#783741" p-id="4502"></path><path d="M179.28 859.6H165.6a14.08 14.08 0 0 1-6.8-0.88l-1.92-0.8a16 16 0 0 1-8.4-9.92 16.72 16.72 0 0 1-0.64-8c-1.52-37.6 1.44-252.96 247.28-498.8 226.16-226.24 426.72-243.84 482.8-243.84 6.16 0 10.72 0 13.68 0.4a15.12 15.12 0 0 1 6.8 0.88l1.76 0.72a16 16 0 0 1 8.64 9.52 16.72 16.72 0 0 1 0.56 8c1.52 37.84-1.52 253.04-247.2 498.8-226.24 226.32-426.8 243.92-482.88 243.92z m698.16-730.24c-53.68 0-242.88 17.68-459.76 234.48s-236.8 410.88-237.84 464c53.68 0 242.88-17.6 459.68-234.4s236.88-411.2 237.92-464.08z" fill="#783741" p-id="4503"></path><path d="M373.92 468a16 16 0 0 1-11.28-4.64 16 16 0 0 1-1.12-21.44 38.88 38.88 0 0 0-12.56-21.44A38.88 38.88 0 0 0 327.52 408a16 16 0 0 1-21.44-24c15.04-14.96 42.64-9.28 65.52 13.68a78.72 78.72 0 0 1 19.68 30.72 33.52 33.52 0 0 1-6 34.8 16 16 0 0 1-11.36 4.8zM430.08 412.8a16 16 0 0 1-12.4-26.08 38.96 38.96 0 0 0-12.56-21.52A38.56 38.56 0 0 0 384 352.72a16 16 0 0 1-21.44-24 33.36 33.36 0 0 1 34.8-6 85.28 85.28 0 0 1 50.4 50.4 33.36 33.36 0 0 1-6.32 34.88 16 16 0 0 1-11.36 4.8zM485.92 356a16 16 0 0 1-11.28-4.64 16 16 0 0 1-1.12-21.44 38.88 38.88 0 0 0-12.56-21.44A38.88 38.88 0 0 0 439.52 296a16 16 0 0 1-21.44-24c15.04-14.96 42.64-9.28 65.52 13.68S512 336 497.28 351.36a16 16 0 0 1-11.36 4.64z" fill="#783741" p-id="4504"></path><path d="M431.04 842.24A409.36 409.36 0 0 0 329.6 684C277.68 632 218.96 596.64 164.96 580.56l34.56-101.92c53.92 16 152.4 79.28 204.32 131.12C453.68 659.6 528 752 544.56 804.16z" fill="#FFFFFF" p-id="4505"></path><path d="M431.04 858.24A16 16 0 0 1 416 847.2c-16.8-51.84-51.44-105.76-97.6-152-48-48-104-83.52-157.84-99.52a16 16 0 0 1-9.6-8 16 16 0 0 1-0.96-12.48L184 473.52a16 16 0 0 1 19.76-10.16C260.72 480 361.36 544.64 415.12 598.4 464 647.28 541.2 741.92 560 799.2a16 16 0 0 1-10.08 20.08l-113.52 38.16a16 16 0 0 1-5.36 0.8z m-245.68-288a432.96 432.96 0 0 1 155.52 102.48 438.56 438.56 0 0 1 100 149.36l82.64-27.76c-23.6-51.2-88-130.56-131.04-173.28C346.96 575.52 263.04 520 209.44 499.04z" fill="#783741" p-id="4506"></path><path d="M431.04 842.24A409.36 409.36 0 0 0 329.6 684C277.68 632 218.96 596.64 164.96 580.56l34.56-101.92c53.92 16 152.4 79.28 204.32 131.12C453.68 659.6 528 752 544.56 804.16z" fill="#FFFFFF" p-id="4507"></path><path d="M431.04 858.24A16 16 0 0 1 416 847.2c-16.8-51.84-51.44-105.76-97.6-152-48-48-104-83.52-157.84-99.52a16 16 0 0 1-9.6-8 16 16 0 0 1-0.96-12.48L184 473.52a16 16 0 0 1 19.76-10.16C260.72 480 361.36 544.64 415.12 598.4 464 647.28 541.2 741.92 560 799.2a16 16 0 0 1-10.08 20.08l-113.52 38.16a16 16 0 0 1-5.36 0.8z m-245.68-288a432.96 432.96 0 0 1 155.52 102.48 438.56 438.56 0 0 1 100 149.36l82.64-27.76c-23.6-51.2-88-130.56-131.04-173.28C346.96 575.52 263.04 520 209.44 499.04z" fill="#783741" p-id="4508"></path><path d="M888.72 384.64a410.56 410.56 0 0 1-158.24-101.52c-51.84-51.84-87.36-110.64-103.44-164.56l-101.92 34.48c16 54 79.2 152.48 131.12 204.32 49.84 49.84 142.16 123.84 194.4 140.72z" fill="#FFFFFF" p-id="4509"></path><path d="M850.64 514.08a17.28 17.28 0 0 1-4.96-0.72c-57.28-18.64-152-96-200.8-144.72-53.76-53.76-118.16-154.4-135.12-211.04A16 16 0 0 1 520 137.84l101.84-34.48a16 16 0 0 1 12.48 0.96 16 16 0 0 1 8 9.68C658.32 168 693.68 224 741.76 272c46.16 46.16 100.08 80.88 152 97.6a16 16 0 0 1 9.36 8 16 16 0 0 1 0.88 12.24l-38.24 113.36a16 16 0 0 1-15.12 10.88zM545.52 163.04c21.12 53.6 76.48 137.44 122 183.04 42.72 42.64 122.08 107.36 173.28 130.96l27.76-82.64a439.2 439.2 0 0 1-149.44-100 433.76 433.76 0 0 1-102.24-155.52z" fill="#783741" p-id="4510"></path></svg>