<?xml version="1.0" standalone="no"?><!DOCTYPE svg PUBLIC "-//W3C//DTD SVG 1.1//EN" "http://www.w3.org/Graphics/SVG/1.1/DTD/svg11.dtd"><svg t="1606877391145" class="icon" viewBox="0 0 1024 1024" version="1.1" xmlns="http://www.w3.org/2000/svg" p-id="4999" xmlns:xlink="http://www.w3.org/1999/xlink" width="200" height="200"><defs><style type="text/css"></style></defs><path d="M897.44 920c0 45.04-168 78.48-378.72 78.48s-384-33.44-384-78.48 170.8-81.52 381.36-81.52 381.36 36.64 381.36 81.52z" fill="#B8CBCD" p-id="5000"></path><path d="M966.72 780.64c0 81.68-231.04 168-452 168s-460-86.32-460-168" fill="#B2EDA6" p-id="5001"></path><path d="M514.72 964.64c-214.24 0-476-84.96-476-184a16 16 0 0 1 32 0c0 64.96 219.52 152 444 152 220.48 0 436-87.04 436-152a16 16 0 0 1 32 0c0 101.92-256 184-468 184z" fill="#3C663E" p-id="5002"></path><path d="M966.72 780.64s-237.28 90-456 90-456-90-456-90 237.36-90 456-90 456 90 456 90z" fill="#B2EDA6" p-id="5003"></path><path d="M510.72 886.64c-219.12 0-451.84-87.36-461.6-91.04a16 16 0 0 1 0-29.92c9.76-3.76 242.48-91.04 461.6-91.04s451.92 87.28 461.68 91.04a16 16 0 0 1 0 29.92c-9.76 3.68-242.56 91.04-461.68 91.04zM104 780.64c78 25.28 248.4 74 406.8 74s328.88-48.72 406.88-74c-78-25.36-248-74-406.88-74S181.92 755.28 104 780.64z" fill="#3C663E" p-id="5004"></path><path d="M510.72 692.56c218.72 0 456 90 456 90 0 81.76-231.04 168-452 168s-460-86.56-460-168c0 0 237.36-90 456-90m0-32c-222 0-457.44 88-467.28 92.08a32 32 0 0 0-20.72 29.92c0 122.16 291.44 200 492 200a954 954 0 0 0 320-55.36c74.8-27.84 163.92-75.52 163.92-144.64a32 32 0 0 0-20.64-29.92C968 748.88 732.8 660.56 510.72 660.56z" fill="#3C663E" p-id="5005"></path><path d="M325.92 780.64a184.8 42 0 1 0 369.6 0 184.8 42 0 1 0-369.6 0Z" fill="#FFFFFF" p-id="5006"></path><path d="M510.72 838.64c-20.48 0-200.8-1.68-200.8-58s180.32-58 200.8-58 200.8 1.6 200.8 58-180.24 58-200.8 58zM344 780.64c13.6 10 70.4 26 166.72 26s153.2-16 166.8-26c-13.6-10.08-70.4-26-166.8-26S357.6 770.56 344 780.64z" fill="#3C663E" p-id="5007"></path><path d="M574.72 790.56a24 24 0 0 1-24-24v-712a24 24 0 0 1 48 0v712a24 24 0 0 1-24 24z" fill="#3C663E" p-id="5008"></path><path d="M574.72 110.56l-536 664s208-184 336-184c144 0 200 48 200 48z" fill="#B2EDA6" p-id="5009"></path><path d="M38.72 798.56a24 24 0 0 1-18.64-39.04l536-664a24 24 0 0 1 42.64 15.04v528a24 24 0 0 1-40 18.24s-53.12-42.24-184-42.24c-97.52 0-264 128.48-320 178a24 24 0 0 1-16 6z m512-620L176 642.72c64.72-40.48 138.72-76.16 198.64-76.16 85.36 0 142.24 16.48 176 31.2z" fill="#3C663E" p-id="5010"></path><path d="M574.72 246.56l264 472s-128-120-192-120c-28 0-72 16-72 16z" fill="#B2EDA6" p-id="5011"></path><path d="M838.72 742.56a24 24 0 0 1-16-6.48c-46.8-43.84-136-113.52-176-113.52-19.36 0-53.36 10.8-64 14.56a24 24 0 0 1-22-2.88 24 24 0 0 1-10.24-19.68v-368a24 24 0 0 1 44.96-11.68l264 472a24 24 0 0 1-20.96 35.68z m-192-168c32 0 72.8 21.6 110.4 47.28l-158.4-283.2v243.44a205.2 205.2 0 0 1 48-7.52z" fill="#3C663E" p-id="5012"></path><path d="M587.76 230.56a24 24 0 0 1-24-24V102a24 24 0 0 1 32-22.72l154.64 52.32a24 24 0 0 1 0 45.44l-154.96 52.32a25.2 25.2 0 0 1-7.68 1.2z m24-95.12v37.76l56-18.88z" fill="#3C663E" p-id="5013"></path><path d="M166.72 686.56a24 24 0 0 1-18.56-39.12l392-480a24 24 0 0 1 37.2 30.32l-392 480a24 24 0 0 1-18.64 8.8z" fill="#FFFFFF" p-id="5014"></path><path d="M38.72 798.56a24 24 0 0 1-18.64-39.04l536-664a24 24 0 0 1 42.64 15.04v528a24 24 0 0 1-40 18.24s-53.12-42.24-184-42.24c-97.52 0-264 128.48-320 178a24 24 0 0 1-16 6z m512-620L176 642.72c64.72-40.48 138.72-76.16 198.64-76.16 85.36 0 142.24 16.48 176 31.2z" fill="#3C663E" p-id="5015"></path><path d="M598.72 622.56a24 24 0 0 1-24-24v-296a24 24 0 1 1 48 0v296a24 24 0 0 1-24 24z" fill="#FFFFFF" p-id="5016"></path><path d="M838.72 742.56a24 24 0 0 1-16-6.48c-46.8-43.84-136-113.52-176-113.52-19.36 0-53.36 10.8-64 14.56a24 24 0 0 1-22-2.88 24 24 0 0 1-10.24-19.68v-368a24 24 0 0 1 44.96-11.68l264 472a24 24 0 0 1-20.96 35.68z m-192-168c32 0 72.8 21.6 110.4 47.28l-158.4-283.2v243.44a205.2 205.2 0 0 1 48-7.52z" fill="#3C663E" p-id="5017"></path></svg>