<?xml version="1.0" standalone="no"?><!DOCTYPE svg PUBLIC "-//W3C//DTD SVG 1.1//EN" "http://www.w3.org/Graphics/SVG/1.1/DTD/svg11.dtd"><svg t="1606877393517" class="icon" viewBox="0 0 1024 1024" version="1.1" xmlns="http://www.w3.org/2000/svg" p-id="5167" xmlns:xlink="http://www.w3.org/1999/xlink" width="200" height="200"><defs><style type="text/css"></style></defs><path d="M873.44 909.44c0 44.96-173.44 78.48-384 78.48s-378.72-33.52-378.72-78.48 170.72-81.52 381.36-81.52 381.36 36.48 381.36 81.52z" fill="#B8CBCD" p-id="5168"></path><path d="M301.52 878.16c0 31.12 40.96 56 184 56s184-25.2 184-56l60.16-440c0 31.12-101.04 56-244.24 56s-244.24-25.28-244.24-56z" fill="#FFFFFF" p-id="5169"></path><path d="M301.52 878.16c0 31.12 40.96 56 184 56s184-25.2 184-56l22.56-199.2c0 31.12-70.96 56-214.16 56s-199.2-25.28-199.2-56z" fill="#B2EDA6" p-id="5170"></path><path d="M485.68 950.48c-85.44 0-198.72-7.36-200-71.2l-59.44-433.84a29.52 29.52 0 0 1-0.8-6.96 16 16 0 0 1 32-2.16v2.4c6.16 13.92 80 40 228.08 40s221.92-26.24 228.08-40v-2.4a16 16 0 0 1 32 2.16 34.4 34.4 0 0 1-0.8 6.96l-59.36 433.84c-1.04 63.84-114.4 71.2-199.76 71.2zM263.28 480l54.08 395.76a9.84 9.84 0 0 1 0 2.16c0 9.44 12.16 40 168 40s168-30.88 168-40a19.6 19.6 0 0 1 0-2.16L708.08 480c-64.48 28.8-191.36 30.64-222.4 30.64S328 509.04 263.28 480z" fill="#3C663E" p-id="5171"></path><path d="M696 678.96c0 31.12-94.24 56-210.4 56s-210.4-25.28-210.4-56 94.16-56 210.4-56S696 648 696 678.96z" fill="#B2EDA6" p-id="5172"></path><path d="M485.68 751.36c-78.32 0-226.4-15.12-226.4-72s148.08-72 226.4-72 226.4 15.12 226.4 72-148.08 72-226.4 72z m0-112.72c-129.52 0-192.4 29.28-194.48 40 2.08 10.96 64.96 40 194.48 40S678.08 690 680 678.88c-1.92-10.96-64.88-40.24-194.32-40.24zM444.32 818A26.32 26.32 0 1 1 418 792a26.32 26.32 0 0 1 26.32 26zM548.32 874.4a18.8 18.8 0 1 1-18.8-18.4 18.8 18.8 0 0 1 18.8 18.4zM564.56 795.44a18.8 18.8 0 1 1-18.8-18.8 18.8 18.8 0 0 1 18.8 18.8z" fill="#3C663E" p-id="5173"></path><path d="M632 939.68h-3.28a24 24 0 0 1-20.56-27.04l60.16-440a24 24 0 1 1 47.52 6.56l-60.08 440a24 24 0 0 1-23.76 20.48z" fill="#3C663E" opacity=".2" p-id="5174"></path><path d="M398.64 203.2a24.72 24.72 0 0 1-7.6-1.2l-141.28-47.28a24 24 0 1 1 15.28-45.52l121.28 40.56c24.96-42.08 102-128 312-121.84a24 24 0 1 1-1.52 48c-235.2-7.36-274.88 109.36-275.28 110.56a24 24 0 0 1-12 14.16 24.4 24.4 0 0 1-10.88 2.56z" fill="#3C663E" p-id="5175"></path><path d="M489.44 288v-67.44A86.32 86.32 0 0 1 576 134.16a86.32 86.32 0 0 1 86.4 86.4v86.4z" fill="#B2EDA6" p-id="5176"></path><path d="M662.24 322.96h-1.68L488 304a16 16 0 0 1-14.24-16v-67.44a102.4 102.4 0 1 1 204.8 0v86.4a16 16 0 0 1-16 16z m-156.8-49.12l140.8 15.28v-68.56a70.4 70.4 0 1 0-140.8 0z" fill="#3C663E" p-id="5177"></path><path d="M241.44 331.92c0-31.12 101.04-55.04 244.24-55.04s244.24 25.28 244.24 56v105.6c0 31.12-101.04 56-244.24 56s-244.24-27.84-244.24-58.96z" fill="#B2EDA6" p-id="5178"></path><path d="M485.68 510.88c-96.64 0-260.24-16-260.24-74.96v-104c0-67.6 216.8-71.04 260.24-71.04s260.24 3.52 260.24 72v105.6c0 68.88-216.8 72.4-260.24 72.4z m0-218c-150.32 0-224 26.16-228.32 39.44v104c3.52 12.4 74.32 42.96 228.24 42.96 150.48 0 224-26.96 228.24-40.72V333.28c-4.16-13.28-77.68-40.4-228.16-40.4z" fill="#3C663E" p-id="5179"></path><path d="M485.68 405.68c-43.44 0-260.24-3.52-260.24-72.4a16 16 0 0 1 32 0c4.24 13.44 77.76 40.4 228.24 40.4s224-26.96 228.24-40.72a16 16 0 0 1 16-16 16 16 0 0 1 16 16c0 69.2-216.8 72.72-260.24 72.72z" fill="#3C663E" p-id="5180"></path><path d="M429.28 246.88A45.04 45.04 0 0 1 384 291.92a45.04 45.04 0 0 1-45.12-45.04v-75.2A45.04 45.04 0 0 1 384 126.64a45.04 45.04 0 0 1 45.04 45.04z" fill="#B2EDA6" p-id="5181"></path><path d="M384 307.92a61.12 61.12 0 0 1-61.12-61.04v-75.2a61.12 61.12 0 0 1 122.16 0v75.2A61.12 61.12 0 0 1 384 307.92z m0-165.28a29.12 29.12 0 0 0-29.12 29.04v75.2a29.12 29.12 0 0 0 58.16 0v-75.2A29.12 29.12 0 0 0 384 142.64z" fill="#3C663E" p-id="5182"></path><path d="M489.44 194.24a187.92 187.92 0 0 0-178 128c0 10.4 80 18.8 179.2 18.8s176.8-8.4 176.8-18.8a188 188 0 0 0-178-128z" fill="#B2EDA6" p-id="5183"></path><path d="M332.72 349.28a14.72 14.72 0 0 1-5.12-0.88A16 16 0 0 1 317.6 328c28.72-85.04 139.76-142.16 225.52-142.16a16 16 0 0 1 0 32c-72.96 0-171.92 51.52-195.2 120a16 16 0 0 1-15.2 11.44z" fill="#FFFFFF" p-id="5184"></path><path d="M490.64 356.8c-195.2 0-195.2-22.64-195.2-34.8a16 16 0 0 1 0.8-5.12 203.84 203.84 0 0 1 386.32 0 16 16 0 0 1 0.88 5.12c0 12.16 0 34.8-192.8 34.8z m-159.2-42.4c22.64 5.04 80 10.4 159.2 10.4 80.72 0 135.2-5.44 156.8-10.32a171.92 171.92 0 0 0-316 0z" fill="#3C663E" p-id="5185"></path><path d="M392 126.64a45.04 45.04 0 0 1 45.04 45.04v32.4a189.28 189.28 0 0 1 60.16-9.84h4a86.4 86.4 0 0 1 168.8 26.16v73.2c42.72 10.24 67.68 24 67.68 40v104.88a16.96 16.96 0 0 1-0.48 3.52l-59.68 436.16c0 31.12-40.88 56-184 56s-184-25.2-184-56l-60.08-434.24v-112c0-17.36 31.12-32 83.92-41.92a187.2 187.2 0 0 1 17.04-25.12 45.04 45.04 0 0 1-3.76-18v-75.2A45.04 45.04 0 0 1 392 126.64m0-32a77.12 77.12 0 0 0-77.12 77.04v75.2a76.72 76.72 0 0 0 0.8 11.36l-2.16 3.2c-47.28 10.48-96 28.64-96 70.48v112a40.56 40.56 0 0 0 0 4.4l59.44 432c0.8 21.76 12.08 50.32 59.36 67.44 34.24 12.4 85.44 18.4 156.72 18.4s122.48-6 156.64-18.4c47.28-17.2 58.64-45.68 59.44-67.44L768.48 448a45.52 45.52 0 0 0 0.96-9.2V333.28c0-36.32-38.56-54.8-67.68-64v-48.72A118.48 118.48 0 0 0 480 162.88l-11.44 1.2A77.04 77.04 0 0 0 392 94.64z" fill="#3C663E" p-id="5186"></path></svg>