<?xml version="1.0" standalone="no"?><!DOCTYPE svg PUBLIC "-//W3C//DTD SVG 1.1//EN" "http://www.w3.org/Graphics/SVG/1.1/DTD/svg11.dtd"><svg t="1606877412002" class="icon" viewBox="0 0 1024 1024" version="1.1" xmlns="http://www.w3.org/2000/svg" p-id="6002" xmlns:xlink="http://www.w3.org/1999/xlink" width="200" height="200"><defs><style type="text/css"></style></defs><path d="M845.12 732s49.68 86.32-20.72 86.32h-104c-23.04 0-36.32-30.72-36.32-63.36-27.92-3.68-56-8-56-8s13.2 71.36-43.84 71.36h-264c-34 0-57.36-16.96-63.44-60.64s-54.64-18.16-54.64-18.16 18 78.8-49.92 78.8c-110.88 0-93.6 43.76-96 64h834.32c43.6 0 70.4-14.48 81.2-36.32a57.84 57.84 0 0 0-35.28-6.16l18.16-27.84-41.2-4.88s-4.16-66.64-24-84.96c-17.44-15.44-39.52-18.16-44.32 9.84z" fill="#FFFFFF" p-id="6003"></path><path d="M890.56 898.64H56.4a16 16 0 0 1-11.92-5.36 16 16 0 0 1-4-12.48 50.72 50.72 0 0 0 0-7.28A59.12 59.12 0 0 1 56 827.44c17.04-17.12 48-25.12 96.56-25.12A33.12 33.12 0 0 0 180.32 792c11.12-13.92 8-40.48 6.4-48.64a16 16 0 0 1 8-17.68 84.72 84.72 0 0 1 35.44-9.28c23.2 0 39.04 14.72 42.48 39.44 4.56 32.8 18.8 46.8 47.6 46.8h264a25.76 25.76 0 0 0 21.12-8c10.16-12.24 8-36.72 7.04-44.4a16 16 0 0 1 18.16-18.72s28.08 4.4 55.44 8a16 16 0 0 1 13.92 16c0 25.2 9.52 47.36 20.32 47.36h104c7.28 0 16.56-1.12 19.76-6.56 6.48-11.28-3.92-40-12.96-56a16.72 16.72 0 0 1-1.92-10.72c5.6-32 28.32-34.48 35.12-34.48a54.64 54.64 0 0 1 35.52 16c18.72 17.04 25.76 59.44 28.32 82.4l28.32 3.36a16 16 0 0 1 11.52 24.64l-3.52 5.28a73.52 73.52 0 0 1 14.72 5.92 16 16 0 0 1 6.8 21.2c-8.16 16.4-31.76 44.72-95.36 44.72z m-817.84-32h817.84a100.72 100.72 0 0 0 50.88-10.96h-2a16 16 0 0 1-16.4-24.48l4.16-6.24-16-1.84a16 16 0 0 1-14.08-14.96c-1.84-28.96-9.68-65.52-19.04-74.08a25.6 25.6 0 0 0-14-7.52c-0.56 0-1.44 1.04-2.24 3.12 8 16 25.12 55.04 9.68 81.84-5.92 10.24-19.04 22.56-47.44 22.56h-104c-27.6 0-48-26.24-51.68-65.28l-23.12-3.28a78.64 78.64 0 0 1-15.52 48.96 56.48 56.48 0 0 1-45.68 19.6h-264c-31.44 0-70.72-12.96-79.28-74.4-1.68-11.84-6.32-11.84-10.8-11.84a37.52 37.52 0 0 0-10.24 1.68c1.44 16 0.88 42.32-14.72 61.92a64 64 0 0 1-52.96 22.64c-48 0-66.72 8.48-73.84 16a22.64 22.64 0 0 0-5.52 16.56z" fill="#324654" p-id="6004"></path><path d="M365.68 179.92S198.16 205.84 192 164.64s22.8-39.12 58.32-51.2c43.68-14.88 180.8-70.16 192-14.32 9.52 49.76-36.64 86.4-76.64 80.8z" fill="#FFFFFF" p-id="6005"></path><path d="M266.56 204c-36.4 0-85.36-4-90.56-37.04-7.04-47.44 24.88-56 50.56-63.28 5.92-1.6 12.08-3.28 18.32-5.44 4.16-1.36 9.2-3.2 14.96-5.2C296 80 356.56 58.64 400 58.64s55.44 23.44 58.16 37.36a81.04 81.04 0 0 1-17.12 68.24 87.44 87.44 0 0 1-74.8 32 765.76 765.76 0 0 1-99.68 7.76zM208 162.32s8 9.68 58.64 9.68a740.8 740.8 0 0 0 96.64-8 15.04 15.04 0 0 1 4.64 0A56 56 0 0 0 416 144a49.2 49.2 0 0 0 10.48-41.76c-0.64-3.12-2.24-11.52-26.8-11.52-37.52 0-94.64 20.4-128.72 32.48-5.84 2.16-11.04 4-15.36 5.44-7.2 2.48-14.08 4.32-20.16 6-27.28 7.52-30.16 8.96-27.44 27.76z" fill="#324654" p-id="6006"></path><path d="M374.16 552.72l-21.84 131.04-55.92 54.88-2.32-171.36" fill="#B9E3ED" p-id="6007"></path><path d="M296.4 754.64a14.72 14.72 0 0 1-6.08-1.2 16 16 0 0 1-9.92-14.56l-2.32-171.36a16 16 0 0 1 16-16 16 16 0 0 1 16 16L312 701.04l25.44-25.04 20.96-125.92a16 16 0 0 1 32 5.28L368 686.4a16 16 0 0 1-4.56 8.8l-56 54.88a16 16 0 0 1-11.04 4.56z" fill="#324654" p-id="6008"></path><path d="M296.4 738.64h-128l-20-164.08h167.52l-19.52 164.08z" fill="#B9E3ED" p-id="6009"></path><path d="M296.4 754.64h-128a16 16 0 0 1-16-14l-20-164.16a16 16 0 0 1 3.92-12.48 16 16 0 0 1 11.92-5.44h167.68a16 16 0 0 1 16 17.92L312 740.56a16 16 0 0 1-15.6 14.08z m-113.84-32h99.6l16-132.08H166.48z" fill="#324654" p-id="6010"></path><path d="M192 174.16a303.28 303.28 0 0 1 7.28 109.2c-7.28 58.24-70.96 127.2-70.96 207.28s-1.84 134.88 100.16 134.88c225.68 0 269.36 116.48 458.64 116.48 145.6 0 218.4-36.4 218.4-80s7.28-121.92-148-150.48C612.8 484.88 505.2 400 446.96 108.64c-94.96 0-145.6 65.52-254.96 65.52z" fill="#B9E3ED" p-id="6011"></path><path d="M687.2 758c-94 0-155.12-28.4-214.16-56-64-29.84-130.24-60.64-244.48-60.64-52.88 0-85.2-14.16-101.68-44.48-14.48-26.56-14.48-61.6-14.48-102.24v-4.16c0-49.84 22.32-94.72 42.08-134.4 13.52-27.2 26.32-52.88 29.04-74.88a290.8 290.8 0 0 0-6.8-102.88A16 16 0 0 1 192 158.16c53.28 0 92.64-16.88 130.72-33.28s75.2-32 124.16-32a16 16 0 0 1 16 12.88c57.6 288.88 160.64 364.8 297.6 390.24 162 29.76 161.44 114.88 161.12 160.64v5.52c0 59.04-89.6 95.84-234.4 95.84zM211.92 189.44a321.44 321.44 0 0 1 3.36 96c-3.44 27.44-17.36 55.44-32 85.12-19.04 38.32-38.72 77.84-38.72 120v4.16c0 36.24 0 67.52 10.56 86.88 7.04 12.96 21.76 27.84 73.6 27.84 121.28 0 190.8 32 257.92 64 58.56 27.2 113.76 52.88 200.72 52.88 132.88 0 202.4-32 202.4-64V656c0-44 0.72-104-134.88-129.04-174.24-32-267.76-148.8-320.72-402.16-36.4 2.56-66.72 15.6-98.64 29.28-36.48 15.84-73.92 31.92-123.6 35.36z" fill="#324654" p-id="6012"></path><path d="M687.2 699.76c-94 0-155.12-28.4-214.16-56-64-29.76-130.24-60.56-244.48-60.56-74.8 0-112-29.04-116.08-91.44a16 16 0 1 1 32-2.32c2.56 37.12 17.92 61.76 84.16 61.76 121.28 0 190.8 32 257.92 64 58.56 27.2 113.76 52.88 200.72 52.88 125.2 0 200-19.28 200-51.52a16 16 0 0 1 32 0c-0.16 55.92-76.08 83.2-232.08 83.2z" fill="#324654" p-id="6013"></path><path d="M736.4 594.64a18.72 18.72 0 0 1-3.04 0A16 16 0 0 1 721.2 584L704 532.8l-46.24 34.64a16 16 0 0 1-16 1.92 16 16 0 0 1-9.52-13.12l-5.76-57.92-51.84 22.96a16 16 0 0 1-22.4-16l5.84-58.4-58.8 11.68a16 16 0 0 1-15.44-5.44 16 16 0 0 1-2.56-16l23.28-58.08h-64.16a16 16 0 0 1-13.52-24.48l34.24-54.32-70.8-9.28a16 16 0 0 1-11.12-24.88l57.92-85.28A16 16 0 1 1 464 198.4l-43.36 64 69.76 9.2a16 16 0 0 1 11.52 24l-32 50.88h58.96a16 16 0 0 1 13.28 7.04 16 16 0 0 1 1.6 14.96l-21.04 52.56 51.04-10.24A16 16 0 0 1 592 428.24l-5.28 52.64 46.88-20.8a16 16 0 0 1 22.4 12.96l5.2 51.84 41.28-31.04a16 16 0 0 1 24.8 8l15.04 45.2L772.24 512a16 16 0 0 1 24 20.88l-48 56a16 16 0 0 1-11.84 5.76z" fill="#324654" p-id="6014"></path><path d="M534.56 238.24c-8 0-16.64-0.48-25.12-1.28a24 24 0 0 1-16.56-38.72c9.04-11.52 55.36-69.76 80-86a84.96 84.96 0 0 1 45.28-13.6c30.32 0 52.24 18.24 56 46.4a61.44 61.44 0 0 1-17.2 48c-24.96 28.24-70.88 45.2-122.4 45.2z m83.76-91.6a36.4 36.4 0 0 0-19.04 5.84 243.92 243.92 0 0 0-35.28 35.28c28.48-4.88 48-16 56.88-26.64a18.24 18.24 0 0 0 5.6-10.16c-0.24-2.08-0.56-4.32-8.16-4.32z" fill="#324654" p-id="6015"></path><path d="M501.68 210.64a24 24 0 0 1-9.6-2 24 24 0 0 1-14-17.76c-2.48-14.08-14.56-85.44-9.12-112.88 6.08-30.64 32-53.68 60.56-53.68a59.28 59.28 0 0 1 36.16 12.96 67.2 67.2 0 0 1 24 57.76c-1.6 40.64-29.68 82.4-75.04 112a24 24 0 0 1-12.96 3.6zM529.52 72c-5.44 0-12 7.28-13.52 15.04a256.8 256.8 0 0 0 3.04 53.6 80.8 80.8 0 0 0 22.8-48 21.52 21.52 0 0 0-5.36-17.84 12.96 12.96 0 0 0-6.96-2.8z" fill="#324654" p-id="6016"></path><path d="M627.68 391.44a24 24 0 0 1-11.68-2.88c-49.92-26.88-41.52-64.8-36.4-87.44 4.24-19.12 4.88-26.08-4-35.44-6.48-6.88-22.8-10.16-35.84-12.8-19.76-4-46.96-9.52-51.76-35.6a24 24 0 0 1 44.96-15.28 168.48 168.48 0 0 0 16.48 3.84c19.68 4 44.16 8.88 61.2 26.8 27.2 28.72 20.4 58.96 16 78.96s-5.6 25.04 12.4 34.72a24 24 0 0 1-11.44 45.12z" fill="#324654" p-id="6017"></path><path d="M688.4 320a21.44 21.44 0 0 1-4.96-0.56c-42.96-9.12-48-39.44-50.48-56-2.08-12.8-2.96-15.6-9.2-19.04a55.12 55.12 0 0 0-23.28-1.04c-14.72 1.2-36.96 2.96-48-16a24 24 0 0 1 35.6-31.04c2.64 0 6.24 0 8.88-0.56 14-1.12 33.12-2.64 50.32 6.88 27.2 15.04 31.12 39.04 33.36 53.44s2.32 14.08 13.04 16a24 24 0 0 1-5.28 47.92z" fill="#324654" p-id="6018"></path><path d="M351.04 417.04l-46.24-21.12-43.68 26.16 5.84-50.56-38.4-33.36L278.4 328l20-46.8 24.96 44.32 50.72 4.48-34.4 37.52 11.36 49.52z" fill="#FFFFFF" p-id="6019"></path><path d="M261.12 438.08a15.36 15.36 0 0 1-8.64-2.56 16 16 0 0 1-7.28-15.28l4.88-42.16-32-27.92a16 16 0 0 1 7.28-27.68l41.68-8.48 16.64-39.04a16 16 0 0 1 13.84-9.76 16 16 0 0 1 14.8 8l20.88 36.96 42.32 3.76a16 16 0 0 1 13.44 10.16 16 16 0 0 1-3.12 16.56l-28.72 31.28 9.04 39.28a14.96 14.96 0 0 1 1.04 5.68 16 16 0 0 1-16 16 15.12 15.12 0 0 1-6.64-1.44l-38.64-17.6-36.4 21.84a16 16 0 0 1-8.4 2.4z m2.4-90.72l13.92 12.16a16 16 0 0 1 5.36 13.84L280.72 392l16-9.44a16 16 0 0 1 14.88-0.88l16.8 8-4.16-18a16 16 0 0 1 3.76-14.96l12.48-13.6-18.4-1.68a16 16 0 0 1-12.56-8l-9.04-16-7.2 17.04A16 16 0 0 1 281.6 344z" fill="#324654" p-id="6020"></path><path d="M400 82.64c22.4 0 38.96 6.48 42.48 24.48a68.08 68.08 0 0 1 1.2 9.68h3.68C505.2 408 612.8 492.88 757.6 519.44 866.88 539.52 896 584 903.12 624a240 240 0 0 1 2.48 45.68c0 16.56-10.4 32-31.2 44.88a25.04 25.04 0 0 1 14.72 7.44c20.16 18.24 24 84.88 24 84.88l41.2 4.88-17.84 28.24a41.92 41.92 0 0 1 8-0.64 58.88 58.88 0 0 1 27.44 6.8c-10.8 21.84-37.6 36.32-81.2 36.32H56.4c2.4-20.64-6.88-64 104-64 55.04 0 45.68-51.68 43.2-71.36h-35.2L152 611.92c-24-23.04-23.6-63.2-23.6-113.28 0-80 64-149.04 70.96-207.28A303.28 303.28 0 0 0 192 182.16c1.84 0-1.12-3.12 0.64-3.12-2.8-2.72 0-2.8-0.64-6.4-6-41.28 22.8-39.12 58.32-51.2C280 111.36 352.56 82.64 400 82.64m0-32c-45.92 0-107.92 22.08-144.88 35.28-5.68 2-10.64 3.84-14.72 5.2-5.84 2-11.76 3.6-17.44 5.2-24 6.56-68.56 18.8-62.8 75.84A32.72 32.72 0 0 0 160 184a28.88 28.88 0 0 0 1.2 7.28A276.16 276.16 0 0 1 168 287.36c-2.48 19.36-14.64 43.84-27.52 69.76-20.48 41.2-43.76 88-43.76 141.52v4.16c0 46.88 0 91.36 25.04 123.04l15.2 124.72a32 32 0 0 0 32 28.08h4.96a9.52 9.52 0 0 1-1.84 5.36 19.6 19.6 0 0 1-11.12 2c-53.04 0-88 9.12-110.08 28.72a79.2 79.2 0 0 0-25.36 59.36v4.56a32 32 0 0 0 32 35.76h833.04c72 0 99.84-33.92 109.84-54.16a32 32 0 0 0-13.68-42.4h-0.56a32 32 0 0 0-27.76-37.28l-16-1.84a181.76 181.76 0 0 0-19.84-64.64 74.24 74.24 0 0 0 14.88-43.84v-5.2a236.8 236.8 0 0 0-2.96-46c-12.88-68.96-68.88-111.6-171.2-130.4C632.8 464 534.4 390.64 478.32 110.32a32.4 32.4 0 0 0-5.52-12.56c-4.16-16.4-19.2-47.12-73.12-47.12z" fill="#324654" p-id="6021"></path></svg>