<?xml version="1.0" standalone="no"?><!DOCTYPE svg PUBLIC "-//W3C//DTD SVG 1.1//EN" "http://www.w3.org/Graphics/SVG/1.1/DTD/svg11.dtd"><svg t="1606877369307" class="icon" viewBox="0 0 1024 1024" version="1.1" xmlns="http://www.w3.org/2000/svg" p-id="3859" xmlns:xlink="http://www.w3.org/1999/xlink" width="200" height="200"><defs><style type="text/css"></style></defs><path d="M882.4 914.4c0 45.04-170.72 81.52-381.36 81.52S120 959.44 120 914.4s175.04-78.48 385.68-78.48 376.72 33.52 376.72 78.48z" fill="#B8CBCD" p-id="3860"></path><path d="M454 973.44a166.8 166.8 0 0 1-119.04-48.88 163.6 163.6 0 0 1-47.6-122.72 179.76 179.76 0 0 1 53.04-121.04L717.12 304a116.16 116.16 0 0 0 33.6-87.12A132.32 132.32 0 0 0 712 128a118.08 118.08 0 0 0-170.56 0L298.4 371.04a24 24 0 0 1-33.92-34l242.8-242.8a166.88 166.88 0 0 1 238.4 0 179.68 179.68 0 0 1 52.96 121.04 162.96 162.96 0 0 1-48 122.72L374.32 714.72a132.32 132.32 0 0 0-38.96 88.8 115.6 115.6 0 0 0 33.6 87.12 118.16 118.16 0 0 0 88 34.8A128 128 0 0 0 545.12 888l151.36-152a24 24 0 1 1 33.92 34L579.04 921.6a176 176 0 0 1-121.52 51.84z" fill="#783741" p-id="3861"></path><path d="M165.44 561.68C151.36 576 120.56 568 96.64 544s-32-54.8-18-68.8l149.68-133.44c14.08-14.08 36.64-14.32 60.64 9.68s24 46.56 9.68 60.56z" fill="#FFBAB0" p-id="3862"></path><path d="M146.64 592.64a100.24 100.24 0 0 1-67.04-32c-34.4-34.4-42.08-78.56-17.92-102.8l1.04-0.96 149.2-132.64a56 56 0 0 1 39.12-16c13.04 0 33.12 4.56 54.88 26.32 35.68 35.68 30.88 72.72 10.24 93.92l-132.8 149.2-0.96 1.04a49.2 49.2 0 0 1-35.76 13.92zM96 492c-1.04 3.2 1.92 18.8 18 34.8a54.24 54.24 0 0 0 33.04 17.84 10.72 10.72 0 0 0 2.08 0l131.52-148.56 0.96-1.04c8-8-4.16-21.2-9.6-26.64a35.84 35.84 0 0 0-20.96-12.24 7.52 7.52 0 0 0-5.76 2.56l-0.96 0.96z" fill="#783741" p-id="3863"></path><path d="M165.44 577.68a16 16 0 0 1-11.28-4.64 16 16 0 0 1 0-22.64c5.6-5.6 1.36-26.96-17.92-46.24s-40.24-23.52-46.24-17.92A16 16 0 0 1 67.36 464C88 442.96 128 450.88 158.8 481.52s38.56 70.88 18 91.52a16 16 0 0 1-11.36 4.64z" fill="#783741" p-id="3864"></path><path d="M819.68 552c14.08-14 44.88-6 68.88 18s32 54.8 17.92 68.8L756.8 772c-14.08 14.08-36.8 14.32-60.8-9.68s-24-46.56-9.68-60.56z" fill="#FFBAB0" p-id="3865"></path><path d="M734.08 805.6c-12.96 0-33.04-4.56-54.8-26.32-35.68-35.68-30.88-72.72-10.24-93.92L801.76 536l0.96-1.04a49.28 49.28 0 0 1 35.76-13.92 100.24 100.24 0 0 1 67.04 32c34.4 34.4 42.16 78.56 17.92 102.8l-0.96 0.96-149.28 132.72a56 56 0 0 1-39.12 16.08z m102.4-236.32l-132 148.4-0.96 1.04c-8 8 4.24 21.2 9.68 26.64a35.68 35.68 0 0 0 20.88 12.24 7.44 7.44 0 0 0 5.76-2.56l1.04-0.96 148.64-132.32c1.12-3.2-1.92-18.8-17.92-34.8a54.4 54.4 0 0 0-33.12-17.84 9.12 9.12 0 0 0-2 0.16z" fill="#783741" p-id="3866"></path><path d="M888 661.6a91.52 91.52 0 0 1-61.68-29.6c-30.64-30.72-38.56-70.88-17.92-91.52a16 16 0 1 1 22.64 22.64c-5.68 5.6-1.36 26.96 17.92 46.24s40.56 23.52 46.24 17.92a16 16 0 0 1 22.64 22.64A41.36 41.36 0 0 1 888 661.6z" fill="#783741" p-id="3867"></path></svg>