<?xml version="1.0" standalone="no"?><!DOCTYPE svg PUBLIC "-//W3C//DTD SVG 1.1//EN" "http://www.w3.org/Graphics/SVG/1.1/DTD/svg11.dtd"><svg t="1606876540162" class="icon" viewBox="0 0 1024 1024" version="1.1" xmlns="http://www.w3.org/2000/svg" p-id="9674" xmlns:xlink="http://www.w3.org/1999/xlink" width="200" height="200"><defs><style type="text/css"></style></defs><path d="M904.571469 325.34281c-9.215896-3.685949-17.513886-5.376451-24.883737-5.071506-7.367805 0.311085-14.742772 2.768043-22.115694 7.375991-7.373944 4.605901-13.056364 8.751315-17.046235 12.440333-3.990894 3.683902-7.218402 6.754844-9.67536 9.214872-1.226944 1.839905-3.37691 4.606925-6.451946 8.292873-14.745842 17.196661-26.571169 30.250978-35.480073 39.162952-8.906857 8.904811-21.041222 19.654642-36.395932 32.252565-15.363919 12.593829-31.643698 21.656229-48.845475 27.181059-17.200754 5.53097-35.939537 8.296967-56.214303 8.296967l-21.192671 0L511.999488 464.488917l-113.351628 0-22.115694 0c-16.584724 0-32.865525-2.613524-48.839335-7.833409-15.972786-5.222955-29.179576-10.595312-39.628556-16.125259-10.443863-5.53097-22.727631-15.050788-36.860513-28.568662-14.128789-13.515828-23.804149-23.191188-29.027104-29.025057-5.218862-5.836939-14.897292-17.048281-29.027104-33.634028-5.53097-7.986905-15.357779-15.821337-29.491685-23.500227-14.128789-7.68196-28.873608-7.835456-44.231387-0.459464-24.572652 17.200754-36.860513 54.061266-36.860513 110.578468l0 2.762927 0 0.921999 0 65.427128 0 119.79334 0 9.215896c1.227967 23.959691 6.91141 41.156352 17.050328 51.603285 10.137895 10.44284 24.419156 16.585747 42.849924 18.430768 3.900843-0.025583 4.491291-0.278339 8.674567 0l722.248492 0c4.443196-0.278339 5.776563 0.01842 9.0624 0 19.046798-1.847068 33.329083-7.987928 42.854017-18.430768 9.507538-10.446933 14.888082-27.643594 16.127306-51.603285l0-9.215896L941.433004 505.033331l0-65.427128 0-0.921999 0-2.762927C941.431981 378.176109 929.14105 341.315596 904.571469 325.34281zM242.91089 659.843186c-25.188682-3.686972-46.077432-14.282285-62.662155-31.787984-16.590863-17.511839-24.883737-38.860053-24.883737-64.048735 0-25.181519 9.215896-47.14781 27.647687-65.8825 18.430768-18.74083 39.934524-28.109198 64.508199-28.109198-7.985882 1.227967-14.745842 11.059893-20.270672 29.488615-5.531993 18.430768-8.299013 40.545438-8.299013 66.349127C218.950176 612.538811 226.938104 643.869377 242.91089 659.843186zM320.782446 628.51262c-16.895809 17.201777-37.937031 27.643594-63.125713 31.330566 7.369851-5.529947 13.052271-16.894785 17.050328-34.093493 3.990894-17.201777 5.989411-37.171598 5.989411-59.896158 0-26.41665-2.610454-48.536436-7.834432-66.351174-5.218862-17.816784-11.824303-27.644617-19.811208-29.488615 25.799596 0 47.76384 9.214872 65.887616 27.64564 18.125823 18.429745 27.187199 40.549531 27.187199 66.347081C346.124624 589.80811 337.674161 611.311867 320.782446 628.51262zM484.813313 549.263695c2.148943-2.456958 5.376451-3.685949 9.677407-3.685949l35.015491 0c5.529947 0 9.367345 1.227967 11.519358 3.685949 2.15099 2.455935 1.687432 5.223978-1.382487 8.292873l-10.136871 13.82282-11.05887 16.58984c-1.220804 1.226944-3.370771 1.839905-6.448876 1.839905-3.074012 0-4.607948-0.613984-4.607948-1.839905-0.61603-0.618077-1.690502-2.152013-3.226484-4.607948-1.533936-2.456958-3.072989-4.608971-4.606925-6.452969-1.533936-1.839905-3.224438-3.684926-5.067412-5.528923l-10.136871-13.82282C482.507804 554.488697 482.662323 551.720653 484.813313 549.263695zM613.3682 671.826102c-3.074012 6.751774-10.905374 11.516288-23.502273 14.278191-12.593829 2.76395-25.954115 2.15099-40.083927-1.845021-14.133905-3.989871-24.266683-11.822257-30.41266-23.49511-0.610914-0.61603-0.921999-1.532913-0.921999-2.759857-1.839905-1.847068-3.990894-2.768043-6.448876-2.768043-1.845021 0-3.684926 0.919952-5.528923 2.768043-1.227967 1.226944-1.846044 2.14485-1.846044 2.759857-6.141884 12.282744-16.127306 20.423145-29.951149 24.419156-13.821797 3.993964-26.876114 4.454452-39.163975 1.379417-12.283768-3.066849-20.577664-7.985882-24.87862-14.736633l0-11.06194c3.684926 3.686972 10.290367 7.218402 19.811208 10.596336 9.522887 3.37998 20.580734 4.14746 33.175587 2.303462 12.593829-1.837858 22.269189-8.596795 29.027104-20.267603 4.29277-7.374968 6.747681-15.669888 7.370875-24.882714 1.228991-6.14086 1.845021-11.363815 1.845021-15.667841l20.274766 0c0 7.375991 0.305969 12.592806 0.916882 15.667841 0.61603 1.845021 1.692548 5.835915 3.226484 11.977799 1.540076 6.147 2.920516 10.443863 4.148483 12.904914 7.987928 10.4367 18.279319 16.736173 30.874171 18.885116 12.593829 2.153036 23.496134 1.847068 32.713053-0.920976 9.214872-2.759857 15.666818-6.29538 19.35379-10.597359L613.367177 671.826102zM765.420245 659.843186c-23.960715-3.687996-44.542472-14.434757-61.743226-32.252565-17.202801-17.812691-25.802666-39.012526-25.802666-63.585177 0-25.181519 9.366322-47.14781 28.106128-65.8825 18.736736-18.74083 40.697911-28.109198 65.88864-28.109198-8.599865 1.843998-15.512299 11.519358-20.73423 29.031197-5.221932 17.507746-7.829316 39.775912-7.829316 66.807568C743.305575 613.767801 750.674403 645.098367 765.420245 659.843186zM844.206636 628.51262c-16.276708 17.201777-37.318954 27.643594-63.123666 31.330566 7.373944-5.529947 13.057387-16.894785 17.046235-34.093493 3.997034-17.201777 5.990434-37.171598 5.990434-59.896158 0-26.41665-2.609431-48.536436-7.829316-66.351174-5.222955-17.816784-12.134365-27.644617-20.73423-29.488615 26.417673 0 48.53439 9.214872 66.346057 27.64564 17.818831 18.429745 26.723641 40.549531 26.723641 66.347081C868.627838 589.80811 860.488461 611.311867 844.206636 628.51262z" p-id="9675"></path></svg>