<?xml version="1.0" standalone="no"?><!DOCTYPE svg PUBLIC "-//W3C//DTD SVG 1.1//EN" "http://www.w3.org/Graphics/SVG/1.1/DTD/svg11.dtd"><svg t="1606877414741" class="icon" viewBox="0 0 1024 1024" version="1.1" xmlns="http://www.w3.org/2000/svg" p-id="6173" xmlns:xlink="http://www.w3.org/1999/xlink" width="200" height="200"><defs><style type="text/css"></style></defs><path d="M661.6 674.96a24 24 0 1 1 0-48c76 0 184-95.2 184-184 0-26.32-6.96-43.2-20.56-50.16-20.96-10.8-61.12-1.44-93.52 21.68A24 24 0 0 1 704 375.36c40-28.64 100.08-48 143.36-25.28 21.28 10.96 46.64 35.92 46.64 92.88-0.4 117.04-133.28 232-232.4 232zM349.68 674.96c-99.12 0-232-114.72-232-232 0-56.96 25.36-81.92 46.56-92.88C208 328 267.52 346.72 307.68 375.36A24 24 0 0 1 280 414.48c-32-23.12-72.56-32.48-93.52-21.68-13.6 6.96-20.56 24-20.56 50.16 0 88.8 108 184 184 184a24 24 0 1 1 0 48z" fill="#702C17" p-id="6174"></path><path d="M893.44 897.44c0 44.96-170.8 81.52-381.36 81.52s-381.36-36.56-381.36-81.52S301.44 816 512 816s381.44 36.4 381.44 81.44z" fill="#B8CBCD" p-id="6175"></path><path d="M285.6 466.96C285.6 496 381.28 520 502.72 520s222.88-24 222.88-53.04v-120C725.6 318.24 624 296 502.72 296S285.6 318.24 285.6 346.96z" fill="#F6E89A" p-id="6176"></path><path d="M502.72 536C416 536 269.6 521.36 269.6 466.96v-120c0-65.12 209.28-66.96 233.12-66.96s238.88 1.92 238.88 67.04v120c0 54.48-156.24 68.96-238.88 68.96zM301.6 466.4C307.92 480 381.68 504 502.72 504c123.2 0 199.52-24 206.88-37.76V347.68C701.92 334.64 627.6 312 502.72 312c-122.56 0-194.56 22.64-201.12 35.6z" fill="#702C17" p-id="6177"></path><path d="M699.68 263.52a199.04 199.04 0 0 1-193.76 203.44c-108 4.48-203.68-87.6-202.96-204.88C304 143.12 401.76 62.72 502.48 70.96a201.44 201.44 0 0 1 197.2 192.56z" fill="#FFFFFF" p-id="6178"></path><path d="M148.48 394.08a352.72 352.72 0 0 1-21.84-53.92 325.12 325.12 0 0 1 12.88-51.52h45.6c8.96 19.28 19.04 38.96 29.84 58.48-8.72 18.96-16 37.04-22.24 53.76a387.92 387.92 0 0 1-44.24-6.8z" fill="#F6E89A" p-id="6179"></path><path d="M192.72 416.72h-1.6a398.24 398.24 0 0 1-46.16-6.96 16 16 0 0 1-10.8-8.4 372.56 372.56 0 0 1-22.88-56 16 16 0 0 1-0.48-7.2 351.52 351.52 0 0 1 13.52-54.08 16 16 0 0 1 15.12-10.96h45.68A16 16 0 0 1 200 281.76c8 17.92 18.16 37.28 29.28 57.44a16 16 0 0 1 0.56 14.48c-8.72 18.8-16 36.48-21.76 52.4a16 16 0 0 1-15.36 10.64z m-33.36-36.72c6.64 1.2 14.16 2.4 22.72 3.44a673.76 673.76 0 0 1 15.04-35.84c-8-14.88-15.52-29.28-22.16-43.04h-24a284.64 284.64 0 0 0-8 34.4 328 328 0 0 0 16.4 41.04z" fill="#8D4520" p-id="6180"></path><path d="M139.52 288.64a328 328 0 0 1-12.56-51.2A352 352 0 0 1 149.2 184a365.6 365.6 0 0 1 44.16-6.96c5.84 16.56 13.28 34.56 21.92 53.36-10.88 19.52-21.12 39.12-30.16 58.4z" fill="#F6E89A" p-id="6181"></path><path d="M139.52 304.64a16 16 0 0 1-15.2-10.96A332.16 332.16 0 0 1 111.2 240a16 16 0 0 1 0.48-7.28 364.64 364.64 0 0 1 23.28-56 16 16 0 0 1 10.56-8 373.92 373.92 0 0 1 46.08-7.2 16 16 0 0 1 16.8 10.56c5.6 16 12.8 33.28 21.36 52a16 16 0 0 1-0.56 14.48C217.92 258.16 208 277.44 200 295.28a16 16 0 0 1-14.4 9.2h-45.6z m3.84-66a318.64 318.64 0 0 0 8 34h24c6.64-13.76 14.08-28.24 22.32-43.2q-8-18.48-14.72-35.28-12.72 1.68-22.56 3.6a342.4 342.4 0 0 0-17.04 40.88z" fill="#8D4520" p-id="6182"></path><path d="M149.2 183.44a311.44 311.44 0 0 1-5.2-40.4 277.76 277.76 0 0 1 30.88-45.92 398.96 398.96 0 0 1 42.16-10.64 317.04 317.04 0 0 0 11.6 37.28c-12.32 16.64-24 34.48-35.36 52.8a384 384 0 0 0-44.08 6.88z" fill="#8D4520" p-id="6183"></path><path d="M174.96 97.12c-0.72-10-0.72-18.48-0.8-26.32A104 104 0 0 1 216 46.08l44.56-1.2c-1.92 0.56-2.64 3.28-1.6 8.72a173.52 173.52 0 0 0-42 32.88 398.96 398.96 0 0 0-42 10.64z" fill="#F6E89A" p-id="6184"></path><path d="M174.96 113.12a15.52 15.52 0 0 1-8.88-2.72 16 16 0 0 1-7.04-12.08c-0.72-8.96-0.8-16.88-0.8-24v-3.36a16 16 0 0 1 5.12-11.92 120 120 0 0 1 48.48-28.32c1.28 0 2.56 0.96 3.92 0.88 14.8-0.4 29.68 0 44.64 0h0.4a14.72 14.72 0 0 1 16 12.16 13.84 13.84 0 0 1-1.52 8.8 16 16 0 0 1-8.48 15.28 152 152 0 0 0-37.92 29.68 16 16 0 0 1-8 4.4 401.84 401.84 0 0 0-40.48 10.16 14.48 14.48 0 0 1-5.44 1.04z m43.76-51.12a84.16 84.16 0 0 0-25.12 13.36c4.96-1.28 10.16-2.4 15.6-3.6 3.44-3.44 6.96-6.72 10.4-9.76z" fill="#8D4520" p-id="6185"></path><path d="M226.08 454.48c-12.24-16.88-24-34.72-35.12-53.12 5.84-16.64 13.28-34.64 21.92-53.6 19.44 0.64 40.48 1.04 62.08 1.28 11.36 19.84 22.96 39.52 34.56 58.8-9.92 18.72-19.04 36.4-26.72 52.16-19.92-1.52-39.04-3.28-56.72-5.52z" fill="#F6E89A" p-id="6186"></path><path d="M282.8 476h-1.2c-21.2-1.52-40.56-3.44-57.52-5.52a16 16 0 0 1-10.96-6.48 759.248 759.248 0 0 1-35.84-54.32A16 16 0 0 1 176 396c6.08-17.04 13.6-35.52 22.56-54.88a15.52 15.52 0 0 1 15.04-9.28c17.76 0.56 38 0.96 61.76 1.2a16 16 0 0 1 13.68 8c11.28 19.84 22.88 39.44 34.4 58.4a16 16 0 0 1 0.4 16c-10.32 19.36-19.2 36.72-26.48 51.6a16 16 0 0 1-14.56 8.96z m-48-36.56c11.76 1.36 24.56 2.64 38.24 3.76 5.36-10.64 11.36-22.32 18-34.88-8.56-14.16-17.12-28.72-25.6-43.36-16 0-29.6-0.48-42.48-0.88q-8 18.64-14.48 35.52c8.56 13.76 17.44 27.12 26.48 39.84z" fill="#8D4520" p-id="6187"></path><path d="M212.88 347.76C202.08 328 192 308.64 183.2 289.44c8.88-19.28 19.04-38.88 29.84-58.4 19.44-0.64 40.4-1.04 62-1.36 10.24 19.6 21.2 39.6 32 59.68-11.12 20.08-22.08 40-32.4 59.68-21.28-0.24-42.64-0.64-61.76-1.28z" fill="#FFFFFF" p-id="6188"></path><path d="M213.04 230.88c-8.56-18.88-16-36.8-21.68-53.28 11.12-18.32 22.96-36.16 35.28-52.88 17.6-2.24 36.64-4.08 56.56-5.6 7.52 15.6 16.56 33.12 26.48 51.76a2409.52 2409.52 0 0 0-34.64 58.64c-21.6 0.24-42.56 0.72-62 1.36z" fill="#F6E89A" p-id="6189"></path><path d="M213.04 248a16 16 0 0 1-14.48-9.92A739.84 739.84 0 0 1 176 183.12a16.4 16.4 0 0 1 1.44-13.68c11.52-18.96 23.6-37.28 36.08-54.16a16 16 0 0 1 10.8-6.4c17.28-2.24 36.56-4.16 57.44-5.68a16 16 0 0 1 15.76 8.8c7.36 15.04 16 32 26.32 51.28a16 16 0 0 1-0.48 16c-11.36 18.64-22.96 38.24-34.4 58.24a16.64 16.64 0 0 1-13.68 8.56c-23.36 0-43.52 1.92-61.68 1.92z m-4-68.56q6.16 16.64 14.24 35.2c12.96-0.4 27.04-0.72 42.48-0.96 8.48-14.72 17.04-29.28 25.52-43.28-6.48-12.24-12.4-24-17.68-34.4-13.52 1.12-26.32 2.4-38.08 3.84-9.12 12.16-17.92 25.76-26.48 39.52z" fill="#8D4520" p-id="6190"></path><path d="M226.64 124.72a295.04 295.04 0 0 1-11.44-37.36 174 174 0 0 1 41.84-33.12c16-2.4 32-4.56 49.44-6.32l14.24 25.04a422.08 422.08 0 0 0-37.52 46.16c-19.92 1.52-38.96 3.36-56.56 5.6z" fill="#F6E89A" p-id="6191"></path><path d="M226.64 140.72a16 16 0 0 1-15.04-10.48A305.6 305.6 0 0 1 200 90.8a16 16 0 0 1 4.08-14.56A189.84 189.84 0 0 1 249.44 40a16.56 16.56 0 0 1 5.2-1.68c16-2.48 33.12-4.64 50.16-6.4A16 16 0 0 1 320 40c2.88 4.88 8 13.44 14.4 25.12a16 16 0 0 1-2.4 19.04 402.72 402.72 0 0 0-36 44.32 16 16 0 0 1-11.76 6.56c-20.88 1.6-39.12 3.44-56 5.52a8.48 8.48 0 0 1-1.6 0.16z m6.24-48.4c1.28 4.64 2.8 9.68 4.56 14.96 11.52-1.28 24-2.48 37.12-3.52 9.36-12.72 18.08-24 26.48-33.12l-3.28-5.68c-12 1.36-24 2.96-35.52 4.64a148.72 148.72 0 0 0-29.36 22.72z" fill="#8D4520" p-id="6192"></path><path d="M309.92 406.96c-11.68-19.28-23.28-39.2-34.64-59.04C285.6 328 296.56 312 307.76 288h67.6c11.36 24 22.64 40.48 34 60.56L376 408c-22.4 0-44.48-0.56-66.08-1.04z" fill="#F6E89A" p-id="6193"></path><path d="M376 424c-22.32 0-44.56-0.48-66.24-1.04a16 16 0 0 1-13.28-8c-11.36-18.64-23.04-38.56-34.8-59.12a16 16 0 0 1 0-15.36c9.28-17.6 19.92-37.44 32.64-60.32A16 16 0 0 1 307.76 272h67.6a16 16 0 0 1 13.92 8l34 60.4a16 16 0 0 1 0 16L389.84 416A16 16 0 0 1 376 424z m-56.88-32.8c16 0 31.6 0.64 47.6 0.8l24-43.44L366 304h-48.8c-8.88 16-16.64 30.56-23.6 43.68 8.56 14.8 17.12 29.6 25.44 43.44z" fill="#8D4520" p-id="6194"></path><path d="M307.76 288a619.92 619.92 0 0 1-32-59.36c11.36-19.84 22.96-39.36 34.64-58.48 21.6-0.56 43.68-0.88 65.92-1.12 10.8 19.2 22.08 38.88 33.36 58.88C398 248 386.72 272 375.36 288z" fill="#F6E89A" p-id="6195"></path><path d="M373.44 304h-64a14.88 14.88 0 0 1-14.8-8c-12.72-22.8-24-42.4-32.96-59.92a16 16 0 0 1 0-15.36c11.76-20.4 23.36-40 34.8-58.96a16.48 16.48 0 0 1 13.2-8c20.56-0.64 42.8-1.76 66.32-1.76a16.48 16.48 0 0 1 13.92 8.72l33.36 59.36a16 16 0 0 1 0 16C412 256 400 275.92 388.32 296a15.04 15.04 0 0 1-14.88 8z m-32-32h24.56c8-16 16.64-29.28 24.96-44l-24-42.88q-24.88 0-47.44 0.88c-8.48 13.92-17.04 28.16-25.6 42.96 6.96 13.12 14.72 27.04 23.52 43.04z" fill="#8D4520" p-id="6196"></path><path d="M321.28 72c-6.64-11.2-11.44-19.6-14.24-24a60.32 60.32 0 0 1 43.12-4.56c15.28 0 30.64 0 46-0.48 4.08-5.6 10.48-6 18.48-1.52a114.08 114.08 0 0 0-33.68 27.44c-20.4 0.56-40.4 1.76-59.68 3.12z" fill="#F6E89A" p-id="6197"></path><path d="M321.2 88a16 16 0 0 1-13.84-8C300.8 68.8 296 60.48 293.2 56a16 16 0 0 1-1.44-12.88 16 16 0 0 1 8.56-9.76A77.12 77.12 0 0 1 352 27.04h37.68a30.24 30.24 0 0 1 32.64 0.48 16 16 0 0 1 8 14.64A16 16 0 0 1 421.36 56a95.28 95.28 0 0 0-28.56 24 16 16 0 0 1-11.2 5.2c-20.48 0.88-40.4 2.08-58.96 3.68z" fill="#8D4520" p-id="6198"></path><path d="M408 464.96c-11.28-17.6-22.8-36.64-34.16-56 10.8-19.2 20.64-36.96 32-56.96h72c11.2 20 19.52 37.6 30.32 56.8-11.52 19.52-23.04 38.56-34.32 56-22.32 0.4-44.32 0.4-65.84 0.16z" fill="#F6E89A" p-id="6199"></path><path d="M477.44 336c5.76 0 8 0.8 11.12 5.92l33.12 59.12a16 16 0 0 1 0 16c-13.36 22.72-24 40.72-34.64 56.72a16 16 0 0 1-13.28 7.28h-66.16a16 16 0 0 1-13.28-7.36C384 457.76 373.04 440 360 416.96a16 16 0 0 1 0-16l33.36-59.2a12.16 12.16 0 0 1 12.08-5.76z m-60.96 113.04h48C472 437.2 480 424 489.28 408.56L469.44 368h-56L392 408.72c9.12 15.28 17.12 28.56 24.48 40.32z" fill="#8D4520" p-id="6200"></path><path d="M406.88 228.88c-11.28-20.08-22.56-40-33.36-59.12 11.44-19.44 20.64-40 32-57.84h72c11.36 17.44 18.8 38.56 30.24 57.92-10.72 19.2-21.92 39.04-33.12 59.04z" fill="#F6E89A" p-id="6201"></path><path d="M405.44 248c-5.84 0-9.68-6.24-12.56-11.28l-31.12-55.12-1.76-4a16 16 0 0 1 0-16c13.44-22.72 24.4-40.64 34.56-56a16 16 0 0 1 13.12-7.28h66.16a16 16 0 0 1 13.12 7.28c10.16 15.52 21.12 33.44 34.72 56.48a16 16 0 0 1 0 16l-36.96 66a8 8 0 0 1-7.2 4.24h-72m56-32l27.76-45.84C480 154.56 468.8 139.52 461.44 128h-48c-7.44 11.68-12.24 26.64-21.44 42 8 14 13.28 31.44 21.44 46h48" fill="#8D4520" p-id="6202"></path><path d="M408 114c-10.48-17.2-20.48-32.56-29.04-44.72a116.24 116.24 0 0 1 33.92-27.92h56a117.28 117.28 0 0 1 33.92 27.92c-8.56 12.16-18.4 27.6-28.88 44.72-22.4-0.32-44.4-0.32-65.92 0z" fill="#F6E89A" p-id="6203"></path><path d="M405.44 128a10.8 10.8 0 0 1-11.36-5.6c-10.96-17.84-20.56-32.56-28.48-43.84a16 16 0 0 1 1.2-19.92 129.04 129.04 0 0 1 39.04-32 16 16 0 0 1 6.4-1.52h56a16 16 0 0 1 6.56 1.52 133.92 133.92 0 0 1 38.96 32 16 16 0 0 1 1.2 19.92c-8 11.12-17.36 25.84-28.4 43.84-2.88 4.8-12 5.6-17.52 5.6z m33.12-30.16h25.92c6.24-10.08 12-19.12 17.2-26.88A87.04 87.04 0 0 0 464 57.28h-48a91.36 91.36 0 0 0-16.8 13.68c5.28 8 11.12 16.88 17.36 26.88z" fill="#8D4520" p-id="6204"></path><path d="M507.2 408c-10.72-19.2-21.92-39.44-33.12-59.36C485.44 328.4 496.72 312 508 288h67.12c11.04 24 21.92 40 32 59.76-11.28 19.76-22.72 39.6-34.32 58.88-21.36 0.48-43.36 1.36-65.6 1.36z" fill="#F6E89A" p-id="6205"></path><path d="M507.2 424a16 16 0 0 1-13.92-8l-33.2-59.12a16 16 0 0 1 0-16c11.28-20 22.64-40 33.84-60.4A16 16 0 0 1 508 272h67.12a16.48 16.48 0 0 1 14 8.48c12.8 23.2 23.04 42.32 32 60a16 16 0 0 1 0 15.36c-11.84 20.88-23.44 40.72-34.48 59.12a16 16 0 0 1-13.36 8c-21.52 0.64-43.6 1.28-65.92 1.28z m-14.8-75.44l24 43.12c16 0 32-0.4 47.12-0.8 8-13.68 16.64-28.4 25.28-43.44-6.72-13.2-14.32-27.44-23.12-43.44h-48c-8.64 16-16.96 29.76-25.28 44.48z" fill="#8D4520" p-id="6206"></path><path d="M508 288c-11.28-16-22.64-40-33.92-60l33.04-58.88c22.16 0 44.16 0.8 65.6 1.36 11.6 19.2 23.12 38.56 34.32 58.32a608.56 608.56 0 0 1-32 59.2z" fill="#F6E89A" p-id="6207"></path><path d="M573.44 304H508a16 16 0 0 1-14-8c-11.2-20.08-22.56-40-33.84-60.08a16 16 0 0 1 0-15.6l33.12-58.96a16 16 0 0 1 14.16-8c22.24 0 44.32 0.64 65.76 1.28a16 16 0 0 1 13.28 8c11.12 18.32 22.72 38.16 34.56 58.96a16 16 0 0 1 0 15.28c-9.12 17.6-20.24 36.48-33.04 59.6a14.8 14.8 0 0 1-14.56 7.52z m-56-32h48c8.88-16 16-29.76 23.2-42.8-8.56-14.96-17.04-29.36-25.28-43.04-15.52-0.4-31.2-0.64-47.04-0.8l-24 42.56c8.4 14.72 16.72 28.08 25.04 44.08z" fill="#8D4520" p-id="6208"></path><path d="M501.68 68.64a114.88 114.88 0 0 0-33.84-27.52c8-4.48 14.32-4.08 18.56 1.52l45.92 0.56a60.32 60.32 0 0 1 43.12 4.8c-2.8 4.8-8 13.2-14.08 24.72q-29.04-2.8-59.68-4.08z" fill="#F6E89A" p-id="6209"></path><path d="M561.36 88.48H560c-18.64-1.6-38.48-2.88-58.88-3.76a16 16 0 0 1-11.2-5.2 94.64 94.64 0 0 0-28.64-24 16 16 0 0 1-1.2-28.56 30.08 30.08 0 0 1 32.64-0.4l37.68 0.4a76.96 76.96 0 0 1 51.92 6.16 16 16 0 0 1 8.48 9.68A16 16 0 0 1 589.28 56l-14 24.64a16 16 0 0 1-13.92 7.84z" fill="#8D4520" p-id="6210"></path><path d="M597.2 459.76c-8-16-16.8-33.44-26.72-52.16 11.6-19.28 23.12-38.96 34.32-58.72 21.44 0 42.32-0.64 61.6-1.28 8.64 18.8 16 36.8 22.08 53.44-10.88 18.4-22.56 36.32-34.64 53.28-17.68 2.16-36.72 4-56.64 5.44z" fill="#F6E89A" p-id="6211"></path><path d="M597.2 475.76a16 16 0 0 1-14.32-8.96c-7.36-14.96-16-32-26.56-51.68a16 16 0 0 1 0.48-16c11.2-18.64 22.64-38.24 34.08-58.4a16 16 0 0 1 13.76-8c24 0 43.92-0.72 61.28-1.28a16 16 0 0 1 15.04 9.28c9.04 19.76 16.64 38.16 22.56 54.8a15.52 15.52 0 0 1-1.28 13.52 759.944 759.944 0 0 1-35.44 54.4 16 16 0 0 1-10.96 6.56c-17.52 2.16-36.8 4.08-57.44 5.6z m-8-67.68q9.84 18.8 17.92 34.96c13.36-1.12 26.16-2.4 38.08-3.76 8.8-12.64 17.52-26 25.92-40-4.16-11.04-9.04-22.96-14.56-35.44-12.64 0-26.48 0.64-42.08 0.8-8.8 14.96-17.28 29.44-25.6 43.36z" fill="#8D4520" p-id="6212"></path><path d="M604.72 229.68c-11.28-19.76-22.72-39.36-34.32-58.64a1956 1956 0 0 0 26.48-51.76c19.84 1.52 38.8 3.36 56 5.6 12.16 16.8 24 34.64 34.8 52.96-5.92 16.48-13.28 34.48-21.84 53.2-18.88-0.64-39.68-1.04-61.12-1.36z" fill="#F6E89A" p-id="6213"></path><path d="M666.24 248h-0.56c-17.2 0-36.64-1.44-61.2-1.84a16 16 0 0 1-13.68-8c-11.44-20.08-22.88-40-34.16-58.4a16 16 0 0 1 0-16c10.16-19.2 19.04-36.48 26.24-51.28a16 16 0 0 1 16-8.96c20.88 1.6 40 3.52 57.2 5.68a16 16 0 0 1 10.96 6.48c12.16 16.8 24 34.96 35.6 54.16a16 16 0 0 1 1.28 13.6c-6.08 17.04-13.6 35.76-22.32 54.88A16.48 16.48 0 0 1 666.24 248z m-52.16-34.08c16 0 29.52 0.56 41.92 0.88 5.44-12.16 10.24-24 14.4-35.12-8.48-13.92-17.2-27.2-26.08-40-11.68-1.44-24.4-2.72-37.92-3.84q-8 16-17.68 34.48c8.4 14.24 16.88 28.72 25.36 43.52z" fill="#8D4520" p-id="6214"></path><path d="M653.28 140.88h-2c-16.88-2.16-35.6-4.08-56-5.6a16 16 0 0 1-11.28-6.72 406.8 406.8 0 0 0-36-44.56 16 16 0 0 1-2.4-19.04C552 53.2 557.12 44.64 560 40a16 16 0 0 1 15.44-8c16.96 1.76 33.84 3.92 50.16 6.4a16 16 0 0 1 5.28 1.68 187.28 187.28 0 0 1 45.6 36.32 16 16 0 0 1 4 14.64 316.24 316.24 0 0 1-12.32 40 16 16 0 0 1-14.88 9.84z m-48-36.96c12.96 1.04 25.36 2.24 36.96 3.6q2.72-8 4.8-15.36a148.16 148.16 0 0 0-29.2-22.64c-11.6-1.76-24-3.28-35.68-4.64l-3.36 5.84c8.64 9.28 17.36 20.4 26.72 33.28z" fill="#8D4520" p-id="6215"></path><path d="M688.88 400c-5.92-16.64-13.44-34.72-22.08-53.6 10.64-19.44 20.64-38.96 29.36-58.08h44.88a326.88 326.88 0 0 1 12.8 51.12 355.12 355.12 0 0 1-21.36 53.68 390.8 390.8 0 0 1-43.6 6.88z" fill="#F6E89A" p-id="6216"></path><path d="M688.88 416a16 16 0 0 1-15.04-10.64 660.8 660.8 0 0 0-21.6-52.24 16 16 0 0 1 0.48-14.4c11.12-20.24 20.8-40 28.88-57.36A16.4 16.4 0 0 1 696 272c17.68 0 33.2 0 44.96 0.48a16 16 0 0 1 15.12 11.12 345.92 345.92 0 0 1 13.36 53.68 16 16 0 0 1-0.48 7.2 365.12 365.12 0 0 1-22.24 56A16 16 0 0 1 736 409.04a376.64 376.64 0 0 1-45.6 7.12z m-4.24-68.96c5.52 12.32 10.48 24 14.88 35.6 8-1.04 16-2.16 22-3.44a332.56 332.56 0 0 0 16-40.64 328.56 328.56 0 0 0-8-34.16h-23.2c-6.4 13.68-13.68 28-21.68 42.88z" fill="#8D4520" p-id="6217"></path><path d="M696 288.56c-8.88-19.2-18.88-38.72-29.6-58.16 8.56-18.72 16-36.64 21.76-53.12a355.68 355.68 0 0 1 43.52 6.96 360 360 0 0 1 21.6 53.52 332.88 332.88 0 0 1-12.4 50.96z" fill="#F6E89A" p-id="6218"></path><path d="M741.04 304h-44.8a16 16 0 0 1-14.48-9.12c-8-18-18.16-37.12-29.12-56.96A16 16 0 0 1 652 224c8.48-18.64 16-36 21.2-51.84a16 16 0 0 1 16.8-10.56 378.64 378.64 0 0 1 45.52 7.28 16 16 0 0 1 10.64 8.48 373.28 373.28 0 0 1 22.64 56 15.36 15.36 0 0 1 0.48 7.12 334.4 334.4 0 0 1-13.04 53.04 16 16 0 0 1-15.2 10.48z m-34.72-31.36h22.96a316.24 316.24 0 0 0 8-33.68 314.88 314.88 0 0 0-16-40.72q-9.6-1.92-21.84-3.6a708.48 708.48 0 0 1-14.56 35.12c7.52 14.72 14.88 29.04 21.44 42.8z" fill="#8D4520" p-id="6219"></path><path d="M688 177.04a725.36 725.36 0 0 0-34.8-52.8 313.12 313.12 0 0 0 11.6-37.36 390.48 390.48 0 0 1 41.84 10.8 267.36 267.36 0 0 1 30.4 46.32 298.32 298.32 0 0 1-5.28 40 369.12 369.12 0 0 0-43.76-6.96z" fill="#8D4520" p-id="6220"></path><path d="M665.04 86.88a171.28 171.28 0 0 0-41.76-33.04c0.96-5.52 0-8-1.68-8.8l44.56 1.28a102.56 102.56 0 0 1 41.68 24.88c0 8 0 16.48-0.96 26.48a390.48 390.48 0 0 0-41.84-10.8z" fill="#F6E89A" p-id="6221"></path><path d="M706.88 113.68a16 16 0 0 1-5.04-0.8 368.56 368.56 0 0 0-40-10.32 15.28 15.28 0 0 1-8-4.64A151.36 151.36 0 0 0 616 68a16 16 0 0 1-8-16 16 16 0 0 1-1.52-9.68 16 16 0 0 1 16-13.6l44.56 1.28a16 16 0 0 1 3.92 0.64 118.96 118.96 0 0 1 48 28.56 16 16 0 0 1 5.04 11.92v3.68c0 6.96 0 14.8-0.96 24a16 16 0 0 1-7.12 12.08 16 16 0 0 1-9.04 2.8zM673.04 72l16 3.6a83.52 83.52 0 0 0-25.2-13.6h-1.04c3.2 3.36 6.72 6.64 10.24 10z" fill="#8D4520" p-id="6222"></path><path d="M736.88 435.52a302.96 302.96 0 0 0-5.84-40.96 367.28 367.28 0 0 0 21.84-53.68c8-1.76 12.24-3.92 10.88-6.4a266.48 266.48 0 0 1-6.56 36.72 153.28 153.28 0 0 1-1.84 49.36 36 36 0 0 1-18.48 14.96z" fill="#F6E89A" p-id="6223"></path><path d="M736.88 451.52a16 16 0 0 1-16-14.88 291.76 291.76 0 0 0-5.44-38.8 16 16 0 0 1 1.28-10.4A344.8 344.8 0 0 0 737.6 336a16 16 0 0 1 11.92-10.88h1.52a16 16 0 0 1 26.8 2 17.76 17.76 0 0 1 1.28 14.08 277.04 277.04 0 0 1-5.76 31.2 167.52 167.52 0 0 1-2.32 51.6 16.56 16.56 0 0 1-1.12 3.36 49.04 49.04 0 0 1-26.48 22.96 16 16 0 0 1-6.56 1.2z" fill="#8D4520" p-id="6224"></path><path d="M752.88 340.88a341.76 341.76 0 0 0-13.12-51.36 339.2 339.2 0 0 0 12.88-51.12c8 1.84 12.32 4 11.04 6.56a168.96 168.96 0 0 1-5.68 44.88 167.44 167.44 0 0 1 5.76 44.64c1.36 2.48-2.64 4.56-10.88 6.4z" fill="#8D4520" p-id="6225"></path><path d="M141.92 499.76a122.08 122.08 0 0 1-15.6-45.6 180.32 180.32 0 0 0-0.48-30.72 37.6 37.6 0 0 0 19.12 14.96A276.32 276.32 0 0 0 176 484.4c-0.8 10.08-0.8 18.64-0.8 26.4a296.4 296.4 0 0 1-33.28-11.04z" fill="#F6E89A" p-id="6226"></path><path d="M175.28 526.8a16 16 0 0 1-4.32-0.56A305.68 305.68 0 0 1 136 514.56a16 16 0 0 1-8-6.72A137.76 137.76 0 0 1 110.48 456a12.88 12.88 0 0 1 0-3.52 169.52 169.52 0 0 0-0.48-28.16 16 16 0 0 1 30.24-8 26.8 26.8 0 0 0 11.36 7.44 16.48 16.48 0 0 1 7.52 7.04 257.76 257.76 0 0 0 29.36 43.36 16 16 0 0 1 3.52 11.6c-0.72 8.56-0.8 16-0.8 23.12v2.08a16 16 0 0 1-16 16z m-22.16-40c2 0.8 4.08 1.52 6.24 2.24-4.32-5.44-8.48-11.04-12.48-16.88a98.16 98.16 0 0 0 6.24 14.8z" fill="#8D4520" p-id="6227"></path><path d="M216 536a105.6 105.6 0 0 1-42-24.64c0-8 0-16 0.8-26.4a398.96 398.96 0 0 0 42.16 10.64A171.52 171.52 0 0 0 259.12 528c-1.04 5.44 0 8 1.6 8.72z" fill="#F6E89A" p-id="6228"></path><path d="M260.72 552.8h-0.4L216 552a16 16 0 0 1-3.92-0.64 120 120 0 0 1-48.48-28.32 16 16 0 0 1-5.12-11.92v-3.2c0-7.04 0-15.04 0.8-24a16 16 0 0 1 7.04-12.08 16 16 0 0 1 13.76-1.92 391.12 391.12 0 0 0 40.48 10.16 16 16 0 0 1 8 4.56 156.64 156.64 0 0 0 37.92 29.84 16 16 0 0 1 8.48 15.36 16 16 0 0 1-14.16 23.52zM218.72 520h0.88c-3.44-3.04-6.96-6.32-10.4-9.76-5.44-1.2-10.64-2.32-15.6-3.6A83.2 83.2 0 0 0 218.72 520z" fill="#8D4520" p-id="6229"></path><path d="M174.96 484.56A277.76 277.76 0 0 1 144 438.64a311.44 311.44 0 0 1 5.12-40 369.68 369.68 0 0 0 44.16 6.88c11.2 18.32 23.04 36.16 35.36 52.8a302.48 302.48 0 0 0-11.6 37.28 398.96 398.96 0 0 1-42.08-11.04z" fill="#8D4520" p-id="6230"></path><path d="M259.04 528a173.6 173.6 0 0 1-41.84-33.04 301.68 301.68 0 0 1 11.68-37.44c17.76 2.16 36.88 4 56.8 5.44a416 416 0 0 0 37.52 46.24c-6.64 11.6-11.68 20.16-14.56 25.04q-25.76-2.88-49.6-6.24z" fill="#F6E89A" p-id="6231"></path><path d="M308.64 550h-1.68c-16.88-1.68-33.76-3.76-50.24-6.24a14.72 14.72 0 0 1-5.2-1.68 189.2 189.2 0 0 1-45.84-36.08 16 16 0 0 1-4.08-14.72 320.8 320.8 0 0 1 12.32-39.52 16 16 0 0 1 16.96-10.24c16.88 2.08 35.68 3.92 56 5.44a16 16 0 0 1 11.84 6.64 395.68 395.68 0 0 0 36 44.4 16 16 0 0 1 2.4 19.12c-6.8 11.76-11.84 20.32-14.8 25.28a16 16 0 0 1-13.68 7.6zM264 512.4c11.76 1.68 24 3.2 35.84 4.56l3.36-5.84c-8-9.36-17.04-20.24-26.32-32.96-13.2-1.04-25.68-2.24-37.44-3.52-1.84 5.36-3.44 10.4-4.72 15.2A147.84 147.84 0 0 0 264 512.4z" fill="#8D4520" p-id="6232"></path><path d="M350.16 538.56a60.32 60.32 0 0 1-43.12-4.56c2.8-4.72 7.6-13.12 14.24-24.64 19.28 1.68 39.28 2.88 59.68 3.76a115.04 115.04 0 0 0 33.68 27.44c-8 4.48-14.32 4.16-18.48-1.52-15.36-0.08-30.72-0.24-46-0.48z" fill="#F6E89A" p-id="6233"></path><path d="M404.88 560a26.72 26.72 0 0 1-15.04-4.64h-37.68a77.6 77.6 0 0 1-51.84-6.08 16 16 0 0 1-7.12-22.64c2.8-4.72 8-13.04 14.16-24.48a16 16 0 0 1 15.2-8c19.44 1.6 39.28 2.88 59.04 3.68a16 16 0 0 1 11.2 5.2 95.28 95.28 0 0 0 28.56 24 16 16 0 0 1 9.28 13.92 16 16 0 0 1-8 14.64 36.72 36.72 0 0 1-17.76 4.4z" fill="#8D4520" p-id="6234"></path><path d="M414.16 540.32a116.48 116.48 0 0 1-33.76-27.84c8.64-12.16 18.64-27.6 29.2-44.72h65.6c10.48 17.04 20.32 32.4 28.8 44.24a118.4 118.4 0 0 1-34.08 28c-18.48 0.72-37.2 0.72-55.76 0.32z" fill="#F6E89A" p-id="6235"></path><path d="M441.36 556.64h-27.52a15.36 15.36 0 0 1-6.48-1.52 129.44 129.44 0 0 1-38.88-31.6 16 16 0 0 1-1.12-20c8-11.04 17.52-27.68 28.64-45.76A18.08 18.08 0 0 1 409.6 448a91.76 91.76 0 0 0 65.28 0 18.08 18.08 0 0 1 13.68 9.52c11.04 18.08 20.48 33.76 28.24 44.72a16.72 16.72 0 0 1-1.2 20.4 135.04 135.04 0 0 1-39.2 32 14.88 14.88 0 0 1-6.4 1.6c-9.36 0.16-18.96 0.4-28.64 0.4z m-23.12-32q24 0.48 48 0a90.4 90.4 0 0 0 17.52-13.84c-5.12-8-10.88-16.72-17.12-26.8h-48c-6.4 10.16-12.24 19.12-17.52 26.96a88 88 0 0 0 17.12 13.44z" fill="#8D4520" p-id="6236"></path><path d="M486.4 539.04c-4.16 5.6-10.56 6-18.56 1.52a113.6 113.6 0 0 0 33.84-27.52q30.64-1.28 59.68-3.84c6.48 11.52 11.28 19.92 14.08 24.72a60.32 60.32 0 0 1-43.12 4.56z" fill="#F6E89A" p-id="6237"></path><path d="M477.6 560a36.56 36.56 0 0 1-17.6-5.04 16 16 0 0 1 1.2-28.56 96 96 0 0 0 28.64-24 16 16 0 0 1 11.2-5.2c19.84-0.88 40-2.16 58.96-3.76a16 16 0 0 1 15.28 8c6.48 11.44 11.2 19.84 14 24.56a16 16 0 0 1-7.04 22.56 76.96 76.96 0 0 1-51.92 6.16l-37.6 0.4a26.16 26.16 0 0 1-15.12 4.88z" fill="#8D4520" p-id="6238"></path><path d="M576 533.6l-14.16-25.04a406.56 406.56 0 0 0 37.52-46.32c19.76-1.6 38.64-3.44 56-5.76a296 296 0 0 1 11.44 37.44 172.64 172.64 0 0 1-41.6 33.36q-23.44 3.6-49.2 6.32z" fill="#F6E89A" p-id="6239"></path><path d="M576 549.6a16 16 0 0 1-13.84-8c-2.88-4.96-8-13.52-14.24-25.2a16 16 0 0 1 2.4-18.96 385.76 385.76 0 0 0 36-44.56 16 16 0 0 1 11.84-6.64c20.24-1.52 38.88-3.44 55.28-5.6a16 16 0 0 1 17.12 10.32 322.96 322.96 0 0 1 12 39.44 16 16 0 0 1-4 14.56 188.24 188.24 0 0 1-45.6 36.4 16.64 16.64 0 0 1-5.2 1.76c-16 2.4-32.64 4.56-50.08 6.4z m5.52-38.72l3.2 5.68c12.16-1.44 24-2.96 35.36-4.64a150.16 150.16 0 0 0 29.2-22.88q-1.92-7.12-4.56-15.12c-11.44 1.36-24 2.56-36.72 3.68a461.336 461.336 0 0 1-26.48 33.28z" fill="#8D4520" p-id="6240"></path><path d="M621.6 536.64c2-0.56 2.64-3.28 1.68-8.8a171.28 171.28 0 0 0 41.76-33.04 390.48 390.48 0 0 0 41.84-10.8c0.8 10.08 0.8 18.56 0.96 26.48a102.56 102.56 0 0 1-41.68 24.88z" fill="#F6E89A" p-id="6241"></path><path d="M621.6 552a16 16 0 0 1-16-13.2 15.36 15.36 0 0 1 1.52-9.52 16 16 0 0 1 8-16 152 152 0 0 0 37.76-29.92 16 16 0 0 1 8-4.56 385.6 385.6 0 0 0 40-10.32 16 16 0 0 1 20.88 13.92c0.72 9.2 0.88 17.2 0.96 24v3.2a16 16 0 0 1-5.04 11.92 118.16 118.16 0 0 1-48 28.56 13.44 13.44 0 0 1-4 0c-14.72 0.48-29.6 0.96-44.56 0.96z m51.44-42.48c-3.52 3.6-7.04 6.88-10.56 10h1.04a83.52 83.52 0 0 0 25.2-13.6c-4.96 1.12-10.16 2.4-15.68 3.52z" fill="#8D4520" p-id="6242"></path><path d="M665.04 494.8a313.12 313.12 0 0 0-11.6-37.36c12.16-16.72 24-34.56 34.8-52.8a369.12 369.12 0 0 0 43.52-6.96 298.32 298.32 0 0 1 5.28 40 267.36 267.36 0 0 1-30.16 46.08 390.48 390.48 0 0 1-41.84 11.04z" fill="#8D4520" p-id="6243"></path><path d="M752.64 238.16a364.88 364.88 0 0 0-22-53.68A305.52 305.52 0 0 0 736 144a36.8 36.8 0 0 1 18.72 15.04 149.04 149.04 0 0 1 2.4 48.96 291.36 291.36 0 0 1 6.56 36.48c1.28-2.24-2.8-4.48-11.04-6.32z" fill="#F6E89A" p-id="6244"></path><path d="M763.68 260.8a17.52 17.52 0 0 1-2.88 0 16 16 0 0 1-10.16-6.4l-1.52-0.4a16 16 0 0 1-11.76-10.8 340.16 340.16 0 0 0-21.04-51.2 16 16 0 0 1-1.36-10.4 285.2 285.2 0 0 0 5.04-38.8 16 16 0 0 1 22.64-13.44A50.8 50.8 0 0 1 769.44 152a13.6 13.6 0 0 1 1.2 3.6 166.48 166.48 0 0 1 2.72 51.76 291.84 291.84 0 0 1 5.68 31.04 18.24 18.24 0 0 1-1.04 13.44 16 16 0 0 1-14.32 8.96z" fill="#8D4520" p-id="6245"></path><path d="M736 144a272.8 272.8 0 0 0-30.48-46.16c0.88-10.08 0.88-18.64 1.04-26.48a287.36 287.36 0 0 1 32.96 11.2A122.64 122.64 0 0 1 754.8 128a188.88 188.88 0 0 0 0 30.8A36.8 36.8 0 0 0 736 144z" fill="#F6E89A" p-id="6246"></path><path d="M755.12 174.96a16.48 16.48 0 0 1-8-1.92 16 16 0 0 1-6.96-7.2s-1.6-3.04-10.96-7.36a16 16 0 0 1-7.52-7.12 254.8 254.8 0 0 0-28.72-43.36 16.48 16.48 0 0 1-3.6-11.6c0.8-8.4 0.88-16 0.96-22.72v-2.64A16 16 0 0 1 711.12 56a312.96 312.96 0 0 1 34.8 11.84 16 16 0 0 1 8 6.88 138.72 138.72 0 0 1 17.04 51.68 18.08 18.08 0 0 1 0 3.6 164.16 164.16 0 0 0 0 25.84 14.72 14.72 0 0 1 0 3.28 16 16 0 0 1-15.84 15.84z m-32.8-82.08q6.24 8 12 16.56a105.84 105.84 0 0 0-5.92-14.32z" fill="#8D4520" p-id="6247"></path><path d="M388.8 461.92a24 24 0 0 1-16.96-7.04 236.24 236.24 0 0 1-26.24-299.2 237.28 237.28 0 0 1 287.2-79.28A24 24 0 1 1 613.28 120a188.56 188.56 0 0 0-228.32 63.2 190.08 190.08 0 0 0 20.88 237.76 24 24 0 0 1-17.04 40.96z" fill="#FFFFFF" p-id="6248"></path><path d="M503.12 502.24a233.76 233.76 0 1 1 233.76-233.68 233.92 233.92 0 0 1-233.76 233.68z m0-419.44a185.76 185.76 0 1 0 185.76 185.76 185.92 185.92 0 0 0-185.76-185.76z" fill="#8D4520" p-id="6249"></path><path d="M245.6 794.96c0-42.88 117.12-78.32 265.12-78.32S773.6 752 773.6 794.96v80c0 42.8-114.88 80-262.88 80s-265.12-29.2-265.12-72z" fill="#F6E89A" p-id="6250"></path><path d="M510.72 970.96c-129.68 0-281.12-23.12-281.12-88v-88c0-61.92 141.44-94.32 281.12-94.32s278.88 32 278.88 94.32v80c0 62.96-140.32 96-278.88 96z m0-238.32c-163.6 0-249.12 40.56-249.12 62.32v88c0 22.88 88.72 56 249.12 56s246.88-42.32 246.88-64v-80c0-21.76-84.8-62.32-246.88-62.32z" fill="#702C17" p-id="6251"></path><path d="M569.52 873.36c-16.64 1.04-34 1.6-51.92 1.6-148.08 0-272-37.2-272-80s117.12-78.32 265.12-78.32S773.6 752 773.6 794.96c0 22-28.64 42.56-76.64 57.28" fill="#F6E89A" p-id="6252"></path><path d="M517.6 890.96c-139.68 0-288-33.68-288-96s141.44-94.32 281.12-94.32 278.88 32 278.88 94.32c0 29.76-30.4 54.88-88 72.64a16 16 0 0 1-9.36-30.64c45.04-13.84 65.28-31.12 65.28-42 0-21.76-84.8-62.32-246.88-62.32-163.6 0-249.12 40.56-249.12 62.32s97.2 64 256 64c17.28 0 34.4-0.56 50.96-1.6a16 16 0 1 1 2 32c-17.12 1.04-34.96 1.6-52.88 1.6z" fill="#702C17" p-id="6253"></path><path d="M356.96 771.92c0 19.92 68.16 36 152 36s152-16 152-36V504c0 19.92-68.24 24-152 24s-152-4.08-152-24z" fill="#F6E89A" p-id="6254"></path><path d="M509.28 824c-28.08 0-168-2.48-168-52V504a16 16 0 0 1 32-3.68c6.64 4.64 34.72 11.68 136 11.68s129.36-6.96 136.72-11.68a16 16 0 0 1 32 3.68v268c-0.4 49.44-140.64 52-168.72 52z m-136-54.32c8.8 8 56 22.32 136 22.32s127.52-14.24 136-22.32V534.16c-25.76 7.04-68.96 9.76-136 9.76s-110.56-2.72-136-9.76z" fill="#702C17" p-id="6255"></path><path d="M389.6 794.96a16 16 0 0 1-16-16l-4.96-240a16 16 0 0 1 8-14.4 16 16 0 0 1 16.56 0.72c20.32 13.52 88 13.52 120 13.52 77.2 0 116.56-9.44 124.88-16a16 16 0 0 1 32 3.04c0 11.12 0 44.96-156.56 44.96-41.28 0-83.04-0.8-112.48-8l4.48 216a16 16 0 0 1-16 16.4z" fill="#FFFFFF" p-id="6256"></path><path d="M285.6 358.96c0 28.72 96 52 217.12 52s222.88-26.96 222.88-56v112C725.6 496 624 520 502.72 520S285.6 496 285.6 466.96z" fill="#F6E89A" p-id="6257"></path><path d="M741.6 354.96v112c0 54.56-156.24 69.04-238.88 69.04C416 536 269.6 521.36 269.6 466.96v-108c0-8.88-0.8-8 8-8s4-1.68 24 8c17.76 8 78.4 36.64 201.12 36.64s203.84-36.72 219.2-44.24l19.68 4.24m-440 110.8C307.92 480 381.68 504 502.72 504c123.2 0 199.52-24 206.88-37.76v-73.2c-48 24-138.96 33.92-206.88 33.92-18 0-141.6-1.12-201.12-30.08z" fill="#702C17" p-id="6258"></path><path d="M502.72 459.92c-24 0-233.12-1.92-233.12-68a16 16 0 0 1 32-0.56c6.4 13.28 78.4 36.56 201.12 36.56s200-26.72 206.88-40.72a16 16 0 0 1 32 0.72c0 52.8-142.88 72-238.88 72z" fill="#FFFFFF" p-id="6259"></path><path d="M525.6 754.96a16 16 0 0 1-16-16v-108l-11.76 14.08a16 16 0 0 1-24.56-20.56l40-48a16 16 0 0 1 17.76-4.72 16 16 0 0 1 10.4 15.04v152a16 16 0 0 1-15.84 16.16z" fill="#702C17" p-id="6260"></path><path d="M557.44 760h-72a16 16 0 1 1 0-32h72a16 16 0 0 1 0 32z" fill="#702C17" p-id="6261"></path><path d="M509.28 824c-28.08 0-168-2.48-168-52v-264a16 16 0 0 1 27.6-11.04c12.96 5.12 70 15.36 140.72 15.36 74.16 0 127.44-11.84 139.28-17.36A16 16 0 0 1 677.6 504v268c0 49.44-140.24 52-168.32 52z m-136-54.32c8.8 8 56 22.32 136 22.32s127.52-14.24 136-22.32v-240c-7.2 1.92-16 3.76-25.84 5.6A643.36 643.36 0 0 1 509.28 544a724.08 724.08 0 0 1-110.16-8c-10.32-1.6-18.96-3.12-26.16-4.8z" fill="#702C17" p-id="6262"></path><path d="M741.6 354.96v112c0 54.56-156.24 69.04-238.88 69.04C416 536 269.6 521.36 269.6 466.96v-108c0-8.88 2.96 2 11.84 2a168 168 0 0 0 19.76 1.2c6.4 13.28 78.8 32.8 201.52 32.8s198.56-29.28 209.36-40M301.44 464c6.32 13.28 80 40 201.28 40 123.2 0 199.52-24 206.88-37.76v-73.2c-48 24-138.96 33.92-206.88 33.92-18 0-141.68 1.92-201.28-27.04z" fill="#702C17" p-id="6263"></path><path d="M285.6 379.92c0 28.72 96 52 217.12 52S725.6 412.64 725.6 384v88c0 14.16-24.64 27.2-64 36.8V728c68.24 14.24 112 37.84 112 64v80c0 42.8-114.88 80-262.88 80s-265.12-29.2-265.12-72V792c0-26.16 43.68-49.52 111.36-64V511.12c-44-9.76-71.36-24-71.36-39.2v-92m0-22.24c-17.68 0-32 4.56-32 22.24V472c0 36.8 41.36 54.96 72 64v168c-91.28 24-112 60.16-112 88v88c0 96.48 227.44 104 297.12 104 146.8 0 294.72-34.64 294.72-112V792c0-28.08-20.24-64-112-88V536c27.76-9.12 64-29.84 64-64V384a32 32 0 0 0-62.4-9.76C680 383.44 617.84 400 502.72 400c-105.92 0-170.72-17.76-186.32-28.56-18.48-8.72-16.64-10-30.96-13.76z" fill="#702C17" p-id="6264"></path></svg>