<?xml version="1.0" standalone="no"?><!DOCTYPE svg PUBLIC "-//W3C//DTD SVG 1.1//EN" "http://www.w3.org/Graphics/SVG/1.1/DTD/svg11.dtd"><svg t="1606877403160" class="icon" viewBox="0 0 1024 1024" version="1.1" xmlns="http://www.w3.org/2000/svg" p-id="5502" xmlns:xlink="http://www.w3.org/1999/xlink" width="200" height="200"><defs><style type="text/css"></style></defs><path d="M156.4 391.296l56.56-56.56L336.4 458.16l-56.576 56.568z" fill="#F6E89A" p-id="5503"></path><path d="M280 538.64a24 24 0 0 1-16.96-6.96L139.44 408a24 24 0 0 1 0-33.92l56.56-56.64a24 24 0 0 1 33.92 0l123.44 123.68a24 24 0 0 1 0 33.92l-56.56 56.64a24 24 0 0 1-16.8 6.96zM190.32 391.28L280 480.72l22.64-22.64-89.68-89.44z" fill="#8D4520" p-id="5504"></path><path d="M242.8 359.36l25.68-25.68-56.56-56.64-113.12 113.2 56.56 56.56 31.44-31.44" fill="#F6E89A" p-id="5505"></path><path d="M155.36 470.8A24 24 0 0 1 138.4 464l-56.56-56.8a24 24 0 0 1 0-33.92l113.12-113.2a24.8 24.8 0 0 1 33.92 0l56.64 56.64a24 24 0 0 1 0 33.92L259.76 376l-33.92-33.6 8.72-8.72-22.64-22.64-79.2 79.2 22.64 22.64 14.48-14.48 33.92 33.6-31.44 32a24 24 0 0 1-16.96 6.8z" fill="#8D4520" p-id="5506"></path><path d="M179.28 427.44A16 16 0 0 1 168 400l58.4-58.4a16 16 0 0 1 22.64 22.64l-58.4 58.4a16 16 0 0 1-11.36 4.8z" fill="#8D4520" p-id="5507"></path><path d="M904.4 913.2c0 44.96-173.36 81.44-384 81.44s-378.64-36.48-378.64-81.44S312.48 832 523.04 832s381.36 36.16 381.36 81.2z" fill="#B8CBCD" p-id="5508"></path><path d="M472.4 227.76h96v118.88h-96z" fill="#F6E89A" p-id="5509"></path><path d="M568.4 370.64h-96a24 24 0 0 1-24-24V227.76a24 24 0 0 1 24-24h96a24 24 0 0 1 24 24v118.88a24 24 0 0 1-24 24z m-72-48h48v-70.88h-48z" fill="#8D4520" p-id="5510"></path><path d="M714.784 458.056l123.44-123.432 56.56 56.568L771.36 514.64z" fill="#F6E89A" p-id="5511"></path><path d="M771.36 538.64a24 24 0 0 1-16.96-6.96l-56.56-56.64a24 24 0 0 1 0-33.92l123.44-123.44a24 24 0 0 1 33.92 0l56.8 56.64a24 24 0 0 1 0 33.68L788.32 531.68a24 24 0 0 1-16.96 6.96z m-22.64-80.56l22.64 22.64 89.52-89.44-22.64-22.64z" fill="#8D4520" p-id="5512"></path><path d="M525.76 638.64m-316 0a316 316 0 1 0 632 0 316 316 0 1 0-632 0Z" fill="#F6E89A" p-id="5513"></path><path d="M525.76 978.64a340 340 0 1 1 340-340 340.32 340.32 0 0 1-340 340z m0-632a292 292 0 1 0 292 292 292.32 292.32 0 0 0-292-292z" fill="#8D4520" p-id="5514"></path><path d="M808.4 359.36l-25.68-25.68 56.56-56.64 113.12 113.2-56.56 56.56-31.44-31.44" fill="#F6E89A" p-id="5515"></path><path d="M525.76 938.64a339.12 339.12 0 0 1-337.52-340 24 24 0 0 1 48 0 289.52 289.52 0 1 0 578.96 0 24 24 0 0 1 48 0 339.04 339.04 0 0 1-337.44 340z" fill="#8D4520" opacity=".2" p-id="5516"></path><path d="M896 470.8a24 24 0 0 1-16.96-7.04L847.44 432l33.92-33.92 14.64 14.8 22.64-22.64-79.2-79.2-22.64 22.64 8.72 8.72-34.08 33.6-25.68-25.68a24 24 0 0 1 0-33.92l56.56-56.64a24 24 0 0 1 16.96-6.96 24 24 0 0 1 16.96 6.96l113.12 113.2a24 24 0 0 1 0 33.92L912.8 464a24 24 0 0 1-16.8 6.8z" fill="#8D4520" p-id="5517"></path><path d="M472.4 250.64h-48v-80h192v80h-48" fill="#FFFFFF" p-id="5518"></path><path d="M616.4 274.64h-48v-48h24v-32h-144v32h24v48h-48a24 24 0 0 1-24-24v-80a24 24 0 0 1 24-24h192a24 24 0 0 1 24 24v80a24 24 0 0 1-24 24z" fill="#8D4520" p-id="5519"></path><path d="M376.48 377.68a24 24 0 0 1-17.92-8C321.6 328 304.4 284.96 304.4 234.64a216 216 0 1 1 390.32 127.52A24 24 0 1 1 656 333.76a166.48 166.48 0 0 0 32-99.12 168 168 0 0 0-336 0c0 38.4 12.96 70.24 42.08 103.2a24 24 0 0 1-2.08 33.84 24 24 0 0 1-15.52 6z" fill="#8D4520" p-id="5520"></path><path d="M448.4 418.64m-24 0a24 24 0 1 0 48 0 24 24 0 1 0-48 0Z" fill="#8D4520" p-id="5521"></path><path d="M448.4 418.64m-24 0a24 24 0 1 0 48 0 24 24 0 1 0-48 0Z" fill="#8D4520" p-id="5522"></path><path d="M340.88 505.36a24 24 0 1 1-33.76-2.96 24 24 0 0 1 33.76 2.96zM296 656a24 24 0 1 1-27.84 19.44A24 24 0 0 1 296 656zM358.4 800.88a24 24 0 1 1-8.8 32.8 24 24 0 0 1 8.8-32.8zM499.28 871.44a24 24 0 1 1 14.32 30.72 24 24 0 0 1-14.32-30.72zM652.48 834.96a24 24 0 1 1 30.72 14.32 24 24 0 0 1-30.72-14.32zM746.4 708.48a24 24 0 1 1 32.8-8.8 24 24 0 0 1-32.8 8.8zM737.04 551.28a24 24 0 1 1 19.52-27.84 24 24 0 0 1-19.52 27.84zM628.88 436.8a24 24 0 1 1-2.96-33.84 24 24 0 0 1 2.96 33.84z" fill="#8D4520" p-id="5523"></path><path d="M577.2 630.08c21.04 25.6 19.52 40.88-6.08 61.92s-40.88 19.6-61.92-6-116.8-211.36-116.8-211.36 163.76 129.84 184.8 155.44z" fill="#FFFFFF" p-id="5524"></path><path d="M540.8 722.56c-19.68 0-33.84-14.08-43.92-26.4-21.52-26.16-108.8-194.96-118.72-214.16a16 16 0 0 1 24-19.84C419.28 475.52 568 593.76 589.52 619.92 598.88 631.2 609.28 646.48 608 664s-14.96 30.72-26.32 40c-15.68 12.96-28.16 18.56-40.88 18.56zM441.92 534.88c33.36 63.04 69.04 128 80 140.96 8 9.92 14.48 14.72 19.2 14.72A39.12 39.12 0 0 0 560.96 680c9.36-8 14.32-13.92 14.8-18.48S572.48 649.6 564.8 640c-10.64-12.72-67.52-60.24-122.88-105.12zM872 427.44a16 16 0 0 1-11.28-4.64l-58.4-58.4a16 16 0 1 1 22.64-22.64l58.4 58.4a16 16 0 0 1-11.36 27.28zM459.92 226.64H582.4v32H459.92z" fill="#8D4520" p-id="5525"></path></svg>