<?xml version="1.0" standalone="no"?><!DOCTYPE svg PUBLIC "-//W3C//DTD SVG 1.1//EN" "http://www.w3.org/Graphics/SVG/1.1/DTD/svg11.dtd"><svg t="1606877538157" class="icon" viewBox="0 0 1024 1024" version="1.1" xmlns="http://www.w3.org/2000/svg" p-id="4488" xmlns:xlink="http://www.w3.org/1999/xlink" width="200" height="200"><defs><style type="text/css"></style></defs><path d="M364.9 376.2m-144.8 0a144.8 144.8 0 1 0 289.6 0 144.8 144.8 0 1 0-289.6 0Z" fill="#FFD46C" p-id="4489"></path><path d="M229.6 409.5c0-80 64.8-144.8 144.8-144.8 59.8 0 111.2 36.3 133.2 88.1-11.2-68.8-70.8-121.4-142.7-121.4-80 0-144.8 64.8-144.8 144.8 0 20.1 4.1 39.3 11.5 56.7-1.2-7.7-2-15.4-2-23.4z" fill="#F49D18" p-id="4490"></path><path d="M233.2 351.8c7.2 1.5 14.3-3.2 15.7-10.4 11.4-55.5 60.8-95.8 117.6-95.8 26-0.1 51.3 8.4 72.1 24.1 5.9 4.4 14.3 3.2 18.7-2.6 4.4-5.9 3.2-14.2-2.6-18.7-25.4-19.2-56.3-29.5-88.1-29.4-69.4 0-129.8 49.3-143.7 117.1-1.6 7.2 3 14.2 10.3 15.7-0.1 0-0.1 0 0 0M498.5 246.9c3.5 0 6.9-1.4 9.4-3.9l37.7-37.7c5.1-5.3 5-13.7-0.3-18.9-5.2-5-13.4-5-18.5 0l-37.7 37.7c-5.2 5.2-5.2 13.6 0 18.9 2.5 2.5 5.9 3.9 9.4 3.9M366.5 192.2c7.4 0 13.3-6 13.3-13.3v-53.3c0-7.4-6-13.3-13.3-13.3s-13.3 6-13.3 13.3v53.3c-0.1 7.4 5.9 13.3 13.3 13.3M225 243c5.2 5.2 13.6 5.2 18.8 0.1l0.1-0.1c5.2-5.2 5.2-13.6 0-18.9l-37.7-37.7c-5.1-5.3-13.6-5.4-18.9-0.3s-5.4 13.6-0.3 18.9l0.3 0.3L225 243M126.4 379h53.3c7.4 0 13.3-6 13.3-13.3s-6-13.3-13.3-13.3h-53.3c-7.4 0-13.3 6-13.3 13.3s6 13.3 13.3 13.3M282.7 198.2c2.7 6.9 10.4 10.3 17.3 7.6s10.3-10.4 7.6-17.3c-0.1-0.2-0.1-0.4-0.2-0.5l-10.2-24.6c-3.1-6.7-11-9.6-17.7-6.5-6.3 2.9-9.4 10.2-6.9 16.8l10.1 24.5M432.8 205.4c6.8 2.8 14.6-0.4 17.4-7.2l10.2-24.6c2.8-6.8-0.4-14.6-7.2-17.4s-14.6 0.4-17.4 7.2L425.6 188c-2.8 6.8 0.4 14.6 7.2 17.4M164.3 296.3l24.6 10.2c6.8 2.8 14.6-0.4 17.4-7.2 2.8-6.8-0.4-14.6-7.2-17.4l-24.6-10.2c-6.9-2.5-14.6 1-17.1 7.9-2.5 6.5 0.5 13.8 6.9 16.7" fill="#231F1F" p-id="4491"></path><path d="M456.1 301.8z" fill="#1BAFFF" p-id="4492"></path><path d="M347.8 774h341.1l108.5-10.4 65.7-33.4 36.5-67.8v-73.1l-54.2-69.8s-25.6-23.6-45.1-25.9L790.1 424l-44.6-79-67.3-39.1-80.6-13.2-83.7 29.8s-81.4 43.8-62.6 106.4L391 398.2l-75.9 5.4-60.3 46.9-26.6 62.6v43s-2.3 38.5 34.5 38.4l-62.6 24.2-26.6 43.8 4.7 45.4 23.5 36.8 50.9 23.5 95.2 5.8z" fill="#B4D6F2" p-id="4493"></path><path d="M899.6 662.4v-73l-54.2-69.8s-25.6-23.6-45.1-25.9L790.1 424l-44.6-79-67.3-39.1-24.9-4.1h-81.6s202.8 38.7 201.9 231.5c0 0 164.8 21.9 67.6 208l21.8-11.1 36.6-67.8z" fill="#64A9D8" p-id="4494"></path><path d="M469.6 446.1c5-4.8 5.2-12.7 0.4-17.7-28.2-29.8-67.6-46.8-108.7-46.6-82.9 0-150.3 67.4-150.3 150.2 0 9.2 0.8 18.4 2.5 27.4 1.5 6.7 8.3 11 15 9.4 6.4-1.4 10.6-7.5 9.6-14-1.3-7.5-2.1-15.2-2.1-22.9 0-69 56.2-125.2 125.2-125.2 34.3-0.1 67.1 13.9 90.6 38.8 4.9 5.2 12.8 5.4 17.8 0.6M466 384.5c32.5-48.5 87.2-77.7 145.6-77.7 96.7 0 175.3 78.6 175.3 175.3 0 15.9-2.1 31.6-6.3 46.8-1.8 6.7 2.1 13.6 8.7 15.4 6.7 1.8 13.6-2.1 15.4-8.7 4.8-17.3 7.2-35.3 7.2-53.4 0-110.5-89.9-200.3-200.3-200.3-66.8 0-129.3 33.3-166.4 88.8-3.9 5.8-2.3 13.5 3.4 17.4 5.8 3.6 13.6 2.1 17.4-3.6M848.5 509.5c-5.6-4-13.5-2.6-17.4 3-4 5.6-2.7 13.5 3 17.4 33.2 23.5 53 61.6 53.1 102.4 0 69-56.2 125.2-125.2 125.2h-37.6c-21.6 0-62.6 13.1-62.6 62.6 0 7 5.6 12.5 12.5 12.5 7 0 12.5-5.6 12.5-12.5 0-35.4 31.4-37.5 37.6-37.6H762c82.8 0 150.2-67.4 150.2-150.2-0.1-48.8-23.9-94.7-63.7-122.8M298.7 757.4h-37.6c-41.4 0-75.1-33.7-75.1-75.1s33.7-75.1 75.1-75.1c7 0 12.5-5.6 12.5-12.5 0-7-5.6-12.5-12.5-12.5-55.2 0-100.1 44.9-100.1 100.1 0 55.2 44.9 100.2 100.2 100.2h37.5c6.3 0.1 37.6 2.2 37.6 37.6v25c0 7 5.6 12.5 12.5 12.5 7 0 12.5-5.6 12.5-12.5V820c0-49.5-40.9-62.6-62.6-62.6M624.1 837.6h-35l17.7-31.4c3.4-6 1.3-13.7-4.8-17-6-3.4-13.7-1.3-17 4.8l-17.3 30.7-17.2-30.7c-3.4-6-11.1-8.1-17-4.8-6 3.4-8.1 11.1-4.8 17l17.7 31.4h-35c-7 0-12.5 5.6-12.5 12.5 0 7 5.6 12.5 12.5 12.5h35L528.8 894c-3.4 6-1.3 13.7 4.7 17 1.9 1.1 4 1.6 6.2 1.6 4.4 0 8.6-2.3 10.9-6.4l17.3-30.7 17.3 30.7c3.4 6 11 8.1 17 4.8 6-3.4 8.1-11 4.8-17l-17.7-31.4h35c7 0 12.5-5.6 12.5-12.5-0.1-6.9-5.7-12.5-12.7-12.5M464 757.4h35c7 0 12.5-5.6 12.5-12.5 0-7-5.6-12.5-12.5-12.5h-35l17.7-31.4c3.4-6 1.3-13.7-4.8-17-6-3.4-13.7-1.3-17 4.8l-17.3 30.6-17.3-30.7c-3.4-6-11-8.1-17-4.8-6 3.4-8.1 11-4.8 17l17.7 31.4h-35c-7 0-12.5 5.6-12.5 12.5 0 7 5.6 12.5 12.5 12.5h35l-17.7 31.4c-3.4 6-1.3 13.7 4.7 17 1.9 1.1 4 1.6 6.2 1.6 4.4 0 8.6-2.3 10.9-6.4l17.3-30.6 17.3 30.7c3.4 6 11 8.1 17 4.8 6-3.4 8.1-11 4.8-17L464 757.4" fill="#231F1F" p-id="4495"></path><path d="M720.3 396.4c-5.8 3.8-7.5 11.6-3.7 17.4 13.2 20.3 20.3 44 20.2 68.2 0 7 5.6 12.5 12.5 12.5 7 0 12.5-5.6 12.5-12.5 0-29.1-8.4-57.6-24.3-81.9-3.7-5.8-11.4-7.5-17.2-3.7m-443 123.1c5.5 0 10.4-3.7 12-9 4.9-16.3 15.2-30.4 29.1-40.2 5.6-4.1 6.8-11.9 2.8-17.5-3.9-5.4-11.5-6.8-17.1-3-18.6 13-32.2 31.9-38.7 53.6-2 6.6 1.8 13.6 8.4 15.6 1.1 0.4 2.3 0.5 3.5 0.5" fill="#231F1F" p-id="4496"></path><path d="M604.8 660.1c-5.9-2.7-37.4-46.5-64.4-87.4-0.7-1-1.8-1.6-2.9-1.6-1.3-0.1-2.3 0.6-2.9 1.5l-42.4 61c-1.1 1.6-0.8 3.9 0.9 4.9 1.6 1.1 3.9 0.8 4.9-0.9l39.4-56.7c18.7 28.1 56.3 83.3 65.4 85.9 0.3 0.1 0.7 0.2 1 0.2 1.6 0 3-1 3.4-2.6 0.5-1.9-0.6-3.8-2.4-4.3zM692.9 494.6h-81.1c-3.4 0-6.2 2.8-6.2 6.2 0 3.4 2.8 6.2 6.2 6.2h34.4v74.9c0 3.4 2.8 6.2 6.2 6.2 3.4 0 6.2-2.8 6.2-6.2V507H693c3.4 0 6.2-2.8 6.2-6.2-0.1-3.5-2.9-6.2-6.3-6.2zM464.5 494.6h-81.1c-3.4 0-6.2 2.8-6.2 6.2 0 3.4 2.8 6.2 6.2 6.2h34.4v74.9c0 3.4 2.8 6.2 6.2 6.2s6.2-2.8 6.2-6.2V507h34.4c3.4 0 6.2-2.8 6.2-6.2-0.1-3.5-2.8-6.2-6.3-6.2z" fill="#231815" p-id="4497"></path><path d="M334.9 548c-21.3 0-38.6 17.3-38.6 38.6s17.3 38.6 38.6 38.6 38.6-17.4 38.6-38.6c-0.1-21.3-17.4-38.6-38.6-38.6z m0 68.6c-16.6 0-30-13.5-30-30s13.5-30 30-30 30 13.5 30 30-13.5 30-30 30z" fill="#F2A300" p-id="4498"></path><path d="M740.1 548c-21.3 0-38.6 17.3-38.6 38.6s17.4 38.6 38.6 38.6c21.3 0 38.6-17.4 38.6-38.6-0.1-21.3-17.4-38.6-38.6-38.6z m0 68.6c-16.6 0-30-13.5-30-30s13.5-30 30-30 30 13.5 30 30c0 16.6-13.5 30-30 30z" fill="#F2A300" p-id="4499"></path></svg>