<?xml version="1.0" standalone="no"?><!DOCTYPE svg PUBLIC "-//W3C//DTD SVG 1.1//EN" "http://www.w3.org/Graphics/SVG/1.1/DTD/svg11.dtd"><svg t="1606877510848" class="icon" viewBox="0 0 1024 1024" version="1.1" xmlns="http://www.w3.org/2000/svg" p-id="3370" xmlns:xlink="http://www.w3.org/1999/xlink" width="200" height="200"><defs><style type="text/css"></style></defs><path d="M364.9 376.2m-144.8 0a144.8 144.8 0 1 0 289.6 0 144.8 144.8 0 1 0-289.6 0Z" fill="#FFD46C" p-id="3371"></path><path d="M229.6 409.5c0-80 64.8-144.8 144.8-144.8 59.8 0 111.2 36.3 133.2 88.1-11.2-68.8-70.8-121.4-142.7-121.4-80 0-144.8 64.8-144.8 144.8 0 20.1 4.1 39.3 11.5 56.7-1.2-7.7-2-15.4-2-23.4z" fill="#F49D18" p-id="3372"></path><path d="M233.2 351.8c7.2 1.5 14.3-3.2 15.7-10.4 11.4-55.5 60.8-95.8 117.6-95.8 26-0.1 51.3 8.4 72.1 24.1 5.9 4.4 14.3 3.2 18.7-2.6 4.4-5.9 3.2-14.2-2.6-18.7-25.4-19.2-56.3-29.5-88.1-29.4-69.4 0-129.8 49.3-143.7 117.1-1.6 7.2 3 14.2 10.3 15.7-0.1 0-0.1 0 0 0M498.5 246.9c3.5 0 6.9-1.4 9.4-3.9l37.7-37.7c5.1-5.3 5-13.7-0.3-18.9-5.2-5-13.4-5-18.5 0l-37.7 37.7c-5.2 5.2-5.2 13.6 0 18.9 2.5 2.5 5.9 3.9 9.4 3.9M366.5 192.2c7.4 0 13.3-6 13.3-13.3v-53.3c0-7.4-6-13.3-13.3-13.3s-13.3 6-13.3 13.3v53.3c-0.1 7.4 5.9 13.3 13.3 13.3M225 243c5.2 5.2 13.6 5.2 18.8 0.1l0.1-0.1c5.2-5.2 5.2-13.6 0-18.9l-37.7-37.7c-5.1-5.3-13.6-5.4-18.9-0.3s-5.4 13.6-0.3 18.9l0.3 0.3L225 243M126.4 379h53.3c7.4 0 13.3-6 13.3-13.3s-6-13.3-13.3-13.3h-53.3c-7.4 0-13.3 6-13.3 13.3s6 13.3 13.3 13.3M282.7 198.2c2.7 6.9 10.4 10.3 17.3 7.6s10.3-10.4 7.6-17.3c-0.1-0.2-0.1-0.4-0.2-0.5l-10.2-24.6c-3.1-6.7-11-9.6-17.7-6.5-6.3 2.9-9.4 10.2-6.9 16.8l10.1 24.5M432.8 205.4c6.8 2.8 14.6-0.4 17.4-7.2l10.2-24.6c2.8-6.8-0.4-14.6-7.2-17.4s-14.6 0.4-17.4 7.2L425.6 188c-2.8 6.8 0.4 14.6 7.2 17.4M164.3 296.3l24.6 10.2c6.8 2.8 14.6-0.4 17.4-7.2 2.8-6.8-0.4-14.6-7.2-17.4l-24.6-10.2c-6.9-2.5-14.6 1-17.1 7.9-2.5 6.5 0.5 13.8 6.9 16.7" fill="#231F1F" p-id="3373"></path><path d="M312.5 815.9H675l115.3-11 69.9-35.5 38.8-72.1v-77.6l-57.6-74.2s-27.2-25-47.9-27.5l-10.8-74-47.7-83.9-71.5-41.5-85.5-14.2-89 31.5s-86.4 46.6-66.5 113.1l-64.1-32.4-80.6 5.8-64 49.9-28.2 66.5v45.7s-2.5 40.9 36.6 40.8L155.7 651l-28.4 46.6 5 48.2 24.9 39 54 24.9 101.3 6.2z" fill="#B4D6F2" p-id="3374"></path><path d="M898.8 697.3v-77.6l-57.6-74.2s-27.2-25-47.9-27.5l-10.8-74-47.5-83.9-71.5-41.5-26.5-4.4h-86.6s215.4 41.2 214.6 246c0 0 175.1 23.3 71.9 221l23.2-11.8 38.7-72.1z" fill="#64A9D8" p-id="3375"></path><path d="M183 604.1c7.3 0 13.3-6 13.3-13.3 0-0.8-0.1-1.6-0.3-2.4-1.4-8-2.2-16.1-2.2-24.3 0-73.3 59.7-133 133-133 36.4-0.1 71.3 14.8 96.3 41.3 5.3 5.1 13.7 5 18.8-0.4 4.8-5 5-12.8 0.4-18-30-31.7-71.8-49.6-115.6-49.5-88 0-159.6 71.6-159.6 159.6 0 9.8 0.9 19.5 2.7 29.1 1.2 6.3 6.7 10.9 13.2 10.9m255.2-196.9c34.6-51.6 92.6-82.6 154.7-82.5 102.6 0 186.2 83.5 186.2 186.2 0 16.8-2.2 33.6-6.7 49.6-2 7.1 2.2 14.4 9.3 16.4 7.1 2 14.4-2.2 16.4-9.3 5.1-18.4 7.7-37.5 7.7-56.8C805.8 393.5 710.4 298 593 298c-71 0-137.3 35.4-176.8 94.4-4.1 6.1-2.5 14.3 3.7 18.4 5.9 4.2 14.2 2.6 18.3-3.6" fill="#231F1F" p-id="3376"></path><path d="M844.5 540.1c-6.1-4-14.4-2.2-18.4 3.9-3.7 5.8-2.4 13.5 3 17.8 35.3 24.9 56.3 65.5 56.4 108.7 0 73.3-59.7 133-133 133h-532c-44 0-79.8-35.8-79.8-79.8s35.8-79.8 79.8-79.8c7.3 0 13.3-6 13.3-13.3s-6-13.3-13.3-13.3C161.8 617.3 114 665 114 723.7s47.8 106.4 106.4 106.4h532c88 0 159.6-71.5 159.6-159.6 0.1-51.8-25.2-100.5-67.5-130.4M708.2 420c-6.1 4-7.9 12.3-3.9 18.4 14.1 21.6 21.6 46.8 21.5 72.5 0 7.3 6 13.3 13.4 13.3 7.3 0 13.3-6 13.3-13.3 0-30.9-8.9-61.1-25.8-87.1-4-6.2-12.3-7.8-18.5-3.8M266 476.8c-19.7 13.8-34.2 33.9-41.2 56.8-2.3 6.9 1.5 14.5 8.5 16.8 6.9 2.3 14.5-1.5 16.8-8.5 0.1-0.3 0.2-0.4 0.2-0.7 5.2-17.3 16.1-32.3 30.9-42.7 6.1-4.2 7.5-12.5 3.3-18.5s-12.4-7.4-18.5-3.2" fill="#231F1F" p-id="3377"></path><path d="M616.2 615.2a49.3 25.6 0 1 0 98.6 0 49.3 25.6 0 1 0-98.6 0Z" fill="#9372B3" opacity=".5" p-id="3378"></path><path d="M325.8 615.2a49.3 25.6 0 1 0 98.6 0 49.3 25.6 0 1 0-98.6 0Z" fill="#9372B3" opacity=".5" p-id="3379"></path><path d="M585.9 580c-1.3 0-2.6-0.4-3.7-1.4-2.1-2-2.2-5.3-0.3-7.5 0.3-0.3 26.6-27.9 58.6-3.3l10.8-9c2.2-1.9 5.6-1.6 7.5 0.7 1.9 2.2 1.6 5.6-0.7 7.5L644 578.7c-2 1.7-4.9 1.6-6.9-0.1-25.8-22.8-46.5-1.2-47.4-0.4-1 1.3-2.4 1.8-3.8 1.8zM454.6 580c-1.4 0-2.9-0.5-3.8-1.7-0.1-0.2-5.7-5.9-14.3-8.6-11.1-3.6-22.3-0.5-33.1 9-2 1.7-4.9 1.8-6.9 0.1l-14-11.8c-2.2-1.9-2.6-5.3-0.7-7.5 1.9-2.2 5.3-2.6 7.5-0.7l10.8 9c31.9-24.6 58.4 2.9 58.6 3.3 2 2.1 1.9 5.5-0.3 7.5-1.2 0.9-2.4 1.4-3.8 1.4zM468.2 674.5c-2.8-2-3.2-5.8-1.2-8.6 2.2-2.6 6.1-3.2 8.6-1 7.2 5.4 14.4 8.2 21.7 8 7-0.2 14.1-3 20.7-8.2 1.2-1.4 3-2.2 4.8-2.2h0.2c1.6 0 3.4 0.8 4.6 2.2 6.9 5.3 13.8 8 20.7 8.2 7.2 0.2 14.7-2.6 21.7-8 2.9-2.2 6.6-1.6 8.6 1 2 2.9 1.6 6.6-1 8.6-9.4 7.2-19.5 10.9-29.5 10.6-8.6-0.2-17.3-3.2-25.3-8.8-8 5.6-16.5 8.6-25.1 8.8-10.3 0.3-20.3-3.4-29.5-10.6z" fill="#231F1F" p-id="3380"></path></svg>