<?xml version="1.0" standalone="no"?><!DOCTYPE svg PUBLIC "-//W3C//DTD SVG 1.1//EN" "http://www.w3.org/Graphics/SVG/1.1/DTD/svg11.dtd"><svg t="1606877524394" class="icon" viewBox="0 0 1024 1024" version="1.1" xmlns="http://www.w3.org/2000/svg" p-id="4011" xmlns:xlink="http://www.w3.org/1999/xlink" width="200" height="200"><defs><style type="text/css"></style></defs><path d="M364.9 376.2m-144.8 0a144.8 144.8 0 1 0 289.6 0 144.8 144.8 0 1 0-289.6 0Z" fill="#FFD46C" p-id="4012"></path><path d="M229.6 409.5c0-80 64.8-144.8 144.8-144.8 59.8 0 111.2 36.3 133.2 88.1-11.2-68.8-70.8-121.4-142.7-121.4-80 0-144.8 64.8-144.8 144.8 0 20.1 4.1 39.3 11.5 56.7-1.2-7.7-2-15.4-2-23.4z" fill="#F49D18" p-id="4013"></path><path d="M233.2 351.8c7.2 1.5 14.3-3.2 15.7-10.4 11.4-55.5 60.8-95.8 117.6-95.8 26-0.1 51.3 8.4 72.1 24.1 5.9 4.4 14.3 3.2 18.7-2.6 4.4-5.9 3.2-14.2-2.6-18.7-25.4-19.2-56.3-29.5-88.1-29.4-69.4 0-129.8 49.3-143.7 117.1-1.6 7.2 3 14.2 10.3 15.7-0.1 0-0.1 0 0 0M498.5 246.9c3.5 0 6.9-1.4 9.4-3.9l37.7-37.7c5.1-5.3 5-13.7-0.3-18.9-5.2-5-13.4-5-18.5 0l-37.7 37.7c-5.2 5.2-5.2 13.6 0 18.9 2.5 2.5 5.9 3.9 9.4 3.9M366.5 192.2c7.4 0 13.3-6 13.3-13.3v-53.3c0-7.4-6-13.3-13.3-13.3s-13.3 6-13.3 13.3v53.3c-0.1 7.4 5.9 13.3 13.3 13.3M225 243c5.2 5.2 13.6 5.2 18.8 0.1l0.1-0.1c5.2-5.2 5.2-13.6 0-18.9l-37.7-37.7c-5.1-5.3-13.6-5.4-18.9-0.3s-5.4 13.6-0.3 18.9l0.3 0.3L225 243M126.4 379h53.3c7.4 0 13.3-6 13.3-13.3s-6-13.3-13.3-13.3h-53.3c-7.4 0-13.3 6-13.3 13.3s6 13.3 13.3 13.3M282.7 198.2c2.7 6.9 10.4 10.3 17.3 7.6s10.3-10.4 7.6-17.3c-0.1-0.2-0.1-0.4-0.2-0.5l-10.2-24.6c-3.1-6.7-11-9.6-17.7-6.5-6.3 2.9-9.4 10.2-6.9 16.8l10.1 24.5M432.8 205.4c6.8 2.8 14.6-0.4 17.4-7.2l10.2-24.6c2.8-6.8-0.4-14.6-7.2-17.4s-14.6 0.4-17.4 7.2L425.6 188c-2.8 6.8 0.4 14.6 7.2 17.4M164.3 296.3l24.6 10.2c6.8 2.8 14.6-0.4 17.4-7.2 2.8-6.8-0.4-14.6-7.2-17.4l-24.6-10.2c-6.9-2.5-14.6 1-17.1 7.9-2.5 6.5 0.5 13.8 6.9 16.7" fill="#231F1F" p-id="4014"></path><path d="M343.1 773.3h341.8l108.7-10.4 65.9-33.4 36.5-68v-73.2l-54.4-70s-25.6-23.6-45.2-26l-10.2-69.7-44.7-79.2-67.4-39.2-80.8-13.4-83.9 29.8s-81.5 43.9-62.7 106.6l-60.3-30.6-76 5.5-60.3 47.1-26.6 62.8v43.1s-2.4 38.6 34.5 38.5l-62.7 24.2-26.6 43.9 4.7 45.5 23.5 36.9 50.9 23.5 95.3 5.7z" fill="#B4D6F2" p-id="4015"></path><path d="M896 661.5v-73.2l-54.4-70s-25.6-23.6-45.2-26l-10.2-69.7-44.7-79.2-67.4-39.2-25-4.1h-81.7s203.2 38.8 202.3 232c0 0 165.1 21.9 67.8 208.4l21.8-11.1 36.7-67.9z" fill="#64A9D8" p-id="4016"></path><path d="M468.7 427.1c-28.3-29.9-67.7-46.8-109-46.6-83 0-150.5 67.6-150.5 150.5 0 9.2 0.8 18.5 2.5 27.5 1.5 6.7 8.3 11 15 9.4 6.4-1.4 10.5-7.6 9.7-14-1.3-7.6-2.1-15.2-2.1-22.9 0-69.2 56.3-125.5 125.5-125.5 34.4-0.1 67.2 13.9 90.8 38.9 5 4.8 12.9 4.5 17.7-0.4 4.4-4.8 4.6-12.1 0.4-16.9M786.2 480.7c0 15.9-2.1 31.7-6.3 46.8-1.8 6.6 2.1 13.6 8.7 15.5 6.6 1.8 13.6-2.1 15.5-8.7 4.8-17.3 7.2-35.4 7.2-53.5 0-110.7-90.1-200.7-200.7-200.7-67 0-129.5 33.4-166.7 89-3.9 5.7-2.6 13.5 3.1 17.5 5.7 3.9 13.5 2.6 17.5-3.1 0.1-0.1 0.2-0.3 0.3-0.3 32.6-48.7 87.3-77.9 146-77.9 96.7-0.2 175.4 78.6 175.4 175.4M847.9 508.2c-5.6-4-13.5-2.7-17.5 3-4 5.6-2.7 13.5 3 17.5 33.3 23.5 53.1 61.8 53.1 102.5 0 69.2-56.3 125.5-125.5 125.5h-87.7c-21.7 0-62.7 13.1-62.7 62.7 0 6.9 5.6 12.5 12.5 12.5s12.5-5.6 12.5-12.5c0-35.4 31.4-37.6 37.6-37.6H761c83 0 150.5-67.6 150.5-150.5 0.2-48.9-23.7-94.8-63.6-123.1M347.2 756.7h-87.8c-41.5 0-75.3-33.8-75.3-75.3s33.8-75.3 75.3-75.3c6.9 0 12.5-5.6 12.5-12.5s-5.6-12.5-12.5-12.5c-55.3 0-100.3 45-100.3 100.3s45 100.3 100.3 100.3h87.7c6.3 0.1 37.7 2.2 37.7 37.6v25.1c0 6.9 5.6 12.5 12.5 12.5s12.5-5.6 12.5-12.5v-25.1c0.2-49.5-40.9-62.6-62.6-62.6M472.6 861.2c-6.9 0-12.5 5.6-12.5 12.5v25.1c0 6.9 5.6 12.5 12.5 12.5s12.5-5.6 12.5-12.5v-25.1c0.1-6.8-5.5-12.5-12.5-12.5M623.1 861.2c-6.9 0-12.5 5.6-12.5 12.5v25.1c0 6.9 5.6 12.5 12.5 12.5s12.5-5.6 12.5-12.5v-25.1c0.1-6.8-5.5-12.5-12.5-12.5M472.6 785.9c-6.9 0-12.5 5.6-12.5 12.5v25.1c0 6.9 5.6 12.5 12.5 12.5s12.5-5.6 12.5-12.5v-25.1c0.1-6.8-5.5-12.5-12.5-12.5M472.6 710.7c-6.9 0-12.5 5.6-12.5 12.5v25.1c0 6.9 5.6 12.5 12.5 12.5s12.5-5.6 12.5-12.5v-25.1c0.1-6.9-5.5-12.5-12.5-12.5M547.9 831.9c-6.9 0-12.5 5.6-12.5 12.5v25.1c0 6.9 5.6 12.5 12.5 12.5s12.5-5.6 12.5-12.5v-25.1c0.1-6.9-5.6-12.5-12.5-12.5M547.9 756.7c-6.9 0-12.5 5.6-12.5 12.5v25.1c0 6.9 5.6 12.5 12.5 12.5s12.5-5.6 12.5-12.5v-25.1c0.1-6.9-5.6-12.5-12.5-12.5" fill="#231F1F" p-id="4017"></path><path d="M395.8 511.7c-1.6-0.8-2.5-2.7-1.6-4.5 0.8-1.8 2.7-2.5 4.5-1.8 0 0.2 17.7 8.3 31.4 5.6 13.5-2.9 22.9-14.6 23.1-14.8 1.1-1.4 3.3-1.6 4.7-0.5 1.6 1.3 1.8 3.4 0.8 4.9 0 0-11.2 13.9-27.2 17.1-16 3.2-35.5-6-35.7-6z m-33.6 33.6c-2.9-1.1-4.1-4.4-3.1-7.2 1.3-2.7 4.5-4.1 7.2-2.9l76.2 31.3c2.9 1.3 4.1 4.5 3.1 7.2-0.8 1.4-1.8 2.5-3.3 3.1l-77.5 32.9c-2.9 1.3-6.1-0.2-7.2-2.9-1.3-2.9 0-6.1 2.9-7.2l65.5-27.8-63.8-26.5z" fill="#231F1F" p-id="4018"></path><path d="M408.3 657.2c15 0 27.1-9.2 27.1-20.3s-12-20-27.1-20-27.1 9-27.1 20 12.1 20.3 27.1 20.3zM662.6 657.2c15 0 27.1-9.2 27.1-20.3s-12.1-20-27.1-20-27.1 9-27.1 20 12 20.3 27.1 20.3z" fill="#F2A300" p-id="4019"></path><path d="M675 511.7c1.6-0.8 2.5-2.7 1.6-4.5-0.8-1.8-2.7-2.5-4.5-1.8 0 0.2-17.7 8.3-31.4 5.6-13.5-2.9-23.1-14.6-23.1-14.8-1.1-1.4-3.3-1.6-4.9-0.5-1.4 1.3-1.6 3.4-0.5 4.9 0 0 11.2 13.9 27.2 17.1 15.9 3.2 35.4-6 35.6-6z m33.6 33.6c2.7-1.1 4.1-4.4 2.9-7.2-1.1-2.7-4.4-4.1-7.1-2.9l-76.2 31.3c-2.9 1.3-4.1 4.5-3.1 7.2 0.8 1.4 1.8 2.5 3.1 3.1l77.6 32.9c2.9 1.3 6.1-0.2 7.2-2.9 1.3-2.9 0-6.1-2.9-7.2l-65.5-27.8 64-26.5z" fill="#231F1F" p-id="4020"></path><path d="M524.1 587.2c-3.1 0.5-6-1.3-6.5-4.4-0.8-2.9 1.3-6 4.1-6.5 0.2 0 29.2-6.6 35.2 13 2.9 9.7-1.8 16.2-7.6 20.6 3.1 2.7 5.4 7.4 5.4 14.8 0 22.8-37.4 13.9-37.6 13.9-2.9-0.8-4.7-3.6-3.9-6.6 0.8-2.9 3.6-4.7 6.6-3.9 0 0 23.9 5.6 23.9-3.3 0-9.6-9-8.3-9-8.3-2.7 0.5-5.4-1.3-6.1-3.9-0.8-3.1 1.1-6 3.9-6.6 0-0.2 16.6-4.1 13.7-13.2-2.8-10-22.1-5.6-22.1-5.6z" fill="#231F1F" p-id="4021"></path></svg>