<?xml version="1.0" standalone="no"?><!DOCTYPE svg PUBLIC "-//W3C//DTD SVG 1.1//EN" "http://www.w3.org/Graphics/SVG/1.1/DTD/svg11.dtd"><svg t="1606877495874" class="icon" viewBox="0 0 1024 1024" version="1.1" xmlns="http://www.w3.org/2000/svg" p-id="2565" xmlns:xlink="http://www.w3.org/1999/xlink" width="200" height="200"><defs><style type="text/css"></style></defs><path d="M364.9 376.2m-144.8 0a144.8 144.8 0 1 0 289.6 0 144.8 144.8 0 1 0-289.6 0Z" fill="#FFD46C" p-id="2566"></path><path d="M229.6 409.5c0-80 64.8-144.8 144.8-144.8 59.8 0 111.2 36.3 133.2 88.1-11.2-68.8-70.8-121.4-142.7-121.4-80 0-144.8 64.8-144.8 144.8 0 20.1 4.1 39.3 11.5 56.7-1.2-7.7-2-15.4-2-23.4z" fill="#F49D18" p-id="2567"></path><path d="M233.2 351.8c7.2 1.5 14.3-3.2 15.7-10.4 11.4-55.5 60.8-95.8 117.6-95.8 26-0.1 51.3 8.4 72.1 24.1 5.9 4.4 14.3 3.2 18.7-2.6 4.4-5.9 3.2-14.2-2.6-18.7-25.4-19.2-56.3-29.5-88.1-29.4-69.4 0-129.8 49.3-143.7 117.1-1.6 7.2 3 14.2 10.3 15.7-0.1 0-0.1 0 0 0M498.5 246.9c3.5 0 6.9-1.4 9.4-3.9l37.7-37.7c5.1-5.3 5-13.7-0.3-18.9-5.2-5-13.4-5-18.5 0l-37.7 37.7c-5.2 5.2-5.2 13.6 0 18.9 2.5 2.5 5.9 3.9 9.4 3.9M366.5 192.2c7.4 0 13.3-6 13.3-13.3v-53.3c0-7.4-6-13.3-13.3-13.3s-13.3 6-13.3 13.3v53.3c-0.1 7.4 5.9 13.3 13.3 13.3M225 243c5.2 5.2 13.6 5.2 18.8 0.1l0.1-0.1c5.2-5.2 5.2-13.6 0-18.9l-37.7-37.7c-5.1-5.3-13.6-5.4-18.9-0.3s-5.4 13.6-0.3 18.9l0.3 0.3L225 243M126.4 379h53.3c7.4 0 13.3-6 13.3-13.3s-6-13.3-13.3-13.3h-53.3c-7.4 0-13.3 6-13.3 13.3s6 13.3 13.3 13.3M282.7 198.2c2.7 6.9 10.4 10.3 17.3 7.6s10.3-10.4 7.6-17.3c-0.1-0.2-0.1-0.4-0.2-0.5l-10.2-24.6c-3.1-6.7-11-9.6-17.7-6.5-6.3 2.9-9.4 10.2-6.9 16.8l10.1 24.5M432.8 205.4c6.8 2.8 14.6-0.4 17.4-7.2l10.2-24.6c2.8-6.8-0.4-14.6-7.2-17.4s-14.6 0.4-17.4 7.2L425.6 188c-2.8 6.8 0.4 14.6 7.2 17.4M164.3 296.3l24.6 10.2c6.8 2.8 14.6-0.4 17.4-7.2 2.8-6.8-0.4-14.6-7.2-17.4l-24.6-10.2c-6.9-2.5-14.6 1-17.1 7.9-2.5 6.5 0.5 13.8 6.9 16.7" fill="#231F1F" p-id="2568"></path><path d="M311.7 785.2h362.9L790 774.1l69.9-35.5 38.8-72.1v-77.7L841 514.5s-27.2-25-48-27.5l-10.8-74.1-47.4-84.1-71.6-41.6-85.7-14.1-89.1 31.6s-86.6 46.6-66.6 113.2l-64.1-32.5-80.7 5.8-64.1 49.9-28.3 66.6v45.8s-2.5 40.9 36.6 40.8L154.6 620l-28.3 46.6 5 48.3 25 39.1 54.1 25 101.3 6.2z" fill="#D1D6DB" p-id="2569"></path><path d="M898.8 666.5v-77.7l-57.7-74.3s-27.2-25-48-27.5l-10.8-74.1-47.4-84.1-71.6-41.6-26.5-4.4H550S765.7 324 764.8 529.1c0 0 175.3 23.3 72 221.2l23.2-11.8 38.8-72z" fill="#B8BFC7" p-id="2570"></path><path d="M182 573.2c7.4 0 13.3-5.9 13.3-13.3 0-0.8-0.1-1.6-0.2-2.4-1.5-8-2.2-16.2-2.2-24.3 0-73.4 59.7-133.2 133.2-133.2 36.5-0.1 71.3 14.8 96.4 41.3 5.3 5.1 13.7 5 18.8-0.3 4.8-5 5-12.8 0.4-18-30.1-31.8-71.9-49.7-115.7-49.5-88.1 0-159.8 71.7-159.8 159.8 0 9.8 0.9 19.6 2.6 29.2 1.3 6.1 6.8 10.7 13.2 10.7m255.5-197.1c34.6-51.7 92.7-82.7 154.9-82.7 102.8 0 186.4 83.6 186.4 186.4 0 16.9-2.2 33.6-6.7 49.7-2 7.1 2.2 14.4 9.3 16.4 7.1 2 14.4-2.2 16.4-9.3 5.1-18.4 7.7-37.5 7.7-56.8 0-117.5-95.6-213.1-213.1-213.1-71.1 0-137.5 35.4-177 94.4-4.1 6.1-2.5 14.4 3.6 18.5 6.1 4.2 14.4 2.6 18.5-3.5" fill="#231F1F" p-id="2571"></path><path d="M844.3 509c-6.2-4-14.4-2.2-18.4 3.9-3.8 5.8-2.4 13.6 3.1 17.8 35.3 25 56.4 65.6 56.4 108.8 0 73.4-59.7 133.2-133.2 133.2H219.5c-44.1 0-79.9-35.8-79.9-79.9s35.8-79.9 79.9-79.9c7.4 0 13.3-6 13.3-13.3 0-7.4-6-13.3-13.3-13.3-58.7 0-106.5 47.8-106.5 106.5s47.8 106.5 106.5 106.5h532.7c88.1 0 159.8-71.7 159.8-159.8 0-51.7-25.3-100.5-67.7-130.5M707.9 388.8c-6.2 4-7.9 12.3-3.9 18.4 14.1 21.6 21.6 46.8 21.5 72.6 0 7.4 6 13.3 13.3 13.3 7.3 0 13.3-6 13.3-13.3 0-30.9-8.9-61.2-25.8-87.2-3.9-6.1-12.2-7.8-18.4-3.8m-442.8 56.9c-19.8 13.8-34.3 33.9-41.2 56.9-2.3 7 1.5 14.5 8.5 16.8 7 2.3 14.5-1.5 16.8-8.5 0.1-0.2 0.1-0.5 0.2-0.7 5.2-17.3 16.1-32.4 30.9-42.7 6-4.2 7.5-12.5 3.3-18.5-4.1-6-12.4-7.5-18.5-3.3 0.1 0 0.1 0 0 0" fill="#231F1F" p-id="2572"></path><path d="M312.8 581.5c-0.4 29.4 56.4 42.5 69 20.1 12.6-22.3-68.4-62.9-69-20.1zM643.5 601.6c12.6 22.3 69.3 9.2 69-20.1-0.6-42.8-81.6-2.2-69 20.1z" fill="#9372B3" opacity=".5" p-id="2573"></path><path d="M617.5 564.3c-26.9 0-48.3-18.6-48.6-18.9-2.3-2.1-2.6-5.7-0.5-8s5.7-2.6 8-0.5c1.7 1.5 41 35.3 76 0.2 2.2-2.2 5.8-2.2 8 0s2.2 5.8 0 8c-14.3 14.5-29.3 19.2-42.9 19.2zM399.9 564.3c-13.6 0-28.6-4.8-42.9-19.1-2.2-2.2-2.2-5.8 0-8s5.8-2.2 8 0c14.7 14.7 31.9 19.2 51 13.3 14.7-4.5 24.9-13.5 25-13.6 2.3-2.1 5.9-1.9 8 0.5 2.1 2.3 1.9 5.9-0.5 8-0.3 0.3-21.7 18.9-48.6 18.9z" fill="#231F1F" p-id="2574"></path><path d="M494.9 578.7c-2.2-6.9 3.3-12 8-13.3 4.4-1.1 22.1-1.1 26.6 0 4.7 1.3 10.2 6.4 8 13.3-2.2 7.3-8.9 11.5-16.4 12.8v16.4l1.6 2.2c1.8 2.7 5.1 6 11.1 8.2 8.4 3.1 7.8 2.9 14.6 3.1 2.4 0 4.4 1.3 5.5 3.5 1.1 3.1-0.4 6.6-3.3 7.8 0 0-5.5 2.4-20.8-3.1-6.6-2.7-11.3-6.4-14.4-9.7-3.1 3.3-7.8 7.1-14.4 9.7-15.3 5.5-20.8 3.1-20.8 3.1-3.1-1.1-4.7-4.7-3.3-7.8 0.9-2.2 3.1-3.8 5.5-3.5 6.9 0 6.6-0.2 14.4-3.1 8.4-3.1 11.7-8.4 12.6-10.4v-16.8c-6.7-1.6-12.5-5.8-14.5-12.4z" fill="#231F1F" p-id="2575"></path></svg>