<?xml version="1.0" standalone="no"?><!DOCTYPE svg PUBLIC "-//W3C//DTD SVG 1.1//EN" "http://www.w3.org/Graphics/SVG/1.1/DTD/svg11.dtd"><svg t="1606877376182" class="icon" viewBox="0 0 1024 1024" version="1.1" xmlns="http://www.w3.org/2000/svg" p-id="4180" xmlns:xlink="http://www.w3.org/1999/xlink" width="200" height="200"><defs><style type="text/css"></style></defs><path d="M876.4 893.2c0 44.96-170.72 81.44-381.36 81.44s-381.28-36.48-381.28-81.44 168-78.56 378.64-78.56 384 33.36 384 78.56z" fill="#B8CBCD" p-id="4181"></path><path d="M616.8 626.56a256 256 0 0 1-183.44-72.8c-53.52-53.44-78.96-128-72-210.4a360 360 0 0 1 107.12-220.72c68.64-68.64 158.88-108 248-108a256.64 256.64 0 0 1 183.52 72.88c53.44 53.44 78.88 128 72 210.4a360 360 0 0 1-106.72 220.72C795.84 587.2 705.6 626.56 616.8 626.56zM716.08 62.64c-76.08 0-154 34.24-213.68 93.92a312 312 0 0 0-92.88 191.04C403.52 415.36 424 476.56 467.28 520a208.88 208.88 0 0 0 149.52 58.56c76.16 0 154-34.24 213.68-93.92a312 312 0 0 0 92.88-190.96c6-67.84-14.48-129.04-57.68-172.24a208.96 208.96 0 0 0-149.6-58.8z" fill="#3C663E" p-id="4182"></path><path d="M122 932.96c-20.24 20.24-50.16 22.96-67.04 6.08a45.44 45.44 0 0 1 1.76-65.28l152.72-152.72c20.16-20.16 54-24 70.8-7.28 16.88 16.88 14.16 46.8-6.08 67.04z" fill="#B2EDA6" p-id="4183"></path><path d="M82.96 974.08a63.12 63.12 0 0 1-44.96-18A69.52 69.52 0 0 1 40 856.8L192.48 704a86.08 86.08 0 0 1 59.44-24.8 63.52 63.52 0 0 1 45.36 17.52c26.08 26.16 23.36 71.44-6.16 100.96l-152 152a80.56 80.56 0 0 1-56.16 24.4z m168.96-246.8a37.52 37.52 0 0 0-25.52 10.72l-152.72 152.8a21.36 21.36 0 0 0-1.68 31.28 15.04 15.04 0 0 0 10.96 4 32.72 32.72 0 0 0 22.08-10.08l152-152c10.4-10.48 13.28-25.92 6.08-33.04a16 16 0 0 0-11.2-3.68z" fill="#3C663E" p-id="4184"></path><path d="M222 734.32a24 24 0 0 1-16.96-40.96c145.6-145.68 175.52-227.12 169.92-240a24 24 0 0 1 12.32-32 24 24 0 0 1 31.36 11.84C450.8 504 304 662.56 238.96 727.28a24 24 0 0 1-16.96 7.04zM283.36 795.6a24 24 0 0 1-17.04-40.96C347.36 673.6 493.12 542.08 558.64 571.68a24 24 0 1 1-19.76 43.76c-15.28-6.08-93.76 28.4-238.56 173.2a24 24 0 0 1-16.96 6.96z" fill="#3C663E" p-id="4185"></path><path d="M680.4 802.64m-124 0a124 124 0 1 0 248 0 124 124 0 1 0-248 0Z" fill="#B2EDA6" p-id="4186"></path><path d="M680.4 950.64a147.92 147.92 0 1 1 104.64-43.28 147.04 147.04 0 0 1-104.64 43.28z m0-248a100.08 100.08 0 1 0 70.72 29.36 99.12 99.12 0 0 0-70.72-29.36z" fill="#3C663E" p-id="4187"></path><path d="M589.76 818.4a112 112 0 0 1-37.76-6.56 16 16 0 0 1-10.64-14.48v-1.52a16 16 0 0 1 16-16 15.04 15.04 0 0 1 10.56 3.76 80.56 80.56 0 0 0 78.88-20.24 79.36 79.36 0 0 0 18.72-82.56A16 16 0 0 1 696 670.48a112 112 0 0 1-106.24 147.92zM689.68 940.08a16 16 0 0 1-15.44-12.08A112 112 0 0 1 816 792a16 16 0 1 1-9.6 30.48A80 80 0 0 0 705.12 920a16 16 0 0 1-15.44 20.16zM458.32 544.72a16 16 0 0 1-11.28-4.64 16 16 0 0 1 0-22.64l418.64-418.64a16 16 0 1 1 22.32 22.64L469.68 540.08a16 16 0 0 1-11.36 4.64zM407.44 471.2a16 16 0 0 1-11.28-27.36L780.8 59.2a16 16 0 0 1 22.64 22.64L418.72 466.48a16 16 0 0 1-11.28 4.72zM531.92 595.68A16 16 0 0 1 520.56 568l384.72-384a16 16 0 0 1 22.72 22.32L543.2 590.96a16 16 0 0 1-11.28 4.72zM379.12 375.04A16 16 0 0 1 368 347.68L684.64 30.96a16 16 0 1 1 22.64 22.56l-316.8 316.8a16 16 0 0 1-11.36 4.72zM628.08 624a16 16 0 0 1-11.36-27.28L933.52 280a16 16 0 0 1 22.64 22.64L639.36 619.2a16 16 0 0 1-11.28 4.8z" fill="#3C663E" p-id="4188"></path><path d="M843.04 510.8a16 16 0 0 1-11.36-4.72L480.96 155.36A16 16 0 1 1 504 132.72l350.72 350.72a16 16 0 0 1-11.28 27.36zM905.28 448.56a16 16 0 0 1-11.36-4.72L543.2 93.12a16 16 0 1 1 22.64-22.56l350.72 350.72a16 16 0 0 1 0 22.56 16 16 0 0 1-11.28 4.72zM780.8 573.04a16 16 0 0 1-11.36-5.04L418.72 217.6a16 16 0 0 1 22.64-22.64L792 545.68a16 16 0 0 1-11.28 27.36zM939.2 358.08a16 16 0 0 1-11.36-4.72L633.68 59.2A16 16 0 0 1 656 36.56l294.16 294.16a16 16 0 0 1-11.28 27.36zM690.32 606.96a16 16 0 0 1-11.36-4.72L384.8 308.08a16 16 0 1 1 22.64-22.56L701.6 579.68a16 16 0 0 1-11.28 27.28z" fill="#3C663E" p-id="4189"></path></svg>