<?xml version="1.0" standalone="no"?><!DOCTYPE svg PUBLIC "-//W3C//DTD SVG 1.1//EN" "http://www.w3.org/Graphics/SVG/1.1/DTD/svg11.dtd"><svg t="1606877406637" class="icon" viewBox="0 0 1024 1024" version="1.1" xmlns="http://www.w3.org/2000/svg" p-id="5675" xmlns:xlink="http://www.w3.org/1999/xlink" width="200" height="200"><defs><style type="text/css"></style></defs><path d="M905.44 923.44c0 44.96-170.72 81.52-381.36 81.52s-381.36-36.56-381.36-81.52 170.72-81.52 381.36-81.52 381.36 36.48 381.36 81.52z" fill="#B8CBCD" p-id="5676"></path><path d="M296 369.92c0-26.48 96.72-48 216-48s216 21.52 216 48l-72 168c0 17.68-64.48 32-144 32s-144-14.32-144-32z" fill="#F6E89A" p-id="5677"></path><path d="M512 585.92c-36.32 0-152-3.2-160-43.84L281.36 376a17.12 17.12 0 0 1-1.28-6.32c0-62.16 208-64 232-64s232 1.84 232 64a16 16 0 0 1-1.28 6.32L672 542.08c-8 40.64-123.6 43.84-160 43.84zM384 534.4c8.88 7.04 53.84 19.52 128.4 19.52s119.52-12.48 128-19.52a16 16 0 0 1 0.88-2.8l69.44-161.84c-13.28-12.4-84.72-32-198.72-32s-185.44 19.44-198.64 32l69.36 161.84a16 16 0 0 1 1.28 2.8z" fill="#8D4520" p-id="5678"></path><path d="M665.28 341.68c2.16-64-9.2-165.28-9.2-165.28a242.96 242.96 0 0 0-52.8 20.88A1522.24 1522.24 0 0 0 512 67.92s-153.36 192-153.36 276.64a153.36 153.36 0 1 0 306.72 0c0.08-0.56-0.08-1.92-0.08-2.88z" fill="#F7BB83" p-id="5679"></path><path d="M512 513.92a169.52 169.52 0 0 1-169.28-169.36c0-89.2 150.48-278.56 156.88-286.64a16.48 16.48 0 0 1 24.96 0c0.48 0.64 43.92 55.12 84.4 118.4a295.12 295.12 0 0 1 43.12-15.44A16 16 0 0 1 672 174.56c0.48 4.24 11.36 102.88 9.28 166.96v3.04A169.52 169.52 0 0 1 512 513.92z m0-419.92c-47.44 62-137.28 191.52-137.28 250.56a137.36 137.36 0 1 0 274.72 0v-3.44a1283.36 1283.36 0 0 0-7.12-144 176 176 0 0 0-30.72 13.6 16 16 0 0 1-21.76-5.36c-28.88-45.84-60.72-88.96-77.84-111.36z" fill="#8D4520" p-id="5680"></path><path d="M576 307.52a101.52 101.52 0 0 0-11.52-48.56S528 291.6 519.2 296.96c0-35.04-7.04-104-7.04-104s-64 80-64 115.76a64 64 0 1 0 128.4 0c-0.56-0.4-0.56-0.8-0.56-1.2z" fill="#F6E89A" p-id="5681"></path><path d="M512 388.96a80 80 0 0 1-80-80c0-39.04 56-112 67.68-125.76a16 16 0 0 1 28.4 8c0 2.08 4.08 39.6 6.08 73.28 6.56-5.6 13.6-11.84 20-17.52a16 16 0 0 1 24.56 4 118.48 118.48 0 0 1 13.6 56 8.72 8.72 0 0 1 0 1.44A80 80 0 0 1 512 388.96z m-12-152.56C481.12 264 464 294.48 464 308.72a48 48 0 1 0 96.4 0v-1.76a79.52 79.52 0 0 0-2.24-20.72 357.2 357.2 0 0 1-30.56 24.48 16 16 0 0 1-16 0 16 16 0 0 1-8-13.84c-0.4-16-1.92-39.84-3.6-60.48z" fill="#8D4520" p-id="5682"></path><path d="M368 537.92c0 17.68 64.48 32 144 32s144-14.32 144-32l72-168c0 26.48-96.72 48-216 48s-216-21.52-216-48z" fill="#F6E89A" p-id="5683"></path><path d="M512 585.92c-36.32 0-152-3.2-160-43.84l-65.84-154.72a28.96 28.96 0 0 1-6.16-17.44 16 16 0 0 1 30.72-6.32l2.72 6.4c15.28 13.44 86 32 198.56 32s183.28-18.48 198.56-32l2.72-6.4a16 16 0 0 1 30.72 6.32 28.96 28.96 0 0 1-6.08 17.44L672 542.08c-8 40.64-123.6 43.84-160 43.84zM384 534.4c8.88 7.04 53.84 19.52 128.4 19.52s119.52-12.48 128-19.52a16 16 0 0 1 0.88-2.8l50.8-118.48C646.24 427.36 576 433.92 512 433.92s-134.16-6.56-180.08-20.8l50.8 118.48a16 16 0 0 1 1.28 2.8z" fill="#8D4520" p-id="5684"></path><path d="M368 537.92c0 17.68 64.48 32 144 32s144-14.32 144-32l-80 392c0 13.28-4.32 24-64 24s-64-10.72-64-24z" fill="#F6E89A" p-id="5685"></path><path d="M512 969.92c-49.76 0-78.96-6.32-80-38.24l-78.8-386.48a25.12 25.12 0 0 1-1.12-7.28 16 16 0 0 1 32-3.52c8.88 7.04 53.84 19.52 128.4 19.52s119.52-12.48 128-19.52a16 16 0 0 1 32 3.52 25.12 25.12 0 0 1-1.12 7.28L592 931.68c-0.96 31.92-30.16 38.24-80 38.24z m-48-37.68c1.92 1.28 11.12 5.68 48 5.68s46-4.4 48-5.68v-2.32a14.48 14.48 0 0 1 0-3.2l72-354.64c-41.76 12.96-104 13.84-120.72 13.84s-78.96-0.88-120.72-13.84l72 354.64a14.48 14.48 0 0 1 0 3.2c1.44 1.2 1.44 1.92 1.44 2.32z" fill="#8D4520" p-id="5686"></path><path d="M510.72 617.92c-80 0-152-11.12-152-64h40c0-8.8-4.64-6.88-6.88-8.48 8 5.76 51.44 8.48 118.88 8.48s110.8-2.72 118.96-8.48c-2.24 1.6-6.96 0-6.96 8.48l42.8 3.68c0 52.88-74.48 60.32-154.8 60.32z" fill="#8D4520" opacity=".2" p-id="5687"></path><path d="M512 67.92a1522.24 1522.24 0 0 1 91.2 129.36 242.96 242.96 0 0 1 52.8-20.88 1528.64 1528.64 0 0 1 9.36 160C704 344.8 728 356.72 728 369.92a14.08 14.08 0 0 1-3.84 9.04L656 537.92l-80 392c0 13.28-4.32 24-64 24s-64-10.72-64-24l-80-392-68.08-158.96a14.08 14.08 0 0 1-3.92-9.04c0-13.2 24-25.2 63.2-33.92C368.56 248 512 67.92 512 67.92m0-32A32 32 0 0 0 487.12 48c-14.16 17.68-130 164.72-155.36 261.84-28.64 8-67.68 24.56-67.68 60.08a44.88 44.88 0 0 0 8 25.12l65.36 152.48L416 933.6c2.72 52.32 63.12 52.32 96 52.32s93.2 0 96-52.32l78.8-386.08L752 395.04a44.24 44.24 0 0 0 8-25.12c0-33.52-34.8-50.08-62.64-58.64C696.4 249.44 688 176 688 172.8a32 32 0 0 0-32-28.4 34.32 34.32 0 0 0-8 0.96 326.8 326.8 0 0 0-32.96 10.96C576.64 97.68 538.88 50.24 537.12 48A32 32 0 0 0 512 35.92z" fill="#8D4520" p-id="5688"></path></svg>