<?xml version="1.0" standalone="no"?><!DOCTYPE svg PUBLIC "-//W3C//DTD SVG 1.1//EN" "http://www.w3.org/Graphics/SVG/1.1/DTD/svg11.dtd"><svg t="1606877408926" class="icon" viewBox="0 0 1024 1024" version="1.1" xmlns="http://www.w3.org/2000/svg" p-id="5836" xmlns:xlink="http://www.w3.org/1999/xlink" width="200" height="200"><defs><style type="text/css"></style></defs><path d="M521.28 474.64a63.28 63.28 0 0 1-23.36-4.4 65.84 65.84 0 0 1-36.8-84.8c0-1.04 41.76-108.88 65.04-173.92a72 72 0 0 0 5.28-24c-4.48-2.56-19.76-9.2-57.84-9.2H294.88c-38.08 0-53.44 6.64-57.84 9.2a73.04 73.04 0 0 0 5.2 24c23.36 65.04 64.64 172.88 65.04 173.92a65.76 65.76 0 0 1-36.72 84.8 64 64 0 0 1-83.52-37.28c-1.68-4.48-42.24-110.32-66.08-176.72C96 185.68 112 139.28 130.48 112.72c30.32-43.84 86.48-62.08 166.72-62.08h173.52c80 0 136.96 18.24 167.28 62.08C656 139.28 672.8 185.68 647.44 256c-24 66.4-64 172.24-66 176.72a64.56 64.56 0 0 1-60.16 41.92z" fill="#B9E3ED" p-id="5837"></path><path d="M247.2 490.64a81.12 81.12 0 0 1-75.12-52c-1.68-4.48-42.16-110-66.16-176.96-27.6-77.04-9.04-128 11.36-158 32-46.48 90.96-69.04 179.92-69.04h173.52C560 34.64 619.12 57.2 651.12 104c20.48 29.52 38.96 80.96 11.44 158-24 66.8-64.48 172.48-66.24 176.96a81.04 81.04 0 0 1-75.04 52 80 80 0 0 1-29.28-5.52 81.84 81.84 0 0 1-45.76-105.36c0-1.04 41.68-108.8 64.88-173.6 1.12-3.12 1.92-5.76 2.56-8a175.52 175.52 0 0 0-40-3.68H294.88a174.4 174.4 0 0 0-40 3.68c0.64 2.24 1.44 4.88 2.56 8 23.2 64.8 64.48 172.56 64.88 173.6a81.92 81.92 0 0 1-45.84 105.36 79.52 79.52 0 0 1-29.28 5.2z m50-424c-78.8 0-127.6 17.52-153.52 55.2-16 23.44-30.64 64.8-7.6 129.04 24 66.64 64 171.84 65.92 176a48 48 0 0 0 45.2 31.44 48.96 48.96 0 0 0 17.52-3.28 49.84 49.84 0 0 0 27.68-64c0-1.04-41.84-109.12-65.2-174.24a87.04 87.04 0 0 1-6.16-29.52 16 16 0 0 1 8-13.6c7.36-4.24 25.76-11.36 65.84-11.36H473.6c40 0 58.4 7.12 65.76 11.36a16 16 0 0 1 8 13.6 87.04 87.04 0 0 1-6.16 29.52c-23.36 65.12-64.8 173.2-65.2 174.24a49.84 49.84 0 0 0 27.68 64 48 48 0 0 0 62.72-28.16c1.68-4.48 42.08-109.84 65.92-176 23.04-64 8.56-105.6-8-129.04-25.6-37.12-76-55.2-154.08-55.2z" fill="#324654" p-id="5838"></path><path d="M911.12 876.16c0 45.04-168 78.48-378.72 78.48s-384-33.44-384-78.48 170.72-81.52 381.36-81.52 381.36 36.48 381.36 81.52z" fill="#B8CBCD" p-id="5839"></path><path d="M373.2 566m-287.28 0a287.28 287.28 0 1 0 574.56 0 287.28 287.28 0 1 0-574.56 0Z" fill="#B9E3ED" p-id="5840"></path><path d="M386.96 859.44a303.28 303.28 0 1 1 303.28-303.28 304 304 0 0 1-303.28 303.28z m0-574.56a271.28 271.28 0 1 0 271.28 271.28 272 272 0 0 0-271.28-271.28z" fill="#324654" p-id="5841"></path><path d="M208 801.2a24 24 0 0 1-16.96-7.04 308.24 308.24 0 0 1-0.72-437.84 302.8 302.8 0 0 1 432.96-0.64 24 24 0 1 1-33.92 33.92 255.36 255.36 0 0 0-365.36 0.72A260.16 260.16 0 0 0 224.56 760a24 24 0 0 1-16.56 41.2z" fill="#FFFFFF" p-id="5842"></path><path d="M386.96 867.44A312 312 0 0 1 75.68 556.16c0-72.48 21.68-144 58.4-195.04-14.64-38.96-25.84-69.2-35.68-96.8-28.72-80-9.12-134.08 12.32-165.2 33.68-48.72 94.64-72.48 186.48-72.48h173.52c92.16 0 153.36 24 186.96 72.48 21.52 31.12 41.12 84.88 12.4 165.28-9.2 25.44-21.68 59.36-37.36 100.88a311.12 311.12 0 0 1-245.76 502.16zM297.2 74.64c-75.92 0-122.64 16.48-146.96 51.76-15.12 21.84-28.48 60.72-6.24 121.6 10.8 30.16 23.2 64 40 108.48a24 24 0 0 1-3.92 24c-35.12 42.96-56 108.64-56 176A263.28 263.28 0 1 0 587.2 385.36a24 24 0 0 1-4.24-24c17.84-47.2 32-85.28 41.92-113.12 21.84-61.04 8.48-99.92-6.64-121.76-24-34.8-72-51.76-147.52-51.76z m-27.84 234.48a24 24 0 0 1-9.36-1.92 24 24 0 0 1-13.12-13.68c-11.2-29.92-19.12-51.28-27.2-73.92a91.92 91.92 0 0 1-6.64-32 24 24 0 0 1 12-20.4c9.92-5.68 27.6-12.24 67.36-12.24h184c40 0 57.12 6.56 66.96 12.24a24 24 0 0 1 12.08 20.4 93.92 93.92 0 0 1-6.64 32c-8 23.36-16 44-26.24 71.44a24 24 0 0 1-32 13.76A291.92 291.92 0 0 0 384 286.64a261.04 261.04 0 0 0-105.28 20.48 25.52 25.52 0 0 1-9.36 2z m-4.16-104.8c5.68 16 11.36 31.36 18.16 49.76A320.4 320.4 0 0 1 384 238.64a364.16 364.16 0 0 1 101.52 13.6c6.32-16.88 11.68-32 17.52-48a205.6 205.6 0 0 0-29.68-1.84H294.88a205.6 205.6 0 0 0-29.68 1.92z" fill="#324654" p-id="5843"></path><path d="M386.96 859.44a303.28 303.28 0 1 1 303.28-303.28 304 304 0 0 1-303.28 303.28z m0-574.56a271.28 271.28 0 1 0 271.28 271.28 272 272 0 0 0-271.28-271.28z" fill="#324654" p-id="5844"></path><path d="M353.84 852.08a275.92 275.92 0 0 1-196.88-83.68 24 24 0 0 1 33.92-33.92c98.16 98.16 248 90.8 356.16-17.36 109.84-109.84 119.28-253.84 23.04-350.16a24 24 0 1 1 33.92-33.92c116.24 116.32 106.8 288-23.04 418-67.12 67.12-148.16 101.04-227.12 101.04z" fill="#324654" opacity=".2" p-id="5845"></path><path d="M404.4 690.64a16 16 0 0 1-16-16v-48h-80a16 16 0 0 1-13.52-24.48l96-152a16 16 0 0 1 29.52 8.48v136h32a16 16 0 0 1 0 32h-32v48a16 16 0 0 1-16 16z m-66.96-96h50.96V514z" fill="#324654" p-id="5846"></path><path d="M665.12 640.48A50.96 50.96 0 0 1 617.68 608c-1.28-3.28-31.28-80-48.88-128.88-19.2-52.8-6.56-88 7.44-107.52 23.04-32.96 64-48.96 124.16-48.96h132.24c60.48 0 101.12 16 124.16 48.96 14 19.92 26.64 54.72 7.44 107.52-17.6 48.48-48 125.6-48.88 128.88a50.88 50.88 0 1 1-94.88-36.88c0-0.8 30.8-79.36 48-126.8a59.44 59.44 0 0 0 3.6-14.4 169.84 169.84 0 0 0-43.76-3.28h-128c-24 0-35.2 1.36-39.52 3.28a59.44 59.44 0 0 0 3.6 14.4c17.28 47.44 48 126 48 126.8a50.88 50.88 0 0 1-28.96 65.92 51.76 51.76 0 0 1-18.32 3.44z" fill="#B2EDA6" p-id="5847"></path><path d="M867.92 656.48a66.16 66.16 0 0 1-24-4.56 67.04 67.04 0 0 1-38.16-86.64c0-0.72 28.96-74.56 46.4-122.08-5.6 0-13.28-0.56-23.52-0.56h-128c-8 0-14.56 0-19.28 0.4C696 484.8 720 546.32 727.28 564.64a67.2 67.2 0 0 1-37.92 87.28 66.8 66.8 0 0 1-86.56-38.08c-3.28-8.48-32-82.56-49.04-129.28-21.52-59.2-6.8-99.12 9.36-122.16 26.24-37.52 71.2-56 137.28-56h132.24c66.08 0 111.04 18.24 137.28 56 16 23.04 30.88 62.96 9.36 122.16-18 49.36-48.72 128.48-49.04 129.28a66.48 66.48 0 0 1-62.32 42.64zM700.4 410.64h128c40 0 47.36 3.36 50.24 4.64a16 16 0 0 1 9.44 16 73.36 73.36 0 0 1-4.48 18.56c-17.36 47.52-48 126.24-48 127.04a34.96 34.96 0 0 0 32.56 48 34.56 34.56 0 0 0 32.48-22.24c0-0.8 30.96-79.52 48.8-128.56 16.8-46.32 6.32-76.08-5.52-92.96-19.84-28.32-56-42.08-111.04-42.08H700.4c-54.88 0-91.2 13.76-111.04 42.08-11.84 16.88-22.32 46.64-5.52 92.96s45.52 120 48.72 128.4a34.88 34.88 0 1 0 65.12-25.2c-8-19.68-32.96-85.12-48-127.04a72 72 0 0 1-4.48-18.56 16 16 0 0 1 9.44-16c5.2-2.8 14.48-5.04 45.76-5.04z" fill="#3C663E" p-id="5848"></path><path d="M964.72 707.76a198.88 198.88 0 1 1-198.88-198.8 198.88 198.88 0 0 1 198.88 198.8z" fill="#B2EDA6" p-id="5849"></path><path d="M765.84 922.64a214.88 214.88 0 1 1 214.88-214.88 215.04 215.04 0 0 1-214.88 214.88z m0-397.68a182.88 182.88 0 1 0 182.88 182.8 183.04 183.04 0 0 0-182.88-182.8z" fill="#3C663E" p-id="5850"></path><path d="M911.12 572c53.6 96 48 175.2-30.08 252.8a198.8 198.8 0 0 1-281.2 0" fill="#B2EDA6" p-id="5851"></path><path d="M740.48 899.12a213.76 213.76 0 0 1-152-62.96 16 16 0 1 1 22.64-22.64 182.8 182.8 0 0 0 258.64 0c70.16-70.16 78.64-142.24 27.36-233.68a16 16 0 1 1 27.92-16c58.64 104.64 48 191.12-32.64 272a213.6 213.6 0 0 1-151.92 63.28z" fill="#3C663E" opacity=".2" p-id="5852"></path><path d="M650.64 883.68a16 16 0 0 1-11.28-4.72 214.8 214.8 0 0 1 0-304 211.04 211.04 0 0 1 148-64h1.68A206.32 206.32 0 0 1 936 573.52a16 16 0 0 1-22.56 22.56 174.72 174.72 0 0 0-125.44-52.72 180.16 180.16 0 0 0-125.68 54.32 182.96 182.96 0 0 0 0 258.64 16 16 0 0 1-11.28 27.36z" fill="#FFFFFF" p-id="5853"></path><path d="M810.56 810.64H721.12a16 16 0 0 1-16-16c0-25.28 22.16-45.6 45.68-67.12 18.32-16.72 39.04-35.76 39.04-50.48a26 26 0 0 0-26.4-26.4c-11.6 0-31.04 4.08-31.04 31.12a16 16 0 0 1-32 0c0-43.6 32-63.12 63.04-63.12a57.84 57.84 0 0 1 58.4 58.4c0 28.8-25.12 51.84-49.44 74.08a277.92 277.92 0 0 0-27.44 27.52h65.6a16 16 0 0 1 0 32z" fill="#3C663E" p-id="5854"></path><path d="M765.84 930.64c-125.04 0-226.8-99.92-226.8-222.88a259.52 259.52 0 0 1 40-136c-2.16-5.6-4.48-11.52-6.96-17.6-8-20.96-17.68-44.72-25.76-66.96-22.72-62.48-6.88-104.96 10.32-129.6 27.84-40 74.96-59.12 144-59.12h132.24c68.88 0 116 19.36 144 59.12 17.2 24.64 33.04 67.12 10.32 129.6-8.64 23.6-19.12 51.68-32 85.36a261.68 261.68 0 0 1 36 135.04 224 224 0 0 1-225.36 223.04z m-65.44-584c-52.08 0-86.32 12.72-104.48 38.72-15.36 21.92-16.96 51.44-4.56 85.6 8 21.6 17.12 45.04 25.28 65.68 4.24 10.72 8 20.88 11.84 30.08a24 24 0 0 1-3.52 23.36 206 206 0 0 0-37.92 117.68c0 94.8 81.92 174.88 178.8 174.88a176 176 0 0 0 176.88-174.88c0-44.24-13.36-90.32-34-117.2a24 24 0 0 1-3.36-23.28c14.96-38.72 26.8-70.24 36.32-96 12.4-34.16 10.8-64-4.56-85.6-18.16-26-52.4-38.72-104.48-38.72z m141.52 192.64a24 24 0 0 1-8.8-1.68 186.64 186.64 0 0 0-67.28-10.56A187.92 187.92 0 0 0 699.28 536a24 24 0 0 1-18.4 0 24.48 24.48 0 0 1-12.72-13.36c-11.2-29.2-18.72-49.44-26.24-69.92a81.28 81.28 0 0 1-4.96-20.72 24 24 0 0 1 14.16-24c7.2-3.2 18.32-5.36 49.28-5.36h128c41.52 0 49.6 3.6 53.52 5.36a24 24 0 0 1 14.08 24 81.28 81.28 0 0 1-4.96 20.64c-8 20.72-16 42.08-26.72 71.28a24 24 0 0 1-12.8 13.36 24 24 0 0 1-9.6 2z m-76.08-60.24a270.16 270.16 0 0 1 61.68 6.64c4.88-12.88 9.12-24 13.04-34.88H692.4c3.84 10.4 8 21.36 12.72 33.92a286.4 286.4 0 0 1 60.72-5.68z" fill="#3C663E" p-id="5855"></path><path d="M765.84 922.64a214.88 214.88 0 1 1 214.88-214.88 215.04 215.04 0 0 1-214.88 214.88z m0-397.68a182.88 182.88 0 1 0 182.88 182.8 183.04 183.04 0 0 0-182.88-182.8z" fill="#3C663E" p-id="5856"></path></svg>