<?xml version="1.0" standalone="no"?><!DOCTYPE svg PUBLIC "-//W3C//DTD SVG 1.1//EN" "http://www.w3.org/Graphics/SVG/1.1/DTD/svg11.dtd"><svg t="1606877671910" class="icon" viewBox="0 0 1024 1024" version="1.1" xmlns="http://www.w3.org/2000/svg" p-id="9563" xmlns:xlink="http://www.w3.org/1999/xlink" width="200" height="200"><defs><style type="text/css"></style></defs><path d="M272.9 721h383.4l121.9-11.7 73.9-37.5 41-76.2v-82.1l-61-78.5s-28.7-26.5-50.7-29.1L770 327.6l-50.1-88.8-75.6-44-90.6-15-94.1 33.4s-91.5 49.3-70.4 119.6l-67.7-34.3-85.3 6.2-67.7 52.8-29.9 70.4v48.4s-2.6 43.2 38.7 43.2l-70.4 27.2L77 595.8l5.3 51 26.4 41.3 57.2 26.4 107 6.5z" fill="#B4D6F2" p-id="9564"></path><path d="M893.2 592.7v-82.1l-61-78.5s-28.7-26.5-50.7-29.1L770 324.8 719.9 236l-75.6-44-28-4.6h-91.6s227.9 43.5 226.9 260.3c0 0 195.1 4.5 85.9 213.6l14.6 7.7 41.1-76.3z" fill="#64A9D8" p-id="9565"></path><path d="M135.9 484c7.8 0 14.1-6.3 14.1-14.1 0-0.9-0.1-1.7-0.2-2.6-1.6-8.5-2.3-17.1-2.3-25.7 0-77.6 63.2-140.8 140.8-140.8 38.5-0.1 75.4 15.7 101.9 43.7 5.6 5.4 14.6 5.1 19.9-0.5 5-5.3 5.2-13.4 0.5-18.9-31.8-33.6-76-52.6-122.3-52.4-93.2 0-169 75.8-169 169 0 10.4 0.9 20.8 2.8 30.8 1.2 6.7 7.2 11.5 13.8 11.5M406 275.6c36.8-54.7 97.8-87.4 163.3-87.4 108.7 0 197.1 88.4 197.1 197.1 0 17.9-2.4 35.5-7.1 52.6-2.1 7.5 2.3 15.2 9.8 17.3 7.5 2.1 15.2-2.3 17.3-9.8 5.4-19.5 8.1-39.7 8.1-60.1 0-124.2-101.1-225.3-225.3-225.3-74.9 0-144.7 37.3-186.6 99.9-4.3 6.5-2.6 15.2 3.8 19.5 6.6 4.3 15.3 2.6 19.6-3.8M217.3 695h-41.7c-46.6 0-84.5-37.9-84.5-84.5S129 526 175.6 526c7.8 0 14.1-6.3 14.1-14.1s-6.3-14.1-14.1-14.1C113.5 497.8 63 548.3 63 610.4S113.6 723 175.6 723h41.7c7.8 0 14.1-6.3 14.1-14.1 0-7.5-6.3-13.9-14.1-13.9M712 751.4H360c-7.8 0-14.1 6.3-14.1 14.1s6.3 14.1 14.1 14.1h352c15.5 0 28.2 12.6 28.2 28.2s-12.7 28.2-28.3 28.1c-7.4 0-14.5-3-19.8-8.2-5.4-5.6-14.3-5.8-19.9-0.3s-5.8 14.3-0.3 19.9l0.3 0.3C682.7 858.1 697 864 712 864c31.1 0 56.3-25.3 56.3-56.3 0-31.1-25.3-56.3-56.3-56.3M874.8 695h-70.4c-7.8 0-14.1 6.3-14.1 14.1s6.3 14.1 14.1 14.1h70.4c31.1 0 56.3 25.3 56.3 56.3s-25.3 56.3-56.3 56.3c-15.1 0-29.6-6-40.2-16.9-5.6-5.4-14.5-5.2-19.9 0.4-5.2 5.4-5.2 13.8-0.2 19.3 15.8 16.3 37.6 25.4 60.3 25.3 46.6 0 84.5-37.9 84.5-84.5-0.1-46.5-38-84.4-84.5-84.4M879.1 554.2c0.1 35.9-13.7 70.5-38.4 96.6-5.3 5.7-4.9 14.6 0.8 19.9 5.6 5.2 14.4 4.9 19.7-0.6 29.6-31.3 46.1-72.8 46.1-115.9 0-54.8-26.8-106.4-71.6-138.1-6.4-4.5-15.1-3-19.6 3.4-4.5 6.4-3 15.1 3.4 19.6 37.3 26.5 59.5 69.4 59.6 115.1M738.3 624.6c0-54.4-44.2-98.6-98.6-98.6-54.3 0-98.6 44.2-98.6 98.6 0 7.8 6.3 14.1 14.1 14.1s14.1-6.3 14.1-14.1c0-38.8 31.6-70.4 70.4-70.4 38.8 0 70.4 31.6 70.4 70.4 0 38.8-31.6 70.4-70.4 70.4H273.6c-7.8 0-14.1 6.3-14.1 14.1s6.3 14.1 14.1 14.1h366.1c54.3 0 98.6-44.2 98.6-98.6" fill="#231F1F" p-id="9566"></path><path d="M692 289c-6.5 4.2-8.4 13-4.1 19.5 14.9 22.8 22.8 49.5 22.7 76.8 0 7.8 6.3 14.1 14.1 14.1s14.1-6.3 14.1-14.1c0-32.7-9.4-64.7-27.3-92.2-4.3-6.5-13-8.3-19.5-4.1m-468.2 60.2c-20.9 14.6-36.2 35.8-43.6 60.2-2 7.5 2.4 15.2 9.9 17.3 7.2 1.9 14.7-2.1 17-9.2 5.5-18.3 17-34.2 32.7-45.2 6.3-4.6 7.7-13.4 3.1-19.7-4.3-6.1-12.8-7.6-19.1-3.4" fill="#231F1F" p-id="9567"></path><path d="M237.6 536.1a24 11.4 0 1 0 48 0 24 11.4 0 1 0-48 0Z" fill="#FEE9C4" p-id="9568"></path><path d="M484.6 536.1a24 11.4 0 1 0 48 0 24 11.4 0 1 0-48 0Z" fill="#FEE9C4" p-id="9569"></path><path d="M313.7 409.4c5.6 5.2 10.2 11.5 13.5 18.6 3.2 7 5.1 14.8 5.4 22.6 0.4 7.8-0.9 15.8-3.6 23.3s-6.9 14.5-12.3 20.4c-5.4 6-12.5 10.8-20.2 13.6-7.8 2.8-16.3 3.8-24.6 2.6-8.3-1.1-16.4-4.4-23.2-9.3-0.8-0.6-1.7-1.3-2.5-1.9-0.4-0.3-0.8-0.7-1.2-1l-1.2-1.1c-0.8-0.7-1.5-1.5-2.3-2.3-0.7-0.8-1.5-1.6-2.1-2.5-0.7-0.8-1.3-1.7-2-2.6-0.6-0.9-1.2-1.8-1.8-2.8-1.1-1.9-2.1-3.9-2.9-5.9-1.6-4.1-2.6-8.5-2.9-12.9-0.1-2.2-0.2-4.4 0-6.7 0.2-2.2 0.5-4.4 1-6.6 1-4.4 2.6-8.6 4.9-12.5 0.6-1 1.2-1.9 1.8-2.9 0.7-0.9 1.3-1.8 2-2.7 0.7-0.9 1.5-1.7 2.2-2.6l2.5-2.5c3.6-3.1 7.8-5.6 12.3-7.1 4.5-1.6 9.3-2.2 14.1-1.9 4.8 0.3 9.5 1.5 13.8 3.6 2.2 1.1 4.2 2.3 6.1 3.8l1.4 1.1c0.5 0.4 0.9 0.8 1.3 1.2 0.9 0.8 1.7 1.6 2.5 2.6l1.2 1.4 1.1 1.5c0.7 1 1.3 2.1 1.9 3.2 0.3 0.5 0.6 1.1 0.8 1.7l0.7 1.7 0.6 1.8c0.2 0.6 0.4 1.2 0.5 1.8 0.3 1.2 0.5 2.4 0.6 3.6 0.1 0.6 0.1 1.2 0.2 1.8v2.7c0 0.3 0 0.6-0.1 0.9l-0.2 1.8-0.3 1.8-0.2 0.9c0 0.3-0.1 0.6-0.2 0.9-1.2 4.7-3.5 9.1-6.7 12.7-0.4 0.4-0.8 0.9-1.2 1.3l-0.6 0.6c-0.2 0.2-0.4 0.4-0.7 0.6l-1.4 1.2c-0.5 0.4-1 0.7-1.5 1.1l-0.8 0.5c-0.3 0.2-0.5 0.3-0.8 0.4-0.6 0.3-1.1 0.6-1.6 0.8l-1.7 0.7c-0.6 0.2-1.2 0.4-1.7 0.5-2.3 0.6-4.8 1-7.2 0.8h-0.9l-0.9-0.1c-0.6-0.1-1.2-0.1-1.8-0.2-0.6-0.1-1.2-0.2-1.7-0.4l-1.7-0.5c-0.6-0.2-1.1-0.4-1.6-0.6-0.5-0.2-1.1-0.5-1.6-0.8l-1.5-0.9c-0.5-0.3-1-0.7-1.4-1-0.5-0.3-0.9-0.7-1.3-1.1-0.4-0.4-0.9-0.7-1.2-1.2l-1.2-1.2c-0.4-0.5-0.7-0.9-1.1-1.4-1.3-1.9-2.3-4-2.8-6.2s-0.6-4.5-0.3-6.6c0.3-2.1 1-4.2 2.1-6 1.1-1.8 2.5-3.4 4.1-4.5l1.1 1.1c-2.1 3-3 6.4-2.7 9.7 0.3 3.2 1.8 6.1 3.9 8.1 0.3 0.2 0.6 0.5 0.8 0.7l0.9 0.7c0.3 0.2 0.6 0.4 1 0.6 0.3 0.2 0.6 0.4 1 0.5 0.3 0.2 0.7 0.3 1 0.4 0.3 0.1 0.7 0.2 1 0.3 0.3 0.1 0.7 0.2 1.1 0.3 0.4 0.1 0.7 0.2 1.1 0.2 2.8 0.4 5.7 0 8.1-1.1 0.3-0.2 0.6-0.3 0.9-0.4 0.3-0.2 0.6-0.3 0.9-0.5 0.3-0.2 0.5-0.4 0.8-0.6 0.1-0.1 0.3-0.2 0.4-0.3l0.4-0.3 0.4-0.3c0.1-0.1 0.3-0.2 0.4-0.3 0.2-0.2 0.4-0.5 0.7-0.7 0.1-0.1 0.2-0.3 0.3-0.4l0.3-0.4c0.2-0.3 0.4-0.5 0.6-0.8 1.5-2.3 2.5-4.9 2.9-7.6 0.4-2.7 0.1-5.4-0.8-7.8l-0.3-0.9-0.4-0.9-0.5-0.8c-0.2-0.3-0.3-0.6-0.5-0.8-0.4-0.5-0.7-1.1-1.1-1.6l-0.6-0.7-0.7-0.7c-0.4-0.5-1-0.9-1.5-1.4-0.3-0.2-0.5-0.4-0.8-0.6l-0.8-0.6c-1.1-0.8-2.3-1.5-3.6-2-2.5-1.1-5.2-1.8-7.9-2-2.7-0.2-5.5 0.1-8.1 0.9-2.6 0.8-5.1 2-7.4 3.7-0.6 0.4-1.1 0.9-1.6 1.4-0.5 0.5-1.1 1-1.6 1.6-0.5 0.5-1 1.1-1.5 1.7-0.5 0.6-0.9 1.2-1.3 1.8-0.9 1.2-1.6 2.6-2.3 3.9-0.6 1.4-1.2 2.8-1.7 4.3-0.4 1.5-0.8 3-1 4.5-0.2 1.5-0.3 3.1-0.3 4.6 0.1 3.1 0.6 6.2 1.6 9.2 0.5 1.5 1.1 2.9 1.8 4.3 0.3 0.7 0.8 1.4 1.2 2.1 0.4 0.7 0.8 1.3 1.3 2 0.5 0.6 1 1.3 1.5 1.9 0.5 0.6 1 1.2 1.6 1.8l0.9 0.9c0.3 0.3 0.6 0.6 0.9 0.8 0.6 0.6 1.2 1.1 1.9 1.6 5.2 4.1 11.4 7 18 8.2 6.6 1.3 13.5 1 20-1 3.3-1 6.4-2.4 9.3-4.1 3-1.7 5.7-3.9 8.2-6.3 5.1-4.9 9.2-10.8 12-17.3 2.9-6.5 4.4-13.7 4.6-20.9 0.4-14.5-5-29.2-15.2-40.1l1.5-1.2zM513.5 409.4c5.6 5.2 10.2 11.5 13.5 18.6 3.2 7 5.1 14.8 5.4 22.6 0.4 7.8-0.9 15.8-3.6 23.3s-6.9 14.5-12.3 20.4c-5.4 6-12.5 10.8-20.2 13.6-7.8 2.8-16.3 3.8-24.6 2.6-8.3-1.1-16.4-4.4-23.2-9.3-0.8-0.6-1.7-1.3-2.5-1.9-0.4-0.3-0.8-0.7-1.2-1l-1.2-1.1c-0.8-0.7-1.5-1.5-2.3-2.3-0.7-0.8-1.5-1.6-2.1-2.5-0.7-0.8-1.3-1.7-2-2.6-0.6-0.9-1.2-1.8-1.8-2.8-1.1-1.9-2.1-3.9-2.9-5.9-1.6-4.1-2.6-8.5-2.9-12.9-0.1-2.2-0.2-4.4 0-6.7 0.2-2.2 0.5-4.4 1-6.6 1-4.4 2.6-8.6 4.9-12.5 0.6-1 1.2-1.9 1.8-2.9 0.7-0.9 1.3-1.8 2-2.7 0.7-0.9 1.5-1.7 2.2-2.6l2.5-2.5c3.6-3.1 7.8-5.6 12.3-7.1 4.5-1.6 9.3-2.2 14.1-1.9 4.8 0.3 9.5 1.5 13.8 3.6 2.2 1.1 4.2 2.3 6.1 3.8l1.4 1.1c0.5 0.4 0.9 0.8 1.3 1.2 0.9 0.8 1.7 1.6 2.5 2.6l1.2 1.4 1.1 1.5c0.7 1 1.3 2.1 1.9 3.2 0.3 0.5 0.6 1.1 0.8 1.7l0.7 1.7 0.6 1.8c0.2 0.6 0.4 1.2 0.5 1.8 0.3 1.2 0.5 2.4 0.6 3.6 0.1 0.6 0.1 1.2 0.2 1.8v2.7c0 0.3 0 0.6-0.1 0.9l-0.2 1.8-0.3 1.8-0.2 0.9c0 0.3-0.1 0.6-0.2 0.9-1.2 4.7-3.5 9.1-6.7 12.7-0.4 0.4-0.8 0.9-1.2 1.3l-0.6 0.6c-0.2 0.2-0.4 0.4-0.7 0.6l-1.4 1.2c-0.5 0.4-1 0.7-1.5 1.1l-0.8 0.5c-0.3 0.2-0.5 0.3-0.8 0.4-0.6 0.3-1.1 0.6-1.6 0.8l-1.7 0.7c-0.6 0.2-1.2 0.4-1.7 0.5-2.3 0.6-4.8 1-7.2 0.8h-0.9l-0.9-0.1c-0.6-0.1-1.2-0.1-1.8-0.2-0.6-0.1-1.2-0.2-1.7-0.4l-1.7-0.5c-0.6-0.2-1.1-0.4-1.6-0.6-0.5-0.2-1.1-0.5-1.6-0.8l-1.5-0.9c-0.5-0.3-1-0.7-1.4-1-0.5-0.3-0.9-0.7-1.3-1.1-0.4-0.4-0.9-0.7-1.2-1.2l-1.2-1.2c-0.4-0.5-0.7-0.9-1.1-1.4-1.3-1.9-2.3-4-2.8-6.2s-0.6-4.5-0.3-6.6c0.3-2.1 1-4.2 2.1-6 1.1-1.8 2.5-3.4 4.1-4.5l1.1 1.1c-2.1 3-3 6.4-2.7 9.7 0.3 3.2 1.8 6.1 3.9 8.1 0.3 0.2 0.6 0.5 0.8 0.7l0.9 0.7c0.3 0.2 0.6 0.4 1 0.6 0.3 0.2 0.6 0.4 1 0.5 0.3 0.2 0.7 0.3 1 0.4 0.3 0.1 0.7 0.2 1 0.3 0.3 0.1 0.7 0.2 1.1 0.3 0.4 0.1 0.7 0.2 1.1 0.2 2.8 0.4 5.7 0 8.1-1.1 0.3-0.2 0.6-0.3 0.9-0.4 0.3-0.2 0.6-0.3 0.9-0.5 0.3-0.2 0.5-0.4 0.8-0.6 0.1-0.1 0.3-0.2 0.4-0.3l0.4-0.3 0.4-0.3c0.1-0.1 0.3-0.2 0.4-0.3 0.2-0.2 0.4-0.5 0.7-0.7 0.1-0.1 0.2-0.3 0.3-0.4l0.3-0.4c0.2-0.3 0.4-0.5 0.6-0.8 1.5-2.3 2.5-4.9 2.9-7.6 0.4-2.7 0.1-5.4-0.8-7.8l-0.3-0.9-0.4-0.9-0.5-0.8c-0.2-0.3-0.3-0.6-0.5-0.8-0.4-0.5-0.7-1.1-1.1-1.6l-0.6-0.7-0.7-0.7c-0.4-0.5-1-0.9-1.5-1.4-0.3-0.2-0.5-0.4-0.8-0.6l-0.5-0.7c-1.1-0.8-2.3-1.5-3.6-2-2.5-1.1-5.2-1.8-7.9-2-2.7-0.2-5.5 0.1-8.1 0.9-2.6 0.8-5.1 2-7.4 3.7-0.6 0.4-1.1 0.9-1.6 1.4-0.5 0.5-1.1 1-1.6 1.6-0.5 0.5-1 1.1-1.5 1.7-0.5 0.6-0.9 1.2-1.3 1.8-0.9 1.2-1.6 2.6-2.3 3.9-0.6 1.4-1.2 2.8-1.7 4.3-0.4 1.5-0.8 3-1 4.5-0.2 1.5-0.3 3.1-0.3 4.6 0.1 3.1 0.6 6.2 1.6 9.2 0.5 1.5 1.1 2.9 1.8 4.3 0.3 0.7 0.8 1.4 1.2 2.1 0.4 0.7 0.8 1.3 1.3 2 0.5 0.6 1 1.3 1.5 1.9 0.5 0.6 1 1.2 1.6 1.8l0.9 0.9c0.3 0.3 0.6 0.6 0.9 0.8 0.6 0.6 1.2 1.1 1.9 1.6 5.2 4.1 11.4 7 18 8.2 6.6 1.3 13.5 1 20-1 3.3-1 6.4-2.4 9.3-4.1 3-1.7 5.7-3.9 8.2-6.3 5.1-4.9 9.2-10.8 12-17.3 2.9-6.5 4.4-13.7 4.6-20.9 0.4-14.5-5-29.2-15.2-40.1l1.2-1.1zM370.4 633.7c-11.1 0-23.1-1.8-34.6-7.1-31.8-14.4-50.9-1.2-51.7-0.6-2.9 2.1-6.9 1.4-9-1.4-2.1-2.9-1.5-6.9 1.4-9 1-0.8 25.7-18.4 64.7-0.7 31.8 14.5 69.2-2.1 72-3.3 3.5-1.9 36-18.7 70.7 0.1 3.1 1.7 4.3 5.6 2.6 8.8-1.7 3.1-5.6 4.3-8.8 2.6-29.6-16-57.2-0.7-58.4-0.1l-0.4 0.2c-1.3 0.5-22.7 10.5-48.5 10.5z" fill="#231F1F" p-id="9570"></path></svg>